<svg width="1500" height="670" viewBox="0 0 1500 670" fill="none" xmlns="http://www.w3.org/2000/svg">
<g clip-path="url(#clip0_1_138)">
<rect width="1500" height="670" fill="#DADCF0"/>
<rect x="1065" width="539" height="670" fill="url(#paint0_linear_1_138)"/>
<rect x="166" y="717.833" width="1411.97" height="277.221" transform="rotate(-15.7318 166 717.833)" fill="#B1B8DF"/>
<g opacity="0.9" filter="url(#filter0_d_1_138)">
<path d="M151.386 286L138.25 239.455H147.318L155.705 273.659H156.136L165.091 239.455H173.341L182.318 273.682H182.727L191.114 239.455H200.182L187.045 286H178.727L169.409 253.341H169.045L159.705 286H151.386ZM217.33 286.682C213.92 286.682 210.966 285.932 208.466 284.432C205.966 282.932 204.027 280.833 202.648 278.136C201.284 275.439 200.602 272.288 200.602 268.682C200.602 265.076 201.284 261.917 202.648 259.205C204.027 256.492 205.966 254.386 208.466 252.886C210.966 251.386 213.92 250.636 217.33 250.636C220.739 250.636 223.693 251.386 226.193 252.886C228.693 254.386 230.625 256.492 231.989 259.205C233.367 261.917 234.057 265.076 234.057 268.682C234.057 272.288 233.367 275.439 231.989 278.136C230.625 280.833 228.693 282.932 226.193 284.432C223.693 285.932 220.739 286.682 217.33 286.682ZM217.375 280.091C219.223 280.091 220.769 279.583 222.011 278.568C223.254 277.538 224.178 276.159 224.784 274.432C225.405 272.705 225.716 270.78 225.716 268.659C225.716 266.523 225.405 264.591 224.784 262.864C224.178 261.121 223.254 259.735 222.011 258.705C220.769 257.674 219.223 257.159 217.375 257.159C215.481 257.159 213.905 257.674 212.648 258.705C211.405 259.735 210.473 261.121 209.852 262.864C209.246 264.591 208.943 266.523 208.943 268.659C208.943 270.78 209.246 272.705 209.852 274.432C210.473 276.159 211.405 277.538 212.648 278.568C213.905 279.583 215.481 280.091 217.375 280.091ZM241.04 286V251.091H249.017V256.909H249.381C250.017 254.894 251.108 253.341 252.653 252.25C254.214 251.144 255.994 250.591 257.994 250.591C258.449 250.591 258.956 250.614 259.517 250.659C260.093 250.689 260.57 250.742 260.949 250.818V258.386C260.6 258.265 260.047 258.159 259.29 258.068C258.547 257.962 257.828 257.909 257.131 257.909C255.631 257.909 254.282 258.235 253.085 258.886C251.903 259.523 250.972 260.409 250.29 261.545C249.608 262.682 249.267 263.992 249.267 265.477V286H241.04ZM273.915 275.045L273.892 265.114H275.21L287.756 251.091H297.369L281.938 268.273H280.233L273.915 275.045ZM266.415 286V239.455H274.642V286H266.415ZM288.324 286L276.96 270.114L282.506 264.318L298.165 286H288.324ZM336.409 251.091V257.455H315.773V251.091H336.409ZM320.932 286V247.795C320.932 245.447 321.417 243.492 322.386 241.932C323.371 240.371 324.689 239.205 326.341 238.432C327.992 237.659 329.826 237.273 331.841 237.273C333.265 237.273 334.53 237.386 335.636 237.614C336.742 237.841 337.561 238.045 338.091 238.227L336.455 244.591C336.106 244.485 335.667 244.379 335.136 244.273C334.606 244.152 334.015 244.091 333.364 244.091C331.833 244.091 330.75 244.462 330.114 245.205C329.492 245.932 329.182 246.977 329.182 248.341V286H320.932ZM342.852 286V251.091H350.83V256.909H351.193C351.83 254.894 352.92 253.341 354.466 252.25C356.027 251.144 357.807 250.591 359.807 250.591C360.261 250.591 360.769 250.614 361.33 250.659C361.905 250.689 362.383 250.742 362.761 250.818V258.386C362.413 258.265 361.86 258.159 361.102 258.068C360.36 257.962 359.64 257.909 358.943 257.909C357.443 257.909 356.095 258.235 354.898 258.886C353.716 259.523 352.784 260.409 352.102 261.545C351.42 262.682 351.08 263.992 351.08 265.477V286H342.852ZM382.017 286.682C378.608 286.682 375.653 285.932 373.153 284.432C370.653 282.932 368.714 280.833 367.335 278.136C365.972 275.439 365.29 272.288 365.29 268.682C365.29 265.076 365.972 261.917 367.335 259.205C368.714 256.492 370.653 254.386 373.153 252.886C375.653 251.386 378.608 250.636 382.017 250.636C385.426 250.636 388.381 251.386 390.881 252.886C393.381 254.386 395.313 256.492 396.676 259.205C398.055 261.917 398.744 265.076 398.744 268.682C398.744 272.288 398.055 275.439 396.676 278.136C395.313 280.833 393.381 282.932 390.881 284.432C388.381 285.932 385.426 286.682 382.017 286.682ZM382.062 280.091C383.911 280.091 385.456 279.583 386.699 278.568C387.941 277.538 388.866 276.159 389.472 274.432C390.093 272.705 390.403 270.78 390.403 268.659C390.403 266.523 390.093 264.591 389.472 262.864C388.866 261.121 387.941 259.735 386.699 258.705C385.456 257.674 383.911 257.159 382.062 257.159C380.169 257.159 378.593 257.674 377.335 258.705C376.093 259.735 375.161 261.121 374.54 262.864C373.934 264.591 373.631 266.523 373.631 268.659C373.631 270.78 373.934 272.705 374.54 274.432C375.161 276.159 376.093 277.538 377.335 278.568C378.593 279.583 380.169 280.091 382.062 280.091ZM405.727 286V251.091H413.591V257.023H414C414.727 255.023 415.932 253.462 417.614 252.341C419.295 251.205 421.303 250.636 423.636 250.636C426 250.636 427.992 251.212 429.614 252.364C431.25 253.5 432.402 255.053 433.068 257.023H433.432C434.205 255.083 435.508 253.538 437.341 252.386C439.189 251.22 441.379 250.636 443.909 250.636C447.121 250.636 449.742 251.652 451.773 253.682C453.803 255.712 454.818 258.674 454.818 262.568V286H446.568V263.841C446.568 261.674 445.992 260.091 444.841 259.091C443.689 258.076 442.28 257.568 440.614 257.568C438.629 257.568 437.076 258.189 435.955 259.432C434.848 260.659 434.295 262.258 434.295 264.227V286H426.227V263.5C426.227 261.697 425.682 260.258 424.591 259.182C423.515 258.106 422.106 257.568 420.364 257.568C419.182 257.568 418.106 257.871 417.136 258.477C416.167 259.068 415.394 259.909 414.818 261C414.242 262.076 413.955 263.333 413.955 264.773V286H405.727ZM144.659 363H135.659L159.773 316.455H170.182L178.864 363H169.864L163.614 326H163.25L144.659 363ZM147.977 344.75H172.523L171.386 351.523H146.841L147.977 344.75ZM196.267 342.545L192.903 363H184.653L190.472 328.091H198.358L197.358 334.023H197.79C198.881 332.068 200.411 330.515 202.381 329.364C204.35 328.212 206.646 327.636 209.267 327.636C211.646 327.636 213.646 328.152 215.267 329.182C216.888 330.197 218.04 331.689 218.722 333.659C219.403 335.614 219.509 337.985 219.04 340.773L215.312 363H207.085L210.562 342.045C210.956 339.727 210.661 337.909 209.676 336.591C208.706 335.258 207.146 334.591 204.994 334.591C203.555 334.591 202.229 334.909 201.017 335.545C199.805 336.167 198.782 337.068 197.949 338.25C197.131 339.432 196.57 340.864 196.267 342.545ZM225.358 376.091C224.237 376.091 223.214 376 222.29 375.818C221.381 375.652 220.661 375.455 220.131 375.227L223.131 368.818C224.267 369.167 225.29 369.318 226.199 369.273C227.123 369.242 227.972 368.932 228.744 368.341C229.532 367.765 230.305 366.818 231.062 365.5L232.108 363.614L225.426 328.091H233.835L237.472 354.5H237.835L250.312 328.091H259.381L238.949 367.182C237.964 369.076 236.82 370.682 235.517 372C234.214 373.333 232.722 374.348 231.04 375.045C229.373 375.742 227.479 376.091 225.358 376.091ZM266.46 363L262.415 328.091H270.801L272.847 352.636H273.165L283.528 328.091H291.824L294.006 352.5H294.347L304.483 328.091H312.892L297.188 363H288.619L285.983 339.409H285.506L275.051 363H266.46ZM324.455 342.545L321.091 363H312.841L320.568 316.455H328.636L325.727 334.023H326.159C327.265 332.038 328.773 330.477 330.682 329.341C332.606 328.205 334.917 327.636 337.614 327.636C340.008 327.636 342.023 328.144 343.659 329.159C345.295 330.174 346.447 331.659 347.114 333.614C347.795 335.568 347.909 337.955 347.455 340.773L343.727 363H335.477L338.977 342.045C339.356 339.697 339.045 337.871 338.045 336.568C337.061 335.25 335.5 334.591 333.364 334.591C331.894 334.591 330.538 334.909 329.295 335.545C328.053 336.167 327.008 337.068 326.159 338.25C325.326 339.432 324.758 340.864 324.455 342.545ZM367.432 363.682C363.932 363.682 361.038 362.955 358.75 361.5C356.462 360.03 354.856 357.955 353.932 355.273C353.023 352.576 352.871 349.402 353.477 345.75C354.068 342.159 355.273 339.008 357.091 336.295C358.909 333.568 361.182 331.447 363.909 329.932C366.652 328.402 369.682 327.636 373 327.636C375.152 327.636 377.129 327.985 378.932 328.682C380.735 329.364 382.258 330.424 383.5 331.864C384.742 333.303 385.598 335.136 386.068 337.364C386.538 339.576 386.515 342.212 386 345.273L385.614 347.795H356.977L357.864 342.25H378.591C378.864 340.674 378.773 339.273 378.318 338.045C377.864 336.803 377.106 335.826 376.045 335.114C374.985 334.402 373.659 334.045 372.068 334.045C370.447 334.045 368.932 334.462 367.523 335.295C366.129 336.114 364.955 337.174 364 338.477C363.045 339.78 362.439 341.152 362.182 342.591L361.25 347.909C360.917 350.091 360.992 351.871 361.477 353.25C361.962 354.629 362.811 355.644 364.023 356.295C365.235 356.947 366.765 357.273 368.614 357.273C369.826 357.273 370.947 357.106 371.977 356.773C373.008 356.439 373.924 355.939 374.727 355.273C375.545 354.591 376.227 353.758 376.773 352.773L384.295 353.636C383.462 355.667 382.242 357.439 380.636 358.955C379.03 360.455 377.106 361.621 374.864 362.455C372.636 363.273 370.159 363.682 367.432 363.682ZM390.068 363L395.886 328.091H403.864L402.886 333.909H403.25C404.205 331.894 405.553 330.341 407.295 329.25C409.053 328.144 410.932 327.591 412.932 327.591C413.402 327.591 413.909 327.614 414.455 327.659C415 327.689 415.47 327.742 415.864 327.818L414.591 335.386C414.242 335.265 413.697 335.159 412.955 335.068C412.227 334.962 411.508 334.909 410.795 334.909C409.295 334.909 407.902 335.235 406.614 335.886C405.341 336.523 404.265 337.409 403.386 338.545C402.508 339.682 401.939 340.992 401.682 342.477L398.295 363H390.068ZM429.432 363.682C425.932 363.682 423.038 362.955 420.75 361.5C418.462 360.03 416.856 357.955 415.932 355.273C415.023 352.576 414.871 349.402 415.477 345.75C416.068 342.159 417.273 339.008 419.091 336.295C420.909 333.568 423.182 331.447 425.909 329.932C428.652 328.402 431.682 327.636 435 327.636C437.152 327.636 439.129 327.985 440.932 328.682C442.735 329.364 444.258 330.424 445.5 331.864C446.742 333.303 447.598 335.136 448.068 337.364C448.538 339.576 448.515 342.212 448 345.273L447.614 347.795H418.977L419.864 342.25H440.591C440.864 340.674 440.773 339.273 440.318 338.045C439.864 336.803 439.106 335.826 438.045 335.114C436.985 334.402 435.659 334.045 434.068 334.045C432.447 334.045 430.932 334.462 429.523 335.295C428.129 336.114 426.955 337.174 426 338.477C425.045 339.78 424.439 341.152 424.182 342.591L423.25 347.909C422.917 350.091 422.992 351.871 423.477 353.25C423.962 354.629 424.811 355.644 426.023 356.295C427.235 356.947 428.765 357.273 430.614 357.273C431.826 357.273 432.947 357.106 433.977 356.773C435.008 356.439 435.924 355.939 436.727 355.273C437.545 354.591 438.227 353.758 438.773 352.773L446.295 353.636C445.462 355.667 444.242 357.439 442.636 358.955C441.03 360.455 439.106 361.621 436.864 362.455C434.636 363.273 432.159 363.682 429.432 363.682Z" fill="#131C83" fill-opacity="0.83" shape-rendering="crispEdges"/>
</g>
<path opacity="0.7" d="M140.963 410H137.588L143.733 392.545H147.636L153.79 410H150.415L145.753 396.125H145.616L140.963 410ZM141.074 403.156H150.278V405.696H141.074V403.156ZM159.038 392.545V410H155.952V392.545H159.038ZM165.295 392.545V410H162.21V392.545H165.295ZM176.339 414.909C175.918 414.909 175.529 414.875 175.171 414.807C174.819 414.744 174.538 414.67 174.327 414.585L175.043 412.182C175.492 412.313 175.893 412.375 176.245 412.369C176.597 412.364 176.907 412.253 177.174 412.037C177.447 411.827 177.677 411.474 177.864 410.98L178.129 410.273L173.381 396.909H176.654L179.671 406.795H179.808L182.833 396.909H186.114L180.873 411.585C180.629 412.278 180.305 412.872 179.901 413.366C179.498 413.866 179.004 414.247 178.418 414.509C177.839 414.776 177.146 414.909 176.339 414.909ZM193.514 410.256C192.236 410.256 191.128 409.974 190.19 409.412C189.253 408.849 188.526 408.062 188.009 407.051C187.497 406.04 187.241 404.858 187.241 403.506C187.241 402.153 187.497 400.969 188.009 399.952C188.526 398.935 189.253 398.145 190.19 397.582C191.128 397.02 192.236 396.739 193.514 396.739C194.793 396.739 195.901 397.02 196.838 397.582C197.776 398.145 198.5 398.935 199.011 399.952C199.528 400.969 199.787 402.153 199.787 403.506C199.787 404.858 199.528 406.04 199.011 407.051C198.5 408.062 197.776 408.849 196.838 409.412C195.901 409.974 194.793 410.256 193.514 410.256ZM193.531 407.784C194.224 407.784 194.804 407.594 195.27 407.213C195.736 406.827 196.082 406.31 196.31 405.662C196.543 405.014 196.659 404.293 196.659 403.497C196.659 402.696 196.543 401.972 196.31 401.324C196.082 400.67 195.736 400.151 195.27 399.764C194.804 399.378 194.224 399.185 193.531 399.185C192.821 399.185 192.23 399.378 191.759 399.764C191.293 400.151 190.943 400.67 190.71 401.324C190.483 401.972 190.369 402.696 190.369 403.497C190.369 404.293 190.483 405.014 190.71 405.662C190.943 406.31 191.293 406.827 191.759 407.213C192.23 407.594 192.821 407.784 193.531 407.784ZM210.749 404.494V396.909H213.835V410H210.843V407.673H210.707C210.411 408.406 209.925 409.006 209.249 409.472C208.579 409.937 207.752 410.17 206.769 410.17C205.911 410.17 205.153 409.98 204.494 409.599C203.84 409.213 203.329 408.653 202.96 407.92C202.59 407.182 202.406 406.29 202.406 405.244V396.909H205.491V404.767C205.491 405.597 205.718 406.256 206.173 406.744C206.627 407.233 207.224 407.477 207.962 407.477C208.417 407.477 208.857 407.366 209.283 407.145C209.71 406.923 210.059 406.594 210.332 406.156C210.61 405.713 210.749 405.159 210.749 404.494ZM226.045 402.33V410H222.96V396.909H225.909V399.134H226.062C226.364 398.401 226.844 397.818 227.503 397.386C228.168 396.955 228.989 396.739 229.966 396.739C230.869 396.739 231.656 396.932 232.327 397.318C233.003 397.705 233.526 398.264 233.895 398.997C234.27 399.73 234.455 400.619 234.449 401.665V410H231.364V402.142C231.364 401.267 231.136 400.582 230.682 400.088C230.233 399.594 229.611 399.347 228.815 399.347C228.276 399.347 227.795 399.466 227.375 399.705C226.96 399.937 226.634 400.276 226.395 400.719C226.162 401.162 226.045 401.699 226.045 402.33ZM243.381 410.256C242.068 410.256 240.935 409.983 239.98 409.438C239.031 408.886 238.301 408.108 237.79 407.102C237.278 406.091 237.023 404.901 237.023 403.531C237.023 402.185 237.278 401.003 237.79 399.986C238.307 398.963 239.028 398.168 239.955 397.599C240.881 397.026 241.969 396.739 243.219 396.739C244.026 396.739 244.787 396.869 245.503 397.131C246.224 397.386 246.861 397.784 247.412 398.324C247.969 398.864 248.406 399.551 248.724 400.386C249.043 401.216 249.202 402.205 249.202 403.352V404.298H238.472V402.219H246.244C246.239 401.628 246.111 401.102 245.861 400.642C245.611 400.176 245.261 399.81 244.812 399.543C244.369 399.276 243.852 399.142 243.261 399.142C242.631 399.142 242.077 399.295 241.599 399.602C241.122 399.903 240.75 400.301 240.483 400.795C240.222 401.284 240.088 401.821 240.082 402.406V404.222C240.082 404.983 240.222 405.636 240.5 406.182C240.778 406.722 241.168 407.136 241.668 407.426C242.168 407.71 242.753 407.852 243.423 407.852C243.872 407.852 244.278 407.79 244.642 407.665C245.006 407.534 245.321 407.344 245.588 407.094C245.855 406.844 246.057 406.534 246.193 406.165L249.074 406.489C248.892 407.25 248.545 407.915 248.034 408.483C247.528 409.045 246.881 409.483 246.091 409.795C245.301 410.102 244.398 410.256 243.381 410.256ZM257.607 410.256C256.295 410.256 255.161 409.983 254.207 409.438C253.258 408.886 252.528 408.108 252.016 407.102C251.505 406.091 251.249 404.901 251.249 403.531C251.249 402.185 251.505 401.003 252.016 399.986C252.533 398.963 253.255 398.168 254.181 397.599C255.107 397.026 256.195 396.739 257.445 396.739C258.252 396.739 259.013 396.869 259.729 397.131C260.451 397.386 261.087 397.784 261.638 398.324C262.195 398.864 262.633 399.551 262.951 400.386C263.269 401.216 263.428 402.205 263.428 403.352V404.298H252.698V402.219H260.471C260.465 401.628 260.337 401.102 260.087 400.642C259.837 400.176 259.488 399.81 259.039 399.543C258.596 399.276 258.079 399.142 257.488 399.142C256.857 399.142 256.303 399.295 255.826 399.602C255.349 399.903 254.977 400.301 254.71 400.795C254.448 401.284 254.315 401.821 254.309 402.406V404.222C254.309 404.983 254.448 405.636 254.727 406.182C255.005 406.722 255.394 407.136 255.894 407.426C256.394 407.71 256.979 407.852 257.65 407.852C258.099 407.852 258.505 407.79 258.869 407.665C259.232 407.534 259.548 407.344 259.815 407.094C260.082 406.844 260.283 406.534 260.42 406.165L263.3 406.489C263.119 407.25 262.772 407.915 262.261 408.483C261.755 409.045 261.107 409.483 260.317 409.795C259.528 410.102 258.624 410.256 257.607 410.256ZM270.896 410.23C269.868 410.23 268.947 409.966 268.135 409.438C267.322 408.909 266.68 408.142 266.209 407.136C265.737 406.131 265.501 404.909 265.501 403.472C265.501 402.017 265.74 400.79 266.217 399.79C266.7 398.784 267.351 398.026 268.169 397.514C268.987 396.997 269.899 396.739 270.905 396.739C271.672 396.739 272.303 396.869 272.797 397.131C273.291 397.386 273.683 397.696 273.973 398.06C274.263 398.418 274.487 398.756 274.646 399.074H274.774V392.545H277.868V410H274.834V407.938H274.646C274.487 408.256 274.257 408.594 273.956 408.952C273.655 409.304 273.257 409.605 272.763 409.855C272.268 410.105 271.646 410.23 270.896 410.23ZM271.757 407.699C272.411 407.699 272.967 407.523 273.428 407.17C273.888 406.812 274.237 406.315 274.476 405.679C274.714 405.043 274.834 404.301 274.834 403.455C274.834 402.608 274.714 401.872 274.476 401.247C274.243 400.622 273.896 400.136 273.436 399.79C272.982 399.443 272.422 399.27 271.757 399.27C271.07 399.27 270.496 399.449 270.036 399.807C269.575 400.165 269.229 400.659 268.996 401.29C268.763 401.92 268.646 402.642 268.646 403.455C268.646 404.273 268.763 405.003 268.996 405.645C269.234 406.281 269.584 406.784 270.044 407.153C270.51 407.517 271.081 407.699 271.757 407.699ZM287.109 410V396.909H290.194V410H287.109ZM288.66 395.051C288.171 395.051 287.751 394.889 287.398 394.565C287.046 394.236 286.87 393.841 286.87 393.381C286.87 392.915 287.046 392.52 287.398 392.196C287.751 391.866 288.171 391.702 288.66 391.702C289.154 391.702 289.575 391.866 289.921 392.196C290.273 392.52 290.45 392.915 290.45 393.381C290.45 393.841 290.273 394.236 289.921 394.565C289.575 394.889 289.154 395.051 288.66 395.051ZM303.713 400.369L300.901 400.676C300.821 400.392 300.682 400.125 300.483 399.875C300.29 399.625 300.028 399.423 299.699 399.27C299.369 399.116 298.966 399.04 298.489 399.04C297.847 399.04 297.307 399.179 296.869 399.457C296.438 399.736 296.224 400.097 296.23 400.54C296.224 400.92 296.364 401.23 296.648 401.469C296.938 401.707 297.415 401.903 298.08 402.057L300.312 402.534C301.551 402.801 302.472 403.224 303.074 403.804C303.682 404.384 303.989 405.142 303.994 406.08C303.989 406.903 303.747 407.631 303.27 408.261C302.798 408.886 302.142 409.375 301.301 409.727C300.46 410.08 299.494 410.256 298.403 410.256C296.801 410.256 295.511 409.92 294.534 409.25C293.557 408.574 292.974 407.634 292.787 406.429L295.795 406.139C295.932 406.73 296.222 407.176 296.665 407.477C297.108 407.778 297.685 407.929 298.395 407.929C299.128 407.929 299.716 407.778 300.159 407.477C300.608 407.176 300.832 406.804 300.832 406.361C300.832 405.986 300.688 405.676 300.398 405.432C300.114 405.187 299.67 405 299.068 404.869L296.835 404.401C295.58 404.139 294.651 403.699 294.048 403.08C293.446 402.455 293.148 401.665 293.153 400.71C293.148 399.903 293.366 399.205 293.81 398.614C294.259 398.017 294.881 397.557 295.676 397.233C296.477 396.903 297.401 396.739 298.446 396.739C299.98 396.739 301.188 397.065 302.068 397.719C302.955 398.372 303.503 399.256 303.713 400.369ZM316.259 410.264C315.429 410.264 314.682 410.116 314.017 409.821C313.358 409.52 312.835 409.077 312.449 408.491C312.068 407.906 311.878 407.185 311.878 406.327C311.878 405.588 312.014 404.977 312.287 404.494C312.56 404.011 312.932 403.625 313.403 403.335C313.875 403.045 314.406 402.827 314.997 402.679C315.594 402.526 316.21 402.415 316.847 402.347C317.614 402.267 318.236 402.196 318.713 402.134C319.19 402.065 319.537 401.963 319.753 401.827C319.974 401.685 320.085 401.466 320.085 401.17V401.119C320.085 400.477 319.895 399.98 319.514 399.628C319.134 399.276 318.585 399.099 317.869 399.099C317.114 399.099 316.514 399.264 316.071 399.594C315.634 399.923 315.338 400.312 315.185 400.761L312.304 400.352C312.531 399.557 312.906 398.892 313.429 398.358C313.952 397.818 314.591 397.415 315.347 397.148C316.102 396.875 316.938 396.739 317.852 396.739C318.483 396.739 319.111 396.812 319.736 396.96C320.361 397.108 320.932 397.352 321.449 397.693C321.966 398.028 322.381 398.486 322.693 399.065C323.011 399.645 323.17 400.369 323.17 401.239V410H320.205V408.202H320.102C319.915 408.565 319.651 408.906 319.31 409.224C318.974 409.537 318.551 409.79 318.04 409.983C317.534 410.17 316.94 410.264 316.259 410.264ZM317.06 407.997C317.679 407.997 318.216 407.875 318.67 407.631C319.125 407.381 319.474 407.051 319.719 406.642C319.969 406.233 320.094 405.787 320.094 405.304V403.761C319.997 403.841 319.832 403.915 319.599 403.983C319.372 404.051 319.116 404.111 318.832 404.162C318.548 404.213 318.267 404.259 317.989 404.298C317.71 404.338 317.469 404.372 317.264 404.401C316.804 404.463 316.392 404.565 316.028 404.707C315.665 404.849 315.378 405.048 315.168 405.304C314.957 405.554 314.852 405.878 314.852 406.276C314.852 406.844 315.06 407.273 315.474 407.562C315.889 407.852 316.418 407.997 317.06 407.997ZM337.084 410.23C336.055 410.23 335.135 409.966 334.322 409.438C333.51 408.909 332.868 408.142 332.396 407.136C331.925 406.131 331.689 404.909 331.689 403.472C331.689 402.017 331.928 400.79 332.405 399.79C332.888 398.784 333.538 398.026 334.357 397.514C335.175 396.997 336.087 396.739 337.092 396.739C337.859 396.739 338.49 396.869 338.984 397.131C339.479 397.386 339.871 397.696 340.161 398.06C340.45 398.418 340.675 398.756 340.834 399.074H340.962V392.545H344.055V410H341.021V407.938H340.834C340.675 408.256 340.445 408.594 340.143 408.952C339.842 409.304 339.445 409.605 338.95 409.855C338.456 410.105 337.834 410.23 337.084 410.23ZM337.945 407.699C338.598 407.699 339.155 407.523 339.615 407.17C340.075 406.812 340.425 406.315 340.663 405.679C340.902 405.043 341.021 404.301 341.021 403.455C341.021 402.608 340.902 401.872 340.663 401.247C340.43 400.622 340.084 400.136 339.624 399.79C339.169 399.443 338.609 399.27 337.945 399.27C337.257 399.27 336.683 399.449 336.223 399.807C335.763 400.165 335.416 400.659 335.183 401.29C334.95 401.92 334.834 402.642 334.834 403.455C334.834 404.273 334.95 405.003 335.183 405.645C335.422 406.281 335.771 406.784 336.232 407.153C336.697 407.517 337.268 407.699 337.945 407.699ZM353.138 410.256C351.826 410.256 350.692 409.983 349.738 409.438C348.789 408.886 348.059 408.108 347.548 407.102C347.036 406.091 346.781 404.901 346.781 403.531C346.781 402.185 347.036 401.003 347.548 399.986C348.065 398.963 348.786 398.168 349.712 397.599C350.638 397.026 351.727 396.739 352.977 396.739C353.783 396.739 354.545 396.869 355.261 397.131C355.982 397.386 356.619 397.784 357.17 398.324C357.727 398.864 358.164 399.551 358.482 400.386C358.8 401.216 358.96 402.205 358.96 403.352V404.298H348.229V402.219H356.002C355.996 401.628 355.869 401.102 355.619 400.642C355.369 400.176 355.019 399.81 354.57 399.543C354.127 399.276 353.61 399.142 353.019 399.142C352.388 399.142 351.835 399.295 351.357 399.602C350.88 399.903 350.508 400.301 350.241 400.795C349.979 401.284 349.846 401.821 349.84 402.406V404.222C349.84 404.983 349.979 405.636 350.258 406.182C350.536 406.722 350.925 407.136 351.425 407.426C351.925 407.71 352.511 407.852 353.181 407.852C353.63 407.852 354.036 407.79 354.4 407.665C354.763 407.534 355.079 407.344 355.346 407.094C355.613 406.844 355.815 406.534 355.951 406.165L358.832 406.489C358.65 407.25 358.303 407.915 357.792 408.483C357.286 409.045 356.638 409.483 355.849 409.795C355.059 410.102 354.156 410.256 353.138 410.256ZM372.888 396.909L368.226 410H364.817L360.155 396.909H363.445L366.453 406.634H366.589L369.607 396.909H372.888ZM375.023 410V396.909H378.108V410H375.023ZM376.574 395.051C376.085 395.051 375.665 394.889 375.312 394.565C374.96 394.236 374.784 393.841 374.784 393.381C374.784 392.915 374.96 392.52 375.312 392.196C375.665 391.866 376.085 391.702 376.574 391.702C377.068 391.702 377.489 391.866 377.835 392.196C378.188 392.52 378.364 392.915 378.364 393.381C378.364 393.841 378.188 394.236 377.835 394.565C377.489 394.889 377.068 395.051 376.574 395.051ZM386.991 410.256C385.684 410.256 384.562 409.969 383.624 409.395C382.692 408.821 381.974 408.028 381.468 407.017C380.968 406 380.718 404.83 380.718 403.506C380.718 402.176 380.974 401.003 381.485 399.986C381.996 398.963 382.718 398.168 383.65 397.599C384.587 397.026 385.695 396.739 386.974 396.739C388.036 396.739 388.977 396.935 389.795 397.327C390.619 397.713 391.275 398.261 391.763 398.972C392.252 399.676 392.531 400.5 392.599 401.443H389.65C389.531 400.812 389.246 400.287 388.798 399.866C388.354 399.44 387.761 399.227 387.016 399.227C386.386 399.227 385.832 399.398 385.354 399.739C384.877 400.074 384.505 400.557 384.238 401.188C383.977 401.818 383.846 402.574 383.846 403.455C383.846 404.347 383.977 405.114 384.238 405.756C384.499 406.392 384.866 406.884 385.337 407.23C385.815 407.571 386.374 407.741 387.016 407.741C387.471 407.741 387.877 407.656 388.235 407.486C388.599 407.31 388.903 407.057 389.147 406.727C389.391 406.398 389.559 405.997 389.65 405.526H392.599C392.525 406.452 392.252 407.273 391.781 407.989C391.309 408.699 390.667 409.256 389.854 409.659C389.042 410.057 388.087 410.256 386.991 410.256ZM400.928 410.256C399.615 410.256 398.482 409.983 397.527 409.438C396.578 408.886 395.848 408.108 395.337 407.102C394.825 406.091 394.57 404.901 394.57 403.531C394.57 402.185 394.825 401.003 395.337 399.986C395.854 398.963 396.575 398.168 397.501 397.599C398.428 397.026 399.516 396.739 400.766 396.739C401.572 396.739 402.334 396.869 403.05 397.131C403.771 397.386 404.408 397.784 404.959 398.324C405.516 398.864 405.953 399.551 406.271 400.386C406.589 401.216 406.749 402.205 406.749 403.352V404.298H396.018V402.219H403.791C403.786 401.628 403.658 401.102 403.408 400.642C403.158 400.176 402.808 399.81 402.359 399.543C401.916 399.276 401.399 399.142 400.808 399.142C400.178 399.142 399.624 399.295 399.146 399.602C398.669 399.903 398.297 400.301 398.03 400.795C397.768 401.284 397.635 401.821 397.629 402.406V404.222C397.629 404.983 397.768 405.636 398.047 406.182C398.325 406.722 398.714 407.136 399.214 407.426C399.714 407.71 400.3 407.852 400.97 407.852C401.419 407.852 401.825 407.79 402.189 407.665C402.553 407.534 402.868 407.344 403.135 407.094C403.402 406.844 403.604 406.534 403.74 406.165L406.621 406.489C406.439 407.25 406.092 407.915 405.581 408.483C405.075 409.045 404.428 409.483 403.638 409.795C402.848 410.102 401.945 410.256 400.928 410.256ZM419.079 410.264C418.249 410.264 417.502 410.116 416.837 409.821C416.178 409.52 415.656 409.077 415.269 408.491C414.888 407.906 414.698 407.185 414.698 406.327C414.698 405.588 414.835 404.977 415.107 404.494C415.38 404.011 415.752 403.625 416.224 403.335C416.695 403.045 417.227 402.827 417.817 402.679C418.414 402.526 419.031 402.415 419.667 402.347C420.434 402.267 421.056 402.196 421.533 402.134C422.011 402.065 422.357 401.963 422.573 401.827C422.795 401.685 422.906 401.466 422.906 401.17V401.119C422.906 400.477 422.715 399.98 422.335 399.628C421.954 399.276 421.406 399.099 420.69 399.099C419.934 399.099 419.335 399.264 418.891 399.594C418.454 399.923 418.158 400.312 418.005 400.761L415.124 400.352C415.352 399.557 415.727 398.892 416.249 398.358C416.772 397.818 417.411 397.415 418.167 397.148C418.923 396.875 419.758 396.739 420.673 396.739C421.303 396.739 421.931 396.812 422.556 396.96C423.181 397.108 423.752 397.352 424.269 397.693C424.786 398.028 425.201 398.486 425.513 399.065C425.832 399.645 425.991 400.369 425.991 401.239V410H423.025V408.202H422.923C422.735 408.565 422.471 408.906 422.13 409.224C421.795 409.537 421.371 409.79 420.86 409.983C420.354 410.17 419.761 410.264 419.079 410.264ZM419.88 407.997C420.499 407.997 421.036 407.875 421.491 407.631C421.945 407.381 422.295 407.051 422.539 406.642C422.789 406.233 422.914 405.787 422.914 405.304V403.761C422.817 403.841 422.653 403.915 422.42 403.983C422.192 404.051 421.937 404.111 421.653 404.162C421.369 404.213 421.087 404.259 420.809 404.298C420.531 404.338 420.289 404.372 420.085 404.401C419.624 404.463 419.212 404.565 418.849 404.707C418.485 404.849 418.198 405.048 417.988 405.304C417.778 405.554 417.673 405.878 417.673 406.276C417.673 406.844 417.88 407.273 418.295 407.562C418.71 407.852 419.238 407.997 419.88 407.997ZM432.178 402.33V410H429.093V396.909H432.042V399.134H432.195C432.496 398.401 432.977 397.818 433.636 397.386C434.3 396.955 435.121 396.739 436.099 396.739C437.002 396.739 437.789 396.932 438.46 397.318C439.136 397.705 439.658 398.264 440.028 398.997C440.403 399.73 440.587 400.619 440.582 401.665V410H437.496V402.142C437.496 401.267 437.269 400.582 436.815 400.088C436.366 399.594 435.744 399.347 434.948 399.347C434.408 399.347 433.928 399.466 433.508 399.705C433.093 399.937 432.766 400.276 432.528 400.719C432.295 401.162 432.178 401.699 432.178 402.33ZM448.576 410.23C447.548 410.23 446.627 409.966 445.815 409.438C445.002 408.909 444.36 408.142 443.888 407.136C443.417 406.131 443.181 404.909 443.181 403.472C443.181 402.017 443.42 400.79 443.897 399.79C444.38 398.784 445.031 398.026 445.849 397.514C446.667 396.997 447.579 396.739 448.585 396.739C449.352 396.739 449.982 396.869 450.477 397.131C450.971 397.386 451.363 397.696 451.653 398.06C451.942 398.418 452.167 398.756 452.326 399.074H452.454V392.545H455.548V410H452.513V407.938H452.326C452.167 408.256 451.937 408.594 451.636 408.952C451.335 409.304 450.937 409.605 450.442 409.855C449.948 410.105 449.326 410.23 448.576 410.23ZM449.437 407.699C450.09 407.699 450.647 407.523 451.107 407.17C451.567 406.812 451.917 406.315 452.156 405.679C452.394 405.043 452.513 404.301 452.513 403.455C452.513 402.608 452.394 401.872 452.156 401.247C451.923 400.622 451.576 400.136 451.116 399.79C450.661 399.443 450.102 399.27 449.437 399.27C448.749 399.27 448.175 399.449 447.715 399.807C447.255 400.165 446.908 400.659 446.675 401.29C446.442 401.92 446.326 402.642 446.326 403.455C446.326 404.273 446.442 405.003 446.675 405.645C446.914 406.281 447.263 406.784 447.724 407.153C448.19 407.517 448.761 407.699 449.437 407.699ZM468.555 410.264C467.726 410.264 466.979 410.116 466.314 409.821C465.655 409.52 465.132 409.077 464.746 408.491C464.365 407.906 464.175 407.185 464.175 406.327C464.175 405.588 464.311 404.977 464.584 404.494C464.857 404.011 465.229 403.625 465.7 403.335C466.172 403.045 466.703 402.827 467.294 402.679C467.891 402.526 468.507 402.415 469.143 402.347C469.911 402.267 470.533 402.196 471.01 402.134C471.487 402.065 471.834 401.963 472.05 401.827C472.271 401.685 472.382 401.466 472.382 401.17V401.119C472.382 400.477 472.192 399.98 471.811 399.628C471.43 399.276 470.882 399.099 470.166 399.099C469.411 399.099 468.811 399.264 468.368 399.594C467.93 399.923 467.635 400.312 467.482 400.761L464.601 400.352C464.828 399.557 465.203 398.892 465.726 398.358C466.249 397.818 466.888 397.415 467.643 397.148C468.399 396.875 469.234 396.739 470.149 396.739C470.78 396.739 471.408 396.812 472.033 396.96C472.658 397.108 473.229 397.352 473.746 397.693C474.263 398.028 474.678 398.486 474.99 399.065C475.308 399.645 475.467 400.369 475.467 401.239V410H472.501V408.202H472.399C472.212 408.565 471.947 408.906 471.607 409.224C471.271 409.537 470.848 409.79 470.337 409.983C469.831 410.17 469.237 410.264 468.555 410.264ZM469.357 407.997C469.976 407.997 470.513 407.875 470.967 407.631C471.422 407.381 471.771 407.051 472.016 406.642C472.266 406.233 472.391 405.787 472.391 405.304V403.761C472.294 403.841 472.129 403.915 471.896 403.983C471.669 404.051 471.413 404.111 471.129 404.162C470.845 404.213 470.564 404.259 470.286 404.298C470.007 404.338 469.766 404.372 469.561 404.401C469.101 404.463 468.689 404.565 468.325 404.707C467.962 404.849 467.675 405.048 467.464 405.304C467.254 405.554 467.149 405.878 467.149 406.276C467.149 406.844 467.357 407.273 467.771 407.562C468.186 407.852 468.714 407.997 469.357 407.997ZM481.655 402.33V410H478.57V396.909H481.518V399.134H481.672C481.973 398.401 482.453 397.818 483.112 397.386C483.777 396.955 484.598 396.739 485.575 396.739C486.479 396.739 487.266 396.932 487.936 397.318C488.612 397.705 489.135 398.264 489.504 398.997C489.879 399.73 490.064 400.619 490.058 401.665V410H486.973V402.142C486.973 401.267 486.746 400.582 486.291 400.088C485.842 399.594 485.22 399.347 484.425 399.347C483.885 399.347 483.405 399.466 482.984 399.705C482.57 399.937 482.243 400.276 482.004 400.719C481.771 401.162 481.655 401.699 481.655 402.33ZM499.148 410V396.909H502.233V410H499.148ZM500.699 395.051C500.21 395.051 499.79 394.889 499.438 394.565C499.085 394.236 498.909 393.841 498.909 393.381C498.909 392.915 499.085 392.52 499.438 392.196C499.79 391.866 500.21 391.702 500.699 391.702C501.193 391.702 501.614 391.866 501.96 392.196C502.313 392.52 502.489 392.915 502.489 393.381C502.489 393.841 502.313 394.236 501.96 394.565C501.614 394.889 501.193 395.051 500.699 395.051ZM508.491 402.33V410H505.406V396.909H508.354V399.134H508.508C508.809 398.401 509.289 397.818 509.948 397.386C510.613 396.955 511.434 396.739 512.411 396.739C513.315 396.739 514.102 396.932 514.772 397.318C515.448 397.705 515.971 398.264 516.34 398.997C516.715 399.73 516.9 400.619 516.894 401.665V410H513.809V402.142C513.809 401.267 513.582 400.582 513.127 400.088C512.678 399.594 512.056 399.347 511.261 399.347C510.721 399.347 510.241 399.466 509.82 399.705C509.406 399.937 509.079 400.276 508.84 400.719C508.607 401.162 508.491 401.699 508.491 402.33ZM526.567 396.909V399.295H519.042V396.909H526.567ZM520.9 393.773H523.985V406.062C523.985 406.477 524.048 406.795 524.173 407.017C524.303 407.233 524.474 407.381 524.684 407.46C524.894 407.54 525.127 407.58 525.383 407.58C525.576 407.58 525.752 407.565 525.911 407.537C526.076 407.509 526.201 407.483 526.286 407.46L526.806 409.872C526.641 409.929 526.406 409.991 526.099 410.06C525.798 410.128 525.428 410.168 524.991 410.179C524.218 410.202 523.522 410.085 522.903 409.83C522.283 409.568 521.792 409.165 521.428 408.619C521.07 408.074 520.894 407.392 520.9 406.574V393.773ZM534.803 410.256C533.49 410.256 532.357 409.983 531.402 409.438C530.453 408.886 529.723 408.108 529.212 407.102C528.7 406.091 528.445 404.901 528.445 403.531C528.445 402.185 528.7 401.003 529.212 399.986C529.729 398.963 530.45 398.168 531.376 397.599C532.303 397.026 533.391 396.739 534.641 396.739C535.447 396.739 536.209 396.869 536.925 397.131C537.646 397.386 538.283 397.784 538.834 398.324C539.391 398.864 539.828 399.551 540.146 400.386C540.464 401.216 540.624 402.205 540.624 403.352V404.298H529.893V402.219H537.666C537.661 401.628 537.533 401.102 537.283 400.642C537.033 400.176 536.683 399.81 536.234 399.543C535.791 399.276 535.274 399.142 534.683 399.142C534.053 399.142 533.499 399.295 533.021 399.602C532.544 399.903 532.172 400.301 531.905 400.795C531.643 401.284 531.51 401.821 531.504 402.406V404.222C531.504 404.983 531.643 405.636 531.922 406.182C532.2 406.722 532.589 407.136 533.089 407.426C533.589 407.71 534.175 407.852 534.845 407.852C535.294 407.852 535.7 407.79 536.064 407.665C536.428 407.534 536.743 407.344 537.01 407.094C537.277 406.844 537.479 406.534 537.615 406.165L540.496 406.489C540.314 407.25 539.967 407.915 539.456 408.483C538.95 409.045 538.303 409.483 537.513 409.795C536.723 410.102 535.82 410.256 534.803 410.256ZM543.234 410V396.909H546.225V399.091H546.362C546.6 398.335 547.009 397.753 547.589 397.344C548.174 396.929 548.842 396.722 549.592 396.722C549.762 396.722 549.952 396.73 550.163 396.747C550.379 396.759 550.558 396.778 550.7 396.807V399.645C550.569 399.599 550.362 399.56 550.077 399.526C549.799 399.486 549.529 399.466 549.268 399.466C548.705 399.466 548.2 399.588 547.751 399.832C547.308 400.071 546.958 400.403 546.702 400.83C546.447 401.256 546.319 401.747 546.319 402.304V410H543.234ZM555.835 402.33V410H552.749V396.909H555.698V399.134H555.852C556.153 398.401 556.633 397.818 557.292 397.386C557.957 396.955 558.778 396.739 559.755 396.739C560.658 396.739 561.445 396.932 562.116 397.318C562.792 397.705 563.315 398.264 563.684 398.997C564.059 399.73 564.244 400.619 564.238 401.665V410H561.153V402.142C561.153 401.267 560.925 400.582 560.471 400.088C560.022 399.594 559.4 399.347 558.604 399.347C558.065 399.347 557.585 399.466 557.164 399.705C556.749 399.937 556.423 400.276 556.184 400.719C555.951 401.162 555.835 401.699 555.835 402.33ZM573.17 410.256C571.857 410.256 570.724 409.983 569.769 409.438C568.82 408.886 568.09 408.108 567.579 407.102C567.067 406.091 566.812 404.901 566.812 403.531C566.812 402.185 567.067 401.003 567.579 399.986C568.096 398.963 568.817 398.168 569.744 397.599C570.67 397.026 571.758 396.739 573.008 396.739C573.815 396.739 574.576 396.869 575.292 397.131C576.013 397.386 576.65 397.784 577.201 398.324C577.758 398.864 578.195 399.551 578.513 400.386C578.832 401.216 578.991 402.205 578.991 403.352V404.298H568.261V402.219H576.033C576.028 401.628 575.9 401.102 575.65 400.642C575.4 400.176 575.05 399.81 574.602 399.543C574.158 399.276 573.641 399.142 573.05 399.142C572.42 399.142 571.866 399.295 571.388 399.602C570.911 399.903 570.539 400.301 570.272 400.795C570.011 401.284 569.877 401.821 569.871 402.406V404.222C569.871 404.983 570.011 405.636 570.289 406.182C570.567 406.722 570.957 407.136 571.457 407.426C571.957 407.71 572.542 407.852 573.212 407.852C573.661 407.852 574.067 407.79 574.431 407.665C574.795 407.534 575.11 407.344 575.377 407.094C575.644 406.844 575.846 406.534 575.982 406.165L578.863 406.489C578.681 407.25 578.335 407.915 577.823 408.483C577.317 409.045 576.67 409.483 575.88 409.795C575.09 410.102 574.187 410.256 573.17 410.256ZM588.138 396.909V399.295H580.612V396.909H588.138ZM582.47 393.773H585.555V406.062C585.555 406.477 585.618 406.795 585.743 407.017C585.874 407.233 586.044 407.381 586.254 407.46C586.464 407.54 586.697 407.58 586.953 407.58C587.146 407.58 587.322 407.565 587.482 407.537C587.646 407.509 587.771 407.483 587.857 407.46L588.376 409.872C588.212 409.929 587.976 409.991 587.669 410.06C587.368 410.128 586.999 410.168 586.561 410.179C585.788 410.202 585.092 410.085 584.473 409.83C583.854 409.568 583.362 409.165 582.999 408.619C582.641 408.074 582.464 407.392 582.47 406.574V393.773ZM602.381 410.256C601.075 410.256 599.952 409.969 599.015 409.395C598.083 408.821 597.364 408.028 596.859 407.017C596.359 406 596.109 404.83 596.109 403.506C596.109 402.176 596.364 401.003 596.876 399.986C597.387 398.963 598.109 398.168 599.04 397.599C599.978 397.026 601.086 396.739 602.364 396.739C603.427 396.739 604.367 396.935 605.185 397.327C606.009 397.713 606.665 398.261 607.154 398.972C607.643 399.676 607.921 400.5 607.989 401.443H605.04C604.921 400.812 604.637 400.287 604.188 399.866C603.745 399.44 603.151 399.227 602.407 399.227C601.776 399.227 601.222 399.398 600.745 399.739C600.268 400.074 599.896 400.557 599.629 401.188C599.367 401.818 599.237 402.574 599.237 403.455C599.237 404.347 599.367 405.114 599.629 405.756C599.89 406.392 600.256 406.884 600.728 407.23C601.205 407.571 601.765 407.741 602.407 407.741C602.862 407.741 603.268 407.656 603.626 407.486C603.989 407.31 604.293 407.057 604.538 406.727C604.782 406.398 604.95 405.997 605.04 405.526H607.989C607.915 406.452 607.643 407.273 607.171 407.989C606.7 408.699 606.058 409.256 605.245 409.659C604.433 410.057 603.478 410.256 602.381 410.256ZM616.233 410.256C614.955 410.256 613.847 409.974 612.909 409.412C611.972 408.849 611.244 408.062 610.727 407.051C610.216 406.04 609.96 404.858 609.96 403.506C609.96 402.153 610.216 400.969 610.727 399.952C611.244 398.935 611.972 398.145 612.909 397.582C613.847 397.02 614.955 396.739 616.233 396.739C617.511 396.739 618.619 397.02 619.557 397.582C620.494 398.145 621.219 398.935 621.73 399.952C622.247 400.969 622.506 402.153 622.506 403.506C622.506 404.858 622.247 406.04 621.73 407.051C621.219 408.062 620.494 408.849 619.557 409.412C618.619 409.974 617.511 410.256 616.233 410.256ZM616.25 407.784C616.943 407.784 617.523 407.594 617.989 407.213C618.455 406.827 618.801 406.31 619.028 405.662C619.261 405.014 619.378 404.293 619.378 403.497C619.378 402.696 619.261 401.972 619.028 401.324C618.801 400.67 618.455 400.151 617.989 399.764C617.523 399.378 616.943 399.185 616.25 399.185C615.54 399.185 614.949 399.378 614.477 399.764C614.011 400.151 613.662 400.67 613.429 401.324C613.202 401.972 613.088 402.696 613.088 403.497C613.088 404.293 613.202 405.014 613.429 405.662C613.662 406.31 614.011 406.827 614.477 407.213C614.949 407.594 615.54 407.784 616.25 407.784ZM628.21 402.33V410H625.124V396.909H628.073V399.134H628.227C628.528 398.401 629.008 397.818 629.667 397.386C630.332 396.955 631.153 396.739 632.13 396.739C633.033 396.739 633.82 396.932 634.491 397.318C635.167 397.705 635.69 398.264 636.059 398.997C636.434 399.73 636.619 400.619 636.613 401.665V410H633.528V402.142C633.528 401.267 633.3 400.582 632.846 400.088C632.397 399.594 631.775 399.347 630.979 399.347C630.44 399.347 629.96 399.466 629.539 399.705C629.124 399.937 628.798 400.276 628.559 400.719C628.326 401.162 628.21 401.699 628.21 402.33ZM642.835 402.33V410H639.749V396.909H642.698V399.134H642.852C643.153 398.401 643.633 397.818 644.292 397.386C644.957 396.955 645.778 396.739 646.755 396.739C647.658 396.739 648.445 396.932 649.116 397.318C649.792 397.705 650.315 398.264 650.684 398.997C651.059 399.73 651.244 400.619 651.238 401.665V410H648.153V402.142C648.153 401.267 647.925 400.582 647.471 400.088C647.022 399.594 646.4 399.347 645.604 399.347C645.065 399.347 644.585 399.466 644.164 399.705C643.749 399.937 643.423 400.276 643.184 400.719C642.951 401.162 642.835 401.699 642.835 402.33ZM660.17 410.256C658.857 410.256 657.724 409.983 656.769 409.438C655.82 408.886 655.09 408.108 654.579 407.102C654.067 406.091 653.812 404.901 653.812 403.531C653.812 402.185 654.067 401.003 654.579 399.986C655.096 398.963 655.817 398.168 656.744 397.599C657.67 397.026 658.758 396.739 660.008 396.739C660.815 396.739 661.576 396.869 662.292 397.131C663.013 397.386 663.65 397.784 664.201 398.324C664.758 398.864 665.195 399.551 665.513 400.386C665.832 401.216 665.991 402.205 665.991 403.352V404.298H655.261V402.219H663.033C663.028 401.628 662.9 401.102 662.65 400.642C662.4 400.176 662.05 399.81 661.602 399.543C661.158 399.276 660.641 399.142 660.05 399.142C659.42 399.142 658.866 399.295 658.388 399.602C657.911 399.903 657.539 400.301 657.272 400.795C657.011 401.284 656.877 401.821 656.871 402.406V404.222C656.871 404.983 657.011 405.636 657.289 406.182C657.567 406.722 657.957 407.136 658.457 407.426C658.957 407.71 659.542 407.852 660.212 407.852C660.661 407.852 661.067 407.79 661.431 407.665C661.795 407.534 662.11 407.344 662.377 407.094C662.644 406.844 662.846 406.534 662.982 406.165L665.863 406.489C665.681 407.25 665.335 407.915 664.823 408.483C664.317 409.045 663.67 409.483 662.88 409.795C662.09 410.102 661.187 410.256 660.17 410.256ZM674.311 410.256C673.004 410.256 671.882 409.969 670.945 409.395C670.013 408.821 669.294 408.028 668.788 407.017C668.288 406 668.038 404.83 668.038 403.506C668.038 402.176 668.294 401.003 668.805 399.986C669.317 398.963 670.038 398.168 670.97 397.599C671.908 397.026 673.016 396.739 674.294 396.739C675.357 396.739 676.297 396.935 677.115 397.327C677.939 397.713 678.595 398.261 679.084 398.972C679.572 399.676 679.851 400.5 679.919 401.443H676.97C676.851 400.812 676.567 400.287 676.118 399.866C675.675 399.44 675.081 399.227 674.337 399.227C673.706 399.227 673.152 399.398 672.675 399.739C672.197 400.074 671.825 400.557 671.558 401.188C671.297 401.818 671.166 402.574 671.166 403.455C671.166 404.347 671.297 405.114 671.558 405.756C671.82 406.392 672.186 406.884 672.658 407.23C673.135 407.571 673.695 407.741 674.337 407.741C674.791 407.741 675.197 407.656 675.555 407.486C675.919 407.31 676.223 407.057 676.467 406.727C676.712 406.398 676.879 405.997 676.97 405.526H679.919C679.845 406.452 679.572 407.273 679.101 407.989C678.629 408.699 677.987 409.256 677.175 409.659C676.362 410.057 675.408 410.256 674.311 410.256ZM688.989 396.909V399.295H681.464V396.909H688.989ZM683.322 393.773H686.407V406.062C686.407 406.477 686.469 406.795 686.594 407.017C686.725 407.233 686.896 407.381 687.106 407.46C687.316 407.54 687.549 407.58 687.805 407.58C687.998 407.58 688.174 407.565 688.333 407.537C688.498 407.509 688.623 407.483 688.708 407.46L689.228 409.872C689.063 409.929 688.827 409.991 688.521 410.06C688.219 410.128 687.85 410.168 687.413 410.179C686.64 410.202 685.944 410.085 685.325 409.83C684.705 409.568 684.214 409.165 683.85 408.619C683.492 408.074 683.316 407.392 683.322 406.574V393.773ZM691.57 410V396.909H694.655V410H691.57ZM693.121 395.051C692.632 395.051 692.212 394.889 691.859 394.565C691.507 394.236 691.331 393.841 691.331 393.381C691.331 392.915 691.507 392.52 691.859 392.196C692.212 391.866 692.632 391.702 693.121 391.702C693.615 391.702 694.036 391.866 694.382 392.196C694.734 392.52 694.911 392.915 694.911 393.381C694.911 393.841 694.734 394.236 694.382 394.565C694.036 394.889 693.615 395.051 693.121 395.051ZM703.538 410.256C702.259 410.256 701.151 409.974 700.214 409.412C699.276 408.849 698.549 408.062 698.032 407.051C697.521 406.04 697.265 404.858 697.265 403.506C697.265 402.153 697.521 400.969 698.032 399.952C698.549 398.935 699.276 398.145 700.214 397.582C701.151 397.02 702.259 396.739 703.538 396.739C704.816 396.739 705.924 397.02 706.862 397.582C707.799 398.145 708.523 398.935 709.035 399.952C709.552 400.969 709.81 402.153 709.81 403.506C709.81 404.858 709.552 406.04 709.035 407.051C708.523 408.062 707.799 408.849 706.862 409.412C705.924 409.974 704.816 410.256 703.538 410.256ZM703.555 407.784C704.248 407.784 704.827 407.594 705.293 407.213C705.759 406.827 706.106 406.31 706.333 405.662C706.566 405.014 706.683 404.293 706.683 403.497C706.683 402.696 706.566 401.972 706.333 401.324C706.106 400.67 705.759 400.151 705.293 399.764C704.827 399.378 704.248 399.185 703.555 399.185C702.844 399.185 702.254 399.378 701.782 399.764C701.316 400.151 700.967 400.67 700.734 401.324C700.506 401.972 700.393 402.696 700.393 403.497C700.393 404.293 700.506 405.014 700.734 405.662C700.967 406.31 701.316 406.827 701.782 407.213C702.254 407.594 702.844 407.784 703.555 407.784ZM715.514 402.33V410H712.429V396.909H715.378V399.134H715.531C715.832 398.401 716.313 397.818 716.972 397.386C717.636 396.955 718.457 396.739 719.435 396.739C720.338 396.739 721.125 396.932 721.795 397.318C722.472 397.705 722.994 398.264 723.364 398.997C723.739 399.73 723.923 400.619 723.918 401.665V410H720.832V402.142C720.832 401.267 720.605 400.582 720.151 400.088C719.702 399.594 719.08 399.347 718.284 399.347C717.744 399.347 717.264 399.466 716.844 399.705C716.429 399.937 716.102 400.276 715.864 400.719C715.631 401.162 715.514 401.699 715.514 402.33Z" fill="black"/>
<rect opacity="0.6" x="137" y="433" width="50" height="5" rx="2.5" fill="#131C83" fill-opacity="0.83"/>
<rect x="192" y="433" width="58" height="5" rx="2.5" fill="#131C83" fill-opacity="0.83"/>
<rect opacity="0.6" x="255" y="433" width="50" height="5" rx="2.5" fill="#131C83" fill-opacity="0.83"/>
<path d="M1063.64 242.97H1169.31C1197.2 242.97 1219.81 265.579 1219.91 293.467C1219.91 295.16 1219.81 296.754 1219.71 298.447L1209.75 399.84H1023.3L1013.34 298.447C1010.65 270.658 1030.97 245.958 1058.66 243.268C1060.35 243.069 1062.04 242.97 1063.64 242.97Z" fill="white"/>
<path d="M1209.65 400.537H1023.3C1022.9 400.537 1022.6 400.238 1022.6 399.939L1012.64 298.546C1009.85 270.36 1030.47 245.36 1058.66 242.571C1060.35 242.372 1061.95 242.372 1063.64 242.372H1169.31C1197.6 242.372 1220.51 265.28 1220.51 293.566C1220.51 295.26 1220.41 296.953 1220.31 298.546L1210.35 399.939C1210.25 400.238 1210.05 400.537 1209.65 400.537ZM1024 399.142H1209.05L1218.91 298.347C1221.6 270.957 1201.58 246.555 1174.19 243.866C1172.6 243.667 1170.91 243.667 1169.31 243.667H1063.64C1036.15 243.667 1013.84 265.977 1013.84 293.467C1013.84 295.06 1013.94 296.754 1014.04 298.347L1024 399.142Z" fill="#D1D3D4"/>
<path d="M1319.41 452.428H925.095L969.018 370.358H1275.59L1319.41 452.428Z" fill="white"/>
<path d="M1319.41 453.126H925.095C924.696 453.126 924.398 452.827 924.398 452.428C924.398 452.329 924.398 452.229 924.497 452.13L968.321 370.059C968.421 369.86 968.72 369.661 968.919 369.661H1275.49C1275.79 369.661 1275.99 369.76 1276.09 370.059L1319.91 452.13C1320.01 452.329 1320.01 452.628 1319.91 452.827C1319.91 453.026 1319.61 453.126 1319.41 453.126ZM926.29 451.731H1318.22L1275.09 371.055H969.317L926.29 451.731Z" fill="#231F20"/>
<path d="M1319.41 452.428H925.095V471.751H1319.41V452.428Z" fill="white"/>
<path d="M1319.41 472.448H925.095C924.696 472.448 924.398 472.149 924.398 471.751V452.428C924.398 452.03 924.696 451.731 925.095 451.731H1319.41C1319.81 451.731 1320.11 452.03 1320.11 452.428V471.751C1320.11 472.149 1319.81 472.448 1319.41 472.448ZM925.792 471.054H1318.71V453.126H925.792V471.054Z" fill="#231F20"/>
<path d="M1250.09 319.861C1242.02 324.343 1197.1 328.526 1190.23 331.713C1189.03 332.311 1187.84 332.908 1186.74 333.705C1175.89 340.876 1168.62 358.306 1187.64 359.9C1193.42 360.398 1244.61 341.474 1264.93 332.908C1269.41 331.016 1284.35 323.347 1283.16 320.359C1281.96 317.371 1277.28 309.602 1275.39 310.2C1273.5 310.797 1259.65 317.271 1259.65 317.271C1259.65 317.271 1263.54 305.718 1259.65 306.116C1255.77 306.514 1250.09 319.861 1250.09 319.861Z" fill="white"/>
<path d="M1187.84 360.597H1187.54C1178.98 359.9 1176.19 356.016 1175.39 352.928C1173.7 346.155 1179.57 337.49 1186.35 333.108C1187.54 332.311 1188.74 331.614 1189.93 331.016C1193.12 329.522 1203.48 327.928 1215.53 326.136C1229.27 324.044 1244.81 321.654 1249.49 319.263C1250.49 317.072 1255.57 305.718 1259.55 305.319C1260.25 305.22 1260.95 305.518 1261.34 306.016C1262.84 307.909 1261.64 313.088 1260.75 315.877C1264.43 314.184 1273.6 309.801 1275.09 309.403C1277.88 308.606 1282.86 317.769 1283.65 320.06C1285.35 324.442 1265.23 333.506 1265.03 333.606C1246.7 341.374 1195.11 360.597 1187.84 360.597ZM1259.85 306.813H1259.75C1257.26 307.012 1252.88 315.18 1250.79 320.16C1250.69 320.259 1250.59 320.458 1250.49 320.558C1245.91 323.048 1230.57 325.438 1215.83 327.63C1204.37 329.323 1193.62 331.016 1190.63 332.41C1189.43 333.008 1188.34 333.705 1187.24 334.402C1180.17 339.084 1175.59 347.251 1176.88 352.729C1177.88 356.514 1181.56 358.804 1187.74 359.302H1187.94C1194.41 359.302 1244.21 340.976 1264.73 332.41C1271.8 329.422 1283.26 322.55 1282.56 320.757C1281.16 317.172 1276.88 310.996 1275.69 310.996C1274.19 311.395 1263.93 316.275 1260.15 318.068C1259.85 318.168 1259.55 318.168 1259.35 317.968C1259.15 317.769 1259.05 317.47 1259.15 317.172C1260.25 313.785 1261.44 308.407 1260.45 307.112C1260.25 306.813 1260.05 306.714 1259.85 306.813Z" fill="#231F20"/>
<path d="M1148.3 249.942C1159.85 239.782 1169.71 227.83 1177.48 214.484L1189.13 221.655C1189.13 221.755 1178.38 250.24 1148.3 249.942Z" fill="white"/>
<path d="M1148.7 250.738H1148.3C1147.9 250.738 1147.6 250.44 1147.6 250.041C1147.6 249.842 1147.7 249.643 1147.9 249.444C1159.35 239.284 1169.11 227.432 1176.88 214.185C1177.08 213.886 1177.58 213.687 1177.88 213.886L1189.53 221.058C1189.83 221.257 1189.93 221.556 1189.83 221.954C1189.63 222.352 1178.68 250.738 1148.7 250.738ZM1177.68 215.58C1170.21 228.129 1160.95 239.384 1150.19 249.244C1175.79 248.348 1186.54 225.938 1188.14 222.054L1177.68 215.58Z" fill="#231F20"/>
<path d="M1148.3 249.942C1148.3 249.942 1166.82 253.029 1185.15 240.081L1187.54 256.216C1187.54 256.216 1170.61 265.081 1145.51 255.22L1148.3 249.942Z" fill="white"/>
<path d="M1168.82 260.599C1160.75 260.499 1152.78 259.005 1145.31 256.017C1145.11 255.918 1145.01 255.818 1144.91 255.619C1144.81 255.42 1144.81 255.22 1144.91 255.021L1147.7 249.742C1147.8 249.444 1148.2 249.344 1148.5 249.344C1161.45 250.639 1174.29 247.153 1184.85 239.583C1185.15 239.384 1185.65 239.484 1185.85 239.782C1185.95 239.882 1185.95 239.982 1185.95 240.081L1188.34 256.216C1188.34 256.515 1188.24 256.814 1187.94 256.914C1187.74 256.914 1180.57 260.599 1168.82 260.599ZM1146.51 254.922C1168.42 263.188 1183.96 257.113 1186.74 255.818L1184.55 241.376C1174 248.547 1161.35 251.934 1148.7 250.738L1146.51 254.922Z" fill="#231F20"/>
<path d="M1199.69 328.725C1199.69 328.725 1195.51 318.466 1175.59 295.16C1166.03 284.005 1140.33 279.722 1133.46 279.423C1134.95 279.523 1139.23 277.232 1109.95 279.423C1094.91 280.519 1085.25 281.316 1076.29 290.778C1059.55 308.606 1023.3 346.554 1023.3 346.554L1061.55 357.51C1061.55 357.51 1067.72 353.127 1070.01 350.139L1064.53 390.975L1167.92 396.951L1167.02 350.139L1177.58 358.804L1199.69 328.725Z" fill="#68E1FD"/>
<path d="M1131.67 279.423C1131.67 279.423 1132.36 279.423 1133.46 279.523C1132.86 279.423 1131.67 279.423 1131.67 279.423Z" fill="#68E1FD"/>
<path d="M1104.67 283.905L1105.67 388.585H1134.55V278.128L1104.67 283.905Z" fill="white"/>
<path d="M1134.55 389.182H1105.57C1105.27 389.182 1104.97 388.884 1104.97 388.585L1104.08 283.905C1104.08 283.606 1104.28 283.308 1104.57 283.308L1134.45 277.531C1134.65 277.531 1134.85 277.531 1134.95 277.63C1135.05 277.73 1135.15 277.929 1135.15 278.128V388.585C1135.25 388.983 1134.95 389.182 1134.55 389.182ZM1106.27 387.987H1133.96V278.925L1105.37 284.403L1106.27 387.987Z" fill="#231F20"/>
<path d="M1099.1 350.836C1098.9 350.836 1098.6 350.737 1098.5 350.438L1085.85 324.144C1085.75 323.944 1085.75 323.745 1085.95 323.546L1094.12 311.594L1086.15 305.718C1085.85 305.518 1085.85 305.12 1086.05 304.821L1098.7 286.296C1098.9 285.997 1099.3 285.897 1099.59 286.096C1099.89 286.296 1099.99 286.694 1099.79 286.993L1087.54 305.02L1095.51 310.897C1095.81 311.096 1095.81 311.494 1095.61 311.793L1087.24 323.944L1099.69 349.94C1099.79 350.239 1099.69 350.637 1099.39 350.836C1099.2 350.836 1099.2 350.836 1099.1 350.836Z" fill="#231F20"/>
<path d="M1139.23 350.836C1139.14 350.836 1139.04 350.836 1138.94 350.737C1138.64 350.637 1138.44 350.239 1138.64 349.94L1151.09 323.944L1142.82 311.793C1142.62 311.494 1142.72 311.096 1142.92 310.897L1150.89 305.02L1138.64 286.993C1138.44 286.694 1138.54 286.296 1138.84 286.096C1139.14 285.897 1139.53 285.997 1139.73 286.296L1152.38 304.821C1152.58 305.12 1152.48 305.518 1152.28 305.718L1144.31 311.594L1152.48 323.546C1152.58 323.745 1152.58 323.944 1152.48 324.144L1139.83 350.438C1139.63 350.637 1139.43 350.836 1139.23 350.836Z" fill="#231F20"/>
<path d="M1145.81 272.352C1145.61 272.352 1149 254.523 1149.29 252.93C1151.29 242.87 1152.78 233.607 1151.88 225.44C1149.49 226.635 1148.9 230.221 1146.9 232.014C1146.21 224.444 1145.81 216.775 1145.91 209.106C1132.86 213.787 1119.02 218.866 1110.35 229.822L1109.35 213.488C1103.28 223.249 1097.2 233.209 1093.92 244.364C1090.73 255.22 1092.92 265.778 1095.51 276.634L1145.81 272.352Z" fill="white"/>
<path d="M1095.51 277.332C1095.21 277.332 1094.91 277.132 1094.81 276.734C1092.02 265.28 1090.03 255.021 1093.22 244.065C1096.51 232.611 1103.08 222.253 1108.76 213.09C1108.96 212.791 1109.26 212.691 1109.55 212.791C1109.85 212.89 1110.05 213.09 1110.05 213.488L1110.95 228.03C1120.01 217.572 1134.16 212.592 1145.61 208.608C1145.81 208.508 1146.11 208.508 1146.31 208.707C1146.51 208.807 1146.61 209.106 1146.61 209.305C1146.51 216.376 1146.8 223.448 1147.4 230.42C1147.7 229.922 1148 229.424 1148.3 228.826C1149.1 227.332 1149.99 225.739 1151.49 224.942C1151.68 224.842 1151.98 224.842 1152.18 224.942C1152.38 225.042 1152.48 225.241 1152.58 225.54C1153.58 234.006 1151.88 243.468 1149.99 253.228C1149.59 255.121 1146.61 271.156 1146.51 272.451C1146.51 272.551 1146.51 272.65 1146.51 272.75C1146.41 273.049 1146.21 273.248 1145.91 273.248L1095.61 277.531L1095.51 277.332ZM1108.66 215.779C1103.28 224.444 1097.5 234.105 1094.51 244.563C1091.53 255.021 1093.32 264.882 1096.01 275.838L1145.21 271.654C1145.41 269.862 1146.11 265.28 1148.6 252.83C1150.39 243.667 1151.88 234.802 1151.29 226.834C1150.59 227.631 1149.99 228.428 1149.59 229.424C1149 230.619 1148.3 231.715 1147.3 232.611C1147 232.91 1146.51 232.81 1146.31 232.512C1146.21 232.412 1146.11 232.213 1146.11 232.113C1145.41 224.842 1145.11 217.472 1145.11 210.102C1133.56 214.185 1119.41 219.464 1110.85 230.221C1110.65 230.52 1110.15 230.619 1109.85 230.32C1109.65 230.221 1109.55 230.022 1109.55 229.822L1108.66 215.779Z" fill="#231F20"/>
<path d="M1138.34 271.555C1139.73 262.989 1153.88 260.898 1153.28 270.957C1153.18 274.443 1151.78 277.83 1149.49 280.419C1147 282.909 1143.12 284.104 1139.93 282.61" fill="white"/>
<path d="M1142.92 284.005C1141.82 284.005 1140.73 283.806 1139.63 283.308C1139.23 283.208 1139.14 282.71 1139.23 282.411V282.312C1139.43 281.913 1139.83 281.814 1140.13 281.913C1143.22 283.108 1146.61 282.212 1148.9 279.822C1151.49 277.132 1152.28 273.447 1152.48 270.758C1152.68 267.372 1151.09 265.18 1148.1 264.782C1144.41 264.384 1139.73 266.973 1139.04 271.455C1138.94 271.854 1138.64 272.152 1138.24 272.053C1137.84 271.953 1137.54 271.654 1137.64 271.256C1138.54 265.878 1143.82 262.89 1148.3 263.388C1151.29 263.686 1154.27 265.878 1153.98 270.858C1153.78 273.746 1152.88 277.83 1149.99 280.818C1148.2 282.81 1145.61 284.005 1142.92 284.005Z" fill="#231F20"/>
<path d="M1102.98 271.555C1101.59 262.989 1087.34 260.898 1088.14 270.957C1088.24 274.443 1089.63 277.83 1091.92 280.419C1094.32 282.909 1098.3 284.104 1101.49 282.61" fill="white"/>
<path d="M1098.4 284.005C1095.71 284.005 1093.22 282.909 1091.33 280.917C1088.44 277.929 1087.54 273.846 1087.34 270.957C1086.94 265.977 1090.03 263.886 1093.02 263.487C1097.5 262.989 1102.88 265.977 1103.68 271.356C1103.78 271.754 1103.48 272.152 1103.08 272.152C1102.68 272.252 1102.28 271.953 1102.28 271.555C1101.59 267.073 1096.9 264.483 1093.22 264.882C1090.23 265.28 1088.64 267.372 1088.84 270.858C1089.04 273.547 1089.83 277.232 1092.42 279.921C1094.81 282.312 1098.4 283.208 1101.19 282.013C1101.59 281.814 1101.98 282.013 1102.18 282.312C1102.38 282.71 1102.18 283.108 1101.88 283.308C1101.88 283.308 1101.88 283.308 1101.79 283.308C1100.69 283.905 1099.49 284.104 1098.4 284.005Z" fill="#231F20"/>
<path d="M1104.97 310.996L1119.22 322.749L1134.55 314.184L1135.55 278.726L1104.97 277.83V310.996Z" fill="white"/>
<path d="M1119.22 323.446C1119.02 323.446 1118.92 323.347 1118.72 323.247L1104.47 311.494C1104.28 311.395 1104.18 311.196 1104.18 310.897V277.63C1104.18 277.431 1104.28 277.232 1104.37 277.132C1104.47 277.033 1104.67 276.933 1104.87 276.933L1135.45 277.83C1135.85 277.83 1136.15 278.228 1136.15 278.626L1135.15 314.084C1135.15 314.383 1135.05 314.582 1134.75 314.682L1119.41 323.247C1119.51 323.446 1119.41 323.446 1119.22 323.446ZM1105.67 310.698L1119.31 321.853L1133.86 313.785L1134.85 279.423L1105.67 278.527V310.698Z" fill="#231F20"/>
<path d="M1105.97 292.072C1106.27 293.666 1114.93 304.522 1135.05 305.718V291.973C1130.27 292.67 1123.9 294.961 1118.72 294.562C1114.33 294.164 1109.85 293.766 1105.97 292.072C1106.57 292.471 1105.27 291.774 1105.97 292.072Z" fill="#231F20"/>
<path d="M1134.95 306.415C1115.93 305.22 1106.57 295.359 1105.37 292.57C1105.07 292.371 1104.97 291.973 1105.07 291.674C1105.17 291.375 1105.47 291.076 1106.17 291.475C1110.05 293.168 1114.63 293.566 1118.72 293.865C1122 294.164 1125.89 293.268 1129.57 292.471C1131.47 292.072 1133.26 291.574 1134.95 291.375C1135.15 291.375 1135.35 291.375 1135.55 291.574C1135.75 291.674 1135.75 291.873 1135.75 292.072V305.817C1135.65 306.116 1135.35 306.415 1134.95 306.415ZM1107.56 293.467C1110.15 296.654 1118.42 303.825 1134.35 305.02V292.869C1132.96 293.068 1131.47 293.467 1129.87 293.865C1126.09 294.762 1122.1 295.658 1118.62 295.359C1114.83 295.06 1111.15 294.463 1107.56 293.467Z" fill="#231F20"/>
<path d="M1118.82 297.75H1121.11C1131.96 297.75 1140.73 288.985 1140.73 278.128V255.021C1140.73 250.141 1133.96 247.252 1130.07 246.555C1125.89 245.858 1121.51 246.555 1117.22 247.153C1106.86 248.746 1099 252.531 1099.2 264.184C1099.2 268.766 1099.2 273.447 1099.2 278.029C1099.2 288.985 1107.96 297.75 1118.82 297.75Z" fill="white"/>
<path d="M1121.11 298.447H1118.82C1107.56 298.447 1098.5 289.284 1098.5 278.128V273.547C1098.5 270.459 1098.5 267.372 1098.5 264.284C1098.4 251.137 1108.46 247.85 1117.22 246.456C1121.51 245.758 1125.89 245.161 1130.27 245.858C1134.95 246.655 1141.53 249.942 1141.53 255.021V278.128C1141.43 289.383 1132.36 298.447 1121.11 298.447ZM1126.19 246.954C1123.2 247.053 1120.31 247.352 1117.42 247.85C1105.07 249.742 1099.89 254.623 1099.99 264.184C1099.99 267.272 1099.99 270.36 1099.99 273.447C1099.99 275.041 1099.99 276.535 1099.99 278.029C1099.99 288.487 1108.46 296.953 1118.92 296.953H1121.21C1131.67 296.953 1140.13 288.487 1140.13 278.029V254.922C1140.13 250.738 1134.16 247.85 1130.07 247.153C1128.78 247.053 1127.48 246.954 1126.19 246.954Z" fill="#231F20"/>
<path d="M1126.66 272.642C1127.32 272.598 1127.77 271.362 1127.67 269.88C1127.58 268.398 1126.96 267.232 1126.3 267.275C1125.65 267.319 1125.19 268.556 1125.29 270.038C1125.39 271.519 1126 272.686 1126.66 272.642Z" fill="#231F20"/>
<path d="M1109.63 272.541C1110.29 272.497 1110.74 271.261 1110.64 269.779C1110.54 268.297 1109.93 267.131 1109.27 267.174C1108.61 267.218 1108.16 268.454 1108.26 269.936C1108.35 271.418 1108.97 272.584 1109.63 272.541Z" fill="#231F20"/>
<path d="M1115.13 290.877C1114.43 290.877 1114.04 290.877 1114.04 290.877C1113.64 290.877 1113.34 290.479 1113.44 290.08C1113.54 289.682 1113.84 289.383 1114.24 289.483C1114.33 289.483 1122.9 290.28 1131.27 283.208C1131.57 282.909 1132.06 283.009 1132.26 283.308C1132.56 283.606 1132.46 284.104 1132.16 284.304C1127.48 288.387 1121.41 290.778 1115.13 290.877Z" fill="#231F20"/>
<path d="M1133.86 286.594C1133.76 286.594 1133.66 286.594 1133.56 286.495C1129.97 284.901 1130.37 280.818 1131.07 278.925C1131.17 278.527 1131.57 278.328 1131.96 278.527C1132.36 278.626 1132.56 279.124 1132.36 279.423C1132.26 279.622 1130.87 283.706 1134.06 285.2C1134.45 285.399 1134.55 285.798 1134.45 286.196C1134.35 286.495 1134.16 286.594 1133.86 286.594Z" fill="#231F20"/>
<path d="M1117.02 285.598C1116.53 285.598 1116.13 285.399 1115.83 285.001C1113.94 282.71 1115.93 272.75 1116.33 270.758C1116.43 270.36 1116.82 270.16 1117.22 270.26C1117.62 270.36 1117.82 270.758 1117.72 271.057C1116.73 275.738 1115.83 282.81 1116.92 284.104C1119.51 284.104 1121.51 281.017 1121.51 281.017C1121.71 280.718 1122.2 280.618 1122.5 280.818C1122.8 281.017 1122.9 281.515 1122.7 281.814C1122.6 281.913 1120.21 285.598 1117.02 285.598Z" fill="#231F20"/>
<path d="M1122.1 269.563C1121.71 269.563 1121.41 269.264 1121.31 268.866C1121.31 268.567 1121.51 268.168 1121.9 268.168C1123 267.87 1126.59 264.882 1128.58 263.288C1129.47 262.491 1130.27 261.894 1130.57 261.694C1130.87 261.495 1131.37 261.595 1131.57 261.894C1131.76 262.192 1131.76 262.69 1131.37 262.89C1131.07 263.089 1130.27 263.786 1129.37 264.483C1126.19 267.073 1123.5 269.264 1122.2 269.662C1122.1 269.563 1122.1 269.563 1122.1 269.563Z" fill="#231F20"/>
<path d="M1113.24 269.563C1113.14 269.563 1112.94 269.563 1112.84 269.463C1109.75 267.471 1106.17 265.18 1105.57 264.981C1105.27 264.981 1105.07 264.682 1104.97 264.384C1104.87 263.985 1105.17 263.587 1105.57 263.487C1105.97 263.388 1106.27 263.388 1113.74 268.168C1114.04 268.368 1114.14 268.866 1113.94 269.164C1113.74 269.463 1113.54 269.563 1113.24 269.563Z" fill="#231F20"/>
<path d="M1225.29 381.812L1168.02 367.47C1168.02 367.47 1139.33 412.688 1124.99 421.951L1193.42 441.672C1193.42 441.672 1221.8 396.453 1225.29 381.812Z" fill="white"/>
<path d="M1193.52 442.369H1193.32L1124.79 422.648C1124.49 422.548 1124.29 422.349 1124.29 422.05C1124.29 421.752 1124.39 421.552 1124.59 421.353C1138.64 412.29 1167.02 367.569 1167.32 367.171C1167.52 366.872 1167.82 366.772 1168.12 366.872L1225.39 381.214C1225.79 381.314 1225.99 381.712 1225.89 382.011C1222.4 396.553 1195.11 440.178 1194.01 442.07C1193.92 442.269 1193.72 442.369 1193.52 442.369ZM1126.59 421.652L1193.12 440.775C1196.01 436.094 1220.51 396.453 1224.39 382.21L1168.22 368.167C1165.33 373.047 1140.63 411.393 1126.59 421.652Z" fill="#231F20"/>
<path d="M1199.69 429.52C1199.59 429.52 1199.49 429.52 1199.49 429.52C1181.47 423.046 1153.98 413.385 1152.28 413.186C1151.88 413.086 1151.59 412.788 1151.68 412.389C1151.78 411.991 1152.08 411.692 1152.48 411.792C1154.87 412.09 1195.41 426.532 1199.99 428.226C1200.39 428.325 1200.59 428.724 1200.39 429.122C1200.29 429.421 1199.99 429.62 1199.69 429.52Z" fill="#D1D3D4"/>
<path d="M1205.27 420.258C1205.17 420.258 1205.07 420.258 1205.07 420.258C1187.04 413.784 1159.55 404.122 1157.86 403.923C1157.46 403.824 1157.26 403.525 1157.26 403.126C1157.36 402.728 1157.66 402.429 1158.06 402.529C1160.45 402.828 1200.99 417.27 1205.57 418.963C1205.97 419.062 1206.07 419.461 1205.97 419.859C1205.77 420.058 1205.57 420.258 1205.27 420.258Z" fill="#D1D3D4"/>
<path d="M1212.74 408.804C1212.64 408.804 1212.54 408.804 1212.54 408.804C1194.51 402.33 1167.02 392.668 1165.33 392.469C1164.93 392.469 1164.73 392.071 1164.73 391.672C1164.83 391.274 1165.13 391.075 1165.53 391.075C1167.92 391.374 1208.46 405.816 1213.04 407.509C1213.44 407.608 1213.64 408.007 1213.44 408.405C1213.34 408.604 1213.04 408.804 1212.74 408.804Z" fill="#D1D3D4"/>
<path d="M1217.82 396.354C1217.72 396.354 1217.62 396.354 1217.62 396.354C1199.59 389.88 1172.1 380.218 1170.41 380.019C1170.01 380.019 1169.81 379.621 1169.81 379.322C1169.91 378.924 1170.21 378.724 1170.61 378.724C1173 379.023 1213.54 393.465 1218.12 395.158C1218.52 395.258 1218.72 395.656 1218.52 396.055C1218.32 396.254 1218.12 396.354 1217.82 396.354Z" fill="#D1D3D4"/>
<path d="M1182.86 397.051C1182.86 397.051 1190.53 437.19 1196.21 446.253C1196.21 446.253 1251.88 443.664 1266.13 433.106C1266.13 433.106 1243.02 401.832 1239.13 387.489L1182.86 397.051Z" fill="white"/>
<path d="M1196.21 446.95C1196.01 446.95 1195.71 446.851 1195.61 446.652C1189.83 437.588 1182.46 398.844 1182.16 397.25C1182.16 397.051 1182.16 396.852 1182.26 396.752C1182.36 396.553 1182.56 396.453 1182.76 396.453L1239.13 386.892C1239.53 386.792 1239.83 387.091 1239.93 387.39C1243.72 401.433 1266.52 432.409 1266.82 432.708C1267.02 433.006 1267.02 433.405 1266.72 433.704C1252.28 444.162 1198.6 446.851 1196.21 446.95ZM1183.66 397.648C1184.65 402.927 1191.43 436.791 1196.6 445.556C1201.68 445.257 1250.99 442.468 1265.23 433.006C1262.04 428.624 1242.72 401.931 1238.74 388.386L1183.66 397.648Z" fill="#231F20"/>
<path d="M1080.87 378.625L1062.84 429.122L1152.38 432.508L1135.55 378.625H1080.87Z" fill="white"/>
<path d="M1152.38 433.206L1062.94 429.819C1062.74 429.819 1062.54 429.72 1062.34 429.52C1062.24 429.321 1062.14 429.122 1062.24 428.923L1080.17 378.326C1080.27 378.027 1080.57 377.828 1080.87 377.828H1135.55C1135.85 377.828 1136.15 378.027 1136.25 378.326L1152.98 432.309C1153.08 432.508 1152.98 432.807 1152.88 432.907C1152.78 433.106 1152.58 433.206 1152.38 433.206ZM1063.84 428.524L1151.39 431.811L1135.05 379.322H1081.37L1063.84 428.524Z" fill="#231F20"/>
<path d="M1103.88 361.992L1117.92 387.788L1118.12 389.083L1118.82 395.158L1114.14 391.174L1113.14 390.378L1099.1 364.681L1103.88 361.992Z" fill="#231F20"/>
<path d="M1118.82 395.856C1118.62 395.856 1118.52 395.756 1118.42 395.656L1112.74 390.975C1112.64 390.876 1112.64 390.876 1112.54 390.776L1098.4 364.98C1098.2 364.681 1098.3 364.183 1098.7 364.083L1103.48 361.494C1103.68 361.394 1103.88 361.394 1103.98 361.394C1104.18 361.494 1104.28 361.593 1104.37 361.693L1118.52 387.489C1118.52 387.589 1118.62 387.688 1118.62 387.688L1119.51 395.059C1119.51 395.358 1119.41 395.656 1119.12 395.756C1119.12 395.756 1118.92 395.856 1118.82 395.856ZM1113.74 389.979L1117.92 393.465L1117.22 387.987L1103.48 362.888L1099.89 364.88L1113.74 389.979Z" fill="#231F20"/>
<path d="M1096.21 357.908L1099.69 356.016C1100.39 355.617 1101.19 355.916 1101.49 356.514L1108.16 368.764L1102.28 371.952L1095.61 359.701C1095.31 359.103 1095.51 358.306 1096.21 357.908Z" fill="#231F20"/>
<path d="M1102.38 372.748C1102.28 372.748 1102.28 372.748 1102.18 372.748C1101.98 372.649 1101.88 372.549 1101.79 372.45L1095.11 360.199C1094.51 359.203 1094.91 358.008 1095.81 357.51C1095.81 357.51 1095.91 357.51 1095.91 357.41L1099.39 355.518C1100.39 355.02 1101.69 355.318 1102.18 356.314L1108.86 368.565C1109.06 368.864 1108.96 369.362 1108.66 369.561C1108.66 369.561 1108.66 369.561 1108.56 369.561L1102.68 372.748C1102.68 372.748 1102.48 372.748 1102.38 372.748ZM1100.39 356.514C1100.29 356.514 1100.19 356.514 1100.09 356.613L1096.61 358.506C1096.41 358.605 1096.31 358.705 1096.31 358.904C1096.21 359.103 1096.31 359.302 1096.41 359.402L1102.78 371.055L1107.46 368.466L1101.09 356.812C1100.89 356.713 1100.59 356.514 1100.39 356.514Z" fill="#231F20"/>
<path d="M1099.2 372.649C1098.9 372.649 1098.7 372.549 1098.6 372.25C1098.5 371.952 1095.11 365.876 1094.61 364.98C1094.12 364.083 1094.71 360.896 1095.01 359.601C1095.11 359.203 1095.41 359.004 1095.81 359.004C1096.21 359.103 1096.41 359.402 1096.41 359.8C1096.01 361.294 1095.91 362.788 1096.01 364.382C1096.31 365.079 1098.9 369.76 1099.89 371.553C1100.09 371.852 1099.99 372.35 1099.59 372.549C1099.39 372.649 1099.3 372.649 1099.2 372.649Z" fill="#231F20"/>
<path d="M1049.59 352.33C1038.04 346.952 1020.01 340.478 1015.33 357.51C1012.84 366.274 1017.62 375.438 1026.19 378.426C1046.91 386.095 1104.28 394.063 1104.28 394.063C1104.28 394.063 1109.95 393.067 1111.84 389.481C1113.74 385.896 1118.92 389.68 1121.61 387.29C1124.29 384.9 1122.4 380.218 1119.81 376.533C1117.22 372.848 1108.56 372.45 1106.37 372.848C1104.18 373.246 1098.6 376.533 1098.6 376.533C1093.42 379.621 1080.87 368.864 1076.59 366.374C1068.42 361.693 1060.15 357.31 1051.69 353.227L1049.59 352.33Z" fill="white"/>
<path d="M1104.28 394.76C1103.58 394.66 1046.51 386.692 1025.89 379.123C1016.93 376.035 1012.05 366.474 1014.64 357.41C1016.03 352.43 1018.62 349.044 1022.4 347.251C1030.37 343.566 1041.93 348.048 1049.79 351.733C1050.59 352.131 1051.29 352.43 1051.99 352.729C1060.45 356.812 1068.82 361.294 1076.98 365.876C1077.98 366.474 1079.38 367.37 1080.97 368.565C1086.05 372.151 1094.61 378.226 1098.3 376.035C1098.3 376.035 1103.88 372.748 1106.27 372.25C1108.26 371.852 1117.42 372.151 1120.41 376.135C1124.1 381.214 1124.69 385.497 1122.1 387.688C1120.61 388.983 1118.62 388.684 1116.92 388.485C1114.73 388.186 1113.34 388.087 1112.54 389.581C1110.45 393.465 1104.77 394.461 1104.47 394.461L1104.28 394.76ZM1029.38 347.151C1027.18 347.151 1024.99 347.55 1023 348.446C1019.62 350.04 1017.22 353.127 1015.93 357.808C1013.54 366.274 1018.12 375.139 1026.39 378.027C1046.41 385.497 1101.49 393.266 1104.28 393.565C1104.97 393.465 1109.65 392.37 1111.35 389.382C1112.54 386.991 1114.93 387.29 1117.02 387.589C1118.62 387.788 1120.21 387.987 1121.21 387.091C1124.2 384.501 1120.51 378.924 1119.31 377.23C1116.92 373.944 1108.66 373.346 1106.47 373.844C1104.77 374.143 1100.49 376.533 1098.9 377.43C1094.51 380.019 1086.25 374.143 1080.17 369.96C1078.58 368.864 1077.28 367.868 1076.29 367.37C1068.22 362.689 1059.75 358.306 1051.39 354.223C1050.69 353.924 1049.99 353.526 1049.3 353.227C1043.62 350.239 1035.95 347.151 1029.38 347.151Z" fill="#231F20"/>
<path d="M1091.43 257.113C1091.43 257.113 1127.38 272.252 1149.89 258.806L1152.28 243.667C1152.28 243.667 1117.42 251.436 1094.91 238.388C1093.42 241.476 1092.22 244.663 1091.53 248.049C1091.03 250.938 1091.03 254.025 1091.43 257.113Z" fill="white"/>
<path d="M1126.88 264.882C1108.76 264.882 1091.53 257.71 1091.23 257.611C1091.03 257.511 1090.93 257.312 1090.83 257.113C1090.43 254.025 1090.43 250.838 1090.93 247.75C1091.63 244.364 1092.82 241.077 1094.32 237.99C1094.41 237.79 1094.51 237.691 1094.71 237.691C1094.91 237.691 1095.01 237.691 1095.21 237.79C1117.22 250.539 1151.78 243.069 1152.08 242.97C1152.28 242.97 1152.48 242.97 1152.68 243.169C1152.88 243.268 1152.88 243.567 1152.88 243.766L1150.49 258.906C1150.49 259.105 1150.39 259.304 1150.19 259.304C1143.32 263.487 1134.95 264.882 1126.88 264.882ZM1092.02 256.615C1095.71 258.109 1128.48 270.559 1149.29 258.308L1151.49 244.364C1145.91 245.46 1115.53 250.539 1095.21 239.185C1093.92 241.974 1092.92 244.962 1092.22 248.049C1091.83 250.938 1091.73 253.826 1092.02 256.615Z" fill="#231F20"/>
<path d="M1114.14 318.367L1117.42 323.745C1117.42 323.745 1115.23 342.769 1123 353.625C1130.77 364.482 1174.89 337.689 1174.89 337.689L1176.39 322.65H1160.65C1160.65 322.65 1139.33 350.04 1129.37 343.566C1120.61 337.789 1121.41 322.65 1121.41 322.65L1127.08 318.267L1120.11 311.992L1114.14 318.367Z" fill="#231F20"/>
<path d="M1129.47 356.912C1126.29 356.912 1123.7 356.115 1122.3 354.024C1114.83 343.566 1116.33 326.235 1116.63 323.845L1113.54 318.666C1113.34 318.367 1113.44 318.068 1113.64 317.869L1119.51 311.594C1119.71 311.295 1120.21 311.295 1120.51 311.494L1127.58 317.769C1127.78 317.869 1127.78 318.068 1127.78 318.367C1127.78 318.566 1127.68 318.765 1127.48 318.865L1122 323.048C1122 325.239 1122 337.988 1129.67 343.068C1138.94 349.143 1159.75 322.55 1159.95 322.351C1160.05 322.152 1160.25 322.052 1160.45 322.052H1176.19C1176.39 322.052 1176.58 322.152 1176.68 322.251C1176.78 322.351 1176.88 322.55 1176.88 322.749L1175.39 337.789C1175.39 337.988 1175.29 338.187 1175.09 338.287C1173.7 339.283 1144.41 356.912 1129.47 356.912ZM1114.93 318.466L1117.92 323.446C1118.02 323.546 1118.02 323.745 1118.02 323.845C1118.02 324.044 1115.93 342.669 1123.4 353.227C1129.37 361.693 1161.74 344.761 1174.09 337.291L1175.39 323.446H1160.85C1158.46 326.434 1138.84 350.737 1128.88 344.263C1119.91 338.386 1120.61 323.347 1120.61 322.749C1120.61 322.55 1120.71 322.351 1120.91 322.251L1125.99 318.367L1120.01 313.088L1114.93 318.466Z" fill="#231F20"/>
<path d="M1124.79 310.1C1112.24 310.1 1105.67 304.921 1105.27 304.622C1104.97 304.423 1104.87 303.925 1105.07 303.626C1105.27 303.327 1105.77 303.228 1106.07 303.427C1106.07 303.427 1106.17 303.427 1106.17 303.526C1106.27 303.626 1116.13 311.295 1134.35 307.71C1134.75 307.61 1135.15 307.909 1135.15 308.307C1135.25 308.706 1134.95 309.104 1134.55 309.204C1131.47 309.801 1128.08 310.1 1124.79 310.1Z" fill="#231F20"/>
<path d="M1070.11 350.936C1069.81 350.936 1069.51 350.737 1069.42 350.438L1062.24 332.012C1062.14 331.614 1062.34 331.215 1062.74 331.116C1063.04 331.016 1063.44 331.215 1063.64 331.514L1070.81 349.94C1070.91 350.338 1070.81 350.737 1070.41 350.836C1070.21 350.936 1070.21 350.936 1070.11 350.936Z" fill="#231F20"/>
<path d="M1259.55 381.712L1207.66 387.091C1207.66 387.091 1214.03 431.313 1217.82 440.576C1217.82 440.576 1264.93 444.062 1289.13 430.118C1289.23 430.118 1259.95 389.979 1259.55 381.712Z" fill="white"/>
<path d="M1230.67 441.672C1223.1 441.672 1218.02 441.273 1217.82 441.273C1217.52 441.273 1217.32 441.074 1217.22 440.875C1213.44 431.712 1207.26 389.083 1206.96 387.19C1206.96 386.991 1206.96 386.792 1207.06 386.692C1207.16 386.493 1207.36 386.394 1207.56 386.394L1259.45 381.015C1259.65 381.015 1259.85 381.015 1259.95 381.214C1260.05 381.314 1260.15 381.513 1260.15 381.712C1260.35 388.087 1279.57 415.875 1289.63 429.72C1289.73 429.919 1289.83 430.118 1289.73 430.317C1289.73 430.516 1289.53 430.716 1289.43 430.815C1273.3 440.178 1246.5 441.672 1230.67 441.672ZM1218.42 439.978C1223.2 440.277 1265.53 442.468 1288.24 429.919C1284.45 424.74 1260.65 391.672 1259.05 382.509L1208.56 387.788C1209.35 393.465 1214.93 430.815 1218.42 439.978Z" fill="#231F20"/>
<path d="M1136.55 421.353L1072.9 419.76C1072.5 419.76 1072.2 419.461 1072.2 419.062C1072.2 418.664 1072.5 418.365 1072.9 418.365L1136.55 419.959C1136.94 419.959 1137.24 420.258 1137.24 420.656C1137.24 421.054 1136.94 421.353 1136.55 421.353Z" fill="#D1D3D4"/>
<path d="M1093.72 408.804C1084.55 408.804 1077.48 408.804 1077.18 408.704C1076.79 408.604 1076.59 408.306 1076.59 407.907C1076.69 407.509 1076.98 407.31 1077.38 407.31C1078.78 407.409 1115.33 407.31 1134.55 407.31C1134.95 407.31 1135.25 407.608 1135.25 408.007C1135.25 408.405 1134.95 408.704 1134.55 408.704C1126.59 408.704 1107.66 408.804 1093.72 408.804Z" fill="#D1D3D4"/>
<path d="M1129.37 396.752L1118.82 395.756C1118.42 395.656 1118.22 395.358 1118.22 394.959C1118.32 394.66 1118.62 394.362 1118.92 394.362L1129.47 395.358C1129.87 395.358 1130.17 395.756 1130.07 396.154C1130.07 396.453 1129.77 396.752 1129.37 396.752Z" fill="#D1D3D4"/>
<path d="M989.237 304.024C989.237 304.024 962.246 300.638 955.274 289.483C950.792 282.312 961.847 257.81 961.847 257.81C961.847 257.81 965.532 271.953 975.492 274.045C985.452 276.136 991.727 277.033 991.727 277.033C991.727 277.033 984.158 296.953 989.237 304.024Z" fill="white"/>
<path d="M989.237 304.722C988.042 304.622 961.748 301.136 954.676 289.881C949.995 282.411 960.752 258.507 961.25 257.511C961.349 257.212 961.648 257.113 961.947 257.113C962.246 257.113 962.445 257.312 962.544 257.611C962.544 257.71 966.23 271.356 975.592 273.348C985.353 275.439 991.727 276.336 991.827 276.336C992.026 276.336 992.225 276.535 992.325 276.634C992.424 276.834 992.424 277.033 992.424 277.232C992.325 277.431 985.054 296.953 989.835 303.626C990.034 303.825 990.034 304.124 989.835 304.423C989.735 304.622 989.536 304.722 989.237 304.722ZM961.847 259.802C959.457 265.479 952.385 283.407 955.971 289.084C961.748 298.447 982.365 302.232 988.042 303.128C984.755 295.957 989.636 281.216 990.93 277.63C988.839 277.332 983.261 276.435 975.492 274.742C967.226 272.949 963.242 263.786 961.847 259.802Z" fill="#231F20"/>
<path d="M959.556 288.586C959.158 288.586 958.859 288.288 958.859 287.989C958.162 281.316 962.345 269.762 962.644 269.264C962.744 268.866 963.142 268.666 963.54 268.866C963.939 268.965 964.138 269.364 963.939 269.762C963.939 269.762 963.939 269.762 963.939 269.862C963.939 269.961 959.656 281.614 960.353 287.989C960.353 288.387 960.154 288.686 959.756 288.786L959.556 288.586Z" fill="#D1D3D4"/>
<path d="M958.859 293.467C958.859 293.467 958.361 287.092 961.349 282.81L955.373 276.435C955.373 276.435 950.891 287.79 958.859 293.467Z" fill="white"/>
<path d="M958.859 294.164C958.76 294.164 958.56 294.164 958.461 294.064C950.094 288.088 954.676 276.336 954.676 276.236C954.776 275.838 955.274 275.738 955.572 275.838C955.672 275.838 955.772 275.937 955.871 276.037L961.847 282.511C962.046 282.71 962.146 283.108 961.947 283.407C959.158 287.391 959.556 293.467 959.556 293.566C959.556 293.865 959.457 294.064 959.158 294.264C959.158 294.164 958.959 294.164 958.859 294.164ZM955.672 277.73C954.875 280.419 953.381 287.491 958.162 291.973C958.162 288.786 958.959 285.698 960.453 282.909L955.672 277.73Z" fill="#231F20"/>
<path d="M965.931 294.164C965.532 294.164 965.234 293.865 965.234 293.467C965.234 292.969 965.632 281.415 968.421 274.543C968.52 274.144 968.919 273.945 969.317 274.045C969.716 274.144 969.915 274.543 969.815 274.941C969.815 275.041 969.815 275.041 969.716 275.041C967.026 281.714 966.528 293.367 966.528 293.467C966.628 293.865 966.329 294.164 965.931 294.164Z" fill="#D1D3D4"/>
<path d="M973.102 296.355C972.704 296.355 972.405 296.056 972.405 295.658C972.206 287.989 975.592 278.228 975.692 277.83C975.791 277.431 976.289 277.332 976.588 277.431C976.887 277.531 977.086 277.929 976.986 278.228C976.986 278.328 973.6 288.088 973.799 295.558C973.799 295.957 973.5 296.355 973.102 296.355Z" fill="#D1D3D4"/>
<path d="M980.373 298.148C979.974 298.148 979.676 297.849 979.676 297.451C979.676 293.068 979.974 288.686 980.771 284.403C980.871 284.005 981.17 283.806 981.568 283.806C981.966 283.905 982.166 284.204 982.166 284.602C981.369 288.786 981.07 293.068 981.07 297.351C981.07 297.849 980.771 298.148 980.373 298.148Z" fill="#D1D3D4"/>
<path d="M1257.86 247.452L1249.79 276.236C1249.79 276.236 1284.85 276.634 1297 261.595L1301.58 231.814C1301.58 231.814 1267.92 248.846 1257.86 247.452Z" fill="white"/>
<path d="M1249.99 276.933H1249.79C1249.59 276.933 1249.39 276.834 1249.29 276.634C1249.19 276.435 1249.09 276.236 1249.19 276.037L1257.26 247.252C1257.36 246.954 1257.66 246.754 1258.06 246.754C1267.82 248.149 1300.99 231.316 1301.38 231.217C1301.68 231.018 1302.18 231.217 1302.28 231.516C1302.38 231.615 1302.38 231.814 1302.38 231.914L1297.8 261.694C1297.8 261.794 1297.7 261.894 1297.7 261.993C1292.52 268.368 1282.96 272.85 1269.11 275.24C1262.64 276.336 1256.36 276.933 1249.99 276.933ZM1258.36 248.248L1250.69 275.539C1256.26 275.439 1285.45 274.443 1296.3 261.296L1300.69 233.01C1294.61 236.097 1268.12 248.946 1258.36 248.248Z" fill="#231F20"/>
<path d="M1254.27 343.665C1254.27 343.665 1255.47 310.598 1273.2 293.467L1320.81 307.311C1320.81 307.311 1295.01 335.398 1295.31 358.705L1254.27 343.665Z" fill="white"/>
<path d="M1295.31 359.402C1295.21 359.402 1295.11 359.402 1295.11 359.402L1254.07 344.362C1253.77 344.263 1253.58 343.964 1253.58 343.665C1253.58 343.366 1254.97 310.1 1272.8 292.969C1273 292.77 1273.3 292.77 1273.5 292.77L1321.1 306.614C1321.3 306.714 1321.5 306.913 1321.6 307.112C1321.7 307.311 1321.6 307.61 1321.4 307.809C1321.2 308.108 1295.81 335.896 1296.01 358.705C1296.01 358.904 1295.91 359.203 1295.71 359.302C1295.61 359.302 1295.51 359.402 1295.31 359.402ZM1255.07 343.167L1294.61 357.609C1294.81 345.657 1301.58 332.709 1307.36 323.845C1311.04 318.168 1315.13 312.789 1319.51 307.61L1273.4 294.264C1257.56 309.901 1255.27 338.884 1255.07 343.167Z" fill="#231F20"/>
<path d="M1305.77 311.893C1305.67 311.893 1305.67 311.893 1305.57 311.893L1272.9 302.431C1272.5 302.331 1272.3 301.933 1272.4 301.534C1272.5 301.136 1272.9 300.937 1273.3 301.036L1305.97 310.498C1306.36 310.598 1306.56 310.996 1306.46 311.295C1306.46 311.694 1306.16 311.893 1305.77 311.893Z" fill="#D1D3D4"/>
<path d="M1301.08 321.454C1300.99 321.454 1300.99 321.454 1300.89 321.454L1268.22 311.992C1267.82 311.893 1267.62 311.594 1267.72 311.196C1267.82 310.797 1268.12 310.598 1268.52 310.698H1268.62L1301.28 320.06C1301.68 320.16 1301.88 320.558 1301.78 320.956C1301.68 321.255 1301.38 321.454 1301.08 321.454Z" fill="#D1D3D4"/>
<path d="M1297.1 331.514H1296.9L1264.23 322.052C1263.83 321.952 1263.64 321.554 1263.73 321.156C1263.83 320.757 1264.23 320.558 1264.63 320.658L1297.4 330.12C1297.8 330.219 1298 330.618 1297.9 331.016C1297.7 331.315 1297.4 331.514 1297.1 331.514Z" fill="#D1D3D4"/>
<path d="M1283.16 340.478C1283.06 340.478 1283.06 340.478 1282.96 340.478L1259.65 333.705C1259.25 333.606 1259.05 333.207 1259.15 332.809C1259.25 332.41 1259.65 332.211 1260.05 332.311L1283.36 339.084C1283.75 339.183 1283.95 339.582 1283.85 339.98C1283.75 340.279 1283.46 340.478 1283.16 340.478Z" fill="#D1D3D4"/>
<path d="M1289.23 264.284H1289.13C1288.93 264.284 1288.44 264.184 1288.54 263.388C1288.54 263.188 1288.63 263.089 1288.73 262.989C1289.23 260.499 1291.32 247.651 1292.72 238.886C1292.82 238.488 1293.12 238.288 1293.52 238.288C1293.91 238.388 1294.11 238.687 1294.11 239.085C1290.23 262.989 1289.93 264.284 1289.23 264.284Z" fill="#D1D3D4"/>
<path d="M1282.16 267.87H1282.06C1281.86 267.87 1281.36 267.77 1281.46 266.973C1281.46 266.774 1281.56 266.674 1281.66 266.575C1282.16 264.085 1284.25 251.236 1285.65 242.472C1285.75 242.073 1286.14 241.874 1286.44 241.974C1286.74 242.073 1287.04 242.372 1286.94 242.77C1283.26 266.575 1282.96 267.87 1282.16 267.87Z" fill="#D1D3D4"/>
<path d="M1274.69 269.364H1274.59C1274.39 269.364 1273.89 269.264 1273.99 268.467C1273.99 268.268 1274.09 268.168 1274.19 268.069C1274.69 265.579 1276.78 252.73 1278.18 243.966C1278.28 243.567 1278.58 243.368 1278.97 243.368C1279.37 243.468 1279.57 243.766 1279.57 244.165C1275.69 268.069 1275.49 269.364 1274.69 269.364Z" fill="#D1D3D4"/>
<path d="M1267.62 273.049H1267.42C1267.22 273.049 1266.72 272.949 1266.82 272.152C1266.82 271.953 1266.92 271.854 1267.02 271.754C1267.52 269.264 1269.61 256.416 1271.01 247.651C1271.11 247.252 1271.4 247.053 1271.8 247.053C1272.2 247.153 1272.4 247.452 1272.4 247.85C1268.62 271.754 1268.42 273.049 1267.62 273.049Z" fill="#D1D3D4"/>
<path d="M1260.15 274.045H1260.05C1259.85 274.045 1259.35 273.945 1259.45 273.148C1259.45 272.949 1259.55 272.85 1259.65 272.75C1260.15 270.26 1262.24 257.412 1263.64 248.647C1263.73 248.248 1264.03 248.049 1264.43 248.049C1264.83 248.149 1265.03 248.448 1265.03 248.846C1261.15 272.75 1260.95 274.045 1260.15 274.045Z" fill="#D1D3D4"/>
<path d="M1230.17 224.544C1230.17 224.544 1229.77 232.014 1236.25 241.874C1236.25 241.874 1250.09 220.56 1258.56 217.273C1267.02 213.986 1236.34 210.799 1230.17 224.544Z" fill="white"/>
<path d="M1236.25 242.571C1236.05 242.571 1235.75 242.472 1235.65 242.272C1229.07 232.312 1229.37 224.842 1229.37 224.544C1229.37 224.444 1229.37 224.344 1229.47 224.344C1233.76 214.683 1249.59 212.99 1257.06 214.086C1259.45 214.484 1260.65 215.082 1260.75 216.078C1260.85 217.173 1259.35 217.771 1258.85 217.97C1250.69 221.157 1236.94 242.173 1236.84 242.372C1236.74 242.472 1236.54 242.671 1236.25 242.571ZM1230.87 224.643C1230.87 225.639 1231.07 232.113 1236.34 240.579C1239.13 236.396 1250.79 219.564 1258.46 216.576C1258.75 216.476 1259.15 216.277 1259.35 216.078C1258.56 215.48 1254.67 214.783 1249.09 215.281C1244.71 215.679 1234.25 217.372 1230.87 224.643Z" fill="#231F20"/>
<path d="M1261.34 234.504C1261.34 234.504 1250.59 216.576 1230.17 224.544C1234.25 215.48 1239.23 206.914 1245.11 198.847C1245.11 198.847 1256.36 194.863 1271.4 207.512C1271.4 207.512 1266.52 226.436 1261.34 234.504Z" fill="white"/>
<path d="M1261.34 235.201C1261.15 235.201 1260.85 235.101 1260.75 234.902C1260.35 234.205 1250.09 217.572 1230.47 225.241C1230.17 225.34 1229.87 225.241 1229.67 225.042C1229.47 224.842 1229.47 224.544 1229.57 224.245C1233.66 215.181 1238.74 206.516 1244.51 198.448C1244.61 198.349 1244.71 198.249 1244.81 198.249C1245.31 198.05 1256.66 194.365 1271.8 207.114C1272 207.313 1272.1 207.512 1272 207.811C1271.8 208.608 1267.02 226.834 1261.84 235.002C1261.74 235.101 1261.54 235.201 1261.34 235.201ZM1240.23 221.854C1252.08 221.854 1259.25 230.42 1261.24 233.209C1265.73 225.54 1269.81 210.5 1270.61 207.711C1257.26 196.656 1247 198.946 1245.51 199.345C1240.13 206.914 1235.45 214.882 1231.46 223.249C1234.25 222.352 1237.24 221.854 1240.23 221.854Z" fill="#231F20"/>
<path d="M1259.45 224.743C1259.35 224.743 1259.25 224.743 1259.25 224.743C1258.85 224.643 1258.66 224.245 1258.85 223.846L1264.53 207.412C1264.63 207.014 1265.03 206.815 1265.43 207.014C1265.83 207.114 1266.03 207.512 1265.83 207.91L1260.15 224.344C1260.05 224.544 1259.75 224.743 1259.45 224.743Z" fill="#D1D3D4"/>
<path d="M1252.88 220.56C1252.78 220.56 1252.68 220.56 1252.68 220.56C1252.28 220.46 1252.08 220.062 1252.28 219.663L1257.86 203.428C1257.96 203.03 1258.36 202.831 1258.66 202.93C1259.05 203.03 1259.25 203.428 1259.15 203.727V203.827L1253.58 220.062C1253.48 220.46 1253.18 220.56 1252.88 220.56Z" fill="#D1D3D4"/>
<path d="M1244.71 218.468C1244.61 218.468 1244.51 218.468 1244.41 218.368C1244.01 218.269 1243.91 217.771 1244.01 217.472C1250.49 202.034 1250.89 202.034 1251.38 201.934C1251.78 201.934 1252.08 202.134 1252.18 202.532C1252.18 202.731 1252.08 203.03 1251.88 203.229C1251.19 204.225 1247.5 212.791 1245.31 218.07C1245.21 218.269 1245.01 218.468 1244.71 218.468Z" fill="#D1D3D4"/>
<path d="M1035.65 432.508L1068.82 401.334L979.576 394.162L947.306 422.648L1035.65 432.508Z" fill="#231F20"/>
<path d="M1035.65 433.106L947.306 423.246C947.007 423.246 946.808 423.046 946.708 422.748C946.608 422.449 946.708 422.15 946.907 422.05L979.078 393.565C979.178 393.465 979.377 393.366 979.576 393.366L1068.92 400.537C1069.32 400.537 1069.61 400.935 1069.51 401.234C1069.51 401.433 1069.42 401.533 1069.32 401.732L1036.15 432.807C1035.95 433.106 1035.75 433.206 1035.65 433.106ZM948.999 422.15L1035.35 431.712L1067.22 401.931L979.775 394.86L948.999 422.15Z" fill="#231F20"/>
<path d="M1035.65 432.508L1019.02 362.689L932.366 355.816L947.306 422.648L1035.65 432.508Z" fill="white"/>
<path d="M1035.65 433.106L947.306 423.345C947.007 423.345 946.808 423.046 946.708 422.847L931.668 356.115C931.668 355.916 931.668 355.717 931.868 355.518C931.967 355.318 932.266 355.219 932.465 355.318L1019.12 362.091C1019.42 362.091 1019.71 362.29 1019.71 362.589L1036.35 432.409C1036.45 432.608 1036.35 432.907 1036.25 433.006C1036.05 433.106 1035.85 433.206 1035.65 433.106ZM948.003 422.05L1034.75 431.612L1018.42 363.286L933.262 356.613L948.003 422.05Z" fill="#231F20"/>
<path d="M985.95 404.82C983.062 404.72 980.174 403.624 977.982 401.732C975.99 400.039 973.002 394.959 972.803 394.76C972.604 394.461 972.704 394.162 972.903 393.963L974.795 391.872C974.895 391.672 975.094 391.672 975.393 391.672C975.592 391.672 975.791 391.772 975.891 391.971C977.982 394.66 981.668 395.656 984.855 394.461C987.146 393.465 989.038 391.772 990.034 389.481C990.134 388.983 990.233 388.485 990.333 387.888C990.432 386.892 990.532 386.394 990.731 386.095C990.93 385.796 991.329 385.298 994.416 385.995C994.715 386.095 995.014 386.294 995.014 386.692L995.114 390.477C995.313 391.473 996.707 397.648 995.114 399.74C992.723 402.927 989.934 404.72 986.946 405.019C986.548 404.82 986.249 404.82 985.95 404.82ZM974.297 394.461C975.094 395.756 977.385 399.342 978.879 400.636C981.07 402.529 983.859 403.525 986.747 403.326C989.436 403.027 991.827 401.433 994.018 398.644C994.914 397.35 994.416 392.967 993.819 390.477V390.378L993.719 387.19C993.122 387.091 992.524 386.991 991.926 387.091C991.926 387.29 991.827 387.788 991.827 388.087C991.827 388.784 991.628 389.481 991.428 390.079C990.233 392.668 988.042 394.66 985.452 395.756C981.966 397.15 977.982 396.254 975.293 393.465L974.297 394.461Z" fill="#D1D3D4"/>
<line x1="997.445" y1="489.038" x2="1319.25" y2="489.038" stroke="black"/>
<line x1="924.644" y1="502.259" x2="1319.25" y2="502.259" stroke="black"/>
</g>
<defs>
<filter id="filter0_d_1_138" x="131.659" y="237.273" width="327.159" height="146.818" filterUnits="userSpaceOnUse" color-interpolation-filters="sRGB">
<feFlood flood-opacity="0" result="BackgroundImageFix"/>
<feColorMatrix in="SourceAlpha" type="matrix" values="0 0 0 0 0 0 0 0 0 0 0 0 0 0 0 0 0 0 127 0" result="hardAlpha"/>
<feOffset dy="4"/>
<feGaussianBlur stdDeviation="2"/>
<feComposite in2="hardAlpha" operator="out"/>
<feColorMatrix type="matrix" values="0 0 0 0 0 0 0 0 0 0 0 0 0 0 0 0 0 0 0.25 0"/>
<feBlend mode="normal" in2="BackgroundImageFix" result="effect1_dropShadow_1_138"/>
<feBlend mode="normal" in="SourceGraphic" in2="effect1_dropShadow_1_138" result="shape"/>
</filter>
<linearGradient id="paint0_linear_1_138" x1="1500.5" y1="179" x2="1065" y2="179" gradientUnits="userSpaceOnUse">
<stop stop-color="#A9AFF3" stop-opacity="0.83"/>
<stop offset="1" stop-color="#63777C" stop-opacity="0"/>
</linearGradient>
<clipPath id="clip0_1_138">
<rect width="1500" height="670" fill="white"/>
</clipPath>
</defs>
</svg>
