<svg width="1500" height="670" viewBox="0 0 1500 670" fill="none" xmlns="http://www.w3.org/2000/svg">
<g clip-path="url(#clip0_1_380)">
<rect width="1500" height="670" fill="#DADCF0"/>
<rect x="1065" width="539" height="670" fill="url(#paint0_linear_1_380)"/>
<rect x="166" y="717.833" width="1411.97" height="277.221" transform="rotate(-15.7318 166 717.833)" fill="#B1B8DF"/>
<g opacity="0.9" filter="url(#filter0_d_1_380)">
<path d="M263.886 255.25C263.674 253.265 262.78 251.72 261.205 250.614C259.644 249.508 257.614 248.955 255.114 248.955C253.356 248.955 251.848 249.22 250.591 249.75C249.333 250.28 248.371 251 247.705 251.909C247.038 252.818 246.697 253.856 246.682 255.023C246.682 255.992 246.902 256.833 247.341 257.545C247.795 258.258 248.409 258.864 249.182 259.364C249.955 259.848 250.811 260.258 251.75 260.591C252.689 260.924 253.636 261.205 254.591 261.432L258.955 262.523C260.712 262.932 262.402 263.485 264.023 264.182C265.659 264.879 267.121 265.758 268.409 266.818C269.712 267.879 270.742 269.159 271.5 270.659C272.258 272.159 272.636 273.917 272.636 275.932C272.636 278.659 271.939 281.061 270.545 283.136C269.152 285.197 267.136 286.811 264.5 287.977C261.879 289.129 258.705 289.705 254.977 289.705C251.356 289.705 248.212 289.144 245.545 288.023C242.894 286.902 240.818 285.265 239.318 283.114C237.833 280.962 237.03 278.341 236.909 275.25H245.205C245.326 276.871 245.826 278.22 246.705 279.295C247.583 280.371 248.727 281.174 250.136 281.705C251.561 282.235 253.152 282.5 254.909 282.5C256.742 282.5 258.348 282.227 259.727 281.682C261.121 281.121 262.212 280.348 263 279.364C263.788 278.364 264.189 277.197 264.205 275.864C264.189 274.652 263.833 273.652 263.136 272.864C262.439 272.061 261.462 271.394 260.205 270.864C258.962 270.318 257.508 269.833 255.841 269.409L250.545 268.045C246.712 267.061 243.682 265.568 241.455 263.568C239.242 261.553 238.136 258.879 238.136 255.545C238.136 252.803 238.879 250.402 240.364 248.341C241.864 246.28 243.902 244.682 246.477 243.545C249.053 242.394 251.97 241.818 255.227 241.818C258.53 241.818 261.424 242.394 263.909 243.545C266.409 244.682 268.371 246.265 269.795 248.295C271.22 250.311 271.955 252.629 272 255.25H263.886ZM279.79 289V254.091H288.017V289H279.79ZM283.926 249.136C282.623 249.136 281.502 248.705 280.562 247.841C279.623 246.962 279.153 245.909 279.153 244.682C279.153 243.439 279.623 242.386 280.562 241.523C281.502 240.644 282.623 240.205 283.926 240.205C285.244 240.205 286.366 240.644 287.29 241.523C288.229 242.386 288.699 243.439 288.699 244.682C288.699 245.909 288.229 246.962 287.29 247.841C286.366 248.705 285.244 249.136 283.926 249.136ZM296.477 289V254.091H304.341V260.023H304.75C305.477 258.023 306.682 256.462 308.364 255.341C310.045 254.205 312.053 253.636 314.386 253.636C316.75 253.636 318.742 254.212 320.364 255.364C322 256.5 323.152 258.053 323.818 260.023H324.182C324.955 258.083 326.258 256.538 328.091 255.386C329.939 254.22 332.129 253.636 334.659 253.636C337.871 253.636 340.492 254.652 342.523 256.682C344.553 258.712 345.568 261.674 345.568 265.568V289H337.318V266.841C337.318 264.674 336.742 263.091 335.591 262.091C334.439 261.076 333.03 260.568 331.364 260.568C329.379 260.568 327.826 261.189 326.705 262.432C325.598 263.659 325.045 265.258 325.045 267.227V289H316.977V266.5C316.977 264.697 316.432 263.258 315.341 262.182C314.265 261.106 312.856 260.568 311.114 260.568C309.932 260.568 308.856 260.871 307.886 261.477C306.917 262.068 306.144 262.909 305.568 264C304.992 265.076 304.705 266.333 304.705 267.773V289H296.477ZM353.915 302.091V254.091H362.006V259.864H362.483C362.907 259.015 363.506 258.114 364.278 257.159C365.051 256.189 366.097 255.364 367.415 254.682C368.733 253.985 370.415 253.636 372.46 253.636C375.157 253.636 377.589 254.326 379.756 255.705C381.938 257.068 383.665 259.091 384.938 261.773C386.225 264.439 386.869 267.712 386.869 271.591C386.869 275.424 386.241 278.682 384.983 281.364C383.725 284.045 382.013 286.091 379.847 287.5C377.68 288.909 375.225 289.614 372.483 289.614C370.483 289.614 368.824 289.28 367.506 288.614C366.188 287.947 365.127 287.144 364.324 286.205C363.536 285.25 362.922 284.348 362.483 283.5H362.142V302.091H353.915ZM361.983 271.545C361.983 273.803 362.301 275.78 362.938 277.477C363.589 279.174 364.521 280.5 365.733 281.455C366.96 282.394 368.445 282.864 370.188 282.864C372.006 282.864 373.528 282.379 374.756 281.409C375.983 280.424 376.907 279.083 377.528 277.386C378.165 275.674 378.483 273.727 378.483 271.545C378.483 269.379 378.172 267.455 377.551 265.773C376.93 264.091 376.006 262.773 374.778 261.818C373.551 260.864 372.021 260.386 370.188 260.386C368.43 260.386 366.938 260.848 365.71 261.773C364.483 262.697 363.551 263.992 362.915 265.659C362.294 267.326 361.983 269.288 361.983 271.545ZM402.142 242.455V289H393.915V242.455H402.142ZM426.057 289.682C422.557 289.682 419.534 288.955 416.989 287.5C414.458 286.03 412.511 283.955 411.148 281.273C409.784 278.576 409.102 275.402 409.102 271.75C409.102 268.159 409.784 265.008 411.148 262.295C412.527 259.568 414.451 257.447 416.92 255.932C419.39 254.402 422.292 253.636 425.625 253.636C427.777 253.636 429.807 253.985 431.716 254.682C433.64 255.364 435.337 256.424 436.807 257.864C438.292 259.303 439.458 261.136 440.307 263.364C441.155 265.576 441.58 268.212 441.58 271.273V273.795H412.966V268.25H433.693C433.678 266.674 433.337 265.273 432.67 264.045C432.004 262.803 431.072 261.826 429.875 261.114C428.693 260.402 427.314 260.045 425.739 260.045C424.057 260.045 422.58 260.455 421.307 261.273C420.034 262.076 419.042 263.136 418.33 264.455C417.633 265.758 417.277 267.189 417.261 268.75V273.591C417.261 275.621 417.633 277.364 418.375 278.818C419.117 280.258 420.155 281.364 421.489 282.136C422.822 282.894 424.383 283.273 426.17 283.273C427.367 283.273 428.451 283.106 429.42 282.773C430.39 282.424 431.231 281.917 431.943 281.25C432.655 280.583 433.193 279.758 433.557 278.773L441.239 279.636C440.754 281.667 439.83 283.439 438.466 284.955C437.117 286.455 435.39 287.621 433.284 288.455C431.178 289.273 428.769 289.682 426.057 289.682ZM462.733 249.523V242.455H499.869V249.523H485.483V289H477.119V249.523H462.733ZM511.96 289.705C509.748 289.705 507.756 289.311 505.983 288.523C504.225 287.72 502.831 286.538 501.801 284.977C500.786 283.417 500.278 281.492 500.278 279.205C500.278 277.235 500.642 275.606 501.369 274.318C502.097 273.03 503.089 272 504.347 271.227C505.604 270.455 507.021 269.871 508.597 269.477C510.188 269.068 511.831 268.773 513.528 268.591C515.574 268.379 517.233 268.189 518.506 268.023C519.778 267.841 520.703 267.568 521.278 267.205C521.869 266.826 522.165 266.242 522.165 265.455V265.318C522.165 263.606 521.657 262.28 520.642 261.341C519.627 260.402 518.165 259.932 516.256 259.932C514.241 259.932 512.642 260.371 511.46 261.25C510.294 262.129 509.506 263.167 509.097 264.364L501.415 263.273C502.021 261.152 503.021 259.379 504.415 257.955C505.809 256.515 507.513 255.439 509.528 254.727C511.544 254 513.771 253.636 516.21 253.636C517.892 253.636 519.566 253.833 521.233 254.227C522.9 254.621 524.422 255.273 525.801 256.182C527.18 257.076 528.286 258.295 529.119 259.841C529.968 261.386 530.392 263.318 530.392 265.636V289H522.483V284.205H522.21C521.71 285.174 521.006 286.083 520.097 286.932C519.203 287.765 518.074 288.439 516.71 288.955C515.362 289.455 513.778 289.705 511.96 289.705ZM514.097 283.659C515.748 283.659 517.18 283.333 518.392 282.682C519.604 282.015 520.536 281.136 521.188 280.045C521.854 278.955 522.188 277.765 522.188 276.477V272.364C521.93 272.576 521.491 272.773 520.869 272.955C520.263 273.136 519.581 273.295 518.824 273.432C518.066 273.568 517.316 273.689 516.574 273.795C515.831 273.902 515.188 273.992 514.642 274.068C513.415 274.235 512.316 274.508 511.347 274.886C510.377 275.265 509.612 275.795 509.051 276.477C508.491 277.144 508.21 278.008 508.21 279.068C508.21 280.583 508.763 281.727 509.869 282.5C510.975 283.273 512.384 283.659 514.097 283.659ZM566.256 263.318L558.756 264.136C558.544 263.379 558.172 262.667 557.642 262C557.127 261.333 556.43 260.795 555.551 260.386C554.672 259.977 553.597 259.773 552.324 259.773C550.612 259.773 549.172 260.144 548.006 260.886C546.854 261.629 546.286 262.591 546.301 263.773C546.286 264.788 546.657 265.614 547.415 266.25C548.188 266.886 549.46 267.409 551.233 267.818L557.188 269.091C560.491 269.803 562.945 270.932 564.551 272.477C566.172 274.023 566.991 276.045 567.006 278.545C566.991 280.742 566.347 282.682 565.074 284.364C563.816 286.03 562.066 287.333 559.824 288.273C557.581 289.212 555.006 289.682 552.097 289.682C547.824 289.682 544.384 288.788 541.778 287C539.172 285.197 537.619 282.689 537.119 279.477L545.142 278.705C545.506 280.28 546.278 281.47 547.46 282.273C548.642 283.076 550.18 283.477 552.074 283.477C554.028 283.477 555.597 283.076 556.778 282.273C557.975 281.47 558.574 280.477 558.574 279.295C558.574 278.295 558.188 277.47 557.415 276.818C556.657 276.167 555.475 275.667 553.869 275.318L547.915 274.068C544.566 273.371 542.089 272.197 540.483 270.545C538.877 268.879 538.081 266.773 538.097 264.227C538.081 262.076 538.665 260.212 539.847 258.636C541.044 257.045 542.703 255.818 544.824 254.955C546.96 254.076 549.422 253.636 552.21 253.636C556.301 253.636 559.521 254.508 561.869 256.25C564.233 257.992 565.695 260.348 566.256 263.318ZM581.29 278.045L581.267 268.114H582.585L595.131 254.091H604.744L589.312 271.273H587.608L581.29 278.045ZM573.79 289V242.455H582.017V289H573.79ZM595.699 289L584.335 273.114L589.881 267.318L605.54 289H595.699ZM637.818 263.318L630.318 264.136C630.106 263.379 629.735 262.667 629.205 262C628.689 261.333 627.992 260.795 627.114 260.386C626.235 259.977 625.159 259.773 623.886 259.773C622.174 259.773 620.735 260.144 619.568 260.886C618.417 261.629 617.848 262.591 617.864 263.773C617.848 264.788 618.22 265.614 618.977 266.25C619.75 266.886 621.023 267.409 622.795 267.818L628.75 269.091C632.053 269.803 634.508 270.932 636.114 272.477C637.735 274.023 638.553 276.045 638.568 278.545C638.553 280.742 637.909 282.682 636.636 284.364C635.379 286.03 633.629 287.333 631.386 288.273C629.144 289.212 626.568 289.682 623.659 289.682C619.386 289.682 615.947 288.788 613.341 287C610.735 285.197 609.182 282.689 608.682 279.477L616.705 278.705C617.068 280.28 617.841 281.47 619.023 282.273C620.205 283.076 621.742 283.477 623.636 283.477C625.591 283.477 627.159 283.076 628.341 282.273C629.538 281.47 630.136 280.477 630.136 279.295C630.136 278.295 629.75 277.47 628.977 276.818C628.22 276.167 627.038 275.667 625.432 275.318L619.477 274.068C616.129 273.371 613.652 272.197 612.045 270.545C610.439 268.879 609.644 266.773 609.659 264.227C609.644 262.076 610.227 260.212 611.409 258.636C612.606 257.045 614.265 255.818 616.386 254.955C618.523 254.076 620.985 253.636 623.773 253.636C627.864 253.636 631.083 254.508 633.432 256.25C635.795 257.992 637.258 260.348 637.818 263.318ZM655.011 282.636L654.716 285.136C654.504 287.045 654.125 288.985 653.58 290.955C653.049 292.939 652.489 294.765 651.898 296.432C651.307 298.098 650.83 299.409 650.466 300.364H644.92C645.133 299.439 645.42 298.182 645.784 296.591C646.163 295 646.527 293.212 646.875 291.227C647.223 289.242 647.458 287.227 647.58 285.182L647.739 282.636H655.011ZM238.591 366V319.455H256.045C259.621 319.455 262.621 320.076 265.045 321.318C267.485 322.561 269.326 324.303 270.568 326.545C271.826 328.773 272.455 331.371 272.455 334.341C272.455 337.326 271.818 339.917 270.545 342.114C269.288 344.295 267.432 345.985 264.977 347.182C262.523 348.364 259.508 348.955 255.932 348.955H243.5V341.955H254.795C256.886 341.955 258.598 341.667 259.932 341.091C261.265 340.5 262.25 339.644 262.886 338.523C263.538 337.386 263.864 335.992 263.864 334.341C263.864 332.689 263.538 331.28 262.886 330.114C262.235 328.932 261.242 328.038 259.909 327.432C258.576 326.811 256.856 326.5 254.75 326.5H247.023V366H238.591ZM262.636 344.909L274.159 366H264.75L253.432 344.909H262.636ZM294.807 366.682C291.307 366.682 288.284 365.955 285.739 364.5C283.208 363.03 281.261 360.955 279.898 358.273C278.534 355.576 277.852 352.402 277.852 348.75C277.852 345.159 278.534 342.008 279.898 339.295C281.277 336.568 283.201 334.447 285.67 332.932C288.14 331.402 291.042 330.636 294.375 330.636C296.527 330.636 298.557 330.985 300.466 331.682C302.39 332.364 304.087 333.424 305.557 334.864C307.042 336.303 308.208 338.136 309.057 340.364C309.905 342.576 310.33 345.212 310.33 348.273V350.795H281.716V345.25H302.443C302.428 343.674 302.087 342.273 301.42 341.045C300.754 339.803 299.822 338.826 298.625 338.114C297.443 337.402 296.064 337.045 294.489 337.045C292.807 337.045 291.33 337.455 290.057 338.273C288.784 339.076 287.792 340.136 287.08 341.455C286.383 342.758 286.027 344.189 286.011 345.75V350.591C286.011 352.621 286.383 354.364 287.125 355.818C287.867 357.258 288.905 358.364 290.239 359.136C291.572 359.894 293.133 360.273 294.92 360.273C296.117 360.273 297.201 360.106 298.17 359.773C299.14 359.424 299.981 358.917 300.693 358.25C301.405 357.583 301.943 356.758 302.307 355.773L309.989 356.636C309.504 358.667 308.58 360.439 307.216 361.955C305.867 363.455 304.14 364.621 302.034 365.455C299.928 366.273 297.519 366.682 294.807 366.682ZM327.335 366.705C325.123 366.705 323.131 366.311 321.358 365.523C319.6 364.72 318.206 363.538 317.176 361.977C316.161 360.417 315.653 358.492 315.653 356.205C315.653 354.235 316.017 352.606 316.744 351.318C317.472 350.03 318.464 349 319.722 348.227C320.979 347.455 322.396 346.871 323.972 346.477C325.563 346.068 327.206 345.773 328.903 345.591C330.949 345.379 332.608 345.189 333.881 345.023C335.153 344.841 336.078 344.568 336.653 344.205C337.244 343.826 337.54 343.242 337.54 342.455V342.318C337.54 340.606 337.032 339.28 336.017 338.341C335.002 337.402 333.54 336.932 331.631 336.932C329.616 336.932 328.017 337.371 326.835 338.25C325.669 339.129 324.881 340.167 324.472 341.364L316.79 340.273C317.396 338.152 318.396 336.379 319.79 334.955C321.184 333.515 322.888 332.439 324.903 331.727C326.919 331 329.146 330.636 331.585 330.636C333.267 330.636 334.941 330.833 336.608 331.227C338.275 331.621 339.797 332.273 341.176 333.182C342.555 334.076 343.661 335.295 344.494 336.841C345.343 338.386 345.767 340.318 345.767 342.636V366H337.858V361.205H337.585C337.085 362.174 336.381 363.083 335.472 363.932C334.578 364.765 333.449 365.439 332.085 365.955C330.737 366.455 329.153 366.705 327.335 366.705ZM329.472 360.659C331.123 360.659 332.555 360.333 333.767 359.682C334.979 359.015 335.911 358.136 336.562 357.045C337.229 355.955 337.562 354.765 337.562 353.477V349.364C337.305 349.576 336.866 349.773 336.244 349.955C335.638 350.136 334.956 350.295 334.199 350.432C333.441 350.568 332.691 350.689 331.949 350.795C331.206 350.902 330.563 350.992 330.017 351.068C328.79 351.235 327.691 351.508 326.722 351.886C325.752 352.265 324.987 352.795 324.426 353.477C323.866 354.144 323.585 355.008 323.585 356.068C323.585 357.583 324.138 358.727 325.244 359.5C326.35 360.273 327.759 360.659 329.472 360.659ZM362.267 319.455V366H354.04V319.455H362.267ZM386.966 319.455H397.284L411.102 353.182H411.648L425.466 319.455H435.784V366H427.693V334.023H427.261L414.398 365.864H408.352L395.489 333.955H395.057V366H386.966V319.455ZM459.83 366.682C456.42 366.682 453.466 365.932 450.966 364.432C448.466 362.932 446.527 360.833 445.148 358.136C443.784 355.439 443.102 352.288 443.102 348.682C443.102 345.076 443.784 341.917 445.148 339.205C446.527 336.492 448.466 334.386 450.966 332.886C453.466 331.386 456.42 330.636 459.83 330.636C463.239 330.636 466.193 331.386 468.693 332.886C471.193 334.386 473.125 336.492 474.489 339.205C475.867 341.917 476.557 345.076 476.557 348.682C476.557 352.288 475.867 355.439 474.489 358.136C473.125 360.833 471.193 362.932 468.693 364.432C466.193 365.932 463.239 366.682 459.83 366.682ZM459.875 360.091C461.723 360.091 463.269 359.583 464.511 358.568C465.754 357.538 466.678 356.159 467.284 354.432C467.905 352.705 468.216 350.78 468.216 348.659C468.216 346.523 467.905 344.591 467.284 342.864C466.678 341.121 465.754 339.735 464.511 338.705C463.269 337.674 461.723 337.159 459.875 337.159C457.981 337.159 456.405 337.674 455.148 338.705C453.905 339.735 452.973 341.121 452.352 342.864C451.746 344.591 451.443 346.523 451.443 348.659C451.443 350.78 451.746 352.705 452.352 354.432C452.973 356.159 453.905 357.538 455.148 358.568C456.405 359.583 457.981 360.091 459.875 360.091ZM491.767 345.545V366H483.54V331.091H491.403V337.023H491.812C492.616 335.068 493.896 333.515 495.653 332.364C497.426 331.212 499.616 330.636 502.222 330.636C504.631 330.636 506.729 331.152 508.517 332.182C510.32 333.212 511.714 334.705 512.699 336.659C513.699 338.614 514.191 340.985 514.176 343.773V366H505.949V345.045C505.949 342.712 505.343 340.886 504.131 339.568C502.934 338.25 501.275 337.591 499.153 337.591C497.714 337.591 496.434 337.909 495.312 338.545C494.206 339.167 493.335 340.068 492.699 341.25C492.078 342.432 491.767 343.864 491.767 345.545ZM537.994 366.682C534.494 366.682 531.472 365.955 528.926 364.5C526.396 363.03 524.449 360.955 523.085 358.273C521.722 355.576 521.04 352.402 521.04 348.75C521.04 345.159 521.722 342.008 523.085 339.295C524.464 336.568 526.388 334.447 528.858 332.932C531.328 331.402 534.229 330.636 537.562 330.636C539.714 330.636 541.744 330.985 543.653 331.682C545.578 332.364 547.275 333.424 548.744 334.864C550.229 336.303 551.396 338.136 552.244 340.364C553.093 342.576 553.517 345.212 553.517 348.273V350.795H524.903V345.25H545.631C545.616 343.674 545.275 342.273 544.608 341.045C543.941 339.803 543.009 338.826 541.812 338.114C540.631 337.402 539.252 337.045 537.676 337.045C535.994 337.045 534.517 337.455 533.244 338.273C531.972 339.076 530.979 340.136 530.267 341.455C529.57 342.758 529.214 344.189 529.199 345.75V350.591C529.199 352.621 529.57 354.364 530.312 355.818C531.055 357.258 532.093 358.364 533.426 359.136C534.759 359.894 536.32 360.273 538.108 360.273C539.305 360.273 540.388 360.106 541.358 359.773C542.328 359.424 543.169 358.917 543.881 358.25C544.593 357.583 545.131 356.758 545.494 355.773L553.176 356.636C552.691 358.667 551.767 360.439 550.403 361.955C549.055 363.455 547.328 364.621 545.222 365.455C543.116 366.273 540.706 366.682 537.994 366.682ZM564.591 379.091C563.47 379.091 562.432 379 561.477 378.818C560.538 378.652 559.788 378.455 559.227 378.227L561.136 371.818C562.333 372.167 563.402 372.333 564.341 372.318C565.28 372.303 566.106 372.008 566.818 371.432C567.545 370.871 568.159 369.932 568.659 368.614L569.364 366.727L556.705 331.091H565.432L573.477 357.455H573.841L581.909 331.091H590.659L576.682 370.227C576.03 372.076 575.167 373.659 574.091 374.977C573.015 376.311 571.697 377.326 570.136 378.023C568.591 378.735 566.742 379.091 564.591 379.091Z" fill="#131C83" fill-opacity="0.83" shape-rendering="crispEdges"/>
</g>
<path opacity="0.7" d="M250.065 396.545V414H247.253L239.028 402.111H238.884V414H235.722V396.545H238.551L246.767 408.443H246.92V396.545H250.065ZM259.085 414.256C257.806 414.256 256.698 413.974 255.761 413.412C254.823 412.849 254.096 412.062 253.579 411.051C253.067 410.04 252.812 408.858 252.812 407.506C252.812 406.153 253.067 404.969 253.579 403.952C254.096 402.935 254.823 402.145 255.761 401.582C256.698 401.02 257.806 400.739 259.085 400.739C260.363 400.739 261.471 401.02 262.408 401.582C263.346 402.145 264.07 402.935 264.582 403.952C265.099 404.969 265.357 406.153 265.357 407.506C265.357 408.858 265.099 410.04 264.582 411.051C264.07 412.062 263.346 412.849 262.408 413.412C261.471 413.974 260.363 414.256 259.085 414.256ZM259.102 411.784C259.795 411.784 260.374 411.594 260.84 411.213C261.306 410.827 261.653 410.31 261.88 409.662C262.113 409.014 262.229 408.293 262.229 407.497C262.229 406.696 262.113 405.972 261.88 405.324C261.653 404.67 261.306 404.151 260.84 403.764C260.374 403.378 259.795 403.185 259.102 403.185C258.391 403.185 257.8 403.378 257.329 403.764C256.863 404.151 256.513 404.67 256.281 405.324C256.053 405.972 255.94 406.696 255.94 407.497C255.94 408.293 256.053 409.014 256.281 409.662C256.513 410.31 256.863 410.827 257.329 411.213C257.8 411.594 258.391 411.784 259.102 411.784ZM279.724 414.256C278.412 414.256 277.278 413.983 276.324 413.438C275.375 412.886 274.645 412.108 274.134 411.102C273.622 410.091 273.366 408.901 273.366 407.531C273.366 406.185 273.622 405.003 274.134 403.986C274.651 402.963 275.372 402.168 276.298 401.599C277.224 401.026 278.312 400.739 279.562 400.739C280.369 400.739 281.131 400.869 281.847 401.131C282.568 401.386 283.205 401.784 283.756 402.324C284.313 402.864 284.75 403.551 285.068 404.386C285.386 405.216 285.545 406.205 285.545 407.352V408.298H274.815V406.219H282.588C282.582 405.628 282.455 405.102 282.205 404.642C281.955 404.176 281.605 403.81 281.156 403.543C280.713 403.276 280.196 403.142 279.605 403.142C278.974 403.142 278.42 403.295 277.943 403.602C277.466 403.903 277.094 404.301 276.827 404.795C276.565 405.284 276.432 405.821 276.426 406.406V408.222C276.426 408.983 276.565 409.636 276.844 410.182C277.122 410.722 277.511 411.136 278.011 411.426C278.511 411.71 279.097 411.852 279.767 411.852C280.216 411.852 280.622 411.79 280.986 411.665C281.349 411.534 281.665 411.344 281.932 411.094C282.199 410.844 282.401 410.534 282.537 410.165L285.418 410.489C285.236 411.25 284.889 411.915 284.378 412.483C283.872 413.045 283.224 413.483 282.435 413.795C281.645 414.102 280.741 414.256 279.724 414.256ZM290.397 400.909L293.039 405.741L295.724 400.909H298.988L295.042 407.455L299.056 414H295.809L293.039 409.287L290.295 414H287.022L291.011 407.455L287.124 400.909H290.397ZM301.374 418.909V400.909H304.408V403.074H304.587C304.746 402.756 304.971 402.418 305.261 402.06C305.55 401.696 305.942 401.386 306.437 401.131C306.931 400.869 307.562 400.739 308.329 400.739C309.34 400.739 310.252 400.997 311.065 401.514C311.883 402.026 312.531 402.784 313.008 403.79C313.491 404.79 313.732 406.017 313.732 407.472C313.732 408.909 313.496 410.131 313.025 411.136C312.553 412.142 311.911 412.909 311.099 413.438C310.286 413.966 309.366 414.23 308.337 414.23C307.587 414.23 306.965 414.105 306.471 413.855C305.977 413.605 305.579 413.304 305.278 412.952C304.982 412.594 304.752 412.256 304.587 411.938H304.46V418.909H301.374ZM304.4 407.455C304.4 408.301 304.519 409.043 304.758 409.679C305.002 410.315 305.352 410.812 305.806 411.17C306.266 411.523 306.823 411.699 307.477 411.699C308.158 411.699 308.729 411.517 309.19 411.153C309.65 410.784 309.996 410.281 310.229 409.645C310.468 409.003 310.587 408.273 310.587 407.455C310.587 406.642 310.471 405.92 310.238 405.29C310.005 404.659 309.658 404.165 309.198 403.807C308.738 403.449 308.164 403.27 307.477 403.27C306.817 403.27 306.258 403.443 305.798 403.79C305.337 404.136 304.988 404.622 304.749 405.247C304.516 405.872 304.4 406.608 304.4 407.455ZM322.17 414.256C320.857 414.256 319.724 413.983 318.769 413.438C317.82 412.886 317.09 412.108 316.579 411.102C316.067 410.091 315.812 408.901 315.812 407.531C315.812 406.185 316.067 405.003 316.579 403.986C317.096 402.963 317.817 402.168 318.744 401.599C319.67 401.026 320.758 400.739 322.008 400.739C322.815 400.739 323.576 400.869 324.292 401.131C325.013 401.386 325.65 401.784 326.201 402.324C326.758 402.864 327.195 403.551 327.513 404.386C327.832 405.216 327.991 406.205 327.991 407.352V408.298H317.261V406.219H325.033C325.028 405.628 324.9 405.102 324.65 404.642C324.4 404.176 324.05 403.81 323.602 403.543C323.158 403.276 322.641 403.142 322.05 403.142C321.42 403.142 320.866 403.295 320.388 403.602C319.911 403.903 319.539 404.301 319.272 404.795C319.011 405.284 318.877 405.821 318.871 406.406V408.222C318.871 408.983 319.011 409.636 319.289 410.182C319.567 410.722 319.957 411.136 320.457 411.426C320.957 411.71 321.542 411.852 322.212 411.852C322.661 411.852 323.067 411.79 323.431 411.665C323.795 411.534 324.11 411.344 324.377 411.094C324.644 410.844 324.846 410.534 324.982 410.165L327.863 410.489C327.681 411.25 327.335 411.915 326.823 412.483C326.317 413.045 325.67 413.483 324.88 413.795C324.09 414.102 323.187 414.256 322.17 414.256ZM330.601 414V400.909H333.592V403.091H333.729C333.967 402.335 334.376 401.753 334.956 401.344C335.541 400.929 336.209 400.722 336.959 400.722C337.129 400.722 337.32 400.73 337.53 400.747C337.746 400.759 337.925 400.778 338.067 400.807V403.645C337.936 403.599 337.729 403.56 337.445 403.526C337.166 403.486 336.896 403.466 336.635 403.466C336.072 403.466 335.567 403.588 335.118 403.832C334.675 404.071 334.325 404.403 334.07 404.83C333.814 405.256 333.686 405.747 333.686 406.304V414H330.601ZM340.116 414V400.909H343.202V414H340.116ZM341.668 399.051C341.179 399.051 340.759 398.889 340.406 398.565C340.054 398.236 339.878 397.841 339.878 397.381C339.878 396.915 340.054 396.52 340.406 396.196C340.759 395.866 341.179 395.702 341.668 395.702C342.162 395.702 342.582 395.866 342.929 396.196C343.281 396.52 343.457 396.915 343.457 397.381C343.457 397.841 343.281 398.236 342.929 398.565C342.582 398.889 342.162 399.051 341.668 399.051ZM352.17 414.256C350.857 414.256 349.724 413.983 348.769 413.438C347.82 412.886 347.09 412.108 346.579 411.102C346.067 410.091 345.812 408.901 345.812 407.531C345.812 406.185 346.067 405.003 346.579 403.986C347.096 402.963 347.817 402.168 348.744 401.599C349.67 401.026 350.758 400.739 352.008 400.739C352.815 400.739 353.576 400.869 354.292 401.131C355.013 401.386 355.65 401.784 356.201 402.324C356.758 402.864 357.195 403.551 357.513 404.386C357.832 405.216 357.991 406.205 357.991 407.352V408.298H347.261V406.219H355.033C355.028 405.628 354.9 405.102 354.65 404.642C354.4 404.176 354.05 403.81 353.602 403.543C353.158 403.276 352.641 403.142 352.05 403.142C351.42 403.142 350.866 403.295 350.388 403.602C349.911 403.903 349.539 404.301 349.272 404.795C349.011 405.284 348.877 405.821 348.871 406.406V408.222C348.871 408.983 349.011 409.636 349.289 410.182C349.567 410.722 349.957 411.136 350.457 411.426C350.957 411.71 351.542 411.852 352.212 411.852C352.661 411.852 353.067 411.79 353.431 411.665C353.795 411.534 354.11 411.344 354.377 411.094C354.644 410.844 354.846 410.534 354.982 410.165L357.863 410.489C357.681 411.25 357.335 411.915 356.823 412.483C356.317 413.045 355.67 413.483 354.88 413.795C354.09 414.102 353.187 414.256 352.17 414.256ZM363.686 406.33V414H360.601V400.909H363.55V403.134H363.703C364.004 402.401 364.484 401.818 365.143 401.386C365.808 400.955 366.629 400.739 367.607 400.739C368.51 400.739 369.297 400.932 369.967 401.318C370.643 401.705 371.166 402.264 371.536 402.997C371.911 403.73 372.095 404.619 372.089 405.665V414H369.004V406.142C369.004 405.267 368.777 404.582 368.322 404.088C367.874 403.594 367.251 403.347 366.456 403.347C365.916 403.347 365.436 403.466 365.016 403.705C364.601 403.937 364.274 404.276 364.036 404.719C363.803 405.162 363.686 405.699 363.686 406.33ZM380.936 414.256C379.629 414.256 378.507 413.969 377.57 413.395C376.638 412.821 375.919 412.028 375.413 411.017C374.913 410 374.663 408.83 374.663 407.506C374.663 406.176 374.919 405.003 375.43 403.986C375.942 402.963 376.663 402.168 377.595 401.599C378.533 401.026 379.641 400.739 380.919 400.739C381.982 400.739 382.922 400.935 383.74 401.327C384.564 401.713 385.22 402.261 385.709 402.972C386.197 403.676 386.476 404.5 386.544 405.443H383.595C383.476 404.812 383.192 404.287 382.743 403.866C382.3 403.44 381.706 403.227 380.962 403.227C380.331 403.227 379.777 403.398 379.3 403.739C378.822 404.074 378.45 404.557 378.183 405.188C377.922 405.818 377.791 406.574 377.791 407.455C377.791 408.347 377.922 409.114 378.183 409.756C378.445 410.392 378.811 410.884 379.283 411.23C379.76 411.571 380.32 411.741 380.962 411.741C381.416 411.741 381.822 411.656 382.18 411.486C382.544 411.31 382.848 411.057 383.092 410.727C383.337 410.398 383.504 409.997 383.595 409.526H386.544C386.47 410.452 386.197 411.273 385.726 411.989C385.254 412.699 384.612 413.256 383.8 413.659C382.987 414.057 382.033 414.256 380.936 414.256ZM394.873 414.256C393.56 414.256 392.427 413.983 391.472 413.438C390.523 412.886 389.793 412.108 389.282 411.102C388.771 410.091 388.515 408.901 388.515 407.531C388.515 406.185 388.771 405.003 389.282 403.986C389.799 402.963 390.521 402.168 391.447 401.599C392.373 401.026 393.461 400.739 394.711 400.739C395.518 400.739 396.279 400.869 396.995 401.131C397.717 401.386 398.353 401.784 398.904 402.324C399.461 402.864 399.898 403.551 400.217 404.386C400.535 405.216 400.694 406.205 400.694 407.352V408.298H389.964V406.219H397.737C397.731 405.628 397.603 405.102 397.353 404.642C397.103 404.176 396.754 403.81 396.305 403.543C395.862 403.276 395.344 403.142 394.754 403.142C394.123 403.142 393.569 403.295 393.092 403.602C392.614 403.903 392.242 404.301 391.975 404.795C391.714 405.284 391.58 405.821 391.575 406.406V408.222C391.575 408.983 391.714 409.636 391.992 410.182C392.271 410.722 392.66 411.136 393.16 411.426C393.66 411.71 394.245 411.852 394.915 411.852C395.364 411.852 395.771 411.79 396.134 411.665C396.498 411.534 396.813 411.344 397.08 411.094C397.347 410.844 397.549 410.534 397.685 410.165L400.566 410.489C400.384 411.25 400.038 411.915 399.526 412.483C399.021 413.045 398.373 413.483 397.583 413.795C396.793 414.102 395.89 414.256 394.873 414.256ZM412.342 406.33V414H409.257V400.909H412.206V403.134H412.359C412.661 402.401 413.141 401.818 413.8 401.386C414.464 400.955 415.286 400.739 416.263 400.739C417.166 400.739 417.953 400.932 418.624 401.318C419.3 401.705 419.822 402.264 420.192 402.997C420.567 403.73 420.751 404.619 420.746 405.665V414H417.661V406.142C417.661 405.267 417.433 404.582 416.979 404.088C416.53 403.594 415.908 403.347 415.112 403.347C414.572 403.347 414.092 403.466 413.672 403.705C413.257 403.937 412.93 404.276 412.692 404.719C412.459 405.162 412.342 405.699 412.342 406.33ZM429.678 414.256C428.365 414.256 427.232 413.983 426.277 413.438C425.328 412.886 424.598 412.108 424.087 411.102C423.575 410.091 423.32 408.901 423.32 407.531C423.32 406.185 423.575 405.003 424.087 403.986C424.604 402.963 425.325 402.168 426.251 401.599C427.178 401.026 428.266 400.739 429.516 400.739C430.322 400.739 431.084 400.869 431.8 401.131C432.521 401.386 433.158 401.784 433.709 402.324C434.266 402.864 434.703 403.551 435.021 404.386C435.339 405.216 435.499 406.205 435.499 407.352V408.298H424.768V406.219H432.541C432.536 405.628 432.408 405.102 432.158 404.642C431.908 404.176 431.558 403.81 431.109 403.543C430.666 403.276 430.149 403.142 429.558 403.142C428.928 403.142 428.374 403.295 427.896 403.602C427.419 403.903 427.047 404.301 426.78 404.795C426.518 405.284 426.385 405.821 426.379 406.406V408.222C426.379 408.983 426.518 409.636 426.797 410.182C427.075 410.722 427.464 411.136 427.964 411.426C428.464 411.71 429.05 411.852 429.72 411.852C430.169 411.852 430.575 411.79 430.939 411.665C431.303 411.534 431.618 411.344 431.885 411.094C432.152 410.844 432.354 410.534 432.49 410.165L435.371 410.489C435.189 411.25 434.842 411.915 434.331 412.483C433.825 413.045 433.178 413.483 432.388 413.795C431.598 414.102 430.695 414.256 429.678 414.256ZM443.904 414.256C442.592 414.256 441.458 413.983 440.504 413.438C439.555 412.886 438.825 412.108 438.313 411.102C437.802 410.091 437.546 408.901 437.546 407.531C437.546 406.185 437.802 405.003 438.313 403.986C438.83 402.963 439.552 402.168 440.478 401.599C441.404 401.026 442.492 400.739 443.742 400.739C444.549 400.739 445.31 400.869 446.026 401.131C446.748 401.386 447.384 401.784 447.935 402.324C448.492 402.864 448.93 403.551 449.248 404.386C449.566 405.216 449.725 406.205 449.725 407.352V408.298H438.995V406.219H446.768C446.762 405.628 446.634 405.102 446.384 404.642C446.134 404.176 445.785 403.81 445.336 403.543C444.893 403.276 444.376 403.142 443.785 403.142C443.154 403.142 442.6 403.295 442.123 403.602C441.646 403.903 441.273 404.301 441.006 404.795C440.745 405.284 440.612 405.821 440.606 406.406V408.222C440.606 408.983 440.745 409.636 441.023 410.182C441.302 410.722 441.691 411.136 442.191 411.426C442.691 411.71 443.276 411.852 443.947 411.852C444.396 411.852 444.802 411.79 445.165 411.665C445.529 411.534 445.844 411.344 446.112 411.094C446.379 410.844 446.58 410.534 446.717 410.165L449.597 410.489C449.415 411.25 449.069 411.915 448.558 412.483C448.052 413.045 447.404 413.483 446.614 413.795C445.825 414.102 444.921 414.256 443.904 414.256ZM457.193 414.23C456.165 414.23 455.244 413.966 454.432 413.438C453.619 412.909 452.977 412.142 452.506 411.136C452.034 410.131 451.798 408.909 451.798 407.472C451.798 406.017 452.037 404.79 452.514 403.79C452.997 402.784 453.648 402.026 454.466 401.514C455.284 400.997 456.196 400.739 457.202 400.739C457.969 400.739 458.599 400.869 459.094 401.131C459.588 401.386 459.98 401.696 460.27 402.06C460.56 402.418 460.784 402.756 460.943 403.074H461.071V396.545H464.165V414H461.131V411.938H460.943C460.784 412.256 460.554 412.594 460.253 412.952C459.952 413.304 459.554 413.605 459.06 413.855C458.565 414.105 457.943 414.23 457.193 414.23ZM458.054 411.699C458.707 411.699 459.264 411.523 459.724 411.17C460.185 410.812 460.534 410.315 460.773 409.679C461.011 409.043 461.131 408.301 461.131 407.455C461.131 406.608 461.011 405.872 460.773 405.247C460.54 404.622 460.193 404.136 459.733 403.79C459.278 403.443 458.719 403.27 458.054 403.27C457.366 403.27 456.793 403.449 456.332 403.807C455.872 404.165 455.526 404.659 455.293 405.29C455.06 405.92 454.943 406.642 454.943 407.455C454.943 408.273 455.06 409.003 455.293 409.645C455.531 410.281 455.881 410.784 456.341 411.153C456.807 411.517 457.378 411.699 458.054 411.699ZM473.248 414.256C471.935 414.256 470.802 413.983 469.847 413.438C468.898 412.886 468.168 412.108 467.657 411.102C467.146 410.091 466.89 408.901 466.89 407.531C466.89 406.185 467.146 405.003 467.657 403.986C468.174 402.963 468.896 402.168 469.822 401.599C470.748 401.026 471.836 400.739 473.086 400.739C473.893 400.739 474.654 400.869 475.37 401.131C476.092 401.386 476.728 401.784 477.279 402.324C477.836 402.864 478.273 403.551 478.592 404.386C478.91 405.216 479.069 406.205 479.069 407.352V408.298H468.339V406.219H476.112C476.106 405.628 475.978 405.102 475.728 404.642C475.478 404.176 475.129 403.81 474.68 403.543C474.237 403.276 473.719 403.142 473.129 403.142C472.498 403.142 471.944 403.295 471.467 403.602C470.989 403.903 470.617 404.301 470.35 404.795C470.089 405.284 469.955 405.821 469.95 406.406V408.222C469.95 408.983 470.089 409.636 470.367 410.182C470.646 410.722 471.035 411.136 471.535 411.426C472.035 411.71 472.62 411.852 473.29 411.852C473.739 411.852 474.146 411.79 474.509 411.665C474.873 411.534 475.188 411.344 475.455 411.094C475.722 410.844 475.924 410.534 476.06 410.165L478.941 410.489C478.759 411.25 478.413 411.915 477.901 412.483C477.396 413.045 476.748 413.483 475.958 413.795C475.168 414.102 474.265 414.256 473.248 414.256ZM486.537 414.23C485.509 414.23 484.588 413.966 483.776 413.438C482.963 412.909 482.321 412.142 481.849 411.136C481.378 410.131 481.142 408.909 481.142 407.472C481.142 406.017 481.381 404.79 481.858 403.79C482.341 402.784 482.991 402.026 483.81 401.514C484.628 400.997 485.54 400.739 486.545 400.739C487.313 400.739 487.943 400.869 488.438 401.131C488.932 401.386 489.324 401.696 489.614 402.06C489.903 402.418 490.128 402.756 490.287 403.074H490.415V396.545H493.509V414H490.474V411.938H490.287C490.128 412.256 489.898 412.594 489.597 412.952C489.295 413.304 488.898 413.605 488.403 413.855C487.909 414.105 487.287 414.23 486.537 414.23ZM487.398 411.699C488.051 411.699 488.608 411.523 489.068 411.17C489.528 410.812 489.878 410.315 490.116 409.679C490.355 409.043 490.474 408.301 490.474 407.455C490.474 406.608 490.355 405.872 490.116 405.247C489.884 404.622 489.537 404.136 489.077 403.79C488.622 403.443 488.063 403.27 487.398 403.27C486.71 403.27 486.136 403.449 485.676 403.807C485.216 404.165 484.869 404.659 484.636 405.29C484.403 405.92 484.287 406.642 484.287 407.455C484.287 408.273 484.403 409.003 484.636 409.645C484.875 410.281 485.224 410.784 485.685 411.153C486.151 411.517 486.722 411.699 487.398 411.699ZM498.697 414.188C498.18 414.188 497.737 414.006 497.367 413.642C496.998 413.278 496.816 412.835 496.822 412.312C496.816 411.801 496.998 411.364 497.367 411C497.737 410.636 498.18 410.455 498.697 410.455C499.197 410.455 499.631 410.636 500.001 411C500.376 411.364 500.566 411.801 500.572 412.312C500.566 412.659 500.475 412.974 500.299 413.259C500.129 413.543 499.901 413.77 499.617 413.94C499.339 414.105 499.032 414.188 498.697 414.188ZM516.194 396.545H519.33V408.818C519.325 409.943 519.086 410.912 518.614 411.724C518.143 412.531 517.484 413.153 516.637 413.591C515.796 414.023 514.816 414.239 513.697 414.239C512.674 414.239 511.754 414.057 510.935 413.693C510.123 413.324 509.478 412.778 509.001 412.057C508.523 411.335 508.285 410.437 508.285 409.364H511.43C511.435 409.835 511.538 410.241 511.737 410.582C511.941 410.923 512.222 411.185 512.58 411.366C512.938 411.548 513.35 411.639 513.816 411.639C514.322 411.639 514.751 411.534 515.103 411.324C515.455 411.108 515.722 410.79 515.904 410.369C516.092 409.949 516.188 409.432 516.194 408.818V396.545ZM530.968 408.494V400.909H534.053V414H531.062V411.673H530.925C530.63 412.406 530.144 413.006 529.468 413.472C528.798 413.937 527.971 414.17 526.988 414.17C526.13 414.17 525.371 413.98 524.712 413.599C524.059 413.213 523.548 412.653 523.178 411.92C522.809 411.182 522.624 410.29 522.624 409.244V400.909H525.71V408.767C525.71 409.597 525.937 410.256 526.391 410.744C526.846 411.233 527.442 411.477 528.181 411.477C528.636 411.477 529.076 411.366 529.502 411.145C529.928 410.923 530.278 410.594 530.55 410.156C530.829 409.713 530.968 409.159 530.968 408.494ZM547.572 404.369L544.76 404.676C544.68 404.392 544.541 404.125 544.342 403.875C544.149 403.625 543.888 403.423 543.558 403.27C543.229 403.116 542.825 403.04 542.348 403.04C541.706 403.04 541.166 403.179 540.729 403.457C540.297 403.736 540.084 404.097 540.089 404.54C540.084 404.92 540.223 405.23 540.507 405.469C540.797 405.707 541.274 405.903 541.939 406.057L544.172 406.534C545.411 406.801 546.331 407.224 546.933 407.804C547.541 408.384 547.848 409.142 547.854 410.08C547.848 410.903 547.607 411.631 547.129 412.261C546.658 412.886 546.001 413.375 545.161 413.727C544.32 414.08 543.354 414.256 542.263 414.256C540.661 414.256 539.371 413.92 538.393 413.25C537.416 412.574 536.834 411.634 536.646 410.429L539.655 410.139C539.791 410.73 540.081 411.176 540.524 411.477C540.967 411.778 541.544 411.929 542.254 411.929C542.987 411.929 543.575 411.778 544.018 411.477C544.467 411.176 544.692 410.804 544.692 410.361C544.692 409.986 544.547 409.676 544.257 409.432C543.973 409.187 543.53 409 542.928 408.869L540.695 408.401C539.439 408.139 538.51 407.699 537.908 407.08C537.305 406.455 537.007 405.665 537.013 404.71C537.007 403.903 537.226 403.205 537.669 402.614C538.118 402.017 538.74 401.557 539.536 401.233C540.337 400.903 541.26 400.739 542.305 400.739C543.839 400.739 545.047 401.065 545.928 401.719C546.814 402.372 547.362 403.256 547.572 404.369ZM556.935 400.909V403.295H549.409V400.909H556.935ZM551.267 397.773H554.352V410.062C554.352 410.477 554.415 410.795 554.54 411.017C554.67 411.233 554.841 411.381 555.051 411.46C555.261 411.54 555.494 411.58 555.75 411.58C555.943 411.58 556.119 411.565 556.278 411.537C556.443 411.509 556.568 411.483 556.653 411.46L557.173 413.872C557.009 413.929 556.773 413.991 556.466 414.06C556.165 414.128 555.795 414.168 555.358 414.179C554.585 414.202 553.889 414.085 553.27 413.83C552.651 413.568 552.159 413.165 551.795 412.619C551.438 412.074 551.261 411.392 551.267 410.574V397.773ZM575.815 404.369L573.002 404.676C572.923 404.392 572.783 404.125 572.585 403.875C572.391 403.625 572.13 403.423 571.8 403.27C571.471 403.116 571.067 403.04 570.59 403.04C569.948 403.04 569.408 403.179 568.971 403.457C568.539 403.736 568.326 404.097 568.332 404.54C568.326 404.92 568.465 405.23 568.749 405.469C569.039 405.707 569.516 405.903 570.181 406.057L572.414 406.534C573.653 406.801 574.573 407.224 575.175 407.804C575.783 408.384 576.09 409.142 576.096 410.08C576.09 410.903 575.849 411.631 575.371 412.261C574.9 412.886 574.244 413.375 573.403 413.727C572.562 414.08 571.596 414.256 570.505 414.256C568.903 414.256 567.613 413.92 566.636 413.25C565.658 412.574 565.076 411.634 564.888 410.429L567.897 410.139C568.033 410.73 568.323 411.176 568.766 411.477C569.21 411.778 569.786 411.929 570.496 411.929C571.229 411.929 571.817 411.778 572.261 411.477C572.71 411.176 572.934 410.804 572.934 410.361C572.934 409.986 572.789 409.676 572.499 409.432C572.215 409.187 571.772 409 571.17 408.869L568.937 408.401C567.681 408.139 566.752 407.699 566.15 407.08C565.548 406.455 565.249 405.665 565.255 404.71C565.249 403.903 565.468 403.205 565.911 402.614C566.36 402.017 566.982 401.557 567.778 401.233C568.579 400.903 569.502 400.739 570.548 400.739C572.082 400.739 573.289 401.065 574.17 401.719C575.056 402.372 575.604 403.256 575.815 404.369ZM578.64 414V400.909H581.725V414H578.64ZM580.191 399.051C579.702 399.051 579.282 398.889 578.93 398.565C578.577 398.236 578.401 397.841 578.401 397.381C578.401 396.915 578.577 396.52 578.93 396.196C579.282 395.866 579.702 395.702 580.191 395.702C580.685 395.702 581.106 395.866 581.452 396.196C581.805 396.52 581.981 396.915 581.981 397.381C581.981 397.841 581.805 398.236 581.452 398.565C581.106 398.889 580.685 399.051 580.191 399.051ZM590.591 419.182C589.483 419.182 588.531 419.031 587.736 418.73C586.94 418.435 586.301 418.037 585.818 417.537C585.335 417.037 585 416.483 584.812 415.875L587.591 415.202C587.716 415.457 587.898 415.71 588.136 415.96C588.375 416.216 588.696 416.426 589.099 416.591C589.509 416.761 590.023 416.847 590.642 416.847C591.517 416.847 592.241 416.634 592.815 416.207C593.389 415.787 593.676 415.094 593.676 414.128V411.648H593.523C593.364 411.966 593.131 412.293 592.824 412.628C592.523 412.963 592.122 413.244 591.622 413.472C591.128 413.699 590.506 413.812 589.756 413.812C588.75 413.812 587.838 413.577 587.02 413.105C586.207 412.628 585.56 411.918 585.077 410.974C584.599 410.026 584.361 408.838 584.361 407.412C584.361 405.974 584.599 404.761 585.077 403.773C585.56 402.778 586.21 402.026 587.028 401.514C587.847 400.997 588.759 400.739 589.764 400.739C590.531 400.739 591.162 400.869 591.656 401.131C592.156 401.386 592.554 401.696 592.849 402.06C593.145 402.418 593.369 402.756 593.523 403.074H593.693V400.909H596.736V414.213C596.736 415.332 596.469 416.259 595.935 416.991C595.401 417.724 594.67 418.273 593.744 418.636C592.818 419 591.767 419.182 590.591 419.182ZM590.616 411.392C591.27 411.392 591.827 411.233 592.287 410.915C592.747 410.597 593.097 410.139 593.335 409.543C593.574 408.946 593.693 408.23 593.693 407.395C593.693 406.571 593.574 405.849 593.335 405.23C593.102 404.611 592.756 404.131 592.295 403.79C591.841 403.443 591.281 403.27 590.616 403.27C589.929 403.27 589.355 403.449 588.895 403.807C588.435 404.165 588.088 404.656 587.855 405.281C587.622 405.901 587.506 406.605 587.506 407.395C587.506 408.196 587.622 408.898 587.855 409.5C588.094 410.097 588.443 410.562 588.903 410.898C589.369 411.227 589.94 411.392 590.616 411.392ZM602.983 406.33V414H599.898V400.909H602.847V403.134H603C603.301 402.401 603.781 401.818 604.44 401.386C605.105 400.955 605.926 400.739 606.903 400.739C607.807 400.739 608.594 400.932 609.264 401.318C609.94 401.705 610.463 402.264 610.832 402.997C611.207 403.73 611.392 404.619 611.386 405.665V414H608.301V406.142C608.301 405.267 608.074 404.582 607.619 404.088C607.17 403.594 606.548 403.347 605.753 403.347C605.213 403.347 604.733 403.466 604.312 403.705C603.898 403.937 603.571 404.276 603.332 404.719C603.099 405.162 602.983 405.699 602.983 406.33ZM628.82 408.494V400.909H631.905V414H628.913V411.673H628.777C628.482 412.406 627.996 413.006 627.32 413.472C626.649 413.937 625.822 414.17 624.839 414.17C623.982 414.17 623.223 413.98 622.564 413.599C621.911 413.213 621.399 412.653 621.03 411.92C620.661 411.182 620.476 410.29 620.476 409.244V400.909H623.561V408.767C623.561 409.597 623.788 410.256 624.243 410.744C624.697 411.233 625.294 411.477 626.033 411.477C626.487 411.477 626.928 411.366 627.354 411.145C627.78 410.923 628.129 410.594 628.402 410.156C628.68 409.713 628.82 409.159 628.82 408.494ZM635.077 418.909V400.909H638.112V403.074H638.29C638.45 402.756 638.674 402.418 638.964 402.06C639.254 401.696 639.646 401.386 640.14 401.131C640.634 400.869 641.265 400.739 642.032 400.739C643.043 400.739 643.955 400.997 644.768 401.514C645.586 402.026 646.234 402.784 646.711 403.79C647.194 404.79 647.435 406.017 647.435 407.472C647.435 408.909 647.2 410.131 646.728 411.136C646.256 412.142 645.614 412.909 644.802 413.438C643.989 413.966 643.069 414.23 642.04 414.23C641.29 414.23 640.668 414.105 640.174 413.855C639.68 413.605 639.282 413.304 638.981 412.952C638.685 412.594 638.455 412.256 638.29 411.938H638.163V418.909H635.077ZM638.103 407.455C638.103 408.301 638.222 409.043 638.461 409.679C638.705 410.315 639.055 410.812 639.509 411.17C639.969 411.523 640.526 411.699 641.18 411.699C641.862 411.699 642.433 411.517 642.893 411.153C643.353 410.784 643.7 410.281 643.933 409.645C644.171 409.003 644.29 408.273 644.29 407.455C644.29 406.642 644.174 405.92 643.941 405.29C643.708 404.659 643.362 404.165 642.901 403.807C642.441 403.449 641.867 403.27 641.18 403.27C640.521 403.27 639.961 403.443 639.501 403.79C639.04 404.136 638.691 404.622 638.452 405.247C638.219 405.872 638.103 406.608 638.103 407.455ZM659.798 414.264C658.968 414.264 658.221 414.116 657.556 413.821C656.897 413.52 656.374 413.077 655.988 412.491C655.607 411.906 655.417 411.185 655.417 410.327C655.417 409.588 655.553 408.977 655.826 408.494C656.099 408.011 656.471 407.625 656.942 407.335C657.414 407.045 657.945 406.827 658.536 406.679C659.133 406.526 659.749 406.415 660.386 406.347C661.153 406.267 661.775 406.196 662.252 406.134C662.729 406.065 663.076 405.963 663.292 405.827C663.513 405.685 663.624 405.466 663.624 405.17V405.119C663.624 404.477 663.434 403.98 663.053 403.628C662.673 403.276 662.124 403.099 661.408 403.099C660.653 403.099 660.053 403.264 659.61 403.594C659.173 403.923 658.877 404.312 658.724 404.761L655.843 404.352C656.07 403.557 656.445 402.892 656.968 402.358C657.491 401.818 658.13 401.415 658.886 401.148C659.641 400.875 660.477 400.739 661.391 400.739C662.022 400.739 662.65 400.812 663.275 400.96C663.9 401.108 664.471 401.352 664.988 401.693C665.505 402.028 665.92 402.486 666.232 403.065C666.55 403.645 666.71 404.369 666.71 405.239V414H663.744V412.202H663.641C663.454 412.565 663.19 412.906 662.849 413.224C662.513 413.537 662.09 413.79 661.579 413.983C661.073 414.17 660.479 414.264 659.798 414.264ZM660.599 411.997C661.218 411.997 661.755 411.875 662.21 411.631C662.664 411.381 663.013 411.051 663.258 410.642C663.508 410.233 663.633 409.787 663.633 409.304V407.761C663.536 407.841 663.371 407.915 663.138 407.983C662.911 408.051 662.656 408.111 662.371 408.162C662.087 408.213 661.806 408.259 661.528 408.298C661.249 408.338 661.008 408.372 660.803 408.401C660.343 408.463 659.931 408.565 659.567 408.707C659.204 408.849 658.917 409.048 658.707 409.304C658.496 409.554 658.391 409.878 658.391 410.276C658.391 410.844 658.599 411.273 659.013 411.562C659.428 411.852 659.957 411.997 660.599 411.997ZM672.897 406.33V414H669.812V400.909H672.761V403.134H672.914C673.215 402.401 673.695 401.818 674.354 401.386C675.019 400.955 675.84 400.739 676.817 400.739C677.721 400.739 678.508 400.932 679.178 401.318C679.854 401.705 680.377 402.264 680.746 402.997C681.121 403.73 681.306 404.619 681.3 405.665V414H678.215V406.142C678.215 405.267 677.988 404.582 677.533 404.088C677.085 403.594 676.462 403.347 675.667 403.347C675.127 403.347 674.647 403.466 674.227 403.705C673.812 403.937 673.485 404.276 673.246 404.719C673.013 405.162 672.897 405.699 672.897 406.33ZM689.295 414.23C688.266 414.23 687.346 413.966 686.533 413.438C685.721 412.909 685.079 412.142 684.607 411.136C684.136 410.131 683.9 408.909 683.9 407.472C683.9 406.017 684.138 404.79 684.616 403.79C685.099 402.784 685.749 402.026 686.567 401.514C687.386 400.997 688.298 400.739 689.303 400.739C690.07 400.739 690.701 400.869 691.195 401.131C691.69 401.386 692.082 401.696 692.371 402.06C692.661 402.418 692.886 402.756 693.045 403.074H693.173V396.545H696.266V414H693.232V411.938H693.045C692.886 412.256 692.656 412.594 692.354 412.952C692.053 413.304 691.656 413.605 691.161 413.855C690.667 414.105 690.045 414.23 689.295 414.23ZM690.156 411.699C690.809 411.699 691.366 411.523 691.826 411.17C692.286 410.812 692.636 410.315 692.874 409.679C693.113 409.043 693.232 408.301 693.232 407.455C693.232 406.608 693.113 405.872 692.874 405.247C692.641 404.622 692.295 404.136 691.835 403.79C691.38 403.443 690.82 403.27 690.156 403.27C689.468 403.27 688.894 403.449 688.434 403.807C687.974 404.165 687.627 404.659 687.394 405.29C687.161 405.92 687.045 406.642 687.045 407.455C687.045 408.273 687.161 409.003 687.394 409.645C687.633 410.281 687.982 410.784 688.442 411.153C688.908 411.517 689.479 411.699 690.156 411.699ZM715.854 404.369L713.041 404.676C712.962 404.392 712.822 404.125 712.624 403.875C712.43 403.625 712.169 403.423 711.839 403.27C711.51 403.116 711.107 403.04 710.629 403.04C709.987 403.04 709.447 403.179 709.01 403.457C708.578 403.736 708.365 404.097 708.371 404.54C708.365 404.92 708.504 405.23 708.788 405.469C709.078 405.707 709.555 405.903 710.22 406.057L712.453 406.534C713.692 406.801 714.612 407.224 715.214 407.804C715.822 408.384 716.129 409.142 716.135 410.08C716.129 410.903 715.888 411.631 715.411 412.261C714.939 412.886 714.283 413.375 713.442 413.727C712.601 414.08 711.635 414.256 710.544 414.256C708.942 414.256 707.652 413.92 706.675 413.25C705.697 412.574 705.115 411.634 704.928 410.429L707.936 410.139C708.072 410.73 708.362 411.176 708.805 411.477C709.249 411.778 709.825 411.929 710.536 411.929C711.268 411.929 711.857 411.778 712.3 411.477C712.749 411.176 712.973 410.804 712.973 410.361C712.973 409.986 712.828 409.676 712.538 409.432C712.254 409.187 711.811 409 711.209 408.869L708.976 408.401C707.72 408.139 706.791 407.699 706.189 407.08C705.587 406.455 705.288 405.665 705.294 404.71C705.288 403.903 705.507 403.205 705.95 402.614C706.399 402.017 707.021 401.557 707.817 401.233C708.618 400.903 709.541 400.739 710.587 400.739C712.121 400.739 713.328 401.065 714.209 401.719C715.095 402.372 715.643 403.256 715.854 404.369ZM725.216 400.909V403.295H717.69V400.909H725.216ZM719.548 397.773H722.634V410.062C722.634 410.477 722.696 410.795 722.821 411.017C722.952 411.233 723.122 411.381 723.332 411.46C723.543 411.54 723.776 411.58 724.031 411.58C724.224 411.58 724.401 411.565 724.56 411.537C724.724 411.509 724.849 411.483 724.935 411.46L725.455 413.872C725.29 413.929 725.054 413.991 724.747 414.06C724.446 414.128 724.077 414.168 723.639 414.179C722.866 414.202 722.17 414.085 721.551 413.83C720.932 413.568 720.44 413.165 720.077 412.619C719.719 412.074 719.543 411.392 719.548 410.574V397.773ZM731.563 414.264C730.734 414.264 729.987 414.116 729.322 413.821C728.663 413.52 728.14 413.077 727.754 412.491C727.373 411.906 727.183 411.185 727.183 410.327C727.183 409.588 727.319 408.977 727.592 408.494C727.864 408.011 728.237 407.625 728.708 407.335C729.18 407.045 729.711 406.827 730.302 406.679C730.898 406.526 731.515 406.415 732.151 406.347C732.918 406.267 733.54 406.196 734.018 406.134C734.495 406.065 734.842 405.963 735.058 405.827C735.279 405.685 735.39 405.466 735.39 405.17V405.119C735.39 404.477 735.2 403.98 734.819 403.628C734.438 403.276 733.89 403.099 733.174 403.099C732.418 403.099 731.819 403.264 731.376 403.594C730.938 403.923 730.643 404.312 730.489 404.761L727.609 404.352C727.836 403.557 728.211 402.892 728.734 402.358C729.256 401.818 729.896 401.415 730.651 401.148C731.407 400.875 732.242 400.739 733.157 400.739C733.788 400.739 734.415 400.812 735.04 400.96C735.665 401.108 736.237 401.352 736.754 401.693C737.271 402.028 737.685 402.486 737.998 403.065C738.316 403.645 738.475 404.369 738.475 405.239V414H735.509V412.202H735.407C735.219 412.565 734.955 412.906 734.614 413.224C734.279 413.537 733.856 413.79 733.344 413.983C732.839 414.17 732.245 414.264 731.563 414.264ZM732.364 411.997C732.984 411.997 733.521 411.875 733.975 411.631C734.43 411.381 734.779 411.051 735.023 410.642C735.273 410.233 735.398 409.787 735.398 409.304V407.761C735.302 407.841 735.137 407.915 734.904 407.983C734.677 408.051 734.421 408.111 734.137 408.162C733.853 408.213 733.572 408.259 733.293 408.298C733.015 408.338 732.773 408.372 732.569 408.401C732.109 408.463 731.697 408.565 731.333 408.707C730.969 408.849 730.683 409.048 730.472 409.304C730.262 409.554 730.157 409.878 730.157 410.276C730.157 410.844 730.364 411.273 730.779 411.562C731.194 411.852 731.722 411.997 732.364 411.997ZM741.577 414V400.909H744.569V403.091H744.705C744.944 402.335 745.353 401.753 745.933 401.344C746.518 400.929 747.185 400.722 747.935 400.722C748.106 400.722 748.296 400.73 748.506 400.747C748.722 400.759 748.901 400.778 749.043 400.807V403.645C748.913 403.599 748.705 403.56 748.421 403.526C748.143 403.486 747.873 403.466 747.612 403.466C747.049 403.466 746.543 403.588 746.094 403.832C745.651 404.071 745.302 404.403 745.046 404.83C744.79 405.256 744.663 405.747 744.663 406.304V414H741.577ZM758.333 400.909V403.295H750.808V400.909H758.333ZM752.665 397.773H755.751V410.062C755.751 410.477 755.813 410.795 755.938 411.017C756.069 411.233 756.239 411.381 756.45 411.46C756.66 411.54 756.893 411.58 757.148 411.58C757.342 411.58 757.518 411.565 757.677 411.537C757.842 411.509 757.967 411.483 758.052 411.46L758.572 413.872C758.407 413.929 758.171 413.991 757.864 414.06C757.563 414.128 757.194 414.168 756.756 414.179C755.984 414.202 755.288 414.085 754.668 413.83C754.049 413.568 753.558 413.165 753.194 412.619C752.836 412.074 752.66 411.392 752.665 410.574V397.773Z" fill="black"/>
<rect opacity="0.6" x="234" y="430" width="50" height="5" rx="2.5" fill="#131C83" fill-opacity="0.83"/>
<rect opacity="0.6" x="289" y="430" width="50" height="5" rx="2.5" fill="#131C83" fill-opacity="0.83"/>
<rect x="344" y="430" width="58" height="5" rx="2.5" fill="#131C83" fill-opacity="0.83"/>
<path d="M904.675 454.884C904.274 454.884 903.974 454.584 903.974 454.183V237.15C903.974 236.749 904.274 236.448 904.675 236.448C905.076 236.448 905.376 236.749 905.376 237.15V454.183C905.376 454.584 905.076 454.884 904.675 454.884Z" fill="#D1D3D4"/>
<path d="M988.943 454.884C988.542 454.884 988.242 454.584 988.242 454.183V237.15C988.242 236.749 988.542 236.448 988.943 236.448C989.344 236.448 989.645 236.749 989.645 237.15V454.183C989.645 454.584 989.344 454.884 988.943 454.884Z" fill="#D1D3D4"/>
<path d="M1073.21 454.884C1072.81 454.884 1072.51 454.584 1072.51 454.183V237.15C1072.51 236.749 1072.81 236.448 1073.21 236.448C1073.61 236.448 1073.91 236.749 1073.91 237.15V454.183C1073.91 454.584 1073.51 454.884 1073.21 454.884Z" fill="#D1D3D4"/>
<path d="M1157.38 454.884C1156.98 454.884 1156.68 454.584 1156.68 454.183V237.15C1156.68 236.749 1156.98 236.448 1157.38 236.448C1157.78 236.448 1158.08 236.749 1158.08 237.15V454.183C1158.08 454.584 1157.78 454.884 1157.38 454.884Z" fill="#D1D3D4"/>
<path d="M1241.65 454.884C1241.25 454.884 1240.95 454.584 1240.95 454.183V237.15C1240.95 236.749 1241.25 236.448 1241.65 236.448C1242.05 236.448 1242.35 236.749 1242.35 237.15V454.183C1242.35 454.584 1242.05 454.884 1241.65 454.884Z" fill="#D1D3D4"/>
<path d="M1241.65 237.851H904.675C904.274 237.851 903.974 237.55 903.974 237.15C903.974 236.749 904.274 236.448 904.675 236.448H1241.65C1242.05 236.448 1242.35 236.749 1242.35 237.15C1242.35 237.55 1242.05 237.851 1241.65 237.851Z" fill="#D1D3D4"/>
<path d="M1241.65 309.594H904.675C904.274 309.594 903.974 309.294 903.974 308.893C903.974 308.492 904.274 308.191 904.675 308.191H1241.65C1242.05 308.191 1242.35 308.492 1242.35 308.893C1242.35 309.294 1242.05 309.594 1241.65 309.594Z" fill="#D1D3D4"/>
<path d="M1241.65 381.338H904.675C904.274 381.338 903.974 381.037 903.974 380.636C903.974 380.235 904.274 379.935 904.675 379.935H1241.65C1242.05 379.935 1242.35 380.235 1242.35 380.636C1242.35 381.037 1242.05 381.338 1241.65 381.338Z" fill="#D1D3D4"/>
<path d="M1260.89 455.485H874.114C873.713 455.485 873.413 455.185 873.413 454.784C873.413 454.383 873.713 454.083 874.114 454.083H1260.89C1261.29 454.083 1261.59 454.383 1261.59 454.784C1261.59 455.185 1261.29 455.485 1260.89 455.485Z" fill="#D1D3D4"/>
<path d="M935.036 447.97V463.301C935.036 469.113 951.669 473.822 972.11 473.822C992.55 473.822 1009.18 469.113 1009.18 463.301V447.97H935.036Z" fill="white"/>
<path d="M972.21 474.624C953.573 474.624 934.434 470.415 934.434 463.401V448.071C934.434 447.67 934.735 447.369 935.136 447.369H1009.38C1009.78 447.369 1010.09 447.67 1010.09 448.071V463.401C1009.99 470.315 990.747 474.624 972.21 474.624ZM935.737 448.672V463.301C935.737 468.01 950.366 473.121 972.11 473.121C993.853 473.121 1008.48 468.01 1008.48 463.301V448.672C1008.58 448.672 935.737 448.672 935.737 448.672Z" fill="#231F20"/>
<path d="M972.21 458.491C992.685 458.491 1009.28 453.781 1009.28 447.97C1009.28 442.16 992.685 437.449 972.21 437.449C951.734 437.449 935.136 442.16 935.136 447.97C935.136 453.781 951.734 458.491 972.21 458.491Z" fill="#231F20"/>
<path d="M972.21 459.093C951.068 459.093 934.434 454.183 934.434 447.97C934.434 441.758 950.967 436.848 972.21 436.848C993.452 436.848 1009.99 441.758 1009.99 447.97C1009.99 454.183 993.352 459.093 972.21 459.093ZM972.21 438.051C950.366 438.051 935.737 443.161 935.737 447.97C935.737 452.78 950.366 457.89 972.21 457.89C994.053 457.89 1008.68 452.78 1008.68 447.97C1008.68 443.161 993.953 438.051 972.21 438.051Z" fill="#231F20"/>
<path d="M927.42 424.524V439.854C927.42 445.666 944.054 450.375 964.494 450.375C984.935 450.375 1001.57 445.666 1001.57 439.854V424.524H927.42Z" fill="white"/>
<path d="M964.595 451.077C945.957 451.077 926.819 446.868 926.819 439.854V424.524C926.819 424.123 927.12 423.822 927.521 423.822H1001.77C1002.17 423.822 1002.47 424.123 1002.47 424.524V439.854C1002.37 446.868 983.132 451.077 964.595 451.077ZM928.122 425.225V439.854C928.122 444.564 942.751 449.674 964.494 449.674C986.238 449.674 1000.87 444.564 1000.87 439.854V425.225H928.122Z" fill="#231F20"/>
<path d="M964.595 435.045C985.07 435.045 1001.67 430.334 1001.67 424.524C1001.67 418.713 985.07 414.003 964.595 414.003C944.119 414.003 927.521 418.713 927.521 424.524C927.521 430.334 944.119 435.045 964.595 435.045Z" fill="white"/>
<path d="M964.595 435.746C945.957 435.746 926.819 431.538 926.819 424.524C926.819 417.51 946.058 413.301 964.595 413.301C983.132 413.301 1002.37 417.51 1002.37 424.524C1002.37 431.538 983.132 435.746 964.595 435.746ZM964.595 414.704C942.851 414.704 928.222 419.814 928.222 424.524C928.222 429.233 942.851 434.343 964.595 434.343C986.338 434.343 1000.97 429.233 1000.97 424.524C1000.97 419.814 986.338 414.704 964.595 414.704Z" fill="#231F20"/>
<path d="M964.595 431.638C948.763 431.638 932.731 429.233 932.731 424.524C932.731 419.814 948.763 417.409 964.595 417.409C980.426 417.409 996.458 419.814 996.458 424.524C996.458 429.233 980.426 431.638 964.595 431.638ZM964.595 418.812C945.757 418.812 934.134 422.119 934.134 424.524C934.134 426.928 945.657 430.235 964.595 430.235C983.532 430.235 995.055 426.928 995.055 424.524C995.055 422.119 983.432 418.812 964.595 418.812Z" fill="#D1D3D4"/>
<path d="M1022.21 450.776V466.107C1022.21 471.918 1038.84 476.628 1059.28 476.628C1079.72 476.628 1096.36 471.918 1096.36 466.107V450.776H1022.21Z" fill="white"/>
<path d="M1059.28 477.329C1040.65 477.329 1021.51 473.121 1021.51 466.107V450.776C1021.51 450.375 1021.81 450.075 1022.21 450.075H1096.46C1096.86 450.075 1097.16 450.375 1097.16 450.776V466.107C1097.16 473.121 1077.92 477.329 1059.28 477.329ZM1022.91 451.477V466.107C1022.91 470.816 1037.54 475.926 1059.28 475.926C1081.03 475.926 1095.66 470.816 1095.66 466.107V451.477H1022.91Z" fill="#231F20"/>
<path d="M1059.28 461.297C1079.76 461.297 1096.36 456.587 1096.36 450.776C1096.36 444.965 1079.76 440.255 1059.28 440.255C1038.81 440.255 1022.21 444.965 1022.21 450.776C1022.21 456.587 1038.81 461.297 1059.28 461.297Z" fill="#231F20"/>
<path d="M1059.28 461.898C1038.14 461.898 1021.61 456.988 1021.61 450.776C1021.61 444.564 1038.14 439.654 1059.28 439.654C1080.43 439.654 1096.96 444.564 1096.96 450.776C1096.96 456.988 1080.53 461.898 1059.28 461.898ZM1059.28 440.856C1037.44 440.856 1022.81 445.966 1022.81 450.776C1022.81 455.586 1037.44 460.696 1059.28 460.696C1081.13 460.696 1095.76 455.586 1095.76 450.776C1095.76 445.966 1081.13 440.856 1059.28 440.856Z" fill="#231F20"/>
<path d="M1028.22 428.632V443.962C1028.22 449.774 1044.85 454.483 1065.3 454.483C1085.74 454.483 1102.37 449.774 1102.37 443.962V428.632H1028.22Z" fill="white"/>
<path d="M1065.3 455.185C1046.66 455.185 1027.52 450.976 1027.52 443.962V428.632C1027.52 428.231 1027.82 427.93 1028.22 427.93H1102.47C1102.87 427.93 1103.17 428.231 1103.17 428.632V443.962C1103.07 450.976 1083.93 455.185 1065.3 455.185ZM1028.92 429.333V443.962C1028.92 448.672 1043.55 453.782 1065.3 453.782C1087.04 453.782 1101.67 448.672 1101.67 443.962V429.333H1028.92Z" fill="#231F20"/>
<path d="M1065.3 439.153C1085.77 439.153 1102.37 434.442 1102.37 428.632C1102.37 422.821 1085.77 418.111 1065.3 418.111C1044.82 418.111 1028.22 422.821 1028.22 428.632C1028.22 434.442 1044.82 439.153 1065.3 439.153Z" fill="#231F20"/>
<path d="M1065.3 439.754C1044.15 439.754 1027.62 434.844 1027.62 428.632C1027.62 422.419 1044.15 417.51 1065.3 417.51C1086.44 417.51 1102.97 422.419 1102.97 428.632C1102.97 434.844 1086.44 439.754 1065.3 439.754ZM1065.3 418.712C1043.45 418.712 1028.82 423.822 1028.82 428.632C1028.82 433.441 1043.45 438.552 1065.3 438.552C1087.14 438.552 1101.77 433.441 1101.77 428.632C1101.77 423.822 1087.14 418.712 1065.3 418.712Z" fill="#231F20"/>
<path d="M1022.21 406.287V421.718C1022.21 427.53 1038.84 432.239 1059.28 432.239C1079.72 432.239 1096.36 427.53 1096.36 421.718V406.287H1022.21Z" fill="white"/>
<path d="M1059.28 432.94C1040.65 432.94 1021.51 428.732 1021.51 421.718V406.387C1021.51 405.987 1021.81 405.686 1022.21 405.686H1096.46C1096.86 405.686 1097.16 405.987 1097.16 406.387V421.718C1097.16 428.732 1077.92 432.94 1059.28 432.94ZM1022.91 406.989V421.718C1022.91 426.427 1037.54 431.538 1059.28 431.538C1081.03 431.538 1095.66 426.427 1095.66 421.718V406.989H1022.91Z" fill="#231F20"/>
<path d="M1059.28 416.808C1079.76 416.808 1096.36 412.098 1096.36 406.287C1096.36 400.477 1079.76 395.766 1059.28 395.766C1038.81 395.766 1022.21 400.477 1022.21 406.287C1022.21 412.098 1038.81 416.808 1059.28 416.808Z" fill="#231F20"/>
<path d="M1059.28 417.51C1038.14 417.51 1021.61 412.6 1021.61 406.387C1021.61 400.175 1038.14 395.265 1059.28 395.265C1080.43 395.265 1096.96 400.175 1096.96 406.387C1096.96 412.6 1080.53 417.51 1059.28 417.51ZM1059.28 396.468C1037.44 396.468 1022.81 401.578 1022.81 406.387C1022.81 411.197 1037.44 416.307 1059.28 416.307C1081.13 416.307 1095.76 411.197 1095.76 406.387C1095.76 401.578 1081.13 396.468 1059.28 396.468Z" fill="#231F20"/>
<path d="M1034.13 388.151V403.482C1034.13 409.293 1050.77 414.003 1071.21 414.003C1091.65 414.003 1108.28 409.293 1108.28 403.482V388.151H1034.13Z" fill="white"/>
<path d="M1071.31 414.704C1052.67 414.704 1033.53 410.496 1033.53 403.482V388.151C1033.53 387.75 1033.83 387.45 1034.23 387.45H1108.48C1108.88 387.45 1109.18 387.75 1109.18 388.151V403.482C1109.08 410.496 1089.84 414.704 1071.31 414.704ZM1034.83 388.852V403.482C1034.83 408.191 1049.46 413.301 1071.21 413.301C1092.95 413.301 1107.58 408.191 1107.58 403.482V388.852H1034.83Z" fill="#231F20"/>
<path d="M1071.31 398.672C1091.78 398.672 1108.38 393.962 1108.38 388.151C1108.38 382.34 1091.78 377.63 1071.31 377.63C1050.83 377.63 1034.23 382.34 1034.23 388.151C1034.23 393.962 1050.83 398.672 1071.31 398.672Z" fill="#231F20"/>
<path d="M1071.31 399.273C1050.17 399.273 1033.53 394.363 1033.53 388.151C1033.53 381.939 1050.07 377.029 1071.21 377.029C1092.35 377.029 1108.88 381.939 1108.88 388.151C1108.88 394.363 1092.45 399.273 1071.31 399.273ZM1071.31 378.231C1049.46 378.231 1034.83 383.341 1034.83 388.151C1034.83 392.961 1049.46 398.071 1071.31 398.071C1093.15 398.071 1107.78 392.961 1107.78 388.151C1107.78 383.341 1093.15 378.231 1071.31 378.231Z" fill="#231F20"/>
<path d="M1026.02 369.915V385.245C1026.02 391.057 1042.65 395.766 1063.09 395.766C1083.53 395.766 1100.17 391.057 1100.17 385.245V369.915H1026.02Z" fill="white"/>
<path d="M1063.09 396.468C1044.45 396.468 1025.32 392.259 1025.32 385.245V369.915C1025.32 369.514 1025.62 369.213 1026.02 369.213H1100.27C1100.67 369.213 1100.97 369.514 1100.97 369.915V385.245C1100.97 392.259 1081.73 396.468 1063.09 396.468ZM1026.72 370.616V385.245C1026.72 389.955 1041.35 395.065 1063.09 395.065C1084.83 395.065 1099.46 389.955 1099.46 385.245V370.616H1026.72Z" fill="#231F20"/>
<path d="M1063.09 380.436C1083.57 380.436 1100.17 375.725 1100.17 369.915C1100.17 364.104 1083.57 359.394 1063.09 359.394C1042.62 359.394 1026.02 364.104 1026.02 369.915C1026.02 375.725 1042.62 380.436 1063.09 380.436Z" fill="white"/>
<path d="M1063.09 381.137C1044.45 381.137 1025.32 376.929 1025.32 369.915C1025.32 362.901 1044.55 358.692 1063.09 358.692C1081.63 358.692 1100.87 362.901 1100.87 369.915C1100.87 376.929 1081.73 381.137 1063.09 381.137ZM1063.09 360.095C1041.35 360.095 1026.72 365.205 1026.72 369.915C1026.72 374.624 1041.35 379.734 1063.09 379.734C1084.83 379.734 1099.56 374.624 1099.56 369.915C1099.56 365.205 1084.93 360.095 1063.09 360.095Z" fill="#231F20"/>
<path d="M1063.09 377.029C1047.26 377.029 1031.23 374.624 1031.23 369.915C1031.23 365.205 1047.26 362.8 1063.09 362.8C1078.92 362.8 1094.95 365.205 1094.95 369.915C1094.95 374.624 1078.92 377.029 1063.09 377.029ZM1063.09 364.203C1044.25 364.203 1032.63 367.51 1032.63 369.915C1032.63 372.319 1044.25 375.626 1063.09 375.626C1081.93 375.626 1093.55 372.319 1093.55 369.915C1093.55 367.51 1082.03 364.203 1063.09 364.203Z" fill="#D1D3D4"/>
<path d="M1208.68 442.259V457.59C1208.68 463.401 1192.05 468.111 1171.61 468.111C1151.17 468.111 1134.53 463.401 1134.53 457.59V442.259H1208.68Z" fill="white"/>
<path d="M1171.61 468.912C1153.07 468.912 1133.83 464.704 1133.83 457.69V442.359C1133.83 441.958 1134.13 441.658 1134.53 441.658H1208.78C1209.18 441.658 1209.48 441.958 1209.48 442.359V457.69C1209.38 464.704 1190.14 468.912 1171.61 468.912ZM1135.13 442.96V457.59C1135.13 462.299 1149.76 467.409 1171.51 467.409C1193.25 467.409 1207.88 462.299 1207.88 457.59V442.96H1135.13Z" fill="#231F20"/>
<path d="M1171.61 452.78C1192.08 452.78 1208.68 448.07 1208.68 442.259C1208.68 436.448 1192.08 431.738 1171.61 431.738C1151.13 431.738 1134.53 436.448 1134.53 442.259C1134.53 448.07 1151.13 452.78 1171.61 452.78Z" fill="#231F20"/>
<path d="M1171.61 453.481C1150.47 453.481 1133.93 448.572 1133.93 442.359C1133.93 436.147 1150.47 431.237 1171.61 431.237C1192.75 431.237 1209.28 436.147 1209.28 442.359C1209.28 448.572 1192.75 453.481 1171.61 453.481ZM1171.61 432.439C1149.76 432.439 1135.14 437.55 1135.14 442.359C1135.14 447.169 1149.76 452.279 1171.61 452.279C1193.45 452.279 1208.08 447.169 1208.08 442.359C1208.08 437.55 1193.35 432.339 1171.61 432.439Z" fill="#231F20"/>
<path d="M1196.76 424.123V439.453C1196.76 445.265 1180.12 449.974 1159.68 449.974C1139.24 449.974 1122.61 445.265 1122.61 439.453V424.123H1196.76Z" fill="white"/>
<path d="M1159.58 450.676C1141.05 450.676 1121.81 446.467 1121.81 439.453V424.123C1121.81 423.722 1122.11 423.421 1122.51 423.421H1196.76C1197.16 423.421 1197.46 423.722 1197.46 424.123V439.453C1197.46 446.467 1178.22 450.676 1159.58 450.676ZM1123.21 424.824V439.453C1123.21 444.163 1137.84 449.273 1159.58 449.273C1181.33 449.273 1195.96 444.163 1195.96 439.453V424.824H1123.21Z" fill="#231F20"/>
<path d="M1159.58 434.644C1180.06 434.644 1196.66 429.933 1196.66 424.123C1196.66 418.312 1180.06 413.602 1159.58 413.602C1139.11 413.602 1122.51 418.312 1122.51 424.123C1122.51 429.933 1139.11 434.644 1159.58 434.644Z" fill="#231F20"/>
<path d="M1159.58 435.245C1138.44 435.245 1121.91 430.335 1121.91 424.123C1121.91 417.91 1138.44 413.001 1159.58 413.001C1180.73 413.001 1197.26 417.91 1197.26 424.123C1197.26 430.335 1180.73 435.245 1159.58 435.245ZM1159.58 414.203C1137.74 414.203 1123.11 419.313 1123.11 424.123C1123.11 428.932 1137.74 434.043 1159.58 434.043C1181.43 434.043 1196.06 428.932 1196.06 424.123C1196.06 419.313 1181.43 414.203 1159.58 414.203Z" fill="#231F20"/>
<path d="M1204.87 405.886V421.217C1204.87 427.029 1188.24 431.738 1167.8 431.738C1147.36 431.738 1130.73 427.029 1130.73 421.217V405.886H1204.87Z" fill="white"/>
<path d="M1167.7 432.439C1149.16 432.439 1129.92 428.231 1129.92 421.217V405.886C1129.92 405.486 1130.23 405.185 1130.63 405.185H1204.87C1205.27 405.185 1205.58 405.486 1205.58 405.886V421.217C1205.58 428.231 1186.34 432.439 1167.7 432.439ZM1131.33 406.588V421.217C1131.33 425.926 1145.96 431.037 1167.7 431.037C1189.44 431.037 1204.07 425.926 1204.07 421.217V406.588H1131.33Z" fill="#231F20"/>
<path d="M1167.7 416.407C1188.18 416.407 1204.77 411.697 1204.77 405.886C1204.77 400.076 1188.18 395.365 1167.7 395.365C1147.22 395.365 1130.63 400.076 1130.63 405.886C1130.63 411.697 1147.22 416.407 1167.7 416.407Z" fill="#231F20"/>
<path d="M1167.7 417.009C1146.56 417.009 1130.02 412.099 1130.02 405.886C1130.02 399.674 1146.56 394.764 1167.7 394.764C1188.84 394.764 1205.48 399.674 1205.48 405.886C1205.48 412.099 1188.94 417.009 1167.7 417.009ZM1167.7 395.967C1145.86 395.967 1131.23 401.077 1131.23 405.886C1131.23 410.696 1145.86 415.806 1167.7 415.806C1189.54 415.806 1204.17 410.696 1204.17 405.886C1204.17 401.077 1189.54 395.967 1167.7 395.967Z" fill="#231F20"/>
<path d="M1206.18 385.245V400.676C1206.18 406.488 1189.54 411.197 1169.1 411.197C1148.66 411.197 1132.03 406.488 1132.03 400.676V385.245H1206.18Z" fill="white"/>
<path d="M1169.1 411.898C1150.57 411.898 1131.33 407.69 1131.33 400.676V385.345C1131.33 384.945 1131.63 384.644 1132.03 384.644H1206.28C1206.68 384.644 1206.98 384.945 1206.98 385.345V400.676C1206.88 407.69 1187.64 411.898 1169.1 411.898ZM1132.63 385.947V400.676C1132.63 405.385 1147.26 410.496 1169 410.496C1190.75 410.496 1205.38 405.385 1205.38 400.676V385.947H1132.63Z" fill="#231F20"/>
<path d="M1169.1 395.766C1189.58 395.766 1206.18 391.056 1206.18 385.245C1206.18 379.435 1189.58 374.724 1169.1 374.724C1148.63 374.724 1132.03 379.435 1132.03 385.245C1132.03 391.056 1148.63 395.766 1169.1 395.766Z" fill="#231F20"/>
<path d="M1169.1 396.468C1147.96 396.468 1131.43 391.558 1131.43 385.345C1131.43 379.133 1147.96 374.223 1169.1 374.223C1190.25 374.223 1206.78 379.133 1206.78 385.345C1206.78 391.558 1190.25 396.468 1169.1 396.468ZM1169.1 375.426C1147.26 375.426 1132.63 380.536 1132.63 385.345C1132.63 390.155 1147.26 395.265 1169.1 395.265C1190.95 395.265 1205.58 390.155 1205.58 385.345C1205.58 380.536 1190.85 375.426 1169.1 375.426Z" fill="#231F20"/>
<path d="M1198.86 365.205V380.536C1198.86 386.347 1182.23 391.057 1161.79 391.057C1141.35 391.057 1124.71 386.347 1124.71 380.536V365.205H1198.86Z" fill="white"/>
<path d="M1161.79 391.758C1143.25 391.758 1124.01 387.55 1124.01 380.536V365.205C1124.01 364.804 1124.31 364.504 1124.71 364.504H1198.96C1199.36 364.504 1199.66 364.804 1199.66 365.205V380.536C1199.56 387.55 1180.33 391.758 1161.79 391.758ZM1125.32 365.907V380.536C1125.32 385.245 1139.94 390.355 1161.69 390.355C1183.43 390.355 1198.06 385.245 1198.06 380.536V365.907H1125.32Z" fill="#231F20"/>
<path d="M1161.79 375.726C1182.26 375.726 1198.86 371.016 1198.86 365.205C1198.86 359.395 1182.26 354.684 1161.79 354.684C1141.31 354.684 1124.71 359.395 1124.71 365.205C1124.71 371.016 1141.31 375.726 1161.79 375.726Z" fill="#231F20"/>
<path d="M1161.79 376.327C1140.65 376.327 1124.11 371.418 1124.11 365.205C1124.11 358.993 1140.65 354.083 1161.79 354.083C1182.93 354.083 1199.46 358.993 1199.46 365.205C1199.46 371.418 1182.93 376.327 1161.79 376.327ZM1161.79 355.285C1139.94 355.285 1125.32 360.396 1125.32 365.205C1125.32 370.015 1139.94 375.125 1161.79 375.125C1183.63 375.125 1198.26 370.015 1198.26 365.205C1198.26 360.396 1183.63 355.285 1161.79 355.285Z" fill="#231F20"/>
<path d="M1208.68 344.564V359.895C1208.68 365.706 1192.05 370.416 1171.61 370.416C1151.17 370.416 1134.53 365.706 1134.53 359.895V344.564H1208.68Z" fill="white"/>
<path d="M1171.61 371.117C1153.07 371.117 1133.83 366.909 1133.83 359.895V344.564C1133.83 344.163 1134.13 343.863 1134.53 343.863H1208.78C1209.18 343.863 1209.48 344.163 1209.48 344.564V359.895C1209.38 366.909 1190.14 371.117 1171.61 371.117ZM1135.13 345.265V359.895C1135.13 364.604 1149.76 369.714 1171.51 369.714C1193.25 369.714 1207.88 364.604 1207.88 359.895V345.265H1135.13Z" fill="#231F20"/>
<path d="M1171.61 355.085C1192.08 355.085 1208.68 350.375 1208.68 344.564C1208.68 338.753 1192.08 334.043 1171.61 334.043C1151.13 334.043 1134.53 338.753 1134.53 344.564C1134.53 350.375 1151.13 355.085 1171.61 355.085Z" fill="white"/>
<path d="M1171.61 355.786C1153.07 355.786 1133.83 351.578 1133.83 344.564C1133.83 337.55 1153.07 333.342 1171.61 333.342C1190.14 333.342 1209.38 337.55 1209.38 344.564C1209.38 351.578 1190.14 355.786 1171.61 355.786ZM1171.61 334.744C1149.86 334.744 1135.24 339.855 1135.24 344.564C1135.24 349.273 1149.86 354.384 1171.61 354.384C1193.35 354.384 1207.98 349.273 1207.98 344.564C1207.98 339.855 1193.35 334.744 1171.61 334.744Z" fill="#231F20"/>
<path d="M1171.61 351.678C1155.78 351.678 1139.74 349.273 1139.74 344.564C1139.74 339.855 1155.78 337.45 1171.61 337.45C1187.44 337.45 1203.47 339.855 1203.47 344.564C1203.47 349.273 1187.34 351.678 1171.61 351.678ZM1171.61 338.853C1152.77 338.853 1141.15 342.159 1141.15 344.564C1141.15 346.969 1152.67 350.275 1171.61 350.275C1190.55 350.275 1202.07 346.969 1202.07 344.564C1202.07 342.159 1190.45 338.853 1171.61 338.853Z" fill="#D1D3D4"/>
<path d="M997.661 294.364C997.661 294.364 993.252 289.554 992.951 287.851C992.651 286.147 992.35 280.135 990.847 281.238C989.344 282.34 989.745 286.548 989.745 286.548C989.745 286.548 983.733 279.334 981.929 280.837C980.126 282.34 979.424 283.943 979.324 287.049C979.224 290.155 994.354 303.482 994.354 303.482" fill="white"/>
<path d="M994.354 304.183C994.154 304.183 994.053 304.083 993.853 303.983C991.248 301.779 978.422 290.356 978.522 287.049C978.623 283.743 979.424 282.039 981.428 280.336C981.729 280.035 982.23 279.935 982.631 279.935C984.434 280.035 987.24 282.841 988.943 284.644C989.043 283.242 989.344 281.438 990.346 280.636C990.647 280.336 991.148 280.336 991.548 280.436C992.55 280.837 992.951 282.741 993.352 286.448C993.452 286.949 993.452 287.35 993.552 287.65C993.753 288.652 996.258 291.859 998.061 293.763C998.362 294.063 998.362 294.464 998.061 294.765C997.761 295.065 997.36 295.065 997.059 294.765C996.258 293.963 992.45 289.755 992.15 287.851C992.15 287.55 992.049 287.049 991.949 286.548C991.849 285.446 991.448 282.54 991.047 281.739C990.346 282.44 990.246 284.845 990.346 286.348C990.346 286.648 990.146 286.949 989.945 287.049C989.645 287.149 989.344 287.049 989.144 286.849C987.34 284.745 984.033 281.338 982.53 281.238C982.43 281.238 982.43 281.238 982.33 281.238C980.627 282.741 980.025 284.143 979.925 286.949C979.825 288.753 987.44 296.368 994.755 302.781C995.055 303.081 995.055 303.482 994.855 303.783C994.755 304.083 994.554 304.183 994.354 304.183Z" fill="#231F20"/>
<path d="M989.344 293.362C989.043 293.362 988.843 293.161 988.743 292.961C987.741 290.757 987.941 288.151 989.244 286.147C989.444 285.847 989.845 285.747 990.246 285.947C990.546 286.147 990.647 286.648 990.446 286.949C989.444 288.552 989.244 290.656 990.045 292.36C990.246 292.66 990.045 293.161 989.745 293.262C989.544 293.362 989.444 293.362 989.344 293.362Z" fill="#231F20"/>
<path d="M1069 433.942C1068.9 435.746 1068.9 437.55 1069 439.353C1069.2 440.055 1070.61 443.461 1070.41 444.463C1070.21 445.465 1058.78 463.702 1055.88 460.796C1052.97 457.89 1060.29 444.664 1060.29 443.261C1060.29 441.858 1059.38 433.842 1059.38 433.842L1069 433.942Z" fill="white"/>
<path d="M1056.58 461.898C1056.08 461.898 1055.68 461.698 1055.38 461.397C1053.17 459.193 1055.48 453.081 1058.38 446.468C1058.88 445.466 1059.28 444.363 1059.58 443.361C1059.58 442.359 1058.98 436.848 1058.68 434.043C1058.68 433.842 1058.68 433.642 1058.88 433.542C1058.98 433.441 1059.18 433.341 1059.38 433.341H1069C1069.4 433.341 1069.7 433.642 1069.7 434.043C1069.6 435.746 1069.6 437.449 1069.7 439.153C1069.7 439.253 1069.8 439.453 1069.9 439.654C1070.81 442.059 1071.31 443.762 1071.11 444.664C1070.81 445.966 1061.69 460.496 1057.28 461.798C1056.98 461.798 1056.78 461.898 1056.58 461.898ZM1060.09 434.744C1060.29 436.848 1060.89 442.259 1060.89 443.462C1060.89 443.963 1060.49 444.864 1059.48 447.169C1057.88 450.976 1054.47 458.792 1056.18 460.496C1056.28 460.496 1056.28 460.596 1056.68 460.596C1060.19 459.794 1069.2 445.666 1069.6 444.464C1069.7 444.063 1069.3 442.66 1068.4 440.255L1068.2 439.754C1068 438.151 1068 436.448 1068.1 434.844L1060.09 434.744Z" fill="#231F20"/>
<path d="M1043.65 435.245C1043.65 435.245 1043.15 442.86 1043.65 444.664C1044.15 446.467 1044.95 448.271 1044.65 449.373C1044.35 450.475 1030.43 462.8 1029.72 460.596C1029.02 458.391 1034.73 449.674 1034.83 448.071C1034.93 446.467 1033.03 434.544 1033.03 434.544L1043.65 435.245Z" fill="white"/>
<path d="M1030.13 461.397C1029.62 461.397 1029.22 461.097 1029.02 460.596C1028.52 459.093 1030.13 455.986 1032.33 451.778C1033.03 450.576 1033.63 449.173 1034.13 447.87C1034.23 446.768 1033.13 439.253 1032.33 434.443C1032.33 434.243 1032.33 434.043 1032.53 433.842C1032.63 433.642 1032.93 433.642 1033.13 433.642L1043.75 434.443C1044.15 434.443 1044.45 434.844 1044.35 435.145C1044.25 437.249 1043.95 442.96 1044.35 444.263C1044.45 444.764 1044.65 445.165 1044.75 445.666C1045.26 446.868 1045.46 448.071 1045.36 449.273C1045.16 450.676 1033.03 461.297 1030.13 461.397ZM1033.83 435.145C1034.33 438.051 1035.64 446.568 1035.54 447.97C1035.54 448.672 1034.83 449.974 1033.53 452.479C1032.23 454.984 1030.33 458.592 1030.33 459.994C1032.73 459.493 1043.35 450.275 1044.05 448.972C1043.95 447.97 1043.75 447.069 1043.45 446.167C1043.35 445.666 1043.15 445.165 1043.05 444.764C1042.65 443.261 1042.85 437.85 1042.95 435.846L1033.83 435.145Z" fill="#231F20"/>
<path d="M1135.34 299.474C1135.34 299.474 1139.94 294.865 1140.25 293.161C1140.55 291.458 1141.15 285.446 1142.55 286.548C1143.95 287.65 1143.45 291.959 1143.45 291.959C1143.45 291.959 1149.76 284.945 1151.47 286.548C1153.17 288.151 1153.87 289.755 1153.87 292.861C1153.87 295.967 1138.14 308.692 1138.14 308.692" fill="white"/>
<path d="M1138.24 309.394C1138.04 309.394 1137.84 309.294 1137.74 309.093C1137.54 308.793 1137.54 308.392 1137.84 308.091C1145.46 301.979 1153.27 294.564 1153.27 292.861C1153.27 290.055 1152.77 288.652 1151.07 287.049C1151.07 287.049 1151.07 287.049 1150.87 287.049C1149.36 287.149 1145.86 290.356 1144.05 292.46C1143.85 292.66 1143.55 292.761 1143.25 292.66C1142.95 292.56 1142.85 292.26 1142.85 291.959C1143.05 290.456 1142.95 288.051 1142.35 287.35C1141.85 288.151 1141.45 290.957 1141.25 292.159C1141.15 292.66 1141.15 293.161 1141.05 293.462C1140.65 295.266 1136.74 299.374 1135.94 300.175C1135.64 300.476 1135.24 300.476 1134.93 300.175C1134.63 299.875 1134.63 299.474 1134.93 299.173C1136.84 297.27 1139.44 294.264 1139.74 293.262C1139.84 292.961 1139.84 292.56 1139.94 292.059C1140.55 288.352 1140.95 286.448 1142.05 286.047C1142.45 285.847 1142.95 285.947 1143.25 286.248C1144.25 287.049 1144.55 288.853 1144.55 290.356C1146.26 288.552 1149.16 285.947 1151.07 285.947C1151.57 285.947 1151.97 286.047 1152.27 286.348C1154.17 288.151 1154.87 289.955 1154.87 293.161C1154.87 296.368 1141.55 307.39 1138.84 309.494C1138.54 309.294 1138.44 309.394 1138.24 309.394Z" fill="#231F20"/>
<path d="M1050.47 348.472L1095.26 350.877C1095.26 350.877 1097.96 363.201 1090.35 369.313C1082.73 375.426 1067.2 381.738 1066.3 386.147C1065.4 390.556 1070.91 429.233 1070.31 438.351L1056.48 441.658C1056.48 441.658 1044.55 395.466 1044.85 387.85C1045.16 380.235 1049.16 376.628 1049.16 376.628C1049.16 376.628 1038.14 386.047 1037.84 388.151C1037.54 390.255 1045.76 439.253 1045.76 439.253C1045.76 439.253 1031.23 439.854 1030.93 438.952C1030.63 438.051 1017.2 392.76 1020.51 383.041C1023.81 373.321 1050.47 348.472 1050.47 348.472Z" fill="#231F20"/>
<path d="M1056.58 442.259C1056.28 442.259 1056.08 442.059 1055.98 441.758C1055.48 439.854 1044.05 395.466 1044.35 387.75C1044.45 385.145 1045.06 382.54 1046.06 380.135C1042.05 383.742 1038.64 387.249 1038.54 388.151C1038.34 389.854 1043.15 419.514 1046.46 439.053C1046.56 439.353 1046.26 439.754 1045.96 439.754C1045.96 439.754 1045.96 439.754 1045.86 439.754C1030.83 440.355 1030.53 439.454 1030.43 438.953C1030.33 438.452 1016.5 392.76 1020.01 382.64C1023.41 372.82 1048.96 348.973 1050.07 347.971C1050.17 347.871 1050.37 347.771 1050.47 347.771L1095.26 350.175C1095.56 350.175 1095.76 350.376 1095.86 350.676C1095.96 351.177 1098.56 363.402 1090.75 369.714C1087.04 372.42 1083.23 374.824 1079.22 377.029C1073.41 380.335 1067.4 383.842 1066.9 386.247C1066.5 388.352 1067.6 398.973 1068.7 409.293C1070 421.217 1071.31 433.642 1070.91 438.351C1070.91 438.652 1070.71 438.852 1070.41 438.953L1056.58 442.259ZM1049.26 375.927C1049.46 375.927 1049.56 376.027 1049.76 376.127C1049.97 376.327 1049.97 376.728 1049.76 377.029C1049.76 377.029 1045.96 380.636 1045.66 387.851C1045.36 394.865 1055.68 435.445 1057.08 440.856L1069.8 437.85C1070.01 432.84 1068.7 420.416 1067.5 409.394C1066.3 397.971 1065.3 388.151 1065.7 385.947C1066.3 382.941 1072.01 379.734 1078.62 375.927C1082.63 373.822 1086.34 371.418 1090.04 368.712C1096.46 363.602 1095.16 353.682 1094.75 351.378L1050.67 349.073C1048.26 351.277 1024.21 374.023 1021.11 383.141C1017.9 392.46 1030.53 435.245 1031.43 438.452C1032.63 438.852 1039.04 438.852 1045.06 438.552C1043.85 431.037 1037.04 390.055 1037.24 387.951C1037.54 385.746 1046.86 377.63 1048.76 376.027C1048.96 376.027 1049.16 376.027 1049.26 375.927Z" fill="#231F20"/>
<path d="M1097.36 351.879C1097.36 351.879 1094.65 332.44 1092.15 322.42C1092.15 322.42 1099.56 335.446 1108.48 336.147C1117.4 336.849 1143.65 306.588 1143.65 306.588L1136.34 296.167C1136.34 296.167 1117.9 310.596 1107.38 315.306C1104.67 308.893 1088.34 285.847 1078.92 281.238C1069.5 276.628 1057.58 280.236 1051.17 285.546C1048.06 288.151 1040.05 292.761 1026.02 305.686C1015.9 302.079 1006.38 297.169 997.56 290.957L990.246 301.077C990.246 301.077 1019.7 328.332 1027.82 324.223L1046.56 314.805L1045.56 351.478L1097.36 351.879Z" fill="#68E1FD"/>
<path d="M1059.28 251.578C1059.28 251.578 1051.67 273.322 1048.26 277.831L1068 285.246L1071.71 250.176L1059.28 251.578Z" fill="white"/>
<path d="M1068 286.047C1067.9 286.047 1067.8 286.047 1067.8 286.047L1048.06 278.632C1047.66 278.532 1047.46 278.131 1047.66 277.731C1047.66 277.63 1047.76 277.63 1047.76 277.53C1051.07 273.121 1058.58 251.578 1058.68 251.378C1058.78 251.077 1058.98 250.977 1059.28 250.877L1071.71 249.474C1071.91 249.474 1072.11 249.574 1072.31 249.675C1072.41 249.875 1072.51 250.075 1072.51 250.276L1068.8 285.346C1068.8 285.546 1068.7 285.747 1068.5 285.847C1068.2 285.947 1068.1 286.047 1068 286.047ZM1049.36 277.63L1067.4 284.444L1070.91 251.077L1059.78 252.38C1058.68 255.286 1052.67 272.22 1049.36 277.63Z" fill="#231F20"/>
<path d="M1063.09 278.332L1060.89 288.051C1060.89 288.051 1059.68 294.163 1066.2 293.562C1070.11 293.161 1073.61 291.057 1075.72 287.851L1078.32 270.216C1078.42 269.414 1079.52 262.2 1080.83 255.787C1073.41 254.284 1066.8 252.38 1066.8 252.38C1067.4 253.282 1064.69 252.881 1064.69 252.881C1063.49 252.681 1062.29 252.58 1061.09 252.781C1059.88 256.989 1057.78 261.498 1057.08 265.807C1056.58 268.412 1056.38 271.017 1056.38 273.622C1056.48 278.332 1063.09 278.232 1063.09 278.332Z" fill="white"/>
<path d="M1065.4 294.163C1063.89 294.264 1062.39 293.763 1061.39 292.66C1059.68 290.757 1060.29 287.951 1060.29 287.851L1062.39 278.833C1059.78 278.632 1055.98 277.33 1055.88 273.322C1055.88 270.717 1056.08 268.011 1056.58 265.406C1057.18 262.5 1057.98 259.695 1059.08 256.889C1059.58 255.386 1060.19 253.783 1060.59 252.28C1060.69 252.079 1060.89 251.879 1061.09 251.879C1062.39 251.679 1063.69 251.779 1064.89 251.979C1065.4 252.079 1065.8 252.079 1066.3 252.079C1066.3 251.979 1066.4 251.879 1066.4 251.779C1066.5 251.578 1066.8 251.478 1067.1 251.578C1067.2 251.578 1073.71 253.482 1081.13 254.985C1081.33 254.985 1081.43 255.085 1081.53 255.286C1081.63 255.386 1081.63 255.586 1081.63 255.787C1080.43 261.298 1079.52 267.61 1079.12 270.115C1079.12 270.216 1078.22 276.127 1076.52 287.951C1076.52 288.051 1076.52 288.151 1076.42 288.151C1074.11 291.558 1070.51 293.763 1066.4 294.163C1066 294.163 1065.7 294.163 1065.4 294.163ZM1061.49 288.151C1061.29 289.454 1061.59 290.757 1062.29 291.859C1063.09 292.761 1064.29 293.061 1066.1 292.961C1069.7 292.56 1073.01 290.656 1075.12 287.65C1075.32 286.047 1077.72 270.316 1077.72 270.115C1078.12 267.61 1079.02 261.699 1080.13 256.188C1074.31 254.985 1069.1 253.582 1067.3 253.081C1067.1 253.282 1066.5 253.683 1064.59 253.382C1063.59 253.182 1062.59 253.081 1061.49 253.182C1061.09 254.584 1060.59 255.987 1060.09 257.39C1059.08 260.095 1058.18 262.901 1057.68 265.707C1057.18 268.212 1056.98 270.817 1056.98 273.322C1057.08 277.63 1062.69 277.53 1062.99 277.63C1063.19 277.63 1063.39 277.731 1063.49 277.831C1063.59 278.031 1063.69 278.232 1063.59 278.332L1061.49 288.151Z" fill="#231F20"/>
<path d="M1066.8 263.202C1066.8 263.202 1062.59 267.41 1063.19 268.412C1063.79 269.414 1066.1 269.214 1066.1 269.214" fill="white"/>
<path d="M1065.7 270.015C1064.89 270.015 1063.19 269.915 1062.59 268.813C1061.99 267.711 1063.19 265.807 1066.2 262.701C1066.5 262.4 1066.9 262.4 1067.2 262.701C1067.5 263.001 1067.5 263.402 1067.2 263.703C1065.4 265.606 1063.79 267.711 1063.79 268.212C1064.49 268.512 1065.2 268.713 1066 268.612C1066.4 268.612 1066.7 268.913 1066.7 269.314C1066.7 269.614 1066.4 269.915 1066.1 270.015H1065.7Z" fill="#231F20"/>
<path d="M1063.72 261.514C1063.86 260.92 1063.7 260.379 1063.38 260.305C1063.06 260.23 1062.68 260.651 1062.55 261.244C1062.41 261.838 1062.56 262.379 1062.89 262.453C1063.21 262.528 1063.58 262.107 1063.72 261.514Z" fill="#231F20"/>
<path d="M1071.62 263.78C1071.75 263.186 1071.6 262.645 1071.28 262.571C1070.95 262.497 1070.58 262.917 1070.44 263.511C1070.31 264.104 1070.46 264.645 1070.78 264.719C1071.11 264.794 1071.48 264.373 1071.62 263.78Z" fill="#231F20"/>
<path d="M1064.89 258.893L1065.9 256.889L1066.7 259.294L1072.91 261.198L1074.61 258.592L1074.41 262.099L1077.72 262.4C1077.72 262.4 1071.51 277.931 1071.71 287.55C1071.71 287.55 1090.35 292.66 1095.16 289.354C1095.16 289.354 1089.84 270.316 1090.15 262.701C1090.45 255.085 1089.94 248.572 1080.93 245.065C1071.91 241.558 1065.3 242.661 1060.59 246.769C1057.68 249.374 1056.08 253.081 1055.98 256.889C1056.08 256.889 1063.09 258.793 1064.89 258.893Z" fill="white"/>
<path d="M1089.74 291.057C1082.43 291.057 1072.31 288.252 1071.71 288.151C1071.41 288.051 1071.21 287.851 1071.21 287.45C1071.01 279.033 1075.62 266.308 1076.92 262.901L1074.51 262.701C1074.11 262.701 1073.91 262.3 1073.91 261.999V260.997L1073.61 261.498C1073.41 261.799 1073.11 261.899 1072.81 261.799L1066.5 259.995C1066.3 259.895 1066.1 259.795 1066 259.494L1065.8 258.693L1065.5 259.194C1065.4 259.494 1065.1 259.594 1064.79 259.594C1062.89 259.394 1056.08 257.59 1055.78 257.49C1055.48 257.39 1055.28 257.089 1055.28 256.789C1055.38 252.681 1057.08 248.873 1060.09 246.067C1065.4 241.458 1072.41 240.857 1081.13 244.164C1090.55 247.771 1091.05 254.584 1090.85 262.5C1090.65 269.915 1095.86 288.753 1095.86 288.953C1095.96 289.254 1095.86 289.554 1095.56 289.755C1094.25 290.656 1092.05 290.957 1089.54 290.957L1089.74 291.057ZM1072.61 286.949C1077.92 288.352 1090.45 291.057 1094.55 288.953C1093.65 285.747 1089.44 269.614 1089.64 262.6C1089.84 254.985 1089.34 248.973 1080.83 245.667C1072.51 242.46 1066.1 242.961 1061.19 247.27C1058.58 249.574 1057.08 252.881 1056.88 256.388C1058.38 256.789 1062.69 257.891 1064.59 258.192L1065.4 256.588C1065.5 256.288 1065.8 256.188 1066.1 256.188C1066.4 256.188 1066.6 256.388 1066.7 256.689L1067.3 258.693L1072.71 260.296L1074.11 258.091C1074.31 257.791 1074.81 257.691 1075.12 257.891C1075.32 257.991 1075.42 258.292 1075.42 258.492L1075.32 261.298L1077.92 261.598C1078.12 261.598 1078.32 261.699 1078.42 261.899C1078.52 262.099 1078.52 262.3 1078.42 262.5C1078.42 262.801 1072.61 277.53 1072.61 286.949Z" fill="#231F20"/>
<path d="M1059.78 270.316C1059.78 270.316 1064.59 276.027 1069.2 270.015L1059.78 270.316Z" fill="white"/>
<path d="M1064.59 273.422C1061.59 273.422 1059.38 270.817 1059.28 270.717C1059.08 270.416 1059.18 269.915 1059.48 269.715C1059.78 269.514 1060.09 269.614 1060.39 269.815C1060.39 269.815 1062.29 272.019 1064.59 272.019H1064.69C1066.1 272.019 1067.5 271.117 1068.7 269.514C1068.9 269.214 1069.4 269.113 1069.7 269.314C1070.01 269.514 1070.11 270.015 1069.9 270.316C1069.9 270.316 1069.9 270.416 1069.8 270.416C1068.2 272.42 1066.5 273.422 1064.59 273.422Z" fill="#231F20"/>
<path d="M1063.09 278.332C1063.09 278.332 1068.3 278.232 1070.51 276.829C1070.51 276.829 1067.3 283.642 1061.39 285.747L1063.09 278.332Z" fill="#231F20"/>
<path d="M1061.39 286.448C1061.19 286.448 1061.09 286.348 1060.89 286.248C1060.69 286.047 1060.59 285.847 1060.69 285.546L1062.39 278.131C1062.49 277.831 1062.69 277.63 1063.09 277.63C1063.09 277.63 1068.1 277.53 1070.21 276.228C1070.51 276.027 1070.81 276.127 1071.01 276.328C1071.21 276.528 1071.31 276.829 1071.21 277.129C1071.11 277.43 1067.8 284.244 1061.69 286.448C1061.59 286.448 1061.49 286.448 1061.39 286.448ZM1063.69 279.033L1062.39 284.644C1065.1 283.141 1067.3 280.937 1068.9 278.232C1067.2 278.632 1065.4 278.933 1063.69 279.033Z" fill="#231F20"/>
<path d="M1143.75 298.773C1143.35 298.773 1143.05 298.472 1143.05 298.071C1143.05 297.971 1143.05 297.871 1143.15 297.771C1144.05 296.067 1143.95 294.063 1143.05 292.36C1142.85 292.059 1142.95 291.558 1143.25 291.358C1143.55 291.157 1144.05 291.258 1144.25 291.558C1145.46 293.662 1145.56 296.167 1144.45 298.372C1144.25 298.572 1144.05 298.773 1143.75 298.773Z" fill="#231F20"/>
<path d="M1094.85 326.127C1094.85 326.127 1086.54 315.406 1081.13 308.692L1094.85 326.127Z" fill="white"/>
<path d="M1094.85 326.829C1094.65 326.829 1094.45 326.728 1094.35 326.528C1094.25 326.428 1085.94 315.706 1080.63 309.093C1080.43 308.793 1080.43 308.392 1080.73 308.091C1081.03 307.891 1081.43 307.891 1081.73 308.191C1087.04 314.805 1095.46 325.526 1095.56 325.626C1095.76 325.927 1095.76 326.328 1095.46 326.628C1095.26 326.728 1095.06 326.728 1094.85 326.829Z" fill="#231F20"/>
<path d="M1045.76 347.67C1045.36 347.67 1045.06 347.37 1045.06 346.969L1046.16 302.28C1046.16 301.879 1046.46 301.578 1046.86 301.578C1047.26 301.578 1047.56 301.879 1047.56 302.28L1046.36 346.969C1046.46 347.37 1046.16 347.67 1045.76 347.67Z" fill="#231F20"/>
<path d="M1130.23 245.867C1157.34 245.867 1179.32 223.885 1179.32 196.769C1179.32 169.653 1157.34 147.671 1130.23 147.671C1103.11 147.671 1081.13 169.653 1081.13 196.769C1081.13 223.885 1103.11 245.867 1130.23 245.867Z" fill="#68E1FD"/>
<path d="M1147.16 182.14L1153.07 175.026C1150.87 172.621 1148.26 170.617 1145.15 169.314C1138.24 166.308 1131.33 166.909 1124.61 170.216C1117.9 173.523 1114.09 179.234 1111.89 186.248C1111.19 188.452 1111.19 188.452 1108.78 188.553H1102.17V195.166H1110.39V198.573H1102.17V205.186H1111.19C1113.99 216.208 1120 223.923 1131.73 225.827C1140.65 227.23 1148.16 224.625 1154.17 217.611L1148.36 210.697C1145.76 213.402 1142.85 215.707 1139.14 216.408C1135.44 217.21 1131.63 216.408 1128.62 214.304C1125.52 212.1 1123.81 208.893 1122.71 205.186H1143.65V198.573H1121.61V195.166H1143.65V188.553H1122.61C1124.21 183.543 1126.92 179.635 1131.93 177.931C1137.84 175.827 1142.85 177.631 1147.16 182.14Z" fill="white"/>
<path d="M1130.23 238.953C1106.88 238.953 1088.04 220.015 1088.04 196.769C1088.04 173.523 1106.98 154.585 1130.23 154.585C1153.47 154.585 1172.41 173.523 1172.41 196.769C1172.51 220.015 1153.57 238.953 1130.23 238.953ZM1130.23 155.887C1107.68 155.887 1089.44 174.124 1089.44 196.669C1089.44 219.214 1107.68 237.45 1130.23 237.45C1152.77 237.45 1171.01 219.214 1171.01 196.669C1171.11 174.224 1152.77 155.988 1130.23 155.887Z" fill="white"/>
<path d="M1004.77 245.867C1031.89 245.867 1053.87 223.885 1053.87 196.769C1053.87 169.653 1031.89 147.671 1004.77 147.671C977.659 147.671 955.677 169.653 955.677 196.769C955.677 223.885 977.659 245.867 1004.77 245.867Z" fill="#68E1FD"/>
<path d="M999.865 212.4C1001.87 208.693 1002.17 204.284 1000.87 200.276H1008.68V193.763C1005.58 193.763 1002.67 193.663 999.665 193.863C998.462 194.064 997.26 193.262 996.859 192.16C994.454 187.05 995.055 181.939 998.863 178.132C1002.67 174.324 1008.68 173.523 1012.69 178.533C1013.99 180.336 1015.2 182.24 1016.3 184.144C1016.7 184.745 1016.9 185.346 1017.3 186.048L1025.72 182.34C1024.61 180.336 1023.61 178.432 1022.51 176.629C1020.51 173.122 1017.6 170.216 1014.09 168.312C1007.18 164.805 1000.47 165.707 994.454 170.216C988.242 174.925 985.536 181.238 986.538 189.054C986.739 190.657 987.24 192.16 987.54 193.863H981.528V200.376H990.146C990.446 200.376 991.047 200.476 991.047 200.677C991.949 202.48 992.851 204.284 992.35 206.288C991.148 211.098 987.741 215.005 983.232 216.809C983.031 216.909 982.831 217.009 982.631 217.11C983.633 219.915 984.635 222.52 985.737 225.226C986.238 225.025 986.639 224.925 986.939 224.725C988.542 224.023 990.045 223.122 991.649 222.52C995.556 220.917 999.564 220.416 1003.57 222.22C1004.57 222.621 1005.58 223.122 1006.68 223.522C1012.79 226.128 1018.2 224.224 1023.41 221.017L1019.5 212.5C1018.8 212.901 1018.3 213.302 1017.7 213.603C1015.1 215.005 1012.39 216.007 1009.48 215.005C1006.38 214.003 1003.47 212.601 999.865 212.4Z" fill="white"/>
<path d="M1004.77 238.953C981.428 238.953 962.591 220.015 962.591 196.769C962.591 173.523 981.528 154.585 1004.77 154.585C1028.02 154.585 1046.96 173.523 1046.96 196.769C1046.96 220.015 1028.02 238.953 1004.77 238.953ZM1004.77 155.887C982.23 155.887 963.993 174.124 963.993 196.669C963.993 219.214 982.23 237.45 1004.77 237.45C1027.32 237.45 1045.56 219.214 1045.56 196.669C1045.56 174.224 1027.32 155.988 1004.77 155.887Z" fill="white"/>
<path d="M915.296 324.223C942.412 324.223 964.394 302.242 964.394 275.125C964.394 248.009 942.412 226.027 915.296 226.027C888.18 226.027 866.198 248.009 866.198 275.125C866.198 302.242 888.18 324.223 915.296 324.223Z" fill="#68E1FD"/>
<path d="M927.521 274.725C925.316 273.522 923.012 272.42 920.707 271.418C920.206 271.318 919.905 270.817 920.006 270.316C920.006 266.308 920.006 262.3 920.006 258.192C920.006 257.991 920.006 257.891 920.106 257.691C923.012 258.592 925.717 260.296 927.721 262.6C929.725 260.296 931.529 258.091 933.432 255.987C930.126 252.28 925.717 249.675 920.907 248.673C920.206 248.572 920.006 248.272 920.006 247.57C920.006 246.168 920.006 244.665 920.006 243.162H912.691V248.172C910.787 248.773 908.883 249.374 906.98 250.176C901.769 252.781 898.563 256.689 898.262 262.701C898.062 268.512 900.867 272.721 905.677 275.526C907.681 276.628 909.785 277.53 911.889 278.432C912.39 278.532 912.691 279.033 912.591 279.534C912.591 282.841 912.591 286.147 912.591 289.554V293.863C908.783 293.061 905.276 291.258 902.471 288.452L896.158 295.366C900.567 299.775 906.378 302.48 912.491 303.081V307.29H919.905V302.68C920.306 302.58 920.607 302.48 920.907 302.38C923.112 301.879 925.216 300.977 927.22 299.775C936.539 294.063 937.04 280.436 927.521 274.725ZM912.491 267.711C910.086 267.109 908.282 265.005 908.182 262.5C908.282 259.995 910.086 257.991 912.591 257.691L912.491 267.711ZM920.006 293.161C920.006 292.961 919.905 292.761 919.905 292.56V282.139C922.511 282.741 924.314 285.045 924.314 287.751C924.414 290.356 922.611 292.56 920.006 293.161Z" fill="white"/>
<path d="M915.296 317.41C891.95 317.41 873.112 298.472 873.112 275.125C873.112 251.779 892.05 232.941 915.296 232.941C938.543 232.941 957.48 251.879 957.48 275.125C957.48 298.472 938.643 317.31 915.296 317.41ZM915.296 234.344C892.751 234.344 874.515 252.58 874.515 275.125C874.515 297.67 892.751 315.907 915.296 315.907C937.841 315.907 956.078 297.67 956.078 275.125C956.078 252.58 937.841 234.344 915.296 234.344Z" fill="white"/>
<path d="M1219.7 324.223C1246.82 324.223 1268.8 302.242 1268.8 275.125C1268.8 248.009 1246.82 226.027 1219.7 226.027C1192.59 226.027 1170.61 248.009 1170.61 275.125C1170.61 302.242 1192.59 324.223 1219.7 324.223Z" fill="#68E1FD"/>
<path d="M1241.95 249.875C1237.14 258.793 1232.43 267.51 1227.62 276.428H1239.44V282.741H1225.82V285.847H1239.34V292.159H1225.82V306.989H1213.69V292.26H1200.06V285.947H1213.59V282.741H1200.06V276.528H1211.79C1206.98 267.61 1202.27 258.793 1197.46 249.875H1203.27C1205.38 249.875 1207.58 249.875 1209.68 249.875C1210.18 249.775 1210.69 250.075 1210.79 250.576C1213.59 257.089 1216.4 263.602 1219.3 270.115C1219.4 270.416 1219.5 270.616 1219.8 271.017C1220 270.516 1220.2 270.216 1220.41 269.915C1223.31 263.502 1226.12 257.089 1229.02 250.677C1229.12 250.376 1229.62 249.875 1229.92 249.875C1233.73 249.875 1237.74 249.875 1241.95 249.875Z" fill="white"/>
<path d="M1219.7 317.41C1196.36 317.41 1177.52 298.572 1177.42 275.226C1177.32 251.879 1196.26 233.041 1219.6 232.941C1242.95 232.841 1261.79 251.779 1261.89 275.125C1261.89 298.472 1242.95 317.31 1219.7 317.41ZM1219.7 234.344C1197.16 234.344 1178.92 252.58 1178.92 275.125C1178.92 297.67 1197.16 315.907 1219.7 315.907C1242.25 315.907 1260.49 297.67 1260.49 275.125C1260.49 252.58 1242.25 234.344 1219.7 234.344Z" fill="white"/>
</g>
<defs>
<filter id="filter0_d_1_380" x="232.909" y="240.205" width="426.102" height="146.886" filterUnits="userSpaceOnUse" color-interpolation-filters="sRGB">
<feFlood flood-opacity="0" result="BackgroundImageFix"/>
<feColorMatrix in="SourceAlpha" type="matrix" values="0 0 0 0 0 0 0 0 0 0 0 0 0 0 0 0 0 0 127 0" result="hardAlpha"/>
<feOffset dy="4"/>
<feGaussianBlur stdDeviation="2"/>
<feComposite in2="hardAlpha" operator="out"/>
<feColorMatrix type="matrix" values="0 0 0 0 0 0 0 0 0 0 0 0 0 0 0 0 0 0 0.25 0"/>
<feBlend mode="normal" in2="BackgroundImageFix" result="effect1_dropShadow_1_380"/>
<feBlend mode="normal" in="SourceGraphic" in2="effect1_dropShadow_1_380" result="shape"/>
</filter>
<linearGradient id="paint0_linear_1_380" x1="1500.5" y1="179" x2="1065" y2="179" gradientUnits="userSpaceOnUse">
<stop stop-color="#A9AFF3" stop-opacity="0.83"/>
<stop offset="1" stop-color="#63777C" stop-opacity="0"/>
</linearGradient>
<clipPath id="clip0_1_380">
<rect width="1500" height="670" fill="white"/>
</clipPath>
</defs>
</svg>
