<svg width="1500" height="670" viewBox="0 0 1500 670" fill="none" xmlns="http://www.w3.org/2000/svg">
<g clip-path="url(#clip0_1_138)">
<rect width="1500" height="670" fill="#DADCF0"/>
<rect x="1065" width="539" height="670" fill="url(#paint0_linear_1_138)"/>
<rect x="166" y="717.833" width="1411.97" height="277.221" transform="rotate(-15.7318 166 717.833)" fill="#B1B8DF"/>
<g opacity="0.9" filter="url(#filter0_d_1_138)">
<path d="M252.386 229L239.25 182.455H248.318L256.705 216.659H257.136L266.091 182.455H274.341L283.318 216.682H283.727L292.114 182.455H301.182L288.045 229H279.727L270.409 196.341H270.045L260.705 229H252.386ZM318.33 229.682C314.92 229.682 311.966 228.932 309.466 227.432C306.966 225.932 305.027 223.833 303.648 221.136C302.284 218.439 301.602 215.288 301.602 211.682C301.602 208.076 302.284 204.917 303.648 202.205C305.027 199.492 306.966 197.386 309.466 195.886C311.966 194.386 314.92 193.636 318.33 193.636C321.739 193.636 324.693 194.386 327.193 195.886C329.693 197.386 331.625 199.492 332.989 202.205C334.367 204.917 335.057 208.076 335.057 211.682C335.057 215.288 334.367 218.439 332.989 221.136C331.625 223.833 329.693 225.932 327.193 227.432C324.693 228.932 321.739 229.682 318.33 229.682ZM318.375 223.091C320.223 223.091 321.769 222.583 323.011 221.568C324.254 220.538 325.178 219.159 325.784 217.432C326.405 215.705 326.716 213.78 326.716 211.659C326.716 209.523 326.405 207.591 325.784 205.864C325.178 204.121 324.254 202.735 323.011 201.705C321.769 200.674 320.223 200.159 318.375 200.159C316.481 200.159 314.905 200.674 313.648 201.705C312.405 202.735 311.473 204.121 310.852 205.864C310.246 207.591 309.943 209.523 309.943 211.659C309.943 213.78 310.246 215.705 310.852 217.432C311.473 219.159 312.405 220.538 313.648 221.568C314.905 222.583 316.481 223.091 318.375 223.091ZM342.04 229V194.091H350.017V199.909H350.381C351.017 197.894 352.108 196.341 353.653 195.25C355.214 194.144 356.994 193.591 358.994 193.591C359.449 193.591 359.956 193.614 360.517 193.659C361.093 193.689 361.57 193.742 361.949 193.818V201.386C361.6 201.265 361.047 201.159 360.29 201.068C359.547 200.962 358.828 200.909 358.131 200.909C356.631 200.909 355.282 201.235 354.085 201.886C352.903 202.523 351.972 203.409 351.29 204.545C350.608 205.682 350.267 206.992 350.267 208.477V229H342.04ZM374.915 218.045L374.892 208.114H376.21L388.756 194.091H398.369L382.938 211.273H381.233L374.915 218.045ZM367.415 229V182.455H375.642V229H367.415ZM389.324 229L377.96 213.114L383.506 207.318L399.165 229H389.324ZM437.409 194.091V200.455H416.773V194.091H437.409ZM421.932 229V190.795C421.932 188.447 422.417 186.492 423.386 184.932C424.371 183.371 425.689 182.205 427.341 181.432C428.992 180.659 430.826 180.273 432.841 180.273C434.265 180.273 435.53 180.386 436.636 180.614C437.742 180.841 438.561 181.045 439.091 181.227L437.455 187.591C437.106 187.485 436.667 187.379 436.136 187.273C435.606 187.152 435.015 187.091 434.364 187.091C432.833 187.091 431.75 187.462 431.114 188.205C430.492 188.932 430.182 189.977 430.182 191.341V229H421.932ZM443.852 229V194.091H451.83V199.909H452.193C452.83 197.894 453.92 196.341 455.466 195.25C457.027 194.144 458.807 193.591 460.807 193.591C461.261 193.591 461.769 193.614 462.33 193.659C462.905 193.689 463.383 193.742 463.761 193.818V201.386C463.413 201.265 462.86 201.159 462.102 201.068C461.36 200.962 460.64 200.909 459.943 200.909C458.443 200.909 457.095 201.235 455.898 201.886C454.716 202.523 453.784 203.409 453.102 204.545C452.42 205.682 452.08 206.992 452.08 208.477V229H443.852ZM483.017 229.682C479.608 229.682 476.653 228.932 474.153 227.432C471.653 225.932 469.714 223.833 468.335 221.136C466.972 218.439 466.29 215.288 466.29 211.682C466.29 208.076 466.972 204.917 468.335 202.205C469.714 199.492 471.653 197.386 474.153 195.886C476.653 194.386 479.608 193.636 483.017 193.636C486.426 193.636 489.381 194.386 491.881 195.886C494.381 197.386 496.313 199.492 497.676 202.205C499.055 204.917 499.744 208.076 499.744 211.682C499.744 215.288 499.055 218.439 497.676 221.136C496.313 223.833 494.381 225.932 491.881 227.432C489.381 228.932 486.426 229.682 483.017 229.682ZM483.062 223.091C484.911 223.091 486.456 222.583 487.699 221.568C488.941 220.538 489.866 219.159 490.472 217.432C491.093 215.705 491.403 213.78 491.403 211.659C491.403 209.523 491.093 207.591 490.472 205.864C489.866 204.121 488.941 202.735 487.699 201.705C486.456 200.674 484.911 200.159 483.062 200.159C481.169 200.159 479.593 200.674 478.335 201.705C477.093 202.735 476.161 204.121 475.54 205.864C474.934 207.591 474.631 209.523 474.631 211.659C474.631 213.78 474.934 215.705 475.54 217.432C476.161 219.159 477.093 220.538 478.335 221.568C479.593 222.583 481.169 223.091 483.062 223.091ZM506.727 229V194.091H514.591V200.023H515C515.727 198.023 516.932 196.462 518.614 195.341C520.295 194.205 522.303 193.636 524.636 193.636C527 193.636 528.992 194.212 530.614 195.364C532.25 196.5 533.402 198.053 534.068 200.023H534.432C535.205 198.083 536.508 196.538 538.341 195.386C540.189 194.22 542.379 193.636 544.909 193.636C548.121 193.636 550.742 194.652 552.773 196.682C554.803 198.712 555.818 201.674 555.818 205.568V229H547.568V206.841C547.568 204.674 546.992 203.091 545.841 202.091C544.689 201.076 543.28 200.568 541.614 200.568C539.629 200.568 538.076 201.189 536.955 202.432C535.848 203.659 535.295 205.258 535.295 207.227V229H527.227V206.5C527.227 204.697 526.682 203.258 525.591 202.182C524.515 201.106 523.106 200.568 521.364 200.568C520.182 200.568 519.106 200.871 518.136 201.477C517.167 202.068 516.394 202.909 515.818 204C515.242 205.076 514.955 206.333 514.955 207.773V229H506.727ZM245.659 306H236.659L260.773 259.455H271.182L279.864 306H270.864L264.614 269H264.25L245.659 306ZM248.977 287.75H273.523L272.386 294.523H247.841L248.977 287.75ZM297.267 285.545L293.903 306H285.653L291.472 271.091H299.358L298.358 277.023H298.79C299.881 275.068 301.411 273.515 303.381 272.364C305.35 271.212 307.646 270.636 310.267 270.636C312.646 270.636 314.646 271.152 316.267 272.182C317.888 273.197 319.04 274.689 319.722 276.659C320.403 278.614 320.509 280.985 320.04 283.773L316.312 306H308.085L311.562 285.045C311.956 282.727 311.661 280.909 310.676 279.591C309.706 278.258 308.146 277.591 305.994 277.591C304.555 277.591 303.229 277.909 302.017 278.545C300.805 279.167 299.782 280.068 298.949 281.25C298.131 282.432 297.57 283.864 297.267 285.545ZM326.358 319.091C325.237 319.091 324.214 319 323.29 318.818C322.381 318.652 321.661 318.455 321.131 318.227L324.131 311.818C325.267 312.167 326.29 312.318 327.199 312.273C328.123 312.242 328.972 311.932 329.744 311.341C330.532 310.765 331.305 309.818 332.062 308.5L333.108 306.614L326.426 271.091H334.835L338.472 297.5H338.835L351.312 271.091H360.381L339.949 310.182C338.964 312.076 337.82 313.682 336.517 315C335.214 316.333 333.722 317.348 332.04 318.045C330.373 318.742 328.479 319.091 326.358 319.091ZM367.46 306L363.415 271.091H371.801L373.847 295.636H374.165L384.528 271.091H392.824L395.006 295.5H395.347L405.483 271.091H413.892L398.188 306H389.619L386.983 282.409H386.506L376.051 306H367.46ZM425.455 285.545L422.091 306H413.841L421.568 259.455H429.636L426.727 277.023H427.159C428.265 275.038 429.773 273.477 431.682 272.341C433.606 271.205 435.917 270.636 438.614 270.636C441.008 270.636 443.023 271.144 444.659 272.159C446.295 273.174 447.447 274.659 448.114 276.614C448.795 278.568 448.909 280.955 448.455 283.773L444.727 306H436.477L439.977 285.045C440.356 282.697 440.045 280.871 439.045 279.568C438.061 278.25 436.5 277.591 434.364 277.591C432.894 277.591 431.538 277.909 430.295 278.545C429.053 279.167 428.008 280.068 427.159 281.25C426.326 282.432 425.758 283.864 425.455 285.545ZM468.432 306.682C464.932 306.682 462.038 305.955 459.75 304.5C457.462 303.03 455.856 300.955 454.932 298.273C454.023 295.576 453.871 292.402 454.477 288.75C455.068 285.159 456.273 282.008 458.091 279.295C459.909 276.568 462.182 274.447 464.909 272.932C467.652 271.402 470.682 270.636 474 270.636C476.152 270.636 478.129 270.985 479.932 271.682C481.735 272.364 483.258 273.424 484.5 274.864C485.742 276.303 486.598 278.136 487.068 280.364C487.538 282.576 487.515 285.212 487 288.273L486.614 290.795H457.977L458.864 285.25H479.591C479.864 283.674 479.773 282.273 479.318 281.045C478.864 279.803 478.106 278.826 477.045 278.114C475.985 277.402 474.659 277.045 473.068 277.045C471.447 277.045 469.932 277.462 468.523 278.295C467.129 279.114 465.955 280.174 465 281.477C464.045 282.78 463.439 284.152 463.182 285.591L462.25 290.909C461.917 293.091 461.992 294.871 462.477 296.25C462.962 297.629 463.811 298.644 465.023 299.295C466.235 299.947 467.765 300.273 469.614 300.273C470.826 300.273 471.947 300.106 472.977 299.773C474.008 299.439 474.924 298.939 475.727 298.273C476.545 297.591 477.227 296.758 477.773 295.773L485.295 296.636C484.462 298.667 483.242 300.439 481.636 301.955C480.03 303.455 478.106 304.621 475.864 305.455C473.636 306.273 471.159 306.682 468.432 306.682ZM491.068 306L496.886 271.091H504.864L503.886 276.909H504.25C505.205 274.894 506.553 273.341 508.295 272.25C510.053 271.144 511.932 270.591 513.932 270.591C514.402 270.591 514.909 270.614 515.455 270.659C516 270.689 516.47 270.742 516.864 270.818L515.591 278.386C515.242 278.265 514.697 278.159 513.955 278.068C513.227 277.962 512.508 277.909 511.795 277.909C510.295 277.909 508.902 278.235 507.614 278.886C506.341 279.523 505.265 280.409 504.386 281.545C503.508 282.682 502.939 283.992 502.682 285.477L499.295 306H491.068ZM530.432 306.682C526.932 306.682 524.038 305.955 521.75 304.5C519.462 303.03 517.856 300.955 516.932 298.273C516.023 295.576 515.871 292.402 516.477 288.75C517.068 285.159 518.273 282.008 520.091 279.295C521.909 276.568 524.182 274.447 526.909 272.932C529.652 271.402 532.682 270.636 536 270.636C538.152 270.636 540.129 270.985 541.932 271.682C543.735 272.364 545.258 273.424 546.5 274.864C547.742 276.303 548.598 278.136 549.068 280.364C549.538 282.576 549.515 285.212 549 288.273L548.614 290.795H519.977L520.864 285.25H541.591C541.864 283.674 541.773 282.273 541.318 281.045C540.864 279.803 540.106 278.826 539.045 278.114C537.985 277.402 536.659 277.045 535.068 277.045C533.447 277.045 531.932 277.462 530.523 278.295C529.129 279.114 527.955 280.174 527 281.477C526.045 282.78 525.439 284.152 525.182 285.591L524.25 290.909C523.917 293.091 523.992 294.871 524.477 296.25C524.962 297.629 525.811 298.644 527.023 299.295C528.235 299.947 529.765 300.273 531.614 300.273C532.826 300.273 533.947 300.106 534.977 299.773C536.008 299.439 536.924 298.939 537.727 298.273C538.545 297.591 539.227 296.758 539.773 295.773L547.295 296.636C546.462 298.667 545.242 300.439 543.636 301.955C542.03 303.455 540.106 304.621 537.864 305.455C535.636 306.273 533.159 306.682 530.432 306.682Z" fill="#131C83" fill-opacity="0.83" shape-rendering="crispEdges"/>
</g>
<path opacity="0.7" d="M241.963 353H238.588L244.733 335.545H248.636L254.79 353H251.415L246.753 339.125H246.616L241.963 353ZM242.074 346.156H251.278V348.696H242.074V346.156ZM260.038 335.545V353H256.952V335.545H260.038ZM266.295 335.545V353H263.21V335.545H266.295ZM277.339 357.909C276.918 357.909 276.529 357.875 276.171 357.807C275.819 357.744 275.538 357.67 275.327 357.585L276.043 355.182C276.492 355.313 276.893 355.375 277.245 355.369C277.597 355.364 277.907 355.253 278.174 355.037C278.447 354.827 278.677 354.474 278.864 353.98L279.129 353.273L274.381 339.909H277.654L280.671 349.795H280.808L283.833 339.909H287.114L281.873 354.585C281.629 355.278 281.305 355.872 280.901 356.366C280.498 356.866 280.004 357.247 279.418 357.509C278.839 357.776 278.146 357.909 277.339 357.909ZM294.514 353.256C293.236 353.256 292.128 352.974 291.19 352.412C290.253 351.849 289.526 351.062 289.009 350.051C288.497 349.04 288.241 347.858 288.241 346.506C288.241 345.153 288.497 343.969 289.009 342.952C289.526 341.935 290.253 341.145 291.19 340.582C292.128 340.02 293.236 339.739 294.514 339.739C295.793 339.739 296.901 340.02 297.838 340.582C298.776 341.145 299.5 341.935 300.011 342.952C300.528 343.969 300.787 345.153 300.787 346.506C300.787 347.858 300.528 349.04 300.011 350.051C299.5 351.062 298.776 351.849 297.838 352.412C296.901 352.974 295.793 353.256 294.514 353.256ZM294.531 350.784C295.224 350.784 295.804 350.594 296.27 350.213C296.736 349.827 297.082 349.31 297.31 348.662C297.543 348.014 297.659 347.293 297.659 346.497C297.659 345.696 297.543 344.972 297.31 344.324C297.082 343.67 296.736 343.151 296.27 342.764C295.804 342.378 295.224 342.185 294.531 342.185C293.821 342.185 293.23 342.378 292.759 342.764C292.293 343.151 291.943 343.67 291.71 344.324C291.483 344.972 291.369 345.696 291.369 346.497C291.369 347.293 291.483 348.014 291.71 348.662C291.943 349.31 292.293 349.827 292.759 350.213C293.23 350.594 293.821 350.784 294.531 350.784ZM311.749 347.494V339.909H314.835V353H311.843V350.673H311.707C311.411 351.406 310.925 352.006 310.249 352.472C309.579 352.937 308.752 353.17 307.769 353.17C306.911 353.17 306.153 352.98 305.494 352.599C304.84 352.213 304.329 351.653 303.96 350.92C303.59 350.182 303.406 349.29 303.406 348.244V339.909H306.491V347.767C306.491 348.597 306.718 349.256 307.173 349.744C307.627 350.233 308.224 350.477 308.962 350.477C309.417 350.477 309.857 350.366 310.283 350.145C310.71 349.923 311.059 349.594 311.332 349.156C311.61 348.713 311.749 348.159 311.749 347.494ZM327.045 345.33V353H323.96V339.909H326.909V342.134H327.062C327.364 341.401 327.844 340.818 328.503 340.386C329.168 339.955 329.989 339.739 330.966 339.739C331.869 339.739 332.656 339.932 333.327 340.318C334.003 340.705 334.526 341.264 334.895 341.997C335.27 342.73 335.455 343.619 335.449 344.665V353H332.364V345.142C332.364 344.267 332.136 343.582 331.682 343.088C331.233 342.594 330.611 342.347 329.815 342.347C329.276 342.347 328.795 342.466 328.375 342.705C327.96 342.937 327.634 343.276 327.395 343.719C327.162 344.162 327.045 344.699 327.045 345.33ZM344.381 353.256C343.068 353.256 341.935 352.983 340.98 352.438C340.031 351.886 339.301 351.108 338.79 350.102C338.278 349.091 338.023 347.901 338.023 346.531C338.023 345.185 338.278 344.003 338.79 342.986C339.307 341.963 340.028 341.168 340.955 340.599C341.881 340.026 342.969 339.739 344.219 339.739C345.026 339.739 345.787 339.869 346.503 340.131C347.224 340.386 347.861 340.784 348.412 341.324C348.969 341.864 349.406 342.551 349.724 343.386C350.043 344.216 350.202 345.205 350.202 346.352V347.298H339.472V345.219H347.244C347.239 344.628 347.111 344.102 346.861 343.642C346.611 343.176 346.261 342.81 345.812 342.543C345.369 342.276 344.852 342.142 344.261 342.142C343.631 342.142 343.077 342.295 342.599 342.602C342.122 342.903 341.75 343.301 341.483 343.795C341.222 344.284 341.088 344.821 341.082 345.406V347.222C341.082 347.983 341.222 348.636 341.5 349.182C341.778 349.722 342.168 350.136 342.668 350.426C343.168 350.71 343.753 350.852 344.423 350.852C344.872 350.852 345.278 350.79 345.642 350.665C346.006 350.534 346.321 350.344 346.588 350.094C346.855 349.844 347.057 349.534 347.193 349.165L350.074 349.489C349.892 350.25 349.545 350.915 349.034 351.483C348.528 352.045 347.881 352.483 347.091 352.795C346.301 353.102 345.398 353.256 344.381 353.256ZM358.607 353.256C357.295 353.256 356.161 352.983 355.207 352.438C354.258 351.886 353.528 351.108 353.016 350.102C352.505 349.091 352.249 347.901 352.249 346.531C352.249 345.185 352.505 344.003 353.016 342.986C353.533 341.963 354.255 341.168 355.181 340.599C356.107 340.026 357.195 339.739 358.445 339.739C359.252 339.739 360.013 339.869 360.729 340.131C361.451 340.386 362.087 340.784 362.638 341.324C363.195 341.864 363.633 342.551 363.951 343.386C364.269 344.216 364.428 345.205 364.428 346.352V347.298H353.698V345.219H361.471C361.465 344.628 361.337 344.102 361.087 343.642C360.837 343.176 360.488 342.81 360.039 342.543C359.596 342.276 359.079 342.142 358.488 342.142C357.857 342.142 357.303 342.295 356.826 342.602C356.349 342.903 355.977 343.301 355.71 343.795C355.448 344.284 355.315 344.821 355.309 345.406V347.222C355.309 347.983 355.448 348.636 355.727 349.182C356.005 349.722 356.394 350.136 356.894 350.426C357.394 350.71 357.979 350.852 358.65 350.852C359.099 350.852 359.505 350.79 359.869 350.665C360.232 350.534 360.548 350.344 360.815 350.094C361.082 349.844 361.283 349.534 361.42 349.165L364.3 349.489C364.119 350.25 363.772 350.915 363.261 351.483C362.755 352.045 362.107 352.483 361.317 352.795C360.528 353.102 359.624 353.256 358.607 353.256ZM371.896 353.23C370.868 353.23 369.947 352.966 369.135 352.438C368.322 351.909 367.68 351.142 367.209 350.136C366.737 349.131 366.501 347.909 366.501 346.472C366.501 345.017 366.74 343.79 367.217 342.79C367.7 341.784 368.351 341.026 369.169 340.514C369.987 339.997 370.899 339.739 371.905 339.739C372.672 339.739 373.303 339.869 373.797 340.131C374.291 340.386 374.683 340.696 374.973 341.06C375.263 341.418 375.487 341.756 375.646 342.074H375.774V335.545H378.868V353H375.834V350.938H375.646C375.487 351.256 375.257 351.594 374.956 351.952C374.655 352.304 374.257 352.605 373.763 352.855C373.268 353.105 372.646 353.23 371.896 353.23ZM372.757 350.699C373.411 350.699 373.967 350.523 374.428 350.17C374.888 349.812 375.237 349.315 375.476 348.679C375.714 348.043 375.834 347.301 375.834 346.455C375.834 345.608 375.714 344.872 375.476 344.247C375.243 343.622 374.896 343.136 374.436 342.79C373.982 342.443 373.422 342.27 372.757 342.27C372.07 342.27 371.496 342.449 371.036 342.807C370.575 343.165 370.229 343.659 369.996 344.29C369.763 344.92 369.646 345.642 369.646 346.455C369.646 347.273 369.763 348.003 369.996 348.645C370.234 349.281 370.584 349.784 371.044 350.153C371.51 350.517 372.081 350.699 372.757 350.699ZM388.109 353V339.909H391.194V353H388.109ZM389.66 338.051C389.171 338.051 388.751 337.889 388.398 337.565C388.046 337.236 387.87 336.841 387.87 336.381C387.87 335.915 388.046 335.52 388.398 335.196C388.751 334.866 389.171 334.702 389.66 334.702C390.154 334.702 390.575 334.866 390.921 335.196C391.273 335.52 391.45 335.915 391.45 336.381C391.45 336.841 391.273 337.236 390.921 337.565C390.575 337.889 390.154 338.051 389.66 338.051ZM404.713 343.369L401.901 343.676C401.821 343.392 401.682 343.125 401.483 342.875C401.29 342.625 401.028 342.423 400.699 342.27C400.369 342.116 399.966 342.04 399.489 342.04C398.847 342.04 398.307 342.179 397.869 342.457C397.438 342.736 397.224 343.097 397.23 343.54C397.224 343.92 397.364 344.23 397.648 344.469C397.938 344.707 398.415 344.903 399.08 345.057L401.312 345.534C402.551 345.801 403.472 346.224 404.074 346.804C404.682 347.384 404.989 348.142 404.994 349.08C404.989 349.903 404.747 350.631 404.27 351.261C403.798 351.886 403.142 352.375 402.301 352.727C401.46 353.08 400.494 353.256 399.403 353.256C397.801 353.256 396.511 352.92 395.534 352.25C394.557 351.574 393.974 350.634 393.787 349.429L396.795 349.139C396.932 349.73 397.222 350.176 397.665 350.477C398.108 350.778 398.685 350.929 399.395 350.929C400.128 350.929 400.716 350.778 401.159 350.477C401.608 350.176 401.832 349.804 401.832 349.361C401.832 348.986 401.688 348.676 401.398 348.432C401.114 348.187 400.67 348 400.068 347.869L397.835 347.401C396.58 347.139 395.651 346.699 395.048 346.08C394.446 345.455 394.148 344.665 394.153 343.71C394.148 342.903 394.366 342.205 394.81 341.614C395.259 341.017 395.881 340.557 396.676 340.233C397.477 339.903 398.401 339.739 399.446 339.739C400.98 339.739 402.188 340.065 403.068 340.719C403.955 341.372 404.503 342.256 404.713 343.369ZM417.259 353.264C416.429 353.264 415.682 353.116 415.017 352.821C414.358 352.52 413.835 352.077 413.449 351.491C413.068 350.906 412.878 350.185 412.878 349.327C412.878 348.588 413.014 347.977 413.287 347.494C413.56 347.011 413.932 346.625 414.403 346.335C414.875 346.045 415.406 345.827 415.997 345.679C416.594 345.526 417.21 345.415 417.847 345.347C418.614 345.267 419.236 345.196 419.713 345.134C420.19 345.065 420.537 344.963 420.753 344.827C420.974 344.685 421.085 344.466 421.085 344.17V344.119C421.085 343.477 420.895 342.98 420.514 342.628C420.134 342.276 419.585 342.099 418.869 342.099C418.114 342.099 417.514 342.264 417.071 342.594C416.634 342.923 416.338 343.312 416.185 343.761L413.304 343.352C413.531 342.557 413.906 341.892 414.429 341.358C414.952 340.818 415.591 340.415 416.347 340.148C417.102 339.875 417.938 339.739 418.852 339.739C419.483 339.739 420.111 339.812 420.736 339.96C421.361 340.108 421.932 340.352 422.449 340.693C422.966 341.028 423.381 341.486 423.693 342.065C424.011 342.645 424.17 343.369 424.17 344.239V353H421.205V351.202H421.102C420.915 351.565 420.651 351.906 420.31 352.224C419.974 352.537 419.551 352.79 419.04 352.983C418.534 353.17 417.94 353.264 417.259 353.264ZM418.06 350.997C418.679 350.997 419.216 350.875 419.67 350.631C420.125 350.381 420.474 350.051 420.719 349.642C420.969 349.233 421.094 348.787 421.094 348.304V346.761C420.997 346.841 420.832 346.915 420.599 346.983C420.372 347.051 420.116 347.111 419.832 347.162C419.548 347.213 419.267 347.259 418.989 347.298C418.71 347.338 418.469 347.372 418.264 347.401C417.804 347.463 417.392 347.565 417.028 347.707C416.665 347.849 416.378 348.048 416.168 348.304C415.957 348.554 415.852 348.878 415.852 349.276C415.852 349.844 416.06 350.273 416.474 350.562C416.889 350.852 417.418 350.997 418.06 350.997ZM438.084 353.23C437.055 353.23 436.135 352.966 435.322 352.438C434.51 351.909 433.868 351.142 433.396 350.136C432.925 349.131 432.689 347.909 432.689 346.472C432.689 345.017 432.928 343.79 433.405 342.79C433.888 341.784 434.538 341.026 435.357 340.514C436.175 339.997 437.087 339.739 438.092 339.739C438.859 339.739 439.49 339.869 439.984 340.131C440.479 340.386 440.871 340.696 441.161 341.06C441.45 341.418 441.675 341.756 441.834 342.074H441.962V335.545H445.055V353H442.021V350.938H441.834C441.675 351.256 441.445 351.594 441.143 351.952C440.842 352.304 440.445 352.605 439.95 352.855C439.456 353.105 438.834 353.23 438.084 353.23ZM438.945 350.699C439.598 350.699 440.155 350.523 440.615 350.17C441.075 349.812 441.425 349.315 441.663 348.679C441.902 348.043 442.021 347.301 442.021 346.455C442.021 345.608 441.902 344.872 441.663 344.247C441.43 343.622 441.084 343.136 440.624 342.79C440.169 342.443 439.609 342.27 438.945 342.27C438.257 342.27 437.683 342.449 437.223 342.807C436.763 343.165 436.416 343.659 436.183 344.29C435.95 344.92 435.834 345.642 435.834 346.455C435.834 347.273 435.95 348.003 436.183 348.645C436.422 349.281 436.771 349.784 437.232 350.153C437.697 350.517 438.268 350.699 438.945 350.699ZM454.138 353.256C452.826 353.256 451.692 352.983 450.738 352.438C449.789 351.886 449.059 351.108 448.548 350.102C448.036 349.091 447.781 347.901 447.781 346.531C447.781 345.185 448.036 344.003 448.548 342.986C449.065 341.963 449.786 341.168 450.712 340.599C451.638 340.026 452.727 339.739 453.977 339.739C454.783 339.739 455.545 339.869 456.261 340.131C456.982 340.386 457.619 340.784 458.17 341.324C458.727 341.864 459.164 342.551 459.482 343.386C459.8 344.216 459.96 345.205 459.96 346.352V347.298H449.229V345.219H457.002C456.996 344.628 456.869 344.102 456.619 343.642C456.369 343.176 456.019 342.81 455.57 342.543C455.127 342.276 454.61 342.142 454.019 342.142C453.388 342.142 452.835 342.295 452.357 342.602C451.88 342.903 451.508 343.301 451.241 343.795C450.979 344.284 450.846 344.821 450.84 345.406V347.222C450.84 347.983 450.979 348.636 451.258 349.182C451.536 349.722 451.925 350.136 452.425 350.426C452.925 350.71 453.511 350.852 454.181 350.852C454.63 350.852 455.036 350.79 455.4 350.665C455.763 350.534 456.079 350.344 456.346 350.094C456.613 349.844 456.815 349.534 456.951 349.165L459.832 349.489C459.65 350.25 459.303 350.915 458.792 351.483C458.286 352.045 457.638 352.483 456.849 352.795C456.059 353.102 455.156 353.256 454.138 353.256ZM473.888 339.909L469.226 353H465.817L461.155 339.909H464.445L467.453 349.634H467.589L470.607 339.909H473.888ZM476.023 353V339.909H479.108V353H476.023ZM477.574 338.051C477.085 338.051 476.665 337.889 476.312 337.565C475.96 337.236 475.784 336.841 475.784 336.381C475.784 335.915 475.96 335.52 476.312 335.196C476.665 334.866 477.085 334.702 477.574 334.702C478.068 334.702 478.489 334.866 478.835 335.196C479.188 335.52 479.364 335.915 479.364 336.381C479.364 336.841 479.188 337.236 478.835 337.565C478.489 337.889 478.068 338.051 477.574 338.051ZM487.991 353.256C486.684 353.256 485.562 352.969 484.624 352.395C483.692 351.821 482.974 351.028 482.468 350.017C481.968 349 481.718 347.83 481.718 346.506C481.718 345.176 481.974 344.003 482.485 342.986C482.996 341.963 483.718 341.168 484.65 340.599C485.587 340.026 486.695 339.739 487.974 339.739C489.036 339.739 489.977 339.935 490.795 340.327C491.619 340.713 492.275 341.261 492.763 341.972C493.252 342.676 493.531 343.5 493.599 344.443H490.65C490.531 343.812 490.246 343.287 489.798 342.866C489.354 342.44 488.761 342.227 488.016 342.227C487.386 342.227 486.832 342.398 486.354 342.739C485.877 343.074 485.505 343.557 485.238 344.188C484.977 344.818 484.846 345.574 484.846 346.455C484.846 347.347 484.977 348.114 485.238 348.756C485.499 349.392 485.866 349.884 486.337 350.23C486.815 350.571 487.374 350.741 488.016 350.741C488.471 350.741 488.877 350.656 489.235 350.486C489.599 350.31 489.903 350.057 490.147 349.727C490.391 349.398 490.559 348.997 490.65 348.526H493.599C493.525 349.452 493.252 350.273 492.781 350.989C492.309 351.699 491.667 352.256 490.854 352.659C490.042 353.057 489.087 353.256 487.991 353.256ZM501.928 353.256C500.615 353.256 499.482 352.983 498.527 352.438C497.578 351.886 496.848 351.108 496.337 350.102C495.825 349.091 495.57 347.901 495.57 346.531C495.57 345.185 495.825 344.003 496.337 342.986C496.854 341.963 497.575 341.168 498.501 340.599C499.428 340.026 500.516 339.739 501.766 339.739C502.572 339.739 503.334 339.869 504.05 340.131C504.771 340.386 505.408 340.784 505.959 341.324C506.516 341.864 506.953 342.551 507.271 343.386C507.589 344.216 507.749 345.205 507.749 346.352V347.298H497.018V345.219H504.791C504.786 344.628 504.658 344.102 504.408 343.642C504.158 343.176 503.808 342.81 503.359 342.543C502.916 342.276 502.399 342.142 501.808 342.142C501.178 342.142 500.624 342.295 500.146 342.602C499.669 342.903 499.297 343.301 499.03 343.795C498.768 344.284 498.635 344.821 498.629 345.406V347.222C498.629 347.983 498.768 348.636 499.047 349.182C499.325 349.722 499.714 350.136 500.214 350.426C500.714 350.71 501.3 350.852 501.97 350.852C502.419 350.852 502.825 350.79 503.189 350.665C503.553 350.534 503.868 350.344 504.135 350.094C504.402 349.844 504.604 349.534 504.74 349.165L507.621 349.489C507.439 350.25 507.092 350.915 506.581 351.483C506.075 352.045 505.428 352.483 504.638 352.795C503.848 353.102 502.945 353.256 501.928 353.256ZM520.079 353.264C519.249 353.264 518.502 353.116 517.837 352.821C517.178 352.52 516.656 352.077 516.269 351.491C515.888 350.906 515.698 350.185 515.698 349.327C515.698 348.588 515.835 347.977 516.107 347.494C516.38 347.011 516.752 346.625 517.224 346.335C517.695 346.045 518.227 345.827 518.817 345.679C519.414 345.526 520.031 345.415 520.667 345.347C521.434 345.267 522.056 345.196 522.533 345.134C523.011 345.065 523.357 344.963 523.573 344.827C523.795 344.685 523.906 344.466 523.906 344.17V344.119C523.906 343.477 523.715 342.98 523.335 342.628C522.954 342.276 522.406 342.099 521.69 342.099C520.934 342.099 520.335 342.264 519.891 342.594C519.454 342.923 519.158 343.312 519.005 343.761L516.124 343.352C516.352 342.557 516.727 341.892 517.249 341.358C517.772 340.818 518.411 340.415 519.167 340.148C519.923 339.875 520.758 339.739 521.673 339.739C522.303 339.739 522.931 339.812 523.556 339.96C524.181 340.108 524.752 340.352 525.269 340.693C525.786 341.028 526.201 341.486 526.513 342.065C526.832 342.645 526.991 343.369 526.991 344.239V353H524.025V351.202H523.923C523.735 351.565 523.471 351.906 523.13 352.224C522.795 352.537 522.371 352.79 521.86 352.983C521.354 353.17 520.761 353.264 520.079 353.264ZM520.88 350.997C521.499 350.997 522.036 350.875 522.491 350.631C522.945 350.381 523.295 350.051 523.539 349.642C523.789 349.233 523.914 348.787 523.914 348.304V346.761C523.817 346.841 523.653 346.915 523.42 346.983C523.192 347.051 522.937 347.111 522.653 347.162C522.369 347.213 522.087 347.259 521.809 347.298C521.531 347.338 521.289 347.372 521.085 347.401C520.624 347.463 520.212 347.565 519.849 347.707C519.485 347.849 519.198 348.048 518.988 348.304C518.778 348.554 518.673 348.878 518.673 349.276C518.673 349.844 518.88 350.273 519.295 350.562C519.71 350.852 520.238 350.997 520.88 350.997ZM533.178 345.33V353H530.093V339.909H533.042V342.134H533.195C533.496 341.401 533.977 340.818 534.636 340.386C535.3 339.955 536.121 339.739 537.099 339.739C538.002 339.739 538.789 339.932 539.46 340.318C540.136 340.705 540.658 341.264 541.028 341.997C541.403 342.73 541.587 343.619 541.582 344.665V353H538.496V345.142C538.496 344.267 538.269 343.582 537.815 343.088C537.366 342.594 536.744 342.347 535.948 342.347C535.408 342.347 534.928 342.466 534.508 342.705C534.093 342.937 533.766 343.276 533.528 343.719C533.295 344.162 533.178 344.699 533.178 345.33ZM549.576 353.23C548.548 353.23 547.627 352.966 546.815 352.438C546.002 351.909 545.36 351.142 544.888 350.136C544.417 349.131 544.181 347.909 544.181 346.472C544.181 345.017 544.42 343.79 544.897 342.79C545.38 341.784 546.031 341.026 546.849 340.514C547.667 339.997 548.579 339.739 549.585 339.739C550.352 339.739 550.982 339.869 551.477 340.131C551.971 340.386 552.363 340.696 552.653 341.06C552.942 341.418 553.167 341.756 553.326 342.074H553.454V335.545H556.548V353H553.513V350.938H553.326C553.167 351.256 552.937 351.594 552.636 351.952C552.335 352.304 551.937 352.605 551.442 352.855C550.948 353.105 550.326 353.23 549.576 353.23ZM550.437 350.699C551.09 350.699 551.647 350.523 552.107 350.17C552.567 349.812 552.917 349.315 553.156 348.679C553.394 348.043 553.513 347.301 553.513 346.455C553.513 345.608 553.394 344.872 553.156 344.247C552.923 343.622 552.576 343.136 552.116 342.79C551.661 342.443 551.102 342.27 550.437 342.27C549.749 342.27 549.175 342.449 548.715 342.807C548.255 343.165 547.908 343.659 547.675 344.29C547.442 344.92 547.326 345.642 547.326 346.455C547.326 347.273 547.442 348.003 547.675 348.645C547.914 349.281 548.263 349.784 548.724 350.153C549.19 350.517 549.761 350.699 550.437 350.699ZM569.555 353.264C568.726 353.264 567.979 353.116 567.314 352.821C566.655 352.52 566.132 352.077 565.746 351.491C565.365 350.906 565.175 350.185 565.175 349.327C565.175 348.588 565.311 347.977 565.584 347.494C565.857 347.011 566.229 346.625 566.7 346.335C567.172 346.045 567.703 345.827 568.294 345.679C568.891 345.526 569.507 345.415 570.143 345.347C570.911 345.267 571.533 345.196 572.01 345.134C572.487 345.065 572.834 344.963 573.05 344.827C573.271 344.685 573.382 344.466 573.382 344.17V344.119C573.382 343.477 573.192 342.98 572.811 342.628C572.43 342.276 571.882 342.099 571.166 342.099C570.411 342.099 569.811 342.264 569.368 342.594C568.93 342.923 568.635 343.312 568.482 343.761L565.601 343.352C565.828 342.557 566.203 341.892 566.726 341.358C567.249 340.818 567.888 340.415 568.643 340.148C569.399 339.875 570.234 339.739 571.149 339.739C571.78 339.739 572.408 339.812 573.033 339.96C573.658 340.108 574.229 340.352 574.746 340.693C575.263 341.028 575.678 341.486 575.99 342.065C576.308 342.645 576.467 343.369 576.467 344.239V353H573.501V351.202H573.399C573.212 351.565 572.947 351.906 572.607 352.224C572.271 352.537 571.848 352.79 571.337 352.983C570.831 353.17 570.237 353.264 569.555 353.264ZM570.357 350.997C570.976 350.997 571.513 350.875 571.967 350.631C572.422 350.381 572.771 350.051 573.016 349.642C573.266 349.233 573.391 348.787 573.391 348.304V346.761C573.294 346.841 573.129 346.915 572.896 346.983C572.669 347.051 572.413 347.111 572.129 347.162C571.845 347.213 571.564 347.259 571.286 347.298C571.007 347.338 570.766 347.372 570.561 347.401C570.101 347.463 569.689 347.565 569.325 347.707C568.962 347.849 568.675 348.048 568.464 348.304C568.254 348.554 568.149 348.878 568.149 349.276C568.149 349.844 568.357 350.273 568.771 350.562C569.186 350.852 569.714 350.997 570.357 350.997ZM582.655 345.33V353H579.57V339.909H582.518V342.134H582.672C582.973 341.401 583.453 340.818 584.112 340.386C584.777 339.955 585.598 339.739 586.575 339.739C587.479 339.739 588.266 339.932 588.936 340.318C589.612 340.705 590.135 341.264 590.504 341.997C590.879 342.73 591.064 343.619 591.058 344.665V353H587.973V345.142C587.973 344.267 587.746 343.582 587.291 343.088C586.842 342.594 586.22 342.347 585.425 342.347C584.885 342.347 584.405 342.466 583.984 342.705C583.57 342.937 583.243 343.276 583.004 343.719C582.771 344.162 582.655 344.699 582.655 345.33ZM600.148 353V339.909H603.233V353H600.148ZM601.699 338.051C601.21 338.051 600.79 337.889 600.438 337.565C600.085 337.236 599.909 336.841 599.909 336.381C599.909 335.915 600.085 335.52 600.438 335.196C600.79 334.866 601.21 334.702 601.699 334.702C602.193 334.702 602.614 334.866 602.96 335.196C603.313 335.52 603.489 335.915 603.489 336.381C603.489 336.841 603.313 337.236 602.96 337.565C602.614 337.889 602.193 338.051 601.699 338.051ZM609.491 345.33V353H606.406V339.909H609.354V342.134H609.508C609.809 341.401 610.289 340.818 610.948 340.386C611.613 339.955 612.434 339.739 613.411 339.739C614.315 339.739 615.102 339.932 615.772 340.318C616.448 340.705 616.971 341.264 617.34 341.997C617.715 342.73 617.9 343.619 617.894 344.665V353H614.809V345.142C614.809 344.267 614.582 343.582 614.127 343.088C613.678 342.594 613.056 342.347 612.261 342.347C611.721 342.347 611.241 342.466 610.82 342.705C610.406 342.937 610.079 343.276 609.84 343.719C609.607 344.162 609.491 344.699 609.491 345.33ZM627.567 339.909V342.295H620.042V339.909H627.567ZM621.9 336.773H624.985V349.062C624.985 349.477 625.048 349.795 625.173 350.017C625.303 350.233 625.474 350.381 625.684 350.46C625.894 350.54 626.127 350.58 626.383 350.58C626.576 350.58 626.752 350.565 626.911 350.537C627.076 350.509 627.201 350.483 627.286 350.46L627.806 352.872C627.641 352.929 627.406 352.991 627.099 353.06C626.798 353.128 626.428 353.168 625.991 353.179C625.218 353.202 624.522 353.085 623.903 352.83C623.283 352.568 622.792 352.165 622.428 351.619C622.07 351.074 621.894 350.392 621.9 349.574V336.773ZM635.803 353.256C634.49 353.256 633.357 352.983 632.402 352.438C631.453 351.886 630.723 351.108 630.212 350.102C629.7 349.091 629.445 347.901 629.445 346.531C629.445 345.185 629.7 344.003 630.212 342.986C630.729 341.963 631.45 341.168 632.376 340.599C633.303 340.026 634.391 339.739 635.641 339.739C636.447 339.739 637.209 339.869 637.925 340.131C638.646 340.386 639.283 340.784 639.834 341.324C640.391 341.864 640.828 342.551 641.146 343.386C641.464 344.216 641.624 345.205 641.624 346.352V347.298H630.893V345.219H638.666C638.661 344.628 638.533 344.102 638.283 343.642C638.033 343.176 637.683 342.81 637.234 342.543C636.791 342.276 636.274 342.142 635.683 342.142C635.053 342.142 634.499 342.295 634.021 342.602C633.544 342.903 633.172 343.301 632.905 343.795C632.643 344.284 632.51 344.821 632.504 345.406V347.222C632.504 347.983 632.643 348.636 632.922 349.182C633.2 349.722 633.589 350.136 634.089 350.426C634.589 350.71 635.175 350.852 635.845 350.852C636.294 350.852 636.7 350.79 637.064 350.665C637.428 350.534 637.743 350.344 638.01 350.094C638.277 349.844 638.479 349.534 638.615 349.165L641.496 349.489C641.314 350.25 640.967 350.915 640.456 351.483C639.95 352.045 639.303 352.483 638.513 352.795C637.723 353.102 636.82 353.256 635.803 353.256ZM644.234 353V339.909H647.225V342.091H647.362C647.6 341.335 648.009 340.753 648.589 340.344C649.174 339.929 649.842 339.722 650.592 339.722C650.762 339.722 650.952 339.73 651.163 339.747C651.379 339.759 651.558 339.778 651.7 339.807V342.645C651.569 342.599 651.362 342.56 651.077 342.526C650.799 342.486 650.529 342.466 650.268 342.466C649.705 342.466 649.2 342.588 648.751 342.832C648.308 343.071 647.958 343.403 647.702 343.83C647.447 344.256 647.319 344.747 647.319 345.304V353H644.234ZM656.835 345.33V353H653.749V339.909H656.698V342.134H656.852C657.153 341.401 657.633 340.818 658.292 340.386C658.957 339.955 659.778 339.739 660.755 339.739C661.658 339.739 662.445 339.932 663.116 340.318C663.792 340.705 664.315 341.264 664.684 341.997C665.059 342.73 665.244 343.619 665.238 344.665V353H662.153V345.142C662.153 344.267 661.925 343.582 661.471 343.088C661.022 342.594 660.4 342.347 659.604 342.347C659.065 342.347 658.585 342.466 658.164 342.705C657.749 342.937 657.423 343.276 657.184 343.719C656.951 344.162 656.835 344.699 656.835 345.33ZM674.17 353.256C672.857 353.256 671.724 352.983 670.769 352.438C669.82 351.886 669.09 351.108 668.579 350.102C668.067 349.091 667.812 347.901 667.812 346.531C667.812 345.185 668.067 344.003 668.579 342.986C669.096 341.963 669.817 341.168 670.744 340.599C671.67 340.026 672.758 339.739 674.008 339.739C674.815 339.739 675.576 339.869 676.292 340.131C677.013 340.386 677.65 340.784 678.201 341.324C678.758 341.864 679.195 342.551 679.513 343.386C679.832 344.216 679.991 345.205 679.991 346.352V347.298H669.261V345.219H677.033C677.028 344.628 676.9 344.102 676.65 343.642C676.4 343.176 676.05 342.81 675.602 342.543C675.158 342.276 674.641 342.142 674.05 342.142C673.42 342.142 672.866 342.295 672.388 342.602C671.911 342.903 671.539 343.301 671.272 343.795C671.011 344.284 670.877 344.821 670.871 345.406V347.222C670.871 347.983 671.011 348.636 671.289 349.182C671.567 349.722 671.957 350.136 672.457 350.426C672.957 350.71 673.542 350.852 674.212 350.852C674.661 350.852 675.067 350.79 675.431 350.665C675.795 350.534 676.11 350.344 676.377 350.094C676.644 349.844 676.846 349.534 676.982 349.165L679.863 349.489C679.681 350.25 679.335 350.915 678.823 351.483C678.317 352.045 677.67 352.483 676.88 352.795C676.09 353.102 675.187 353.256 674.17 353.256ZM689.138 339.909V342.295H681.612V339.909H689.138ZM683.47 336.773H686.555V349.062C686.555 349.477 686.618 349.795 686.743 350.017C686.874 350.233 687.044 350.381 687.254 350.46C687.464 350.54 687.697 350.58 687.953 350.58C688.146 350.58 688.322 350.565 688.482 350.537C688.646 350.509 688.771 350.483 688.857 350.46L689.376 352.872C689.212 352.929 688.976 352.991 688.669 353.06C688.368 353.128 687.999 353.168 687.561 353.179C686.788 353.202 686.092 353.085 685.473 352.83C684.854 352.568 684.362 352.165 683.999 351.619C683.641 351.074 683.464 350.392 683.47 349.574V336.773ZM703.381 353.256C702.075 353.256 700.952 352.969 700.015 352.395C699.083 351.821 698.364 351.028 697.859 350.017C697.359 349 697.109 347.83 697.109 346.506C697.109 345.176 697.364 344.003 697.876 342.986C698.387 341.963 699.109 341.168 700.04 340.599C700.978 340.026 702.086 339.739 703.364 339.739C704.427 339.739 705.367 339.935 706.185 340.327C707.009 340.713 707.665 341.261 708.154 341.972C708.643 342.676 708.921 343.5 708.989 344.443H706.04C705.921 343.812 705.637 343.287 705.188 342.866C704.745 342.44 704.151 342.227 703.407 342.227C702.776 342.227 702.222 342.398 701.745 342.739C701.268 343.074 700.896 343.557 700.629 344.188C700.367 344.818 700.237 345.574 700.237 346.455C700.237 347.347 700.367 348.114 700.629 348.756C700.89 349.392 701.256 349.884 701.728 350.23C702.205 350.571 702.765 350.741 703.407 350.741C703.862 350.741 704.268 350.656 704.626 350.486C704.989 350.31 705.293 350.057 705.538 349.727C705.782 349.398 705.95 348.997 706.04 348.526H708.989C708.915 349.452 708.643 350.273 708.171 350.989C707.7 351.699 707.058 352.256 706.245 352.659C705.433 353.057 704.478 353.256 703.381 353.256ZM717.233 353.256C715.955 353.256 714.847 352.974 713.909 352.412C712.972 351.849 712.244 351.062 711.727 350.051C711.216 349.04 710.96 347.858 710.96 346.506C710.96 345.153 711.216 343.969 711.727 342.952C712.244 341.935 712.972 341.145 713.909 340.582C714.847 340.02 715.955 339.739 717.233 339.739C718.511 339.739 719.619 340.02 720.557 340.582C721.494 341.145 722.219 341.935 722.73 342.952C723.247 343.969 723.506 345.153 723.506 346.506C723.506 347.858 723.247 349.04 722.73 350.051C722.219 351.062 721.494 351.849 720.557 352.412C719.619 352.974 718.511 353.256 717.233 353.256ZM717.25 350.784C717.943 350.784 718.523 350.594 718.989 350.213C719.455 349.827 719.801 349.31 720.028 348.662C720.261 348.014 720.378 347.293 720.378 346.497C720.378 345.696 720.261 344.972 720.028 344.324C719.801 343.67 719.455 343.151 718.989 342.764C718.523 342.378 717.943 342.185 717.25 342.185C716.54 342.185 715.949 342.378 715.477 342.764C715.011 343.151 714.662 343.67 714.429 344.324C714.202 344.972 714.088 345.696 714.088 346.497C714.088 347.293 714.202 348.014 714.429 348.662C714.662 349.31 715.011 349.827 715.477 350.213C715.949 350.594 716.54 350.784 717.25 350.784ZM729.21 345.33V353H726.124V339.909H729.073V342.134H729.227C729.528 341.401 730.008 340.818 730.667 340.386C731.332 339.955 732.153 339.739 733.13 339.739C734.033 339.739 734.82 339.932 735.491 340.318C736.167 340.705 736.69 341.264 737.059 341.997C737.434 342.73 737.619 343.619 737.613 344.665V353H734.528V345.142C734.528 344.267 734.3 343.582 733.846 343.088C733.397 342.594 732.775 342.347 731.979 342.347C731.44 342.347 730.96 342.466 730.539 342.705C730.124 342.937 729.798 343.276 729.559 343.719C729.326 344.162 729.21 344.699 729.21 345.33ZM743.835 345.33V353H740.749V339.909H743.698V342.134H743.852C744.153 341.401 744.633 340.818 745.292 340.386C745.957 339.955 746.778 339.739 747.755 339.739C748.658 339.739 749.445 339.932 750.116 340.318C750.792 340.705 751.315 341.264 751.684 341.997C752.059 342.73 752.244 343.619 752.238 344.665V353H749.153V345.142C749.153 344.267 748.925 343.582 748.471 343.088C748.022 342.594 747.4 342.347 746.604 342.347C746.065 342.347 745.585 342.466 745.164 342.705C744.749 342.937 744.423 343.276 744.184 343.719C743.951 344.162 743.835 344.699 743.835 345.33ZM761.17 353.256C759.857 353.256 758.724 352.983 757.769 352.438C756.82 351.886 756.09 351.108 755.579 350.102C755.067 349.091 754.812 347.901 754.812 346.531C754.812 345.185 755.067 344.003 755.579 342.986C756.096 341.963 756.817 341.168 757.744 340.599C758.67 340.026 759.758 339.739 761.008 339.739C761.815 339.739 762.576 339.869 763.292 340.131C764.013 340.386 764.65 340.784 765.201 341.324C765.758 341.864 766.195 342.551 766.513 343.386C766.832 344.216 766.991 345.205 766.991 346.352V347.298H756.261V345.219H764.033C764.028 344.628 763.9 344.102 763.65 343.642C763.4 343.176 763.05 342.81 762.602 342.543C762.158 342.276 761.641 342.142 761.05 342.142C760.42 342.142 759.866 342.295 759.388 342.602C758.911 342.903 758.539 343.301 758.272 343.795C758.011 344.284 757.877 344.821 757.871 345.406V347.222C757.871 347.983 758.011 348.636 758.289 349.182C758.567 349.722 758.957 350.136 759.457 350.426C759.957 350.71 760.542 350.852 761.212 350.852C761.661 350.852 762.067 350.79 762.431 350.665C762.795 350.534 763.11 350.344 763.377 350.094C763.644 349.844 763.846 349.534 763.982 349.165L766.863 349.489C766.681 350.25 766.335 350.915 765.823 351.483C765.317 352.045 764.67 352.483 763.88 352.795C763.09 353.102 762.187 353.256 761.17 353.256ZM775.311 353.256C774.004 353.256 772.882 352.969 771.945 352.395C771.013 351.821 770.294 351.028 769.788 350.017C769.288 349 769.038 347.83 769.038 346.506C769.038 345.176 769.294 344.003 769.805 342.986C770.317 341.963 771.038 341.168 771.97 340.599C772.908 340.026 774.016 339.739 775.294 339.739C776.357 339.739 777.297 339.935 778.115 340.327C778.939 340.713 779.595 341.261 780.084 341.972C780.572 342.676 780.851 343.5 780.919 344.443H777.97C777.851 343.812 777.567 343.287 777.118 342.866C776.675 342.44 776.081 342.227 775.337 342.227C774.706 342.227 774.152 342.398 773.675 342.739C773.197 343.074 772.825 343.557 772.558 344.188C772.297 344.818 772.166 345.574 772.166 346.455C772.166 347.347 772.297 348.114 772.558 348.756C772.82 349.392 773.186 349.884 773.658 350.23C774.135 350.571 774.695 350.741 775.337 350.741C775.791 350.741 776.197 350.656 776.555 350.486C776.919 350.31 777.223 350.057 777.467 349.727C777.712 349.398 777.879 348.997 777.97 348.526H780.919C780.845 349.452 780.572 350.273 780.101 350.989C779.629 351.699 778.987 352.256 778.175 352.659C777.362 353.057 776.408 353.256 775.311 353.256ZM789.989 339.909V342.295H782.464V339.909H789.989ZM784.322 336.773H787.407V349.062C787.407 349.477 787.469 349.795 787.594 350.017C787.725 350.233 787.896 350.381 788.106 350.46C788.316 350.54 788.549 350.58 788.805 350.58C788.998 350.58 789.174 350.565 789.333 350.537C789.498 350.509 789.623 350.483 789.708 350.46L790.228 352.872C790.063 352.929 789.827 352.991 789.521 353.06C789.219 353.128 788.85 353.168 788.413 353.179C787.64 353.202 786.944 353.085 786.325 352.83C785.705 352.568 785.214 352.165 784.85 351.619C784.492 351.074 784.316 350.392 784.322 349.574V336.773ZM792.57 353V339.909H795.655V353H792.57ZM794.121 338.051C793.632 338.051 793.212 337.889 792.859 337.565C792.507 337.236 792.331 336.841 792.331 336.381C792.331 335.915 792.507 335.52 792.859 335.196C793.212 334.866 793.632 334.702 794.121 334.702C794.615 334.702 795.036 334.866 795.382 335.196C795.734 335.52 795.911 335.915 795.911 336.381C795.911 336.841 795.734 337.236 795.382 337.565C795.036 337.889 794.615 338.051 794.121 338.051ZM804.538 353.256C803.259 353.256 802.151 352.974 801.214 352.412C800.276 351.849 799.549 351.062 799.032 350.051C798.521 349.04 798.265 347.858 798.265 346.506C798.265 345.153 798.521 343.969 799.032 342.952C799.549 341.935 800.276 341.145 801.214 340.582C802.151 340.02 803.259 339.739 804.538 339.739C805.816 339.739 806.924 340.02 807.862 340.582C808.799 341.145 809.523 341.935 810.035 342.952C810.552 343.969 810.81 345.153 810.81 346.506C810.81 347.858 810.552 349.04 810.035 350.051C809.523 351.062 808.799 351.849 807.862 352.412C806.924 352.974 805.816 353.256 804.538 353.256ZM804.555 350.784C805.248 350.784 805.827 350.594 806.293 350.213C806.759 349.827 807.106 349.31 807.333 348.662C807.566 348.014 807.683 347.293 807.683 346.497C807.683 345.696 807.566 344.972 807.333 344.324C807.106 343.67 806.759 343.151 806.293 342.764C805.827 342.378 805.248 342.185 804.555 342.185C803.844 342.185 803.254 342.378 802.782 342.764C802.316 343.151 801.967 343.67 801.734 344.324C801.506 344.972 801.393 345.696 801.393 346.497C801.393 347.293 801.506 348.014 801.734 348.662C801.967 349.31 802.316 349.827 802.782 350.213C803.254 350.594 803.844 350.784 804.555 350.784ZM816.514 345.33V353H813.429V339.909H816.378V342.134H816.531C816.832 341.401 817.313 340.818 817.972 340.386C818.636 339.955 819.457 339.739 820.435 339.739C821.338 339.739 822.125 339.932 822.795 340.318C823.472 340.705 823.994 341.264 824.364 341.997C824.739 342.73 824.923 343.619 824.918 344.665V353H821.832V345.142C821.832 344.267 821.605 343.582 821.151 343.088C820.702 342.594 820.08 342.347 819.284 342.347C818.744 342.347 818.264 342.466 817.844 342.705C817.429 342.937 817.102 343.276 816.864 343.719C816.631 344.162 816.514 344.699 816.514 345.33Z" fill="black"/>
<rect opacity="0.6" x="238" y="376" width="50" height="5" rx="2.5" fill="#131C83" fill-opacity="0.83"/>
<rect x="293" y="376" width="58" height="5" rx="2.5" fill="#131C83" fill-opacity="0.83"/>
<rect opacity="0.6" x="356" y="376" width="50" height="5" rx="2.5" fill="#131C83" fill-opacity="0.83"/>
<path d="M1026.64 193.97H1132.31C1160.2 193.97 1182.81 216.579 1182.91 244.467C1182.91 246.16 1182.81 247.754 1182.71 249.447L1172.75 350.84H986.3L976.34 249.447C973.651 221.658 993.97 196.958 1021.66 194.268C1023.35 194.069 1025.04 193.97 1026.64 193.97Z" fill="white"/>
<path d="M1172.65 351.537H986.3C985.902 351.537 985.603 351.238 985.603 350.939L975.643 249.546C972.854 221.36 993.472 196.36 1021.66 193.571C1023.35 193.372 1024.95 193.372 1026.64 193.372H1132.31C1160.6 193.372 1183.51 216.28 1183.51 244.566C1183.51 246.26 1183.41 247.953 1183.31 249.546L1173.35 350.939C1173.25 351.238 1173.05 351.537 1172.65 351.537ZM986.998 350.142H1172.05L1181.91 249.347C1184.6 221.957 1164.58 197.555 1137.19 194.866C1135.6 194.667 1133.91 194.667 1132.31 194.667H1026.64C999.149 194.667 976.838 216.977 976.838 244.467C976.838 246.06 976.938 247.754 977.038 249.347L986.998 350.142Z" fill="#D1D3D4"/>
<path d="M1282.41 403.428H888.095L932.018 321.358H1238.59L1282.41 403.428Z" fill="white"/>
<path d="M1282.41 404.126H888.095C887.696 404.126 887.398 403.827 887.398 403.428C887.398 403.329 887.398 403.229 887.497 403.13L931.321 321.059C931.421 320.86 931.72 320.661 931.919 320.661H1238.49C1238.79 320.661 1238.99 320.76 1239.09 321.059L1282.91 403.13C1283.01 403.329 1283.01 403.628 1282.91 403.827C1282.91 404.026 1282.61 404.126 1282.41 404.126ZM889.29 402.731H1281.22L1238.09 322.055H932.317L889.29 402.731Z" fill="#231F20"/>
<path d="M1282.41 403.428H888.095V422.751H1282.41V403.428Z" fill="white"/>
<path d="M1282.41 423.448H888.095C887.696 423.448 887.398 423.149 887.398 422.751V403.428C887.398 403.03 887.696 402.731 888.095 402.731H1282.41C1282.81 402.731 1283.11 403.03 1283.11 403.428V422.751C1283.11 423.149 1282.81 423.448 1282.41 423.448ZM888.792 422.054H1281.71V404.126H888.792V422.054Z" fill="#231F20"/>
<path d="M1213.09 270.861C1205.02 275.343 1160.1 279.526 1153.23 282.713C1152.03 283.311 1150.84 283.908 1149.74 284.705C1138.89 291.876 1131.62 309.306 1150.64 310.9C1156.42 311.398 1207.61 292.474 1227.93 283.908C1232.41 282.016 1247.35 274.347 1246.16 271.359C1244.96 268.371 1240.28 260.602 1238.39 261.2C1236.5 261.797 1222.65 268.271 1222.65 268.271C1222.65 268.271 1226.54 256.718 1222.65 257.116C1218.77 257.514 1213.09 270.861 1213.09 270.861Z" fill="white"/>
<path d="M1150.84 311.597H1150.54C1141.98 310.9 1139.19 307.016 1138.39 303.928C1136.7 297.155 1142.57 288.49 1149.35 284.108C1150.54 283.311 1151.74 282.614 1152.93 282.016C1156.12 280.522 1166.48 278.928 1178.53 277.136C1192.27 275.044 1207.81 272.654 1212.49 270.263C1213.49 268.072 1218.57 256.718 1222.55 256.319C1223.25 256.22 1223.95 256.518 1224.34 257.016C1225.84 258.909 1224.64 264.088 1223.75 266.877C1227.43 265.184 1236.6 260.801 1238.09 260.403C1240.88 259.606 1245.86 268.769 1246.65 271.06C1248.35 275.442 1228.23 284.506 1228.03 284.606C1209.7 292.374 1158.11 311.597 1150.84 311.597ZM1222.85 257.813H1222.75C1220.26 258.012 1215.88 266.18 1213.79 271.16C1213.69 271.259 1213.59 271.458 1213.49 271.558C1208.91 274.048 1193.57 276.438 1178.83 278.63C1167.37 280.323 1156.62 282.016 1153.63 283.41C1152.43 284.008 1151.34 284.705 1150.24 285.402C1143.17 290.084 1138.59 298.251 1139.88 303.729C1140.88 307.514 1144.56 309.804 1150.74 310.302H1150.94C1157.41 310.302 1207.21 291.976 1227.73 283.41C1234.8 280.422 1246.26 273.55 1245.56 271.757C1244.16 268.172 1239.88 261.996 1238.69 261.996C1237.19 262.395 1226.93 267.275 1223.15 269.068C1222.85 269.168 1222.55 269.168 1222.35 268.968C1222.15 268.769 1222.05 268.47 1222.15 268.172C1223.25 264.785 1224.44 259.407 1223.45 258.112C1223.25 257.813 1223.05 257.714 1222.85 257.813Z" fill="#231F20"/>
<path d="M1111.3 200.942C1122.85 190.782 1132.71 178.83 1140.48 165.484L1152.13 172.655C1152.13 172.755 1141.38 201.24 1111.3 200.942Z" fill="white"/>
<path d="M1111.7 201.738H1111.3C1110.9 201.738 1110.6 201.44 1110.6 201.041C1110.6 200.842 1110.7 200.643 1110.9 200.444C1122.35 190.284 1132.11 178.432 1139.88 165.185C1140.08 164.886 1140.58 164.687 1140.88 164.886L1152.53 172.058C1152.83 172.257 1152.93 172.556 1152.83 172.954C1152.63 173.352 1141.68 201.738 1111.7 201.738ZM1140.68 166.58C1133.21 179.129 1123.95 190.384 1113.19 200.244C1138.79 199.348 1149.54 176.938 1151.14 173.054L1140.68 166.58Z" fill="#231F20"/>
<path d="M1111.3 200.942C1111.3 200.942 1129.82 204.029 1148.15 191.081L1150.54 207.216C1150.54 207.216 1133.61 216.081 1108.51 206.22L1111.3 200.942Z" fill="white"/>
<path d="M1131.82 211.599C1123.75 211.499 1115.78 210.005 1108.31 207.017C1108.11 206.918 1108.01 206.818 1107.91 206.619C1107.81 206.42 1107.81 206.22 1107.91 206.021L1110.7 200.742C1110.8 200.444 1111.2 200.344 1111.5 200.344C1124.45 201.639 1137.29 198.153 1147.85 190.583C1148.15 190.384 1148.65 190.484 1148.85 190.782C1148.95 190.882 1148.95 190.982 1148.95 191.081L1151.34 207.216C1151.34 207.515 1151.24 207.814 1150.94 207.914C1150.74 207.914 1143.57 211.599 1131.82 211.599ZM1109.51 205.922C1131.42 214.188 1146.96 208.113 1149.74 206.818L1147.55 192.376C1137 199.547 1124.35 202.934 1111.7 201.738L1109.51 205.922Z" fill="#231F20"/>
<path d="M1162.69 279.725C1162.69 279.725 1158.51 269.466 1138.59 246.16C1129.03 235.005 1103.33 230.722 1096.46 230.423C1097.95 230.523 1102.23 228.232 1072.95 230.423C1057.91 231.519 1048.25 232.316 1039.29 241.778C1022.55 259.606 986.3 297.554 986.3 297.554L1024.55 308.51C1024.55 308.51 1030.72 304.127 1033.01 301.139L1027.53 341.975L1130.92 347.951L1130.02 301.139L1140.58 309.804L1162.69 279.725Z" fill="#68E1FD"/>
<path d="M1094.67 230.423C1094.67 230.423 1095.36 230.423 1096.46 230.523C1095.86 230.423 1094.67 230.423 1094.67 230.423Z" fill="#68E1FD"/>
<path d="M1067.67 234.905L1068.67 339.585H1097.55V229.128L1067.67 234.905Z" fill="white"/>
<path d="M1097.55 340.182H1068.57C1068.27 340.182 1067.97 339.884 1067.97 339.585L1067.08 234.905C1067.08 234.606 1067.28 234.308 1067.57 234.308L1097.45 228.531C1097.65 228.531 1097.85 228.531 1097.95 228.63C1098.05 228.73 1098.15 228.929 1098.15 229.128V339.585C1098.25 339.983 1097.95 340.182 1097.55 340.182ZM1069.27 338.987H1096.96V229.925L1068.37 235.403L1069.27 338.987Z" fill="#231F20"/>
<path d="M1062.1 301.836C1061.9 301.836 1061.6 301.737 1061.5 301.438L1048.85 275.144C1048.75 274.944 1048.75 274.745 1048.95 274.546L1057.12 262.594L1049.15 256.718C1048.85 256.518 1048.85 256.12 1049.05 255.821L1061.7 237.296C1061.9 236.997 1062.3 236.897 1062.59 237.096C1062.89 237.296 1062.99 237.694 1062.79 237.993L1050.54 256.02L1058.51 261.897C1058.81 262.096 1058.81 262.494 1058.61 262.793L1050.24 274.944L1062.69 300.94C1062.79 301.239 1062.69 301.637 1062.39 301.836C1062.2 301.836 1062.2 301.836 1062.1 301.836Z" fill="#231F20"/>
<path d="M1102.23 301.836C1102.14 301.836 1102.04 301.836 1101.94 301.737C1101.64 301.637 1101.44 301.239 1101.64 300.94L1114.09 274.944L1105.82 262.793C1105.62 262.494 1105.72 262.096 1105.92 261.897L1113.89 256.02L1101.64 237.993C1101.44 237.694 1101.54 237.296 1101.84 237.096C1102.14 236.897 1102.53 236.997 1102.73 237.296L1115.38 255.821C1115.58 256.12 1115.48 256.518 1115.28 256.718L1107.31 262.594L1115.48 274.546C1115.58 274.745 1115.58 274.944 1115.48 275.144L1102.83 301.438C1102.63 301.637 1102.43 301.836 1102.23 301.836Z" fill="#231F20"/>
<path d="M1108.81 223.352C1108.61 223.352 1112 205.523 1112.29 203.93C1114.29 193.87 1115.78 184.607 1114.88 176.44C1112.49 177.635 1111.9 181.221 1109.9 183.014C1109.21 175.444 1108.81 167.775 1108.91 160.106C1095.86 164.787 1082.02 169.866 1073.35 180.822L1072.35 164.488C1066.28 174.249 1060.2 184.209 1056.92 195.364C1053.73 206.22 1055.92 216.778 1058.51 227.634L1108.81 223.352Z" fill="white"/>
<path d="M1058.51 228.332C1058.21 228.332 1057.91 228.132 1057.81 227.734C1055.02 216.28 1053.03 206.021 1056.22 195.065C1059.51 183.611 1066.08 173.253 1071.76 164.09C1071.96 163.791 1072.26 163.691 1072.55 163.791C1072.85 163.89 1073.05 164.09 1073.05 164.488L1073.95 179.03C1083.01 168.572 1097.16 163.592 1108.61 159.608C1108.81 159.508 1109.11 159.508 1109.31 159.707C1109.51 159.807 1109.61 160.106 1109.61 160.305C1109.51 167.376 1109.8 174.448 1110.4 181.42C1110.7 180.922 1111 180.424 1111.3 179.826C1112.1 178.332 1112.99 176.739 1114.49 175.942C1114.68 175.842 1114.98 175.842 1115.18 175.942C1115.38 176.042 1115.48 176.241 1115.58 176.54C1116.58 185.006 1114.88 194.468 1112.99 204.228C1112.59 206.121 1109.61 222.156 1109.51 223.451C1109.51 223.551 1109.51 223.65 1109.51 223.75C1109.41 224.049 1109.21 224.248 1108.91 224.248L1058.61 228.531L1058.51 228.332ZM1071.66 166.779C1066.28 175.444 1060.5 185.105 1057.51 195.563C1054.53 206.021 1056.32 215.882 1059.01 226.838L1108.21 222.654C1108.41 220.862 1109.11 216.28 1111.6 203.83C1113.39 194.667 1114.88 185.802 1114.29 177.834C1113.59 178.631 1112.99 179.428 1112.59 180.424C1112 181.619 1111.3 182.715 1110.3 183.611C1110 183.91 1109.51 183.81 1109.31 183.512C1109.21 183.412 1109.11 183.213 1109.11 183.113C1108.41 175.842 1108.11 168.472 1108.11 161.102C1096.56 165.185 1082.41 170.464 1073.85 181.221C1073.65 181.52 1073.15 181.619 1072.85 181.32C1072.65 181.221 1072.55 181.022 1072.55 180.822L1071.66 166.779Z" fill="#231F20"/>
<path d="M1101.34 222.555C1102.73 213.989 1116.88 211.898 1116.28 221.957C1116.18 225.443 1114.78 228.83 1112.49 231.419C1110 233.909 1106.12 235.104 1102.93 233.61" fill="white"/>
<path d="M1105.92 235.005C1104.82 235.005 1103.73 234.806 1102.63 234.308C1102.23 234.208 1102.14 233.71 1102.23 233.411V233.312C1102.43 232.913 1102.83 232.814 1103.13 232.913C1106.22 234.108 1109.61 233.212 1111.9 230.822C1114.49 228.132 1115.28 224.447 1115.48 221.758C1115.68 218.372 1114.09 216.18 1111.1 215.782C1107.41 215.384 1102.73 217.973 1102.04 222.455C1101.94 222.854 1101.64 223.152 1101.24 223.053C1100.84 222.953 1100.54 222.654 1100.64 222.256C1101.54 216.878 1106.82 213.89 1111.3 214.388C1114.29 214.686 1117.27 216.878 1116.98 221.858C1116.78 224.746 1115.88 228.83 1112.99 231.818C1111.2 233.81 1108.61 235.005 1105.92 235.005Z" fill="#231F20"/>
<path d="M1065.98 222.555C1064.59 213.989 1050.34 211.898 1051.14 221.957C1051.24 225.443 1052.63 228.83 1054.92 231.419C1057.32 233.909 1061.3 235.104 1064.49 233.61" fill="white"/>
<path d="M1061.4 235.005C1058.71 235.005 1056.22 233.909 1054.33 231.917C1051.44 228.929 1050.54 224.846 1050.34 221.957C1049.94 216.977 1053.03 214.886 1056.02 214.487C1060.5 213.989 1065.88 216.977 1066.68 222.356C1066.78 222.754 1066.48 223.152 1066.08 223.152C1065.68 223.252 1065.28 222.953 1065.28 222.555C1064.59 218.073 1059.9 215.483 1056.22 215.882C1053.23 216.28 1051.64 218.372 1051.84 221.858C1052.04 224.547 1052.83 228.232 1055.42 230.921C1057.81 233.312 1061.4 234.208 1064.19 233.013C1064.59 232.814 1064.98 233.013 1065.18 233.312C1065.38 233.71 1065.18 234.108 1064.88 234.308C1064.88 234.308 1064.88 234.308 1064.79 234.308C1063.69 234.905 1062.49 235.104 1061.4 235.005Z" fill="#231F20"/>
<path d="M1067.97 261.996L1082.22 273.749L1097.55 265.184L1098.55 229.726L1067.97 228.83V261.996Z" fill="white"/>
<path d="M1082.22 274.446C1082.02 274.446 1081.92 274.347 1081.72 274.247L1067.47 262.494C1067.28 262.395 1067.18 262.196 1067.18 261.897V228.63C1067.18 228.431 1067.28 228.232 1067.37 228.132C1067.47 228.033 1067.67 227.933 1067.87 227.933L1098.45 228.83C1098.85 228.83 1099.15 229.228 1099.15 229.626L1098.15 265.084C1098.15 265.383 1098.05 265.582 1097.75 265.682L1082.41 274.247C1082.51 274.446 1082.41 274.446 1082.22 274.446ZM1068.67 261.698L1082.31 272.853L1096.86 264.785L1097.85 230.423L1068.67 229.527V261.698Z" fill="#231F20"/>
<path d="M1068.97 243.072C1069.27 244.666 1077.93 255.522 1098.05 256.718V242.973C1093.27 243.67 1086.9 245.961 1081.72 245.562C1077.33 245.164 1072.85 244.766 1068.97 243.072C1069.57 243.471 1068.27 242.774 1068.97 243.072Z" fill="#231F20"/>
<path d="M1097.95 257.415C1078.93 256.22 1069.57 246.359 1068.37 243.57C1068.07 243.371 1067.97 242.973 1068.07 242.674C1068.17 242.375 1068.47 242.076 1069.17 242.475C1073.05 244.168 1077.63 244.566 1081.72 244.865C1085 245.164 1088.89 244.268 1092.57 243.471C1094.47 243.072 1096.26 242.574 1097.95 242.375C1098.15 242.375 1098.35 242.375 1098.55 242.574C1098.75 242.674 1098.75 242.873 1098.75 243.072V256.817C1098.65 257.116 1098.35 257.415 1097.95 257.415ZM1070.56 244.467C1073.15 247.654 1081.42 254.825 1097.35 256.02V243.869C1095.96 244.068 1094.47 244.467 1092.87 244.865C1089.09 245.762 1085.1 246.658 1081.62 246.359C1077.83 246.06 1074.15 245.463 1070.56 244.467Z" fill="#231F20"/>
<path d="M1081.82 248.75H1084.11C1094.96 248.75 1103.73 239.985 1103.73 229.128V206.021C1103.73 201.141 1096.96 198.252 1093.07 197.555C1088.89 196.858 1084.51 197.555 1080.22 198.153C1069.86 199.746 1062 203.531 1062.2 215.184C1062.2 219.766 1062.2 224.447 1062.2 229.029C1062.2 239.985 1070.96 248.75 1081.82 248.75Z" fill="white"/>
<path d="M1084.11 249.447H1081.82C1070.56 249.447 1061.5 240.284 1061.5 229.128V224.547C1061.5 221.459 1061.5 218.372 1061.5 215.284C1061.4 202.137 1071.46 198.85 1080.22 197.456C1084.51 196.758 1088.89 196.161 1093.27 196.858C1097.95 197.655 1104.53 200.942 1104.53 206.021V229.128C1104.43 240.383 1095.36 249.447 1084.11 249.447ZM1089.19 197.954C1086.2 198.053 1083.31 198.352 1080.42 198.85C1068.07 200.742 1062.89 205.623 1062.99 215.184C1062.99 218.272 1062.99 221.36 1062.99 224.447C1062.99 226.041 1062.99 227.535 1062.99 229.029C1062.99 239.487 1071.46 247.953 1081.92 247.953H1084.21C1094.67 247.953 1103.13 239.487 1103.13 229.029V205.922C1103.13 201.738 1097.16 198.85 1093.07 198.153C1091.78 198.053 1090.48 197.954 1089.19 197.954Z" fill="#231F20"/>
<path d="M1089.66 223.642C1090.32 223.598 1090.77 222.362 1090.67 220.88C1090.58 219.398 1089.96 218.232 1089.3 218.275C1088.65 218.319 1088.19 219.556 1088.29 221.038C1088.39 222.519 1089 223.686 1089.66 223.642Z" fill="#231F20"/>
<path d="M1072.63 223.541C1073.29 223.497 1073.74 222.261 1073.64 220.779C1073.54 219.297 1072.93 218.131 1072.27 218.174C1071.61 218.218 1071.16 219.454 1071.26 220.936C1071.35 222.418 1071.97 223.584 1072.63 223.541Z" fill="#231F20"/>
<path d="M1078.13 241.877C1077.43 241.877 1077.04 241.877 1077.04 241.877C1076.64 241.877 1076.34 241.479 1076.44 241.08C1076.54 240.682 1076.84 240.383 1077.24 240.483C1077.33 240.483 1085.9 241.28 1094.27 234.208C1094.57 233.909 1095.06 234.009 1095.26 234.308C1095.56 234.606 1095.46 235.104 1095.16 235.304C1090.48 239.387 1084.41 241.778 1078.13 241.877Z" fill="#231F20"/>
<path d="M1096.86 237.594C1096.76 237.594 1096.66 237.594 1096.56 237.495C1092.97 235.901 1093.37 231.818 1094.07 229.925C1094.17 229.527 1094.57 229.328 1094.96 229.527C1095.36 229.626 1095.56 230.124 1095.36 230.423C1095.26 230.622 1093.87 234.706 1097.06 236.2C1097.45 236.399 1097.55 236.798 1097.45 237.196C1097.35 237.495 1097.16 237.594 1096.86 237.594Z" fill="#231F20"/>
<path d="M1080.02 236.598C1079.53 236.598 1079.13 236.399 1078.83 236.001C1076.94 233.71 1078.93 223.75 1079.33 221.758C1079.43 221.36 1079.82 221.16 1080.22 221.26C1080.62 221.36 1080.82 221.758 1080.72 222.057C1079.73 226.738 1078.83 233.81 1079.92 235.104C1082.51 235.104 1084.51 232.017 1084.51 232.017C1084.71 231.718 1085.2 231.618 1085.5 231.818C1085.8 232.017 1085.9 232.515 1085.7 232.814C1085.6 232.913 1083.21 236.598 1080.02 236.598Z" fill="#231F20"/>
<path d="M1085.1 220.563C1084.71 220.563 1084.41 220.264 1084.31 219.866C1084.31 219.567 1084.51 219.168 1084.9 219.168C1086 218.87 1089.59 215.882 1091.58 214.288C1092.47 213.491 1093.27 212.894 1093.57 212.694C1093.87 212.495 1094.37 212.595 1094.57 212.894C1094.76 213.192 1094.76 213.69 1094.37 213.89C1094.07 214.089 1093.27 214.786 1092.37 215.483C1089.19 218.073 1086.5 220.264 1085.2 220.662C1085.1 220.563 1085.1 220.563 1085.1 220.563Z" fill="#231F20"/>
<path d="M1076.24 220.563C1076.14 220.563 1075.94 220.563 1075.84 220.463C1072.75 218.471 1069.17 216.18 1068.57 215.981C1068.27 215.981 1068.07 215.682 1067.97 215.384C1067.87 214.985 1068.17 214.587 1068.57 214.487C1068.97 214.388 1069.27 214.388 1076.74 219.168C1077.04 219.368 1077.14 219.866 1076.94 220.164C1076.74 220.463 1076.54 220.563 1076.24 220.563Z" fill="#231F20"/>
<path d="M1188.29 332.812L1131.02 318.47C1131.02 318.47 1102.33 363.688 1087.99 372.951L1156.42 392.672C1156.42 392.672 1184.8 347.453 1188.29 332.812Z" fill="white"/>
<path d="M1156.52 393.369H1156.32L1087.79 373.648C1087.49 373.548 1087.29 373.349 1087.29 373.05C1087.29 372.752 1087.39 372.552 1087.59 372.353C1101.64 363.29 1130.02 318.569 1130.32 318.171C1130.52 317.872 1130.82 317.772 1131.12 317.872L1188.39 332.214C1188.79 332.314 1188.99 332.712 1188.89 333.011C1185.4 347.553 1158.11 391.178 1157.01 393.07C1156.92 393.269 1156.72 393.369 1156.52 393.369ZM1089.59 372.652L1156.12 391.775C1159.01 387.094 1183.51 347.453 1187.39 333.21L1131.22 319.167C1128.33 324.047 1103.63 362.393 1089.59 372.652Z" fill="#231F20"/>
<path d="M1162.69 380.52C1162.59 380.52 1162.49 380.52 1162.49 380.52C1144.47 374.046 1116.98 364.385 1115.28 364.186C1114.88 364.086 1114.59 363.788 1114.68 363.389C1114.78 362.991 1115.08 362.692 1115.48 362.792C1117.87 363.09 1158.41 377.532 1162.99 379.226C1163.39 379.325 1163.59 379.724 1163.39 380.122C1163.29 380.421 1162.99 380.62 1162.69 380.52Z" fill="#D1D3D4"/>
<path d="M1168.27 371.258C1168.17 371.258 1168.07 371.258 1168.07 371.258C1150.04 364.784 1122.55 355.122 1120.86 354.923C1120.46 354.824 1120.26 354.525 1120.26 354.126C1120.36 353.728 1120.66 353.429 1121.06 353.529C1123.45 353.828 1163.99 368.27 1168.57 369.963C1168.97 370.062 1169.07 370.461 1168.97 370.859C1168.77 371.058 1168.57 371.258 1168.27 371.258Z" fill="#D1D3D4"/>
<path d="M1175.74 359.804C1175.64 359.804 1175.54 359.804 1175.54 359.804C1157.51 353.33 1130.02 343.668 1128.33 343.469C1127.93 343.469 1127.73 343.071 1127.73 342.672C1127.83 342.274 1128.13 342.075 1128.53 342.075C1130.92 342.374 1171.46 356.816 1176.04 358.509C1176.44 358.608 1176.64 359.007 1176.44 359.405C1176.34 359.604 1176.04 359.804 1175.74 359.804Z" fill="#D1D3D4"/>
<path d="M1180.82 347.354C1180.72 347.354 1180.62 347.354 1180.62 347.354C1162.59 340.88 1135.1 331.218 1133.41 331.019C1133.01 331.019 1132.81 330.621 1132.81 330.322C1132.91 329.924 1133.21 329.724 1133.61 329.724C1136 330.023 1176.54 344.465 1181.12 346.158C1181.52 346.258 1181.72 346.656 1181.52 347.055C1181.32 347.254 1181.12 347.354 1180.82 347.354Z" fill="#D1D3D4"/>
<path d="M1145.86 348.051C1145.86 348.051 1153.53 388.19 1159.21 397.253C1159.21 397.253 1214.88 394.664 1229.13 384.106C1229.13 384.106 1206.02 352.832 1202.13 338.489L1145.86 348.051Z" fill="white"/>
<path d="M1159.21 397.95C1159.01 397.95 1158.71 397.851 1158.61 397.652C1152.83 388.588 1145.46 349.844 1145.16 348.25C1145.16 348.051 1145.16 347.852 1145.26 347.752C1145.36 347.553 1145.56 347.453 1145.76 347.453L1202.13 337.892C1202.53 337.792 1202.83 338.091 1202.93 338.39C1206.72 352.433 1229.52 383.409 1229.82 383.708C1230.02 384.006 1230.02 384.405 1229.72 384.704C1215.28 395.162 1161.6 397.851 1159.21 397.95ZM1146.66 348.648C1147.65 353.927 1154.43 387.791 1159.6 396.556C1164.68 396.257 1213.99 393.468 1228.23 384.006C1225.04 379.624 1205.72 352.931 1201.74 339.386L1146.66 348.648Z" fill="#231F20"/>
<path d="M1043.87 329.625L1025.84 380.122L1115.38 383.508L1098.55 329.625H1043.87Z" fill="white"/>
<path d="M1115.38 384.206L1025.94 380.819C1025.74 380.819 1025.54 380.72 1025.34 380.52C1025.24 380.321 1025.14 380.122 1025.24 379.923L1043.17 329.326C1043.27 329.027 1043.57 328.828 1043.87 328.828H1098.55C1098.85 328.828 1099.15 329.027 1099.25 329.326L1115.98 383.309C1116.08 383.508 1115.98 383.807 1115.88 383.907C1115.78 384.106 1115.58 384.206 1115.38 384.206ZM1026.84 379.524L1114.39 382.811L1098.05 330.322H1044.37L1026.84 379.524Z" fill="#231F20"/>
<path d="M1066.88 312.992L1080.92 338.788L1081.12 340.083L1081.82 346.158L1077.14 342.174L1076.14 341.378L1062.1 315.681L1066.88 312.992Z" fill="#231F20"/>
<path d="M1081.82 346.856C1081.62 346.856 1081.52 346.756 1081.42 346.656L1075.74 341.975C1075.64 341.876 1075.64 341.876 1075.54 341.776L1061.4 315.98C1061.2 315.681 1061.3 315.183 1061.7 315.083L1066.48 312.494C1066.68 312.394 1066.88 312.394 1066.98 312.394C1067.18 312.494 1067.28 312.593 1067.37 312.693L1081.52 338.489C1081.52 338.589 1081.62 338.688 1081.62 338.688L1082.51 346.059C1082.51 346.358 1082.41 346.656 1082.12 346.756C1082.12 346.756 1081.92 346.856 1081.82 346.856ZM1076.74 340.979L1080.92 344.465L1080.22 338.987L1066.48 313.888L1062.89 315.88L1076.74 340.979Z" fill="#231F20"/>
<path d="M1059.21 308.908L1062.69 307.016C1063.39 306.617 1064.19 306.916 1064.49 307.514L1071.16 319.764L1065.28 322.952L1058.61 310.701C1058.31 310.103 1058.51 309.306 1059.21 308.908Z" fill="#231F20"/>
<path d="M1065.38 323.748C1065.28 323.748 1065.28 323.748 1065.18 323.748C1064.98 323.649 1064.88 323.549 1064.79 323.45L1058.11 311.199C1057.51 310.203 1057.91 309.008 1058.81 308.51C1058.81 308.51 1058.91 308.51 1058.91 308.41L1062.39 306.518C1063.39 306.02 1064.69 306.318 1065.18 307.314L1071.86 319.565C1072.06 319.864 1071.96 320.362 1071.66 320.561C1071.66 320.561 1071.66 320.561 1071.56 320.561L1065.68 323.748C1065.68 323.748 1065.48 323.748 1065.38 323.748ZM1063.39 307.514C1063.29 307.514 1063.19 307.514 1063.09 307.613L1059.61 309.506C1059.41 309.605 1059.31 309.705 1059.31 309.904C1059.21 310.103 1059.31 310.302 1059.41 310.402L1065.78 322.055L1070.46 319.466L1064.09 307.812C1063.89 307.713 1063.59 307.514 1063.39 307.514Z" fill="#231F20"/>
<path d="M1062.2 323.649C1061.9 323.649 1061.7 323.549 1061.6 323.25C1061.5 322.952 1058.11 316.876 1057.61 315.98C1057.12 315.083 1057.71 311.896 1058.01 310.601C1058.11 310.203 1058.41 310.004 1058.81 310.004C1059.21 310.103 1059.41 310.402 1059.41 310.8C1059.01 312.294 1058.91 313.788 1059.01 315.382C1059.31 316.079 1061.9 320.76 1062.89 322.553C1063.09 322.852 1062.99 323.35 1062.59 323.549C1062.39 323.649 1062.3 323.649 1062.2 323.649Z" fill="#231F20"/>
<path d="M1012.59 303.33C1001.04 297.952 983.014 291.478 978.332 308.51C975.842 317.274 980.623 326.438 989.189 329.426C1009.91 337.095 1067.28 345.063 1067.28 345.063C1067.28 345.063 1072.95 344.067 1074.84 340.481C1076.74 336.896 1081.92 340.68 1084.61 338.29C1087.29 335.9 1085.4 331.218 1082.81 327.533C1080.22 323.848 1071.56 323.45 1069.37 323.848C1067.18 324.246 1061.6 327.533 1061.6 327.533C1056.42 330.621 1043.87 319.864 1039.59 317.374C1031.42 312.693 1023.15 308.31 1014.69 304.227L1012.59 303.33Z" fill="white"/>
<path d="M1067.28 345.76C1066.58 345.66 1009.51 337.692 988.89 330.123C979.926 327.035 975.046 317.474 977.635 308.41C979.03 303.43 981.619 300.044 985.404 298.251C993.372 294.566 1004.93 299.048 1012.79 302.733C1013.59 303.131 1014.29 303.43 1014.99 303.729C1023.45 307.812 1031.82 312.294 1039.98 316.876C1040.98 317.474 1042.38 318.37 1043.97 319.565C1049.05 323.151 1057.61 329.226 1061.3 327.035C1061.3 327.035 1066.88 323.748 1069.27 323.25C1071.26 322.852 1080.42 323.151 1083.41 327.135C1087.1 332.214 1087.69 336.497 1085.1 338.688C1083.61 339.983 1081.62 339.684 1079.92 339.485C1077.73 339.186 1076.34 339.087 1075.54 340.581C1073.45 344.465 1067.77 345.461 1067.47 345.461L1067.28 345.76ZM992.376 298.151C990.185 298.151 987.994 298.55 986.002 299.446C982.615 301.04 980.225 304.127 978.93 308.808C976.54 317.274 981.121 326.139 989.388 329.027C1009.41 336.497 1064.49 344.266 1067.28 344.565C1067.97 344.465 1072.65 343.37 1074.35 340.382C1075.54 337.991 1077.93 338.29 1080.02 338.589C1081.62 338.788 1083.21 338.987 1084.21 338.091C1087.2 335.501 1083.51 329.924 1082.31 328.23C1079.92 324.944 1071.66 324.346 1069.47 324.844C1067.77 325.143 1063.49 327.533 1061.9 328.43C1057.51 331.019 1049.25 325.143 1043.17 320.96C1041.58 319.864 1040.28 318.868 1039.29 318.37C1031.22 313.689 1022.75 309.306 1014.39 305.223C1013.69 304.924 1012.99 304.526 1012.3 304.227C1006.62 301.239 998.95 298.151 992.376 298.151Z" fill="#231F20"/>
<path d="M1054.43 208.113C1054.43 208.113 1090.38 223.252 1112.89 209.806L1115.28 194.667C1115.28 194.667 1080.42 202.436 1057.91 189.388C1056.42 192.476 1055.22 195.663 1054.53 199.049C1054.03 201.938 1054.03 205.025 1054.43 208.113Z" fill="white"/>
<path d="M1089.88 215.882C1071.76 215.882 1054.53 208.71 1054.23 208.611C1054.03 208.511 1053.93 208.312 1053.83 208.113C1053.43 205.025 1053.43 201.838 1053.93 198.75C1054.63 195.364 1055.82 192.077 1057.32 188.99C1057.41 188.79 1057.51 188.691 1057.71 188.691C1057.91 188.691 1058.01 188.691 1058.21 188.79C1080.22 201.539 1114.78 194.069 1115.08 193.97C1115.28 193.97 1115.48 193.97 1115.68 194.169C1115.88 194.268 1115.88 194.567 1115.88 194.766L1113.49 209.906C1113.49 210.105 1113.39 210.304 1113.19 210.304C1106.32 214.487 1097.95 215.882 1089.88 215.882ZM1055.02 207.615C1058.71 209.109 1091.48 221.559 1112.29 209.308L1114.49 195.364C1108.91 196.46 1078.53 201.539 1058.21 190.185C1056.92 192.974 1055.92 195.962 1055.22 199.049C1054.83 201.938 1054.73 204.826 1055.02 207.615Z" fill="#231F20"/>
<path d="M1077.14 269.367L1080.42 274.745C1080.42 274.745 1078.23 293.769 1086 304.625C1093.77 315.482 1137.89 288.689 1137.89 288.689L1139.39 273.65H1123.65C1123.65 273.65 1102.33 301.04 1092.37 294.566C1083.61 288.789 1084.41 273.65 1084.41 273.65L1090.08 269.267L1083.11 262.992L1077.14 269.367Z" fill="#231F20"/>
<path d="M1092.47 307.912C1089.29 307.912 1086.7 307.115 1085.3 305.024C1077.83 294.566 1079.33 277.235 1079.63 274.845L1076.54 269.666C1076.34 269.367 1076.44 269.068 1076.64 268.869L1082.51 262.594C1082.71 262.295 1083.21 262.295 1083.51 262.494L1090.58 268.769C1090.78 268.869 1090.78 269.068 1090.78 269.367C1090.78 269.566 1090.68 269.765 1090.48 269.865L1085 274.048C1085 276.239 1085 288.988 1092.67 294.068C1101.94 300.143 1122.75 273.55 1122.95 273.351C1123.05 273.152 1123.25 273.052 1123.45 273.052H1139.19C1139.39 273.052 1139.58 273.152 1139.68 273.251C1139.78 273.351 1139.88 273.55 1139.88 273.749L1138.39 288.789C1138.39 288.988 1138.29 289.187 1138.09 289.287C1136.7 290.283 1107.41 307.912 1092.47 307.912ZM1077.93 269.466L1080.92 274.446C1081.02 274.546 1081.02 274.745 1081.02 274.845C1081.02 275.044 1078.93 293.669 1086.4 304.227C1092.37 312.693 1124.74 295.761 1137.09 288.291L1138.39 274.446H1123.85C1121.46 277.434 1101.84 301.737 1091.88 295.263C1082.91 289.386 1083.61 274.347 1083.61 273.749C1083.61 273.55 1083.71 273.351 1083.91 273.251L1088.99 269.367L1083.01 264.088L1077.93 269.466Z" fill="#231F20"/>
<path d="M1087.79 261.1C1075.24 261.1 1068.67 255.921 1068.27 255.622C1067.97 255.423 1067.87 254.925 1068.07 254.626C1068.27 254.327 1068.77 254.228 1069.07 254.427C1069.07 254.427 1069.17 254.427 1069.17 254.526C1069.27 254.626 1079.13 262.295 1097.35 258.71C1097.75 258.61 1098.15 258.909 1098.15 259.307C1098.25 259.706 1097.95 260.104 1097.55 260.204C1094.47 260.801 1091.08 261.1 1087.79 261.1Z" fill="#231F20"/>
<path d="M1033.11 301.936C1032.81 301.936 1032.51 301.737 1032.42 301.438L1025.24 283.012C1025.14 282.614 1025.34 282.215 1025.74 282.116C1026.04 282.016 1026.44 282.215 1026.64 282.514L1033.81 300.94C1033.91 301.338 1033.81 301.737 1033.41 301.836C1033.21 301.936 1033.21 301.936 1033.11 301.936Z" fill="#231F20"/>
<path d="M1222.55 332.712L1170.66 338.091C1170.66 338.091 1177.03 382.313 1180.82 391.576C1180.82 391.576 1227.93 395.062 1252.13 381.118C1252.23 381.118 1222.95 340.979 1222.55 332.712Z" fill="white"/>
<path d="M1193.67 392.672C1186.1 392.672 1181.02 392.273 1180.82 392.273C1180.52 392.273 1180.32 392.074 1180.22 391.875C1176.44 382.712 1170.26 340.083 1169.96 338.19C1169.96 337.991 1169.96 337.792 1170.06 337.692C1170.16 337.493 1170.36 337.394 1170.56 337.394L1222.45 332.015C1222.65 332.015 1222.85 332.015 1222.95 332.214C1223.05 332.314 1223.15 332.513 1223.15 332.712C1223.35 339.087 1242.57 366.875 1252.63 380.72C1252.73 380.919 1252.83 381.118 1252.73 381.317C1252.73 381.516 1252.53 381.716 1252.43 381.815C1236.3 391.178 1209.5 392.672 1193.67 392.672ZM1181.42 390.978C1186.2 391.277 1228.53 393.468 1251.24 380.919C1247.45 375.74 1223.65 342.672 1222.05 333.509L1171.56 338.788C1172.35 344.465 1177.93 381.815 1181.42 390.978Z" fill="#231F20"/>
<path d="M1099.55 372.353L1035.9 370.76C1035.5 370.76 1035.2 370.461 1035.2 370.062C1035.2 369.664 1035.5 369.365 1035.9 369.365L1099.55 370.959C1099.94 370.959 1100.24 371.258 1100.24 371.656C1100.24 372.054 1099.94 372.353 1099.55 372.353Z" fill="#D1D3D4"/>
<path d="M1056.72 359.804C1047.55 359.804 1040.48 359.804 1040.18 359.704C1039.79 359.604 1039.59 359.306 1039.59 358.907C1039.69 358.509 1039.98 358.31 1040.38 358.31C1041.78 358.409 1078.33 358.31 1097.55 358.31C1097.95 358.31 1098.25 358.608 1098.25 359.007C1098.25 359.405 1097.95 359.704 1097.55 359.704C1089.59 359.704 1070.66 359.804 1056.72 359.804Z" fill="#D1D3D4"/>
<path d="M1092.37 347.752L1081.82 346.756C1081.42 346.656 1081.22 346.358 1081.22 345.959C1081.32 345.66 1081.62 345.362 1081.92 345.362L1092.47 346.358C1092.87 346.358 1093.17 346.756 1093.07 347.154C1093.07 347.453 1092.77 347.752 1092.37 347.752Z" fill="#D1D3D4"/>
<path d="M952.237 255.024C952.237 255.024 925.246 251.638 918.274 240.483C913.792 233.312 924.847 208.81 924.847 208.81C924.847 208.81 928.532 222.953 938.492 225.045C948.452 227.136 954.727 228.033 954.727 228.033C954.727 228.033 947.158 247.953 952.237 255.024Z" fill="white"/>
<path d="M952.237 255.722C951.042 255.622 924.748 252.136 917.676 240.881C912.995 233.411 923.752 209.507 924.25 208.511C924.349 208.212 924.648 208.113 924.947 208.113C925.246 208.113 925.445 208.312 925.544 208.611C925.544 208.71 929.23 222.356 938.592 224.348C948.353 226.439 954.727 227.336 954.827 227.336C955.026 227.336 955.225 227.535 955.325 227.634C955.424 227.834 955.424 228.033 955.424 228.232C955.325 228.431 948.054 247.953 952.835 254.626C953.034 254.825 953.034 255.124 952.835 255.423C952.735 255.622 952.536 255.722 952.237 255.722ZM924.847 210.802C922.457 216.479 915.385 234.407 918.971 240.084C924.748 249.447 945.365 253.232 951.042 254.128C947.755 246.957 952.636 232.216 953.93 228.63C951.839 228.332 946.261 227.435 938.492 225.742C930.226 223.949 926.242 214.786 924.847 210.802Z" fill="#231F20"/>
<path d="M922.556 239.586C922.158 239.586 921.859 239.288 921.859 238.989C921.162 232.316 925.345 220.762 925.644 220.264C925.744 219.866 926.142 219.666 926.54 219.866C926.939 219.965 927.138 220.364 926.939 220.762C926.939 220.762 926.939 220.762 926.939 220.862C926.939 220.961 922.656 232.614 923.353 238.989C923.353 239.387 923.154 239.686 922.756 239.786L922.556 239.586Z" fill="#D1D3D4"/>
<path d="M921.859 244.467C921.859 244.467 921.361 238.092 924.349 233.81L918.373 227.435C918.373 227.435 913.891 238.79 921.859 244.467Z" fill="white"/>
<path d="M921.859 245.164C921.76 245.164 921.56 245.164 921.461 245.064C913.094 239.088 917.676 227.336 917.676 227.236C917.776 226.838 918.274 226.738 918.572 226.838C918.672 226.838 918.772 226.937 918.871 227.037L924.847 233.511C925.046 233.71 925.146 234.108 924.947 234.407C922.158 238.391 922.556 244.467 922.556 244.566C922.556 244.865 922.457 245.064 922.158 245.264C922.158 245.164 921.959 245.164 921.859 245.164ZM918.672 228.73C917.875 231.419 916.381 238.491 921.162 242.973C921.162 239.786 921.959 236.698 923.453 233.909L918.672 228.73Z" fill="#231F20"/>
<path d="M928.931 245.164C928.532 245.164 928.234 244.865 928.234 244.467C928.234 243.969 928.632 232.415 931.421 225.543C931.52 225.144 931.919 224.945 932.317 225.045C932.716 225.144 932.915 225.543 932.815 225.941C932.815 226.041 932.815 226.041 932.716 226.041C930.026 232.714 929.528 244.367 929.528 244.467C929.628 244.865 929.329 245.164 928.931 245.164Z" fill="#D1D3D4"/>
<path d="M936.102 247.355C935.704 247.355 935.405 247.056 935.405 246.658C935.206 238.989 938.592 229.228 938.692 228.83C938.791 228.431 939.289 228.332 939.588 228.431C939.887 228.531 940.086 228.929 939.986 229.228C939.986 229.328 936.6 239.088 936.799 246.558C936.799 246.957 936.5 247.355 936.102 247.355Z" fill="#D1D3D4"/>
<path d="M943.373 249.148C942.974 249.148 942.676 248.849 942.676 248.451C942.676 244.068 942.974 239.686 943.771 235.403C943.871 235.005 944.17 234.806 944.568 234.806C944.966 234.905 945.166 235.204 945.166 235.602C944.369 239.786 944.07 244.068 944.07 248.351C944.07 248.849 943.771 249.148 943.373 249.148Z" fill="#D1D3D4"/>
<path d="M1220.86 198.452L1212.79 227.236C1212.79 227.236 1247.85 227.634 1260 212.595L1264.58 182.814C1264.58 182.814 1230.92 199.846 1220.86 198.452Z" fill="white"/>
<path d="M1212.99 227.933H1212.79C1212.59 227.933 1212.39 227.834 1212.29 227.634C1212.19 227.435 1212.09 227.236 1212.19 227.037L1220.26 198.252C1220.36 197.954 1220.66 197.754 1221.06 197.754C1230.82 199.149 1263.99 182.316 1264.38 182.217C1264.68 182.018 1265.18 182.217 1265.28 182.516C1265.38 182.615 1265.38 182.814 1265.38 182.914L1260.8 212.694C1260.8 212.794 1260.7 212.894 1260.7 212.993C1255.52 219.368 1245.96 223.85 1232.11 226.24C1225.64 227.336 1219.36 227.933 1212.99 227.933ZM1221.36 199.248L1213.69 226.539C1219.26 226.439 1248.45 225.443 1259.3 212.296L1263.69 184.01C1257.61 187.097 1231.12 199.946 1221.36 199.248Z" fill="#231F20"/>
<path d="M1217.27 294.665C1217.27 294.665 1218.47 261.598 1236.2 244.467L1283.81 258.311C1283.81 258.311 1258.01 286.398 1258.31 309.705L1217.27 294.665Z" fill="white"/>
<path d="M1258.31 310.402C1258.21 310.402 1258.11 310.402 1258.11 310.402L1217.07 295.362C1216.77 295.263 1216.58 294.964 1216.58 294.665C1216.58 294.366 1217.97 261.1 1235.8 243.969C1236 243.77 1236.3 243.77 1236.5 243.77L1284.1 257.614C1284.3 257.714 1284.5 257.913 1284.6 258.112C1284.7 258.311 1284.6 258.61 1284.4 258.809C1284.2 259.108 1258.81 286.896 1259.01 309.705C1259.01 309.904 1258.91 310.203 1258.71 310.302C1258.61 310.302 1258.51 310.402 1258.31 310.402ZM1218.07 294.167L1257.61 308.609C1257.81 296.657 1264.58 283.709 1270.36 274.845C1274.04 269.168 1278.13 263.789 1282.51 258.61L1236.4 245.264C1220.56 260.901 1218.27 289.884 1218.07 294.167Z" fill="#231F20"/>
<path d="M1268.77 262.893C1268.67 262.893 1268.67 262.893 1268.57 262.893L1235.9 253.431C1235.5 253.331 1235.3 252.933 1235.4 252.534C1235.5 252.136 1235.9 251.937 1236.3 252.036L1268.97 261.498C1269.36 261.598 1269.56 261.996 1269.46 262.295C1269.46 262.694 1269.16 262.893 1268.77 262.893Z" fill="#D1D3D4"/>
<path d="M1264.08 272.454C1263.99 272.454 1263.99 272.454 1263.89 272.454L1231.22 262.992C1230.82 262.893 1230.62 262.594 1230.72 262.196C1230.82 261.797 1231.12 261.598 1231.52 261.698H1231.62L1264.28 271.06C1264.68 271.16 1264.88 271.558 1264.78 271.956C1264.68 272.255 1264.38 272.454 1264.08 272.454Z" fill="#D1D3D4"/>
<path d="M1260.1 282.514H1259.9L1227.23 273.052C1226.83 272.952 1226.64 272.554 1226.73 272.156C1226.83 271.757 1227.23 271.558 1227.63 271.658L1260.4 281.12C1260.8 281.219 1261 281.618 1260.9 282.016C1260.7 282.315 1260.4 282.514 1260.1 282.514Z" fill="#D1D3D4"/>
<path d="M1246.16 291.478C1246.06 291.478 1246.06 291.478 1245.96 291.478L1222.65 284.705C1222.25 284.606 1222.05 284.207 1222.15 283.809C1222.25 283.41 1222.65 283.211 1223.05 283.311L1246.36 290.084C1246.75 290.183 1246.95 290.582 1246.85 290.98C1246.75 291.279 1246.46 291.478 1246.16 291.478Z" fill="#D1D3D4"/>
<path d="M1252.23 215.284H1252.13C1251.93 215.284 1251.44 215.184 1251.54 214.388C1251.54 214.188 1251.63 214.089 1251.73 213.989C1252.23 211.499 1254.32 198.651 1255.72 189.886C1255.82 189.488 1256.12 189.288 1256.52 189.288C1256.91 189.388 1257.11 189.687 1257.11 190.085C1253.23 213.989 1252.93 215.284 1252.23 215.284Z" fill="#D1D3D4"/>
<path d="M1245.16 218.87H1245.06C1244.86 218.87 1244.36 218.77 1244.46 217.973C1244.46 217.774 1244.56 217.674 1244.66 217.575C1245.16 215.085 1247.25 202.236 1248.65 193.472C1248.75 193.073 1249.14 192.874 1249.44 192.974C1249.74 193.073 1250.04 193.372 1249.94 193.77C1246.26 217.575 1245.96 218.87 1245.16 218.87Z" fill="#D1D3D4"/>
<path d="M1237.69 220.364H1237.59C1237.39 220.364 1236.89 220.264 1236.99 219.467C1236.99 219.268 1237.09 219.168 1237.19 219.069C1237.69 216.579 1239.78 203.73 1241.18 194.966C1241.28 194.567 1241.58 194.368 1241.97 194.368C1242.37 194.468 1242.57 194.766 1242.57 195.165C1238.69 219.069 1238.49 220.364 1237.69 220.364Z" fill="#D1D3D4"/>
<path d="M1230.62 224.049H1230.42C1230.22 224.049 1229.72 223.949 1229.82 223.152C1229.82 222.953 1229.92 222.854 1230.02 222.754C1230.52 220.264 1232.61 207.416 1234.01 198.651C1234.11 198.252 1234.4 198.053 1234.8 198.053C1235.2 198.153 1235.4 198.452 1235.4 198.85C1231.62 222.754 1231.42 224.049 1230.62 224.049Z" fill="#D1D3D4"/>
<path d="M1223.15 225.045H1223.05C1222.85 225.045 1222.35 224.945 1222.45 224.148C1222.45 223.949 1222.55 223.85 1222.65 223.75C1223.15 221.26 1225.24 208.412 1226.64 199.647C1226.73 199.248 1227.03 199.049 1227.43 199.049C1227.83 199.149 1228.03 199.448 1228.03 199.846C1224.15 223.75 1223.95 225.045 1223.15 225.045Z" fill="#D1D3D4"/>
<path d="M1193.17 175.544C1193.17 175.544 1192.77 183.014 1199.25 192.874C1199.25 192.874 1213.09 171.56 1221.56 168.273C1230.02 164.986 1199.34 161.799 1193.17 175.544Z" fill="white"/>
<path d="M1199.25 193.571C1199.05 193.571 1198.75 193.472 1198.65 193.272C1192.07 183.312 1192.37 175.842 1192.37 175.544C1192.37 175.444 1192.37 175.344 1192.47 175.344C1196.76 165.683 1212.59 163.99 1220.06 165.086C1222.45 165.484 1223.65 166.082 1223.75 167.078C1223.85 168.173 1222.35 168.771 1221.85 168.97C1213.69 172.157 1199.94 193.173 1199.84 193.372C1199.74 193.472 1199.54 193.671 1199.25 193.571ZM1193.87 175.643C1193.87 176.639 1194.07 183.113 1199.34 191.579C1202.13 187.396 1213.79 170.564 1221.46 167.576C1221.75 167.476 1222.15 167.277 1222.35 167.078C1221.56 166.48 1217.67 165.783 1212.09 166.281C1207.71 166.679 1197.25 168.372 1193.87 175.643Z" fill="#231F20"/>
<path d="M1224.34 185.504C1224.34 185.504 1213.59 167.576 1193.17 175.544C1197.25 166.48 1202.23 157.914 1208.11 149.847C1208.11 149.847 1219.36 145.863 1234.4 158.512C1234.4 158.512 1229.52 177.436 1224.34 185.504Z" fill="white"/>
<path d="M1224.34 186.201C1224.15 186.201 1223.85 186.101 1223.75 185.902C1223.35 185.205 1213.09 168.572 1193.47 176.241C1193.17 176.34 1192.87 176.241 1192.67 176.042C1192.47 175.842 1192.47 175.544 1192.57 175.245C1196.66 166.181 1201.74 157.516 1207.51 149.448C1207.61 149.349 1207.71 149.249 1207.81 149.249C1208.31 149.05 1219.66 145.365 1234.8 158.114C1235 158.313 1235.1 158.512 1235 158.811C1234.8 159.608 1230.02 177.834 1224.84 186.002C1224.74 186.101 1224.54 186.201 1224.34 186.201ZM1203.23 172.854C1215.08 172.854 1222.25 181.42 1224.24 184.209C1228.73 176.54 1232.81 161.5 1233.61 158.711C1220.26 147.656 1210 149.946 1208.51 150.345C1203.13 157.914 1198.45 165.882 1194.46 174.249C1197.25 173.352 1200.24 172.854 1203.23 172.854Z" fill="#231F20"/>
<path d="M1222.45 175.743C1222.35 175.743 1222.25 175.743 1222.25 175.743C1221.85 175.643 1221.66 175.245 1221.85 174.846L1227.53 158.412C1227.63 158.014 1228.03 157.815 1228.43 158.014C1228.83 158.114 1229.03 158.512 1228.83 158.91L1223.15 175.344C1223.05 175.544 1222.75 175.743 1222.45 175.743Z" fill="#D1D3D4"/>
<path d="M1215.88 171.56C1215.78 171.56 1215.68 171.56 1215.68 171.56C1215.28 171.46 1215.08 171.062 1215.28 170.663L1220.86 154.428C1220.96 154.03 1221.36 153.831 1221.66 153.93C1222.05 154.03 1222.25 154.428 1222.15 154.727V154.827L1216.58 171.062C1216.48 171.46 1216.18 171.56 1215.88 171.56Z" fill="#D1D3D4"/>
<path d="M1207.71 169.468C1207.61 169.468 1207.51 169.468 1207.41 169.368C1207.01 169.269 1206.91 168.771 1207.01 168.472C1213.49 153.034 1213.89 153.034 1214.38 152.934C1214.78 152.934 1215.08 153.134 1215.18 153.532C1215.18 153.731 1215.08 154.03 1214.88 154.229C1214.19 155.225 1210.5 163.791 1208.31 169.07C1208.21 169.269 1208.01 169.468 1207.71 169.468Z" fill="#D1D3D4"/>
<path d="M998.651 383.508L1031.82 352.334L942.576 345.162L910.306 373.648L998.651 383.508Z" fill="#231F20"/>
<path d="M998.651 384.106L910.306 374.246C910.007 374.246 909.808 374.046 909.708 373.748C909.608 373.449 909.708 373.15 909.907 373.05L942.078 344.565C942.178 344.465 942.377 344.366 942.576 344.366L1031.92 351.537C1032.32 351.537 1032.61 351.935 1032.51 352.234C1032.51 352.433 1032.42 352.533 1032.32 352.732L999.149 383.807C998.95 384.106 998.75 384.206 998.651 384.106ZM911.999 373.15L998.352 382.712L1030.22 352.931L942.775 345.86L911.999 373.15Z" fill="#231F20"/>
<path d="M998.651 383.508L982.018 313.689L895.366 306.816L910.306 373.648L998.651 383.508Z" fill="white"/>
<path d="M998.651 384.106L910.306 374.345C910.007 374.345 909.808 374.046 909.708 373.847L894.668 307.115C894.668 306.916 894.668 306.717 894.868 306.518C894.967 306.318 895.266 306.219 895.465 306.318L982.117 313.091C982.416 313.091 982.715 313.29 982.715 313.589L999.348 383.409C999.448 383.608 999.348 383.907 999.248 384.006C999.049 384.106 998.85 384.206 998.651 384.106ZM911.003 373.05L997.754 382.612L981.42 314.286L896.262 307.613L911.003 373.05Z" fill="#231F20"/>
<path d="M948.95 355.82C946.062 355.72 943.174 354.624 940.982 352.732C938.99 351.039 936.002 345.959 935.803 345.76C935.604 345.461 935.704 345.162 935.903 344.963L937.795 342.872C937.895 342.672 938.094 342.672 938.393 342.672C938.592 342.672 938.791 342.772 938.891 342.971C940.982 345.66 944.668 346.656 947.855 345.461C950.146 344.465 952.038 342.772 953.034 340.481C953.134 339.983 953.233 339.485 953.333 338.888C953.432 337.892 953.532 337.394 953.731 337.095C953.93 336.796 954.329 336.298 957.416 336.995C957.715 337.095 958.014 337.294 958.014 337.692L958.114 341.477C958.313 342.473 959.707 348.648 958.114 350.74C955.723 353.927 952.934 355.72 949.946 356.019C949.548 355.82 949.249 355.82 948.95 355.82ZM937.297 345.461C938.094 346.756 940.385 350.342 941.879 351.636C944.07 353.529 946.859 354.525 949.747 354.326C952.436 354.027 954.827 352.433 957.018 349.644C957.914 348.35 957.416 343.967 956.819 341.477V341.378L956.719 338.19C956.122 338.091 955.524 337.991 954.926 338.091C954.926 338.29 954.827 338.788 954.827 339.087C954.827 339.784 954.628 340.481 954.428 341.079C953.233 343.668 951.042 345.66 948.452 346.756C944.966 348.15 940.982 347.254 938.293 344.465L937.297 345.461Z" fill="#D1D3D4"/>
<line x1="960.445" y1="440.038" x2="1282.25" y2="440.038" stroke="black"/>
<line x1="887.644" y1="453.259" x2="1282.25" y2="453.259" stroke="black"/>
</g>
<defs>
<filter id="filter0_d_1_138" x="232.659" y="180.273" width="327.159" height="146.818" filterUnits="userSpaceOnUse" color-interpolation-filters="sRGB">
<feFlood flood-opacity="0" result="BackgroundImageFix"/>
<feColorMatrix in="SourceAlpha" type="matrix" values="0 0 0 0 0 0 0 0 0 0 0 0 0 0 0 0 0 0 127 0" result="hardAlpha"/>
<feOffset dy="4"/>
<feGaussianBlur stdDeviation="2"/>
<feComposite in2="hardAlpha" operator="out"/>
<feColorMatrix type="matrix" values="0 0 0 0 0 0 0 0 0 0 0 0 0 0 0 0 0 0 0.25 0"/>
<feBlend mode="normal" in2="BackgroundImageFix" result="effect1_dropShadow_1_138"/>
<feBlend mode="normal" in="SourceGraphic" in2="effect1_dropShadow_1_138" result="shape"/>
</filter>
<linearGradient id="paint0_linear_1_138" x1="1500.5" y1="179" x2="1065" y2="179" gradientUnits="userSpaceOnUse">
<stop stop-color="#A9AFF3" stop-opacity="0.83"/>
<stop offset="1" stop-color="#63777C" stop-opacity="0"/>
</linearGradient>
<clipPath id="clip0_1_138">
<rect width="1500" height="670" fill="white"/>
</clipPath>
</defs>
</svg>
