<svg width="1500" height="670" viewBox="0 0 1500 670" fill="none" xmlns="http://www.w3.org/2000/svg">
<g clip-path="url(#clip0_1_380)">
<rect width="1500" height="670" fill="#DADCF0"/>
<rect x="1065" width="539" height="670" fill="url(#paint0_linear_1_380)"/>
<rect x="166" y="717.833" width="1411.97" height="277.221" transform="rotate(-15.7318 166 717.833)" fill="#B1B8DF"/>
<g opacity="0.9" filter="url(#filter0_d_1_380)">
<path d="M166.886 253.25C166.674 251.265 165.78 249.72 164.205 248.614C162.644 247.508 160.614 246.955 158.114 246.955C156.356 246.955 154.848 247.22 153.591 247.75C152.333 248.28 151.371 249 150.705 249.909C150.038 250.818 149.697 251.856 149.682 253.023C149.682 253.992 149.902 254.833 150.341 255.545C150.795 256.258 151.409 256.864 152.182 257.364C152.955 257.848 153.811 258.258 154.75 258.591C155.689 258.924 156.636 259.205 157.591 259.432L161.955 260.523C163.712 260.932 165.402 261.485 167.023 262.182C168.659 262.879 170.121 263.758 171.409 264.818C172.712 265.879 173.742 267.159 174.5 268.659C175.258 270.159 175.636 271.917 175.636 273.932C175.636 276.659 174.939 279.061 173.545 281.136C172.152 283.197 170.136 284.811 167.5 285.977C164.879 287.129 161.705 287.705 157.977 287.705C154.356 287.705 151.212 287.144 148.545 286.023C145.894 284.902 143.818 283.265 142.318 281.114C140.833 278.962 140.03 276.341 139.909 273.25H148.205C148.326 274.871 148.826 276.22 149.705 277.295C150.583 278.371 151.727 279.174 153.136 279.705C154.561 280.235 156.152 280.5 157.909 280.5C159.742 280.5 161.348 280.227 162.727 279.682C164.121 279.121 165.212 278.348 166 277.364C166.788 276.364 167.189 275.197 167.205 273.864C167.189 272.652 166.833 271.652 166.136 270.864C165.439 270.061 164.462 269.394 163.205 268.864C161.962 268.318 160.508 267.833 158.841 267.409L153.545 266.045C149.712 265.061 146.682 263.568 144.455 261.568C142.242 259.553 141.136 256.879 141.136 253.545C141.136 250.803 141.879 248.402 143.364 246.341C144.864 244.28 146.902 242.682 149.477 241.545C152.053 240.394 154.97 239.818 158.227 239.818C161.53 239.818 164.424 240.394 166.909 241.545C169.409 242.682 171.371 244.265 172.795 246.295C174.22 248.311 174.955 250.629 175 253.25H166.886ZM182.79 287V252.091H191.017V287H182.79ZM186.926 247.136C185.623 247.136 184.502 246.705 183.562 245.841C182.623 244.962 182.153 243.909 182.153 242.682C182.153 241.439 182.623 240.386 183.562 239.523C184.502 238.644 185.623 238.205 186.926 238.205C188.244 238.205 189.366 238.644 190.29 239.523C191.229 240.386 191.699 241.439 191.699 242.682C191.699 243.909 191.229 244.962 190.29 245.841C189.366 246.705 188.244 247.136 186.926 247.136ZM199.477 287V252.091H207.341V258.023H207.75C208.477 256.023 209.682 254.462 211.364 253.341C213.045 252.205 215.053 251.636 217.386 251.636C219.75 251.636 221.742 252.212 223.364 253.364C225 254.5 226.152 256.053 226.818 258.023H227.182C227.955 256.083 229.258 254.538 231.091 253.386C232.939 252.22 235.129 251.636 237.659 251.636C240.871 251.636 243.492 252.652 245.523 254.682C247.553 256.712 248.568 259.674 248.568 263.568V287H240.318V264.841C240.318 262.674 239.742 261.091 238.591 260.091C237.439 259.076 236.03 258.568 234.364 258.568C232.379 258.568 230.826 259.189 229.705 260.432C228.598 261.659 228.045 263.258 228.045 265.227V287H219.977V264.5C219.977 262.697 219.432 261.258 218.341 260.182C217.265 259.106 215.856 258.568 214.114 258.568C212.932 258.568 211.856 258.871 210.886 259.477C209.917 260.068 209.144 260.909 208.568 262C207.992 263.076 207.705 264.333 207.705 265.773V287H199.477ZM256.915 300.091V252.091H265.006V257.864H265.483C265.907 257.015 266.506 256.114 267.278 255.159C268.051 254.189 269.097 253.364 270.415 252.682C271.733 251.985 273.415 251.636 275.46 251.636C278.157 251.636 280.589 252.326 282.756 253.705C284.938 255.068 286.665 257.091 287.938 259.773C289.225 262.439 289.869 265.712 289.869 269.591C289.869 273.424 289.241 276.682 287.983 279.364C286.725 282.045 285.013 284.091 282.847 285.5C280.68 286.909 278.225 287.614 275.483 287.614C273.483 287.614 271.824 287.28 270.506 286.614C269.188 285.947 268.127 285.144 267.324 284.205C266.536 283.25 265.922 282.348 265.483 281.5H265.142V300.091H256.915ZM264.983 269.545C264.983 271.803 265.301 273.78 265.938 275.477C266.589 277.174 267.521 278.5 268.733 279.455C269.96 280.394 271.445 280.864 273.188 280.864C275.006 280.864 276.528 280.379 277.756 279.409C278.983 278.424 279.907 277.083 280.528 275.386C281.165 273.674 281.483 271.727 281.483 269.545C281.483 267.379 281.172 265.455 280.551 263.773C279.93 262.091 279.006 260.773 277.778 259.818C276.551 258.864 275.021 258.386 273.188 258.386C271.43 258.386 269.938 258.848 268.71 259.773C267.483 260.697 266.551 261.992 265.915 263.659C265.294 265.326 264.983 267.288 264.983 269.545ZM305.142 240.455V287H296.915V240.455H305.142ZM329.057 287.682C325.557 287.682 322.534 286.955 319.989 285.5C317.458 284.03 315.511 281.955 314.148 279.273C312.784 276.576 312.102 273.402 312.102 269.75C312.102 266.159 312.784 263.008 314.148 260.295C315.527 257.568 317.451 255.447 319.92 253.932C322.39 252.402 325.292 251.636 328.625 251.636C330.777 251.636 332.807 251.985 334.716 252.682C336.64 253.364 338.337 254.424 339.807 255.864C341.292 257.303 342.458 259.136 343.307 261.364C344.155 263.576 344.58 266.212 344.58 269.273V271.795H315.966V266.25H336.693C336.678 264.674 336.337 263.273 335.67 262.045C335.004 260.803 334.072 259.826 332.875 259.114C331.693 258.402 330.314 258.045 328.739 258.045C327.057 258.045 325.58 258.455 324.307 259.273C323.034 260.076 322.042 261.136 321.33 262.455C320.633 263.758 320.277 265.189 320.261 266.75V271.591C320.261 273.621 320.633 275.364 321.375 276.818C322.117 278.258 323.155 279.364 324.489 280.136C325.822 280.894 327.383 281.273 329.17 281.273C330.367 281.273 331.451 281.106 332.42 280.773C333.39 280.424 334.231 279.917 334.943 279.25C335.655 278.583 336.193 277.758 336.557 276.773L344.239 277.636C343.754 279.667 342.83 281.439 341.466 282.955C340.117 284.455 338.39 285.621 336.284 286.455C334.178 287.273 331.769 287.682 329.057 287.682ZM365.733 247.523V240.455H402.869V247.523H388.483V287H380.119V247.523H365.733ZM414.96 287.705C412.748 287.705 410.756 287.311 408.983 286.523C407.225 285.72 405.831 284.538 404.801 282.977C403.786 281.417 403.278 279.492 403.278 277.205C403.278 275.235 403.642 273.606 404.369 272.318C405.097 271.03 406.089 270 407.347 269.227C408.604 268.455 410.021 267.871 411.597 267.477C413.188 267.068 414.831 266.773 416.528 266.591C418.574 266.379 420.233 266.189 421.506 266.023C422.778 265.841 423.703 265.568 424.278 265.205C424.869 264.826 425.165 264.242 425.165 263.455V263.318C425.165 261.606 424.657 260.28 423.642 259.341C422.627 258.402 421.165 257.932 419.256 257.932C417.241 257.932 415.642 258.371 414.46 259.25C413.294 260.129 412.506 261.167 412.097 262.364L404.415 261.273C405.021 259.152 406.021 257.379 407.415 255.955C408.809 254.515 410.513 253.439 412.528 252.727C414.544 252 416.771 251.636 419.21 251.636C420.892 251.636 422.566 251.833 424.233 252.227C425.9 252.621 427.422 253.273 428.801 254.182C430.18 255.076 431.286 256.295 432.119 257.841C432.968 259.386 433.392 261.318 433.392 263.636V287H425.483V282.205H425.21C424.71 283.174 424.006 284.083 423.097 284.932C422.203 285.765 421.074 286.439 419.71 286.955C418.362 287.455 416.778 287.705 414.96 287.705ZM417.097 281.659C418.748 281.659 420.18 281.333 421.392 280.682C422.604 280.015 423.536 279.136 424.188 278.045C424.854 276.955 425.188 275.765 425.188 274.477V270.364C424.93 270.576 424.491 270.773 423.869 270.955C423.263 271.136 422.581 271.295 421.824 271.432C421.066 271.568 420.316 271.689 419.574 271.795C418.831 271.902 418.188 271.992 417.642 272.068C416.415 272.235 415.316 272.508 414.347 272.886C413.377 273.265 412.612 273.795 412.051 274.477C411.491 275.144 411.21 276.008 411.21 277.068C411.21 278.583 411.763 279.727 412.869 280.5C413.975 281.273 415.384 281.659 417.097 281.659ZM469.256 261.318L461.756 262.136C461.544 261.379 461.172 260.667 460.642 260C460.127 259.333 459.43 258.795 458.551 258.386C457.672 257.977 456.597 257.773 455.324 257.773C453.612 257.773 452.172 258.144 451.006 258.886C449.854 259.629 449.286 260.591 449.301 261.773C449.286 262.788 449.657 263.614 450.415 264.25C451.188 264.886 452.46 265.409 454.233 265.818L460.188 267.091C463.491 267.803 465.945 268.932 467.551 270.477C469.172 272.023 469.991 274.045 470.006 276.545C469.991 278.742 469.347 280.682 468.074 282.364C466.816 284.03 465.066 285.333 462.824 286.273C460.581 287.212 458.006 287.682 455.097 287.682C450.824 287.682 447.384 286.788 444.778 285C442.172 283.197 440.619 280.689 440.119 277.477L448.142 276.705C448.506 278.28 449.278 279.47 450.46 280.273C451.642 281.076 453.18 281.477 455.074 281.477C457.028 281.477 458.597 281.076 459.778 280.273C460.975 279.47 461.574 278.477 461.574 277.295C461.574 276.295 461.188 275.47 460.415 274.818C459.657 274.167 458.475 273.667 456.869 273.318L450.915 272.068C447.566 271.371 445.089 270.197 443.483 268.545C441.877 266.879 441.081 264.773 441.097 262.227C441.081 260.076 441.665 258.212 442.847 256.636C444.044 255.045 445.703 253.818 447.824 252.955C449.96 252.076 452.422 251.636 455.21 251.636C459.301 251.636 462.521 252.508 464.869 254.25C467.233 255.992 468.695 258.348 469.256 261.318ZM484.29 276.045L484.267 266.114H485.585L498.131 252.091H507.744L492.312 269.273H490.608L484.29 276.045ZM476.79 287V240.455H485.017V287H476.79ZM498.699 287L487.335 271.114L492.881 265.318L508.54 287H498.699ZM540.818 261.318L533.318 262.136C533.106 261.379 532.735 260.667 532.205 260C531.689 259.333 530.992 258.795 530.114 258.386C529.235 257.977 528.159 257.773 526.886 257.773C525.174 257.773 523.735 258.144 522.568 258.886C521.417 259.629 520.848 260.591 520.864 261.773C520.848 262.788 521.22 263.614 521.977 264.25C522.75 264.886 524.023 265.409 525.795 265.818L531.75 267.091C535.053 267.803 537.508 268.932 539.114 270.477C540.735 272.023 541.553 274.045 541.568 276.545C541.553 278.742 540.909 280.682 539.636 282.364C538.379 284.03 536.629 285.333 534.386 286.273C532.144 287.212 529.568 287.682 526.659 287.682C522.386 287.682 518.947 286.788 516.341 285C513.735 283.197 512.182 280.689 511.682 277.477L519.705 276.705C520.068 278.28 520.841 279.47 522.023 280.273C523.205 281.076 524.742 281.477 526.636 281.477C528.591 281.477 530.159 281.076 531.341 280.273C532.538 279.47 533.136 278.477 533.136 277.295C533.136 276.295 532.75 275.47 531.977 274.818C531.22 274.167 530.038 273.667 528.432 273.318L522.477 272.068C519.129 271.371 516.652 270.197 515.045 268.545C513.439 266.879 512.644 264.773 512.659 262.227C512.644 260.076 513.227 258.212 514.409 256.636C515.606 255.045 517.265 253.818 519.386 252.955C521.523 252.076 523.985 251.636 526.773 251.636C530.864 251.636 534.083 252.508 536.432 254.25C538.795 255.992 540.258 258.348 540.818 261.318ZM558.011 280.636L557.716 283.136C557.504 285.045 557.125 286.985 556.58 288.955C556.049 290.939 555.489 292.765 554.898 294.432C554.307 296.098 553.83 297.409 553.466 298.364H547.92C548.133 297.439 548.42 296.182 548.784 294.591C549.163 293 549.527 291.212 549.875 289.227C550.223 287.242 550.458 285.227 550.58 283.182L550.739 280.636H558.011ZM141.591 364V317.455H159.045C162.621 317.455 165.621 318.076 168.045 319.318C170.485 320.561 172.326 322.303 173.568 324.545C174.826 326.773 175.455 329.371 175.455 332.341C175.455 335.326 174.818 337.917 173.545 340.114C172.288 342.295 170.432 343.985 167.977 345.182C165.523 346.364 162.508 346.955 158.932 346.955H146.5V339.955H157.795C159.886 339.955 161.598 339.667 162.932 339.091C164.265 338.5 165.25 337.644 165.886 336.523C166.538 335.386 166.864 333.992 166.864 332.341C166.864 330.689 166.538 329.28 165.886 328.114C165.235 326.932 164.242 326.038 162.909 325.432C161.576 324.811 159.856 324.5 157.75 324.5H150.023V364H141.591ZM165.636 342.909L177.159 364H167.75L156.432 342.909H165.636ZM197.807 364.682C194.307 364.682 191.284 363.955 188.739 362.5C186.208 361.03 184.261 358.955 182.898 356.273C181.534 353.576 180.852 350.402 180.852 346.75C180.852 343.159 181.534 340.008 182.898 337.295C184.277 334.568 186.201 332.447 188.67 330.932C191.14 329.402 194.042 328.636 197.375 328.636C199.527 328.636 201.557 328.985 203.466 329.682C205.39 330.364 207.087 331.424 208.557 332.864C210.042 334.303 211.208 336.136 212.057 338.364C212.905 340.576 213.33 343.212 213.33 346.273V348.795H184.716V343.25H205.443C205.428 341.674 205.087 340.273 204.42 339.045C203.754 337.803 202.822 336.826 201.625 336.114C200.443 335.402 199.064 335.045 197.489 335.045C195.807 335.045 194.33 335.455 193.057 336.273C191.784 337.076 190.792 338.136 190.08 339.455C189.383 340.758 189.027 342.189 189.011 343.75V348.591C189.011 350.621 189.383 352.364 190.125 353.818C190.867 355.258 191.905 356.364 193.239 357.136C194.572 357.894 196.133 358.273 197.92 358.273C199.117 358.273 200.201 358.106 201.17 357.773C202.14 357.424 202.981 356.917 203.693 356.25C204.405 355.583 204.943 354.758 205.307 353.773L212.989 354.636C212.504 356.667 211.58 358.439 210.216 359.955C208.867 361.455 207.14 362.621 205.034 363.455C202.928 364.273 200.519 364.682 197.807 364.682ZM230.335 364.705C228.123 364.705 226.131 364.311 224.358 363.523C222.6 362.72 221.206 361.538 220.176 359.977C219.161 358.417 218.653 356.492 218.653 354.205C218.653 352.235 219.017 350.606 219.744 349.318C220.472 348.03 221.464 347 222.722 346.227C223.979 345.455 225.396 344.871 226.972 344.477C228.563 344.068 230.206 343.773 231.903 343.591C233.949 343.379 235.608 343.189 236.881 343.023C238.153 342.841 239.078 342.568 239.653 342.205C240.244 341.826 240.54 341.242 240.54 340.455V340.318C240.54 338.606 240.032 337.28 239.017 336.341C238.002 335.402 236.54 334.932 234.631 334.932C232.616 334.932 231.017 335.371 229.835 336.25C228.669 337.129 227.881 338.167 227.472 339.364L219.79 338.273C220.396 336.152 221.396 334.379 222.79 332.955C224.184 331.515 225.888 330.439 227.903 329.727C229.919 329 232.146 328.636 234.585 328.636C236.267 328.636 237.941 328.833 239.608 329.227C241.275 329.621 242.797 330.273 244.176 331.182C245.555 332.076 246.661 333.295 247.494 334.841C248.343 336.386 248.767 338.318 248.767 340.636V364H240.858V359.205H240.585C240.085 360.174 239.381 361.083 238.472 361.932C237.578 362.765 236.449 363.439 235.085 363.955C233.737 364.455 232.153 364.705 230.335 364.705ZM232.472 358.659C234.123 358.659 235.555 358.333 236.767 357.682C237.979 357.015 238.911 356.136 239.562 355.045C240.229 353.955 240.562 352.765 240.562 351.477V347.364C240.305 347.576 239.866 347.773 239.244 347.955C238.638 348.136 237.956 348.295 237.199 348.432C236.441 348.568 235.691 348.689 234.949 348.795C234.206 348.902 233.563 348.992 233.017 349.068C231.79 349.235 230.691 349.508 229.722 349.886C228.752 350.265 227.987 350.795 227.426 351.477C226.866 352.144 226.585 353.008 226.585 354.068C226.585 355.583 227.138 356.727 228.244 357.5C229.35 358.273 230.759 358.659 232.472 358.659ZM265.267 317.455V364H257.04V317.455H265.267ZM289.966 317.455H300.284L314.102 351.182H314.648L328.466 317.455H338.784V364H330.693V332.023H330.261L317.398 363.864H311.352L298.489 331.955H298.057V364H289.966V317.455ZM362.83 364.682C359.42 364.682 356.466 363.932 353.966 362.432C351.466 360.932 349.527 358.833 348.148 356.136C346.784 353.439 346.102 350.288 346.102 346.682C346.102 343.076 346.784 339.917 348.148 337.205C349.527 334.492 351.466 332.386 353.966 330.886C356.466 329.386 359.42 328.636 362.83 328.636C366.239 328.636 369.193 329.386 371.693 330.886C374.193 332.386 376.125 334.492 377.489 337.205C378.867 339.917 379.557 343.076 379.557 346.682C379.557 350.288 378.867 353.439 377.489 356.136C376.125 358.833 374.193 360.932 371.693 362.432C369.193 363.932 366.239 364.682 362.83 364.682ZM362.875 358.091C364.723 358.091 366.269 357.583 367.511 356.568C368.754 355.538 369.678 354.159 370.284 352.432C370.905 350.705 371.216 348.78 371.216 346.659C371.216 344.523 370.905 342.591 370.284 340.864C369.678 339.121 368.754 337.735 367.511 336.705C366.269 335.674 364.723 335.159 362.875 335.159C360.981 335.159 359.405 335.674 358.148 336.705C356.905 337.735 355.973 339.121 355.352 340.864C354.746 342.591 354.443 344.523 354.443 346.659C354.443 348.78 354.746 350.705 355.352 352.432C355.973 354.159 356.905 355.538 358.148 356.568C359.405 357.583 360.981 358.091 362.875 358.091ZM394.767 343.545V364H386.54V329.091H394.403V335.023H394.812C395.616 333.068 396.896 331.515 398.653 330.364C400.426 329.212 402.616 328.636 405.222 328.636C407.631 328.636 409.729 329.152 411.517 330.182C413.32 331.212 414.714 332.705 415.699 334.659C416.699 336.614 417.191 338.985 417.176 341.773V364H408.949V343.045C408.949 340.712 408.343 338.886 407.131 337.568C405.934 336.25 404.275 335.591 402.153 335.591C400.714 335.591 399.434 335.909 398.312 336.545C397.206 337.167 396.335 338.068 395.699 339.25C395.078 340.432 394.767 341.864 394.767 343.545ZM440.994 364.682C437.494 364.682 434.472 363.955 431.926 362.5C429.396 361.03 427.449 358.955 426.085 356.273C424.722 353.576 424.04 350.402 424.04 346.75C424.04 343.159 424.722 340.008 426.085 337.295C427.464 334.568 429.388 332.447 431.858 330.932C434.328 329.402 437.229 328.636 440.562 328.636C442.714 328.636 444.744 328.985 446.653 329.682C448.578 330.364 450.275 331.424 451.744 332.864C453.229 334.303 454.396 336.136 455.244 338.364C456.093 340.576 456.517 343.212 456.517 346.273V348.795H427.903V343.25H448.631C448.616 341.674 448.275 340.273 447.608 339.045C446.941 337.803 446.009 336.826 444.812 336.114C443.631 335.402 442.252 335.045 440.676 335.045C438.994 335.045 437.517 335.455 436.244 336.273C434.972 337.076 433.979 338.136 433.267 339.455C432.57 340.758 432.214 342.189 432.199 343.75V348.591C432.199 350.621 432.57 352.364 433.312 353.818C434.055 355.258 435.093 356.364 436.426 357.136C437.759 357.894 439.32 358.273 441.108 358.273C442.305 358.273 443.388 358.106 444.358 357.773C445.328 357.424 446.169 356.917 446.881 356.25C447.593 355.583 448.131 354.758 448.494 353.773L456.176 354.636C455.691 356.667 454.767 358.439 453.403 359.955C452.055 361.455 450.328 362.621 448.222 363.455C446.116 364.273 443.706 364.682 440.994 364.682ZM467.591 377.091C466.47 377.091 465.432 377 464.477 376.818C463.538 376.652 462.788 376.455 462.227 376.227L464.136 369.818C465.333 370.167 466.402 370.333 467.341 370.318C468.28 370.303 469.106 370.008 469.818 369.432C470.545 368.871 471.159 367.932 471.659 366.614L472.364 364.727L459.705 329.091H468.432L476.477 355.455H476.841L484.909 329.091H493.659L479.682 368.227C479.03 370.076 478.167 371.659 477.091 372.977C476.015 374.311 474.697 375.326 473.136 376.023C471.591 376.735 469.742 377.091 467.591 377.091Z" fill="#131C83" fill-opacity="0.83" shape-rendering="crispEdges"/>
</g>
<path opacity="0.7" d="M153.065 394.545V412H150.253L142.028 400.111H141.884V412H138.722V394.545H141.551L149.767 406.443H149.92V394.545H153.065ZM162.085 412.256C160.806 412.256 159.698 411.974 158.761 411.412C157.823 410.849 157.096 410.062 156.579 409.051C156.067 408.04 155.812 406.858 155.812 405.506C155.812 404.153 156.067 402.969 156.579 401.952C157.096 400.935 157.823 400.145 158.761 399.582C159.698 399.02 160.806 398.739 162.085 398.739C163.363 398.739 164.471 399.02 165.408 399.582C166.346 400.145 167.07 400.935 167.582 401.952C168.099 402.969 168.357 404.153 168.357 405.506C168.357 406.858 168.099 408.04 167.582 409.051C167.07 410.062 166.346 410.849 165.408 411.412C164.471 411.974 163.363 412.256 162.085 412.256ZM162.102 409.784C162.795 409.784 163.374 409.594 163.84 409.213C164.306 408.827 164.653 408.31 164.88 407.662C165.113 407.014 165.229 406.293 165.229 405.497C165.229 404.696 165.113 403.972 164.88 403.324C164.653 402.67 164.306 402.151 163.84 401.764C163.374 401.378 162.795 401.185 162.102 401.185C161.391 401.185 160.8 401.378 160.329 401.764C159.863 402.151 159.513 402.67 159.281 403.324C159.053 403.972 158.94 404.696 158.94 405.497C158.94 406.293 159.053 407.014 159.281 407.662C159.513 408.31 159.863 408.827 160.329 409.213C160.8 409.594 161.391 409.784 162.102 409.784ZM182.724 412.256C181.412 412.256 180.278 411.983 179.324 411.438C178.375 410.886 177.645 410.108 177.134 409.102C176.622 408.091 176.366 406.901 176.366 405.531C176.366 404.185 176.622 403.003 177.134 401.986C177.651 400.963 178.372 400.168 179.298 399.599C180.224 399.026 181.312 398.739 182.562 398.739C183.369 398.739 184.131 398.869 184.847 399.131C185.568 399.386 186.205 399.784 186.756 400.324C187.313 400.864 187.75 401.551 188.068 402.386C188.386 403.216 188.545 404.205 188.545 405.352V406.298H177.815V404.219H185.588C185.582 403.628 185.455 403.102 185.205 402.642C184.955 402.176 184.605 401.81 184.156 401.543C183.713 401.276 183.196 401.142 182.605 401.142C181.974 401.142 181.42 401.295 180.943 401.602C180.466 401.903 180.094 402.301 179.827 402.795C179.565 403.284 179.432 403.821 179.426 404.406V406.222C179.426 406.983 179.565 407.636 179.844 408.182C180.122 408.722 180.511 409.136 181.011 409.426C181.511 409.71 182.097 409.852 182.767 409.852C183.216 409.852 183.622 409.79 183.986 409.665C184.349 409.534 184.665 409.344 184.932 409.094C185.199 408.844 185.401 408.534 185.537 408.165L188.418 408.489C188.236 409.25 187.889 409.915 187.378 410.483C186.872 411.045 186.224 411.483 185.435 411.795C184.645 412.102 183.741 412.256 182.724 412.256ZM193.397 398.909L196.039 403.741L198.724 398.909H201.988L198.042 405.455L202.056 412H198.809L196.039 407.287L193.295 412H190.022L194.011 405.455L190.124 398.909H193.397ZM204.374 416.909V398.909H207.408V401.074H207.587C207.746 400.756 207.971 400.418 208.261 400.06C208.55 399.696 208.942 399.386 209.437 399.131C209.931 398.869 210.562 398.739 211.329 398.739C212.34 398.739 213.252 398.997 214.065 399.514C214.883 400.026 215.531 400.784 216.008 401.79C216.491 402.79 216.732 404.017 216.732 405.472C216.732 406.909 216.496 408.131 216.025 409.136C215.553 410.142 214.911 410.909 214.099 411.438C213.286 411.966 212.366 412.23 211.337 412.23C210.587 412.23 209.965 412.105 209.471 411.855C208.977 411.605 208.579 411.304 208.278 410.952C207.982 410.594 207.752 410.256 207.587 409.938H207.46V416.909H204.374ZM207.4 405.455C207.4 406.301 207.519 407.043 207.758 407.679C208.002 408.315 208.352 408.812 208.806 409.17C209.266 409.523 209.823 409.699 210.477 409.699C211.158 409.699 211.729 409.517 212.19 409.153C212.65 408.784 212.996 408.281 213.229 407.645C213.468 407.003 213.587 406.273 213.587 405.455C213.587 404.642 213.471 403.92 213.238 403.29C213.005 402.659 212.658 402.165 212.198 401.807C211.738 401.449 211.164 401.27 210.477 401.27C209.817 401.27 209.258 401.443 208.798 401.79C208.337 402.136 207.988 402.622 207.749 403.247C207.516 403.872 207.4 404.608 207.4 405.455ZM225.17 412.256C223.857 412.256 222.724 411.983 221.769 411.438C220.82 410.886 220.09 410.108 219.579 409.102C219.067 408.091 218.812 406.901 218.812 405.531C218.812 404.185 219.067 403.003 219.579 401.986C220.096 400.963 220.817 400.168 221.744 399.599C222.67 399.026 223.758 398.739 225.008 398.739C225.815 398.739 226.576 398.869 227.292 399.131C228.013 399.386 228.65 399.784 229.201 400.324C229.758 400.864 230.195 401.551 230.513 402.386C230.832 403.216 230.991 404.205 230.991 405.352V406.298H220.261V404.219H228.033C228.028 403.628 227.9 403.102 227.65 402.642C227.4 402.176 227.05 401.81 226.602 401.543C226.158 401.276 225.641 401.142 225.05 401.142C224.42 401.142 223.866 401.295 223.388 401.602C222.911 401.903 222.539 402.301 222.272 402.795C222.011 403.284 221.877 403.821 221.871 404.406V406.222C221.871 406.983 222.011 407.636 222.289 408.182C222.567 408.722 222.957 409.136 223.457 409.426C223.957 409.71 224.542 409.852 225.212 409.852C225.661 409.852 226.067 409.79 226.431 409.665C226.795 409.534 227.11 409.344 227.377 409.094C227.644 408.844 227.846 408.534 227.982 408.165L230.863 408.489C230.681 409.25 230.335 409.915 229.823 410.483C229.317 411.045 228.67 411.483 227.88 411.795C227.09 412.102 226.187 412.256 225.17 412.256ZM233.601 412V398.909H236.592V401.091H236.729C236.967 400.335 237.376 399.753 237.956 399.344C238.541 398.929 239.209 398.722 239.959 398.722C240.129 398.722 240.32 398.73 240.53 398.747C240.746 398.759 240.925 398.778 241.067 398.807V401.645C240.936 401.599 240.729 401.56 240.445 401.526C240.166 401.486 239.896 401.466 239.635 401.466C239.072 401.466 238.567 401.588 238.118 401.832C237.675 402.071 237.325 402.403 237.07 402.83C236.814 403.256 236.686 403.747 236.686 404.304V412H233.601ZM243.116 412V398.909H246.202V412H243.116ZM244.668 397.051C244.179 397.051 243.759 396.889 243.406 396.565C243.054 396.236 242.878 395.841 242.878 395.381C242.878 394.915 243.054 394.52 243.406 394.196C243.759 393.866 244.179 393.702 244.668 393.702C245.162 393.702 245.582 393.866 245.929 394.196C246.281 394.52 246.457 394.915 246.457 395.381C246.457 395.841 246.281 396.236 245.929 396.565C245.582 396.889 245.162 397.051 244.668 397.051ZM255.17 412.256C253.857 412.256 252.724 411.983 251.769 411.438C250.82 410.886 250.09 410.108 249.579 409.102C249.067 408.091 248.812 406.901 248.812 405.531C248.812 404.185 249.067 403.003 249.579 401.986C250.096 400.963 250.817 400.168 251.744 399.599C252.67 399.026 253.758 398.739 255.008 398.739C255.815 398.739 256.576 398.869 257.292 399.131C258.013 399.386 258.65 399.784 259.201 400.324C259.758 400.864 260.195 401.551 260.513 402.386C260.832 403.216 260.991 404.205 260.991 405.352V406.298H250.261V404.219H258.033C258.028 403.628 257.9 403.102 257.65 402.642C257.4 402.176 257.05 401.81 256.602 401.543C256.158 401.276 255.641 401.142 255.05 401.142C254.42 401.142 253.866 401.295 253.388 401.602C252.911 401.903 252.539 402.301 252.272 402.795C252.011 403.284 251.877 403.821 251.871 404.406V406.222C251.871 406.983 252.011 407.636 252.289 408.182C252.567 408.722 252.957 409.136 253.457 409.426C253.957 409.71 254.542 409.852 255.212 409.852C255.661 409.852 256.067 409.79 256.431 409.665C256.795 409.534 257.11 409.344 257.377 409.094C257.644 408.844 257.846 408.534 257.982 408.165L260.863 408.489C260.681 409.25 260.335 409.915 259.823 410.483C259.317 411.045 258.67 411.483 257.88 411.795C257.09 412.102 256.187 412.256 255.17 412.256ZM266.686 404.33V412H263.601V398.909H266.55V401.134H266.703C267.004 400.401 267.484 399.818 268.143 399.386C268.808 398.955 269.629 398.739 270.607 398.739C271.51 398.739 272.297 398.932 272.967 399.318C273.643 399.705 274.166 400.264 274.536 400.997C274.911 401.73 275.095 402.619 275.089 403.665V412H272.004V404.142C272.004 403.267 271.777 402.582 271.322 402.088C270.874 401.594 270.251 401.347 269.456 401.347C268.916 401.347 268.436 401.466 268.016 401.705C267.601 401.937 267.274 402.276 267.036 402.719C266.803 403.162 266.686 403.699 266.686 404.33ZM283.936 412.256C282.629 412.256 281.507 411.969 280.57 411.395C279.638 410.821 278.919 410.028 278.413 409.017C277.913 408 277.663 406.83 277.663 405.506C277.663 404.176 277.919 403.003 278.43 401.986C278.942 400.963 279.663 400.168 280.595 399.599C281.533 399.026 282.641 398.739 283.919 398.739C284.982 398.739 285.922 398.935 286.74 399.327C287.564 399.713 288.22 400.261 288.709 400.972C289.197 401.676 289.476 402.5 289.544 403.443H286.595C286.476 402.812 286.192 402.287 285.743 401.866C285.3 401.44 284.706 401.227 283.962 401.227C283.331 401.227 282.777 401.398 282.3 401.739C281.822 402.074 281.45 402.557 281.183 403.188C280.922 403.818 280.791 404.574 280.791 405.455C280.791 406.347 280.922 407.114 281.183 407.756C281.445 408.392 281.811 408.884 282.283 409.23C282.76 409.571 283.32 409.741 283.962 409.741C284.416 409.741 284.822 409.656 285.18 409.486C285.544 409.31 285.848 409.057 286.092 408.727C286.337 408.398 286.504 407.997 286.595 407.526H289.544C289.47 408.452 289.197 409.273 288.726 409.989C288.254 410.699 287.612 411.256 286.8 411.659C285.987 412.057 285.033 412.256 283.936 412.256ZM297.873 412.256C296.56 412.256 295.427 411.983 294.472 411.438C293.523 410.886 292.793 410.108 292.282 409.102C291.771 408.091 291.515 406.901 291.515 405.531C291.515 404.185 291.771 403.003 292.282 401.986C292.799 400.963 293.521 400.168 294.447 399.599C295.373 399.026 296.461 398.739 297.711 398.739C298.518 398.739 299.279 398.869 299.995 399.131C300.717 399.386 301.353 399.784 301.904 400.324C302.461 400.864 302.898 401.551 303.217 402.386C303.535 403.216 303.694 404.205 303.694 405.352V406.298H292.964V404.219H300.737C300.731 403.628 300.603 403.102 300.353 402.642C300.103 402.176 299.754 401.81 299.305 401.543C298.862 401.276 298.344 401.142 297.754 401.142C297.123 401.142 296.569 401.295 296.092 401.602C295.614 401.903 295.242 402.301 294.975 402.795C294.714 403.284 294.58 403.821 294.575 404.406V406.222C294.575 406.983 294.714 407.636 294.992 408.182C295.271 408.722 295.66 409.136 296.16 409.426C296.66 409.71 297.245 409.852 297.915 409.852C298.364 409.852 298.771 409.79 299.134 409.665C299.498 409.534 299.813 409.344 300.08 409.094C300.347 408.844 300.549 408.534 300.685 408.165L303.566 408.489C303.384 409.25 303.038 409.915 302.526 410.483C302.021 411.045 301.373 411.483 300.583 411.795C299.793 412.102 298.89 412.256 297.873 412.256ZM315.342 404.33V412H312.257V398.909H315.206V401.134H315.359C315.661 400.401 316.141 399.818 316.8 399.386C317.464 398.955 318.286 398.739 319.263 398.739C320.166 398.739 320.953 398.932 321.624 399.318C322.3 399.705 322.822 400.264 323.192 400.997C323.567 401.73 323.751 402.619 323.746 403.665V412H320.661V404.142C320.661 403.267 320.433 402.582 319.979 402.088C319.53 401.594 318.908 401.347 318.112 401.347C317.572 401.347 317.092 401.466 316.672 401.705C316.257 401.937 315.93 402.276 315.692 402.719C315.459 403.162 315.342 403.699 315.342 404.33ZM332.678 412.256C331.365 412.256 330.232 411.983 329.277 411.438C328.328 410.886 327.598 410.108 327.087 409.102C326.575 408.091 326.32 406.901 326.32 405.531C326.32 404.185 326.575 403.003 327.087 401.986C327.604 400.963 328.325 400.168 329.251 399.599C330.178 399.026 331.266 398.739 332.516 398.739C333.322 398.739 334.084 398.869 334.8 399.131C335.521 399.386 336.158 399.784 336.709 400.324C337.266 400.864 337.703 401.551 338.021 402.386C338.339 403.216 338.499 404.205 338.499 405.352V406.298H327.768V404.219H335.541C335.536 403.628 335.408 403.102 335.158 402.642C334.908 402.176 334.558 401.81 334.109 401.543C333.666 401.276 333.149 401.142 332.558 401.142C331.928 401.142 331.374 401.295 330.896 401.602C330.419 401.903 330.047 402.301 329.78 402.795C329.518 403.284 329.385 403.821 329.379 404.406V406.222C329.379 406.983 329.518 407.636 329.797 408.182C330.075 408.722 330.464 409.136 330.964 409.426C331.464 409.71 332.05 409.852 332.72 409.852C333.169 409.852 333.575 409.79 333.939 409.665C334.303 409.534 334.618 409.344 334.885 409.094C335.152 408.844 335.354 408.534 335.49 408.165L338.371 408.489C338.189 409.25 337.842 409.915 337.331 410.483C336.825 411.045 336.178 411.483 335.388 411.795C334.598 412.102 333.695 412.256 332.678 412.256ZM346.904 412.256C345.592 412.256 344.458 411.983 343.504 411.438C342.555 410.886 341.825 410.108 341.313 409.102C340.802 408.091 340.546 406.901 340.546 405.531C340.546 404.185 340.802 403.003 341.313 401.986C341.83 400.963 342.552 400.168 343.478 399.599C344.404 399.026 345.492 398.739 346.742 398.739C347.549 398.739 348.31 398.869 349.026 399.131C349.748 399.386 350.384 399.784 350.935 400.324C351.492 400.864 351.93 401.551 352.248 402.386C352.566 403.216 352.725 404.205 352.725 405.352V406.298H341.995V404.219H349.768C349.762 403.628 349.634 403.102 349.384 402.642C349.134 402.176 348.785 401.81 348.336 401.543C347.893 401.276 347.376 401.142 346.785 401.142C346.154 401.142 345.6 401.295 345.123 401.602C344.646 401.903 344.273 402.301 344.006 402.795C343.745 403.284 343.612 403.821 343.606 404.406V406.222C343.606 406.983 343.745 407.636 344.023 408.182C344.302 408.722 344.691 409.136 345.191 409.426C345.691 409.71 346.276 409.852 346.947 409.852C347.396 409.852 347.802 409.79 348.165 409.665C348.529 409.534 348.844 409.344 349.112 409.094C349.379 408.844 349.58 408.534 349.717 408.165L352.597 408.489C352.415 409.25 352.069 409.915 351.558 410.483C351.052 411.045 350.404 411.483 349.614 411.795C348.825 412.102 347.921 412.256 346.904 412.256ZM360.193 412.23C359.165 412.23 358.244 411.966 357.432 411.438C356.619 410.909 355.977 410.142 355.506 409.136C355.034 408.131 354.798 406.909 354.798 405.472C354.798 404.017 355.037 402.79 355.514 401.79C355.997 400.784 356.648 400.026 357.466 399.514C358.284 398.997 359.196 398.739 360.202 398.739C360.969 398.739 361.599 398.869 362.094 399.131C362.588 399.386 362.98 399.696 363.27 400.06C363.56 400.418 363.784 400.756 363.943 401.074H364.071V394.545H367.165V412H364.131V409.938H363.943C363.784 410.256 363.554 410.594 363.253 410.952C362.952 411.304 362.554 411.605 362.06 411.855C361.565 412.105 360.943 412.23 360.193 412.23ZM361.054 409.699C361.707 409.699 362.264 409.523 362.724 409.17C363.185 408.812 363.534 408.315 363.773 407.679C364.011 407.043 364.131 406.301 364.131 405.455C364.131 404.608 364.011 403.872 363.773 403.247C363.54 402.622 363.193 402.136 362.733 401.79C362.278 401.443 361.719 401.27 361.054 401.27C360.366 401.27 359.793 401.449 359.332 401.807C358.872 402.165 358.526 402.659 358.293 403.29C358.06 403.92 357.943 404.642 357.943 405.455C357.943 406.273 358.06 407.003 358.293 407.645C358.531 408.281 358.881 408.784 359.341 409.153C359.807 409.517 360.378 409.699 361.054 409.699ZM376.248 412.256C374.935 412.256 373.802 411.983 372.847 411.438C371.898 410.886 371.168 410.108 370.657 409.102C370.146 408.091 369.89 406.901 369.89 405.531C369.89 404.185 370.146 403.003 370.657 401.986C371.174 400.963 371.896 400.168 372.822 399.599C373.748 399.026 374.836 398.739 376.086 398.739C376.893 398.739 377.654 398.869 378.37 399.131C379.092 399.386 379.728 399.784 380.279 400.324C380.836 400.864 381.273 401.551 381.592 402.386C381.91 403.216 382.069 404.205 382.069 405.352V406.298H371.339V404.219H379.112C379.106 403.628 378.978 403.102 378.728 402.642C378.478 402.176 378.129 401.81 377.68 401.543C377.237 401.276 376.719 401.142 376.129 401.142C375.498 401.142 374.944 401.295 374.467 401.602C373.989 401.903 373.617 402.301 373.35 402.795C373.089 403.284 372.955 403.821 372.95 404.406V406.222C372.95 406.983 373.089 407.636 373.367 408.182C373.646 408.722 374.035 409.136 374.535 409.426C375.035 409.71 375.62 409.852 376.29 409.852C376.739 409.852 377.146 409.79 377.509 409.665C377.873 409.534 378.188 409.344 378.455 409.094C378.722 408.844 378.924 408.534 379.06 408.165L381.941 408.489C381.759 409.25 381.413 409.915 380.901 410.483C380.396 411.045 379.748 411.483 378.958 411.795C378.168 412.102 377.265 412.256 376.248 412.256ZM389.537 412.23C388.509 412.23 387.588 411.966 386.776 411.438C385.963 410.909 385.321 410.142 384.849 409.136C384.378 408.131 384.142 406.909 384.142 405.472C384.142 404.017 384.381 402.79 384.858 401.79C385.341 400.784 385.991 400.026 386.81 399.514C387.628 398.997 388.54 398.739 389.545 398.739C390.313 398.739 390.943 398.869 391.438 399.131C391.932 399.386 392.324 399.696 392.614 400.06C392.903 400.418 393.128 400.756 393.287 401.074H393.415V394.545H396.509V412H393.474V409.938H393.287C393.128 410.256 392.898 410.594 392.597 410.952C392.295 411.304 391.898 411.605 391.403 411.855C390.909 412.105 390.287 412.23 389.537 412.23ZM390.398 409.699C391.051 409.699 391.608 409.523 392.068 409.17C392.528 408.812 392.878 408.315 393.116 407.679C393.355 407.043 393.474 406.301 393.474 405.455C393.474 404.608 393.355 403.872 393.116 403.247C392.884 402.622 392.537 402.136 392.077 401.79C391.622 401.443 391.063 401.27 390.398 401.27C389.71 401.27 389.136 401.449 388.676 401.807C388.216 402.165 387.869 402.659 387.636 403.29C387.403 403.92 387.287 404.642 387.287 405.455C387.287 406.273 387.403 407.003 387.636 407.645C387.875 408.281 388.224 408.784 388.685 409.153C389.151 409.517 389.722 409.699 390.398 409.699ZM401.697 412.188C401.18 412.188 400.737 412.006 400.367 411.642C399.998 411.278 399.816 410.835 399.822 410.312C399.816 409.801 399.998 409.364 400.367 409C400.737 408.636 401.18 408.455 401.697 408.455C402.197 408.455 402.631 408.636 403.001 409C403.376 409.364 403.566 409.801 403.572 410.312C403.566 410.659 403.475 410.974 403.299 411.259C403.129 411.543 402.901 411.77 402.617 411.94C402.339 412.105 402.032 412.188 401.697 412.188ZM419.194 394.545H422.33V406.818C422.325 407.943 422.086 408.912 421.614 409.724C421.143 410.531 420.484 411.153 419.637 411.591C418.796 412.023 417.816 412.239 416.697 412.239C415.674 412.239 414.754 412.057 413.935 411.693C413.123 411.324 412.478 410.778 412.001 410.057C411.523 409.335 411.285 408.437 411.285 407.364H414.43C414.435 407.835 414.538 408.241 414.737 408.582C414.941 408.923 415.222 409.185 415.58 409.366C415.938 409.548 416.35 409.639 416.816 409.639C417.322 409.639 417.751 409.534 418.103 409.324C418.455 409.108 418.722 408.79 418.904 408.369C419.092 407.949 419.188 407.432 419.194 406.818V394.545ZM433.968 406.494V398.909H437.053V412H434.062V409.673H433.925C433.63 410.406 433.144 411.006 432.468 411.472C431.798 411.937 430.971 412.17 429.988 412.17C429.13 412.17 428.371 411.98 427.712 411.599C427.059 411.213 426.548 410.653 426.178 409.92C425.809 409.182 425.624 408.29 425.624 407.244V398.909H428.71V406.767C428.71 407.597 428.937 408.256 429.391 408.744C429.846 409.233 430.442 409.477 431.181 409.477C431.636 409.477 432.076 409.366 432.502 409.145C432.928 408.923 433.278 408.594 433.55 408.156C433.829 407.713 433.968 407.159 433.968 406.494ZM450.572 402.369L447.76 402.676C447.68 402.392 447.541 402.125 447.342 401.875C447.149 401.625 446.888 401.423 446.558 401.27C446.229 401.116 445.825 401.04 445.348 401.04C444.706 401.04 444.166 401.179 443.729 401.457C443.297 401.736 443.084 402.097 443.089 402.54C443.084 402.92 443.223 403.23 443.507 403.469C443.797 403.707 444.274 403.903 444.939 404.057L447.172 404.534C448.411 404.801 449.331 405.224 449.933 405.804C450.541 406.384 450.848 407.142 450.854 408.08C450.848 408.903 450.607 409.631 450.129 410.261C449.658 410.886 449.001 411.375 448.161 411.727C447.32 412.08 446.354 412.256 445.263 412.256C443.661 412.256 442.371 411.92 441.393 411.25C440.416 410.574 439.834 409.634 439.646 408.429L442.655 408.139C442.791 408.73 443.081 409.176 443.524 409.477C443.967 409.778 444.544 409.929 445.254 409.929C445.987 409.929 446.575 409.778 447.018 409.477C447.467 409.176 447.692 408.804 447.692 408.361C447.692 407.986 447.547 407.676 447.257 407.432C446.973 407.187 446.53 407 445.928 406.869L443.695 406.401C442.439 406.139 441.51 405.699 440.908 405.08C440.305 404.455 440.007 403.665 440.013 402.71C440.007 401.903 440.226 401.205 440.669 400.614C441.118 400.017 441.74 399.557 442.536 399.233C443.337 398.903 444.26 398.739 445.305 398.739C446.839 398.739 448.047 399.065 448.928 399.719C449.814 400.372 450.362 401.256 450.572 402.369ZM459.935 398.909V401.295H452.409V398.909H459.935ZM454.267 395.773H457.352V408.062C457.352 408.477 457.415 408.795 457.54 409.017C457.67 409.233 457.841 409.381 458.051 409.46C458.261 409.54 458.494 409.58 458.75 409.58C458.943 409.58 459.119 409.565 459.278 409.537C459.443 409.509 459.568 409.483 459.653 409.46L460.173 411.872C460.009 411.929 459.773 411.991 459.466 412.06C459.165 412.128 458.795 412.168 458.358 412.179C457.585 412.202 456.889 412.085 456.27 411.83C455.651 411.568 455.159 411.165 454.795 410.619C454.438 410.074 454.261 409.392 454.267 408.574V395.773ZM478.815 402.369L476.002 402.676C475.923 402.392 475.783 402.125 475.585 401.875C475.391 401.625 475.13 401.423 474.8 401.27C474.471 401.116 474.067 401.04 473.59 401.04C472.948 401.04 472.408 401.179 471.971 401.457C471.539 401.736 471.326 402.097 471.332 402.54C471.326 402.92 471.465 403.23 471.749 403.469C472.039 403.707 472.516 403.903 473.181 404.057L475.414 404.534C476.653 404.801 477.573 405.224 478.175 405.804C478.783 406.384 479.09 407.142 479.096 408.08C479.09 408.903 478.849 409.631 478.371 410.261C477.9 410.886 477.244 411.375 476.403 411.727C475.562 412.08 474.596 412.256 473.505 412.256C471.903 412.256 470.613 411.92 469.636 411.25C468.658 410.574 468.076 409.634 467.888 408.429L470.897 408.139C471.033 408.73 471.323 409.176 471.766 409.477C472.21 409.778 472.786 409.929 473.496 409.929C474.229 409.929 474.817 409.778 475.261 409.477C475.71 409.176 475.934 408.804 475.934 408.361C475.934 407.986 475.789 407.676 475.499 407.432C475.215 407.187 474.772 407 474.17 406.869L471.937 406.401C470.681 406.139 469.752 405.699 469.15 405.08C468.548 404.455 468.249 403.665 468.255 402.71C468.249 401.903 468.468 401.205 468.911 400.614C469.36 400.017 469.982 399.557 470.778 399.233C471.579 398.903 472.502 398.739 473.548 398.739C475.082 398.739 476.289 399.065 477.17 399.719C478.056 400.372 478.604 401.256 478.815 402.369ZM481.64 412V398.909H484.725V412H481.64ZM483.191 397.051C482.702 397.051 482.282 396.889 481.93 396.565C481.577 396.236 481.401 395.841 481.401 395.381C481.401 394.915 481.577 394.52 481.93 394.196C482.282 393.866 482.702 393.702 483.191 393.702C483.685 393.702 484.106 393.866 484.452 394.196C484.805 394.52 484.981 394.915 484.981 395.381C484.981 395.841 484.805 396.236 484.452 396.565C484.106 396.889 483.685 397.051 483.191 397.051ZM493.591 417.182C492.483 417.182 491.531 417.031 490.736 416.73C489.94 416.435 489.301 416.037 488.818 415.537C488.335 415.037 488 414.483 487.812 413.875L490.591 413.202C490.716 413.457 490.898 413.71 491.136 413.96C491.375 414.216 491.696 414.426 492.099 414.591C492.509 414.761 493.023 414.847 493.642 414.847C494.517 414.847 495.241 414.634 495.815 414.207C496.389 413.787 496.676 413.094 496.676 412.128V409.648H496.523C496.364 409.966 496.131 410.293 495.824 410.628C495.523 410.963 495.122 411.244 494.622 411.472C494.128 411.699 493.506 411.812 492.756 411.812C491.75 411.812 490.838 411.577 490.02 411.105C489.207 410.628 488.56 409.918 488.077 408.974C487.599 408.026 487.361 406.838 487.361 405.412C487.361 403.974 487.599 402.761 488.077 401.773C488.56 400.778 489.21 400.026 490.028 399.514C490.847 398.997 491.759 398.739 492.764 398.739C493.531 398.739 494.162 398.869 494.656 399.131C495.156 399.386 495.554 399.696 495.849 400.06C496.145 400.418 496.369 400.756 496.523 401.074H496.693V398.909H499.736V412.213C499.736 413.332 499.469 414.259 498.935 414.991C498.401 415.724 497.67 416.273 496.744 416.636C495.818 417 494.767 417.182 493.591 417.182ZM493.616 409.392C494.27 409.392 494.827 409.233 495.287 408.915C495.747 408.597 496.097 408.139 496.335 407.543C496.574 406.946 496.693 406.23 496.693 405.395C496.693 404.571 496.574 403.849 496.335 403.23C496.102 402.611 495.756 402.131 495.295 401.79C494.841 401.443 494.281 401.27 493.616 401.27C492.929 401.27 492.355 401.449 491.895 401.807C491.435 402.165 491.088 402.656 490.855 403.281C490.622 403.901 490.506 404.605 490.506 405.395C490.506 406.196 490.622 406.898 490.855 407.5C491.094 408.097 491.443 408.562 491.903 408.898C492.369 409.227 492.94 409.392 493.616 409.392ZM505.983 404.33V412H502.898V398.909H505.847V401.134H506C506.301 400.401 506.781 399.818 507.44 399.386C508.105 398.955 508.926 398.739 509.903 398.739C510.807 398.739 511.594 398.932 512.264 399.318C512.94 399.705 513.463 400.264 513.832 400.997C514.207 401.73 514.392 402.619 514.386 403.665V412H511.301V404.142C511.301 403.267 511.074 402.582 510.619 402.088C510.17 401.594 509.548 401.347 508.753 401.347C508.213 401.347 507.733 401.466 507.312 401.705C506.898 401.937 506.571 402.276 506.332 402.719C506.099 403.162 505.983 403.699 505.983 404.33ZM531.82 406.494V398.909H534.905V412H531.913V409.673H531.777C531.482 410.406 530.996 411.006 530.32 411.472C529.649 411.937 528.822 412.17 527.839 412.17C526.982 412.17 526.223 411.98 525.564 411.599C524.911 411.213 524.399 410.653 524.03 409.92C523.661 409.182 523.476 408.29 523.476 407.244V398.909H526.561V406.767C526.561 407.597 526.788 408.256 527.243 408.744C527.697 409.233 528.294 409.477 529.033 409.477C529.487 409.477 529.928 409.366 530.354 409.145C530.78 408.923 531.129 408.594 531.402 408.156C531.68 407.713 531.82 407.159 531.82 406.494ZM538.077 416.909V398.909H541.112V401.074H541.29C541.45 400.756 541.674 400.418 541.964 400.06C542.254 399.696 542.646 399.386 543.14 399.131C543.634 398.869 544.265 398.739 545.032 398.739C546.043 398.739 546.955 398.997 547.768 399.514C548.586 400.026 549.234 400.784 549.711 401.79C550.194 402.79 550.435 404.017 550.435 405.472C550.435 406.909 550.2 408.131 549.728 409.136C549.256 410.142 548.614 410.909 547.802 411.438C546.989 411.966 546.069 412.23 545.04 412.23C544.29 412.23 543.668 412.105 543.174 411.855C542.68 411.605 542.282 411.304 541.981 410.952C541.685 410.594 541.455 410.256 541.29 409.938H541.163V416.909H538.077ZM541.103 405.455C541.103 406.301 541.222 407.043 541.461 407.679C541.705 408.315 542.055 408.812 542.509 409.17C542.969 409.523 543.526 409.699 544.18 409.699C544.862 409.699 545.433 409.517 545.893 409.153C546.353 408.784 546.7 408.281 546.933 407.645C547.171 407.003 547.29 406.273 547.29 405.455C547.29 404.642 547.174 403.92 546.941 403.29C546.708 402.659 546.362 402.165 545.901 401.807C545.441 401.449 544.867 401.27 544.18 401.27C543.521 401.27 542.961 401.443 542.501 401.79C542.04 402.136 541.691 402.622 541.452 403.247C541.219 403.872 541.103 404.608 541.103 405.455ZM562.798 412.264C561.968 412.264 561.221 412.116 560.556 411.821C559.897 411.52 559.374 411.077 558.988 410.491C558.607 409.906 558.417 409.185 558.417 408.327C558.417 407.588 558.553 406.977 558.826 406.494C559.099 406.011 559.471 405.625 559.942 405.335C560.414 405.045 560.945 404.827 561.536 404.679C562.133 404.526 562.749 404.415 563.386 404.347C564.153 404.267 564.775 404.196 565.252 404.134C565.729 404.065 566.076 403.963 566.292 403.827C566.513 403.685 566.624 403.466 566.624 403.17V403.119C566.624 402.477 566.434 401.98 566.053 401.628C565.673 401.276 565.124 401.099 564.408 401.099C563.653 401.099 563.053 401.264 562.61 401.594C562.173 401.923 561.877 402.312 561.724 402.761L558.843 402.352C559.07 401.557 559.445 400.892 559.968 400.358C560.491 399.818 561.13 399.415 561.886 399.148C562.641 398.875 563.477 398.739 564.391 398.739C565.022 398.739 565.65 398.812 566.275 398.96C566.9 399.108 567.471 399.352 567.988 399.693C568.505 400.028 568.92 400.486 569.232 401.065C569.55 401.645 569.71 402.369 569.71 403.239V412H566.744V410.202H566.641C566.454 410.565 566.19 410.906 565.849 411.224C565.513 411.537 565.09 411.79 564.579 411.983C564.073 412.17 563.479 412.264 562.798 412.264ZM563.599 409.997C564.218 409.997 564.755 409.875 565.21 409.631C565.664 409.381 566.013 409.051 566.258 408.642C566.508 408.233 566.633 407.787 566.633 407.304V405.761C566.536 405.841 566.371 405.915 566.138 405.983C565.911 406.051 565.656 406.111 565.371 406.162C565.087 406.213 564.806 406.259 564.528 406.298C564.249 406.338 564.008 406.372 563.803 406.401C563.343 406.463 562.931 406.565 562.567 406.707C562.204 406.849 561.917 407.048 561.707 407.304C561.496 407.554 561.391 407.878 561.391 408.276C561.391 408.844 561.599 409.273 562.013 409.562C562.428 409.852 562.957 409.997 563.599 409.997ZM575.897 404.33V412H572.812V398.909H575.761V401.134H575.914C576.215 400.401 576.695 399.818 577.354 399.386C578.019 398.955 578.84 398.739 579.817 398.739C580.721 398.739 581.508 398.932 582.178 399.318C582.854 399.705 583.377 400.264 583.746 400.997C584.121 401.73 584.306 402.619 584.3 403.665V412H581.215V404.142C581.215 403.267 580.988 402.582 580.533 402.088C580.085 401.594 579.462 401.347 578.667 401.347C578.127 401.347 577.647 401.466 577.227 401.705C576.812 401.937 576.485 402.276 576.246 402.719C576.013 403.162 575.897 403.699 575.897 404.33ZM592.295 412.23C591.266 412.23 590.346 411.966 589.533 411.438C588.721 410.909 588.079 410.142 587.607 409.136C587.136 408.131 586.9 406.909 586.9 405.472C586.9 404.017 587.138 402.79 587.616 401.79C588.099 400.784 588.749 400.026 589.567 399.514C590.386 398.997 591.298 398.739 592.303 398.739C593.07 398.739 593.701 398.869 594.195 399.131C594.69 399.386 595.082 399.696 595.371 400.06C595.661 400.418 595.886 400.756 596.045 401.074H596.173V394.545H599.266V412H596.232V409.938H596.045C595.886 410.256 595.656 410.594 595.354 410.952C595.053 411.304 594.656 411.605 594.161 411.855C593.667 412.105 593.045 412.23 592.295 412.23ZM593.156 409.699C593.809 409.699 594.366 409.523 594.826 409.17C595.286 408.812 595.636 408.315 595.874 407.679C596.113 407.043 596.232 406.301 596.232 405.455C596.232 404.608 596.113 403.872 595.874 403.247C595.641 402.622 595.295 402.136 594.835 401.79C594.38 401.443 593.82 401.27 593.156 401.27C592.468 401.27 591.894 401.449 591.434 401.807C590.974 402.165 590.627 402.659 590.394 403.29C590.161 403.92 590.045 404.642 590.045 405.455C590.045 406.273 590.161 407.003 590.394 407.645C590.633 408.281 590.982 408.784 591.442 409.153C591.908 409.517 592.479 409.699 593.156 409.699ZM618.854 402.369L616.041 402.676C615.962 402.392 615.822 402.125 615.624 401.875C615.43 401.625 615.169 401.423 614.839 401.27C614.51 401.116 614.107 401.04 613.629 401.04C612.987 401.04 612.447 401.179 612.01 401.457C611.578 401.736 611.365 402.097 611.371 402.54C611.365 402.92 611.504 403.23 611.788 403.469C612.078 403.707 612.555 403.903 613.22 404.057L615.453 404.534C616.692 404.801 617.612 405.224 618.214 405.804C618.822 406.384 619.129 407.142 619.135 408.08C619.129 408.903 618.888 409.631 618.411 410.261C617.939 410.886 617.283 411.375 616.442 411.727C615.601 412.08 614.635 412.256 613.544 412.256C611.942 412.256 610.652 411.92 609.675 411.25C608.697 410.574 608.115 409.634 607.928 408.429L610.936 408.139C611.072 408.73 611.362 409.176 611.805 409.477C612.249 409.778 612.825 409.929 613.536 409.929C614.268 409.929 614.857 409.778 615.3 409.477C615.749 409.176 615.973 408.804 615.973 408.361C615.973 407.986 615.828 407.676 615.538 407.432C615.254 407.187 614.811 407 614.209 406.869L611.976 406.401C610.72 406.139 609.791 405.699 609.189 405.08C608.587 404.455 608.288 403.665 608.294 402.71C608.288 401.903 608.507 401.205 608.95 400.614C609.399 400.017 610.021 399.557 610.817 399.233C611.618 398.903 612.541 398.739 613.587 398.739C615.121 398.739 616.328 399.065 617.209 399.719C618.095 400.372 618.643 401.256 618.854 402.369ZM628.216 398.909V401.295H620.69V398.909H628.216ZM622.548 395.773H625.634V408.062C625.634 408.477 625.696 408.795 625.821 409.017C625.952 409.233 626.122 409.381 626.332 409.46C626.543 409.54 626.776 409.58 627.031 409.58C627.224 409.58 627.401 409.565 627.56 409.537C627.724 409.509 627.849 409.483 627.935 409.46L628.455 411.872C628.29 411.929 628.054 411.991 627.747 412.06C627.446 412.128 627.077 412.168 626.639 412.179C625.866 412.202 625.17 412.085 624.551 411.83C623.932 411.568 623.44 411.165 623.077 410.619C622.719 410.074 622.543 409.392 622.548 408.574V395.773ZM634.563 412.264C633.734 412.264 632.987 412.116 632.322 411.821C631.663 411.52 631.14 411.077 630.754 410.491C630.373 409.906 630.183 409.185 630.183 408.327C630.183 407.588 630.319 406.977 630.592 406.494C630.864 406.011 631.237 405.625 631.708 405.335C632.18 405.045 632.711 404.827 633.302 404.679C633.898 404.526 634.515 404.415 635.151 404.347C635.918 404.267 636.54 404.196 637.018 404.134C637.495 404.065 637.842 403.963 638.058 403.827C638.279 403.685 638.39 403.466 638.39 403.17V403.119C638.39 402.477 638.2 401.98 637.819 401.628C637.438 401.276 636.89 401.099 636.174 401.099C635.418 401.099 634.819 401.264 634.376 401.594C633.938 401.923 633.643 402.312 633.489 402.761L630.609 402.352C630.836 401.557 631.211 400.892 631.734 400.358C632.256 399.818 632.896 399.415 633.651 399.148C634.407 398.875 635.242 398.739 636.157 398.739C636.788 398.739 637.415 398.812 638.04 398.96C638.665 399.108 639.237 399.352 639.754 399.693C640.271 400.028 640.685 400.486 640.998 401.065C641.316 401.645 641.475 402.369 641.475 403.239V412H638.509V410.202H638.407C638.219 410.565 637.955 410.906 637.614 411.224C637.279 411.537 636.856 411.79 636.344 411.983C635.839 412.17 635.245 412.264 634.563 412.264ZM635.364 409.997C635.984 409.997 636.521 409.875 636.975 409.631C637.43 409.381 637.779 409.051 638.023 408.642C638.273 408.233 638.398 407.787 638.398 407.304V405.761C638.302 405.841 638.137 405.915 637.904 405.983C637.677 406.051 637.421 406.111 637.137 406.162C636.853 406.213 636.572 406.259 636.293 406.298C636.015 406.338 635.773 406.372 635.569 406.401C635.109 406.463 634.697 406.565 634.333 406.707C633.969 406.849 633.683 407.048 633.472 407.304C633.262 407.554 633.157 407.878 633.157 408.276C633.157 408.844 633.364 409.273 633.779 409.562C634.194 409.852 634.722 409.997 635.364 409.997ZM644.577 412V398.909H647.569V401.091H647.705C647.944 400.335 648.353 399.753 648.933 399.344C649.518 398.929 650.185 398.722 650.935 398.722C651.106 398.722 651.296 398.73 651.506 398.747C651.722 398.759 651.901 398.778 652.043 398.807V401.645C651.913 401.599 651.705 401.56 651.421 401.526C651.143 401.486 650.873 401.466 650.612 401.466C650.049 401.466 649.543 401.588 649.094 401.832C648.651 402.071 648.302 402.403 648.046 402.83C647.79 403.256 647.663 403.747 647.663 404.304V412H644.577ZM661.333 398.909V401.295H653.808V398.909H661.333ZM655.665 395.773H658.751V408.062C658.751 408.477 658.813 408.795 658.938 409.017C659.069 409.233 659.239 409.381 659.45 409.46C659.66 409.54 659.893 409.58 660.148 409.58C660.342 409.58 660.518 409.565 660.677 409.537C660.842 409.509 660.967 409.483 661.052 409.46L661.572 411.872C661.407 411.929 661.171 411.991 660.864 412.06C660.563 412.128 660.194 412.168 659.756 412.179C658.984 412.202 658.288 412.085 657.668 411.83C657.049 411.568 656.558 411.165 656.194 410.619C655.836 410.074 655.66 409.392 655.665 408.574V395.773Z" fill="black"/>
<rect opacity="0.6" x="137" y="428" width="50" height="5" rx="2.5" fill="#131C83" fill-opacity="0.83"/>
<rect opacity="0.6" x="192" y="428" width="50" height="5" rx="2.5" fill="#131C83" fill-opacity="0.83"/>
<rect x="247" y="428" width="58" height="5" rx="2.5" fill="#131C83" fill-opacity="0.83"/>
<path d="M951.675 476.884C951.274 476.884 950.974 476.584 950.974 476.183V259.15C950.974 258.749 951.274 258.448 951.675 258.448C952.076 258.448 952.376 258.749 952.376 259.15V476.183C952.376 476.584 952.076 476.884 951.675 476.884Z" fill="#D1D3D4"/>
<path d="M1035.94 476.884C1035.54 476.884 1035.24 476.584 1035.24 476.183V259.15C1035.24 258.749 1035.54 258.448 1035.94 258.448C1036.34 258.448 1036.64 258.749 1036.64 259.15V476.183C1036.64 476.584 1036.34 476.884 1035.94 476.884Z" fill="#D1D3D4"/>
<path d="M1120.21 476.884C1119.81 476.884 1119.51 476.584 1119.51 476.183V259.15C1119.51 258.749 1119.81 258.448 1120.21 258.448C1120.61 258.448 1120.91 258.749 1120.91 259.15V476.183C1120.91 476.584 1120.51 476.884 1120.21 476.884Z" fill="#D1D3D4"/>
<path d="M1204.38 476.884C1203.98 476.884 1203.68 476.584 1203.68 476.183V259.15C1203.68 258.749 1203.98 258.448 1204.38 258.448C1204.78 258.448 1205.08 258.749 1205.08 259.15V476.183C1205.08 476.584 1204.78 476.884 1204.38 476.884Z" fill="#D1D3D4"/>
<path d="M1288.65 476.884C1288.25 476.884 1287.95 476.584 1287.95 476.183V259.15C1287.95 258.749 1288.25 258.448 1288.65 258.448C1289.05 258.448 1289.35 258.749 1289.35 259.15V476.183C1289.35 476.584 1289.05 476.884 1288.65 476.884Z" fill="#D1D3D4"/>
<path d="M1288.65 259.851H951.675C951.274 259.851 950.974 259.55 950.974 259.15C950.974 258.749 951.274 258.448 951.675 258.448H1288.65C1289.05 258.448 1289.35 258.749 1289.35 259.15C1289.35 259.55 1289.05 259.851 1288.65 259.851Z" fill="#D1D3D4"/>
<path d="M1288.65 331.594H951.675C951.274 331.594 950.974 331.294 950.974 330.893C950.974 330.492 951.274 330.191 951.675 330.191H1288.65C1289.05 330.191 1289.35 330.492 1289.35 330.893C1289.35 331.294 1289.05 331.594 1288.65 331.594Z" fill="#D1D3D4"/>
<path d="M1288.65 403.338H951.675C951.274 403.338 950.974 403.037 950.974 402.636C950.974 402.235 951.274 401.935 951.675 401.935H1288.65C1289.05 401.935 1289.35 402.235 1289.35 402.636C1289.35 403.037 1289.05 403.338 1288.65 403.338Z" fill="#D1D3D4"/>
<path d="M1307.89 477.485H921.114C920.713 477.485 920.413 477.185 920.413 476.784C920.413 476.383 920.713 476.083 921.114 476.083H1307.89C1308.29 476.083 1308.59 476.383 1308.59 476.784C1308.59 477.185 1308.29 477.485 1307.89 477.485Z" fill="#D1D3D4"/>
<path d="M982.036 469.97V485.301C982.036 491.113 998.669 495.822 1019.11 495.822C1039.55 495.822 1056.18 491.113 1056.18 485.301V469.97H982.036Z" fill="white"/>
<path d="M1019.21 496.624C1000.57 496.624 981.434 492.415 981.434 485.401V470.071C981.434 469.67 981.735 469.369 982.136 469.369H1056.38C1056.78 469.369 1057.09 469.67 1057.09 470.071V485.401C1056.99 492.315 1037.75 496.624 1019.21 496.624ZM982.737 470.672V485.301C982.737 490.01 997.366 495.121 1019.11 495.121C1040.85 495.121 1055.48 490.01 1055.48 485.301V470.672C1055.58 470.672 982.737 470.672 982.737 470.672Z" fill="#231F20"/>
<path d="M1019.21 480.491C1039.69 480.491 1056.28 475.781 1056.28 469.97C1056.28 464.16 1039.69 459.449 1019.21 459.449C998.734 459.449 982.136 464.16 982.136 469.97C982.136 475.781 998.734 480.491 1019.21 480.491Z" fill="#231F20"/>
<path d="M1019.21 481.093C998.068 481.093 981.434 476.183 981.434 469.97C981.434 463.758 997.967 458.848 1019.21 458.848C1040.45 458.848 1056.99 463.758 1056.99 469.97C1056.99 476.183 1040.35 481.093 1019.21 481.093ZM1019.21 460.051C997.366 460.051 982.737 465.161 982.737 469.97C982.737 474.78 997.366 479.89 1019.21 479.89C1041.05 479.89 1055.68 474.78 1055.68 469.97C1055.68 465.161 1040.95 460.051 1019.21 460.051Z" fill="#231F20"/>
<path d="M974.42 446.524V461.854C974.42 467.666 991.054 472.375 1011.49 472.375C1031.94 472.375 1048.57 467.666 1048.57 461.854V446.524H974.42Z" fill="white"/>
<path d="M1011.59 473.077C992.957 473.077 973.819 468.868 973.819 461.854V446.524C973.819 446.123 974.12 445.822 974.521 445.822H1048.77C1049.17 445.822 1049.47 446.123 1049.47 446.524V461.854C1049.37 468.868 1030.13 473.077 1011.59 473.077ZM975.122 447.225V461.854C975.122 466.564 989.751 471.674 1011.49 471.674C1033.24 471.674 1047.87 466.564 1047.87 461.854V447.225H975.122Z" fill="#231F20"/>
<path d="M1011.59 457.045C1032.07 457.045 1048.67 452.334 1048.67 446.524C1048.67 440.713 1032.07 436.003 1011.59 436.003C991.119 436.003 974.521 440.713 974.521 446.524C974.521 452.334 991.119 457.045 1011.59 457.045Z" fill="white"/>
<path d="M1011.59 457.746C992.957 457.746 973.819 453.538 973.819 446.524C973.819 439.51 993.058 435.301 1011.59 435.301C1030.13 435.301 1049.37 439.51 1049.37 446.524C1049.37 453.538 1030.13 457.746 1011.59 457.746ZM1011.59 436.704C989.851 436.704 975.222 441.814 975.222 446.524C975.222 451.233 989.851 456.343 1011.59 456.343C1033.34 456.343 1047.97 451.233 1047.97 446.524C1047.97 441.814 1033.34 436.704 1011.59 436.704Z" fill="#231F20"/>
<path d="M1011.59 453.638C995.763 453.638 979.731 451.233 979.731 446.524C979.731 441.814 995.763 439.409 1011.59 439.409C1027.43 439.409 1043.46 441.814 1043.46 446.524C1043.46 451.233 1027.43 453.638 1011.59 453.638ZM1011.59 440.812C992.757 440.812 981.134 444.119 981.134 446.524C981.134 448.928 992.657 452.235 1011.59 452.235C1030.53 452.235 1042.06 448.928 1042.06 446.524C1042.06 444.119 1030.43 440.812 1011.59 440.812Z" fill="#D1D3D4"/>
<path d="M1069.21 472.776V488.107C1069.21 493.918 1085.84 498.628 1106.28 498.628C1126.72 498.628 1143.36 493.918 1143.36 488.107V472.776H1069.21Z" fill="white"/>
<path d="M1106.28 499.329C1087.65 499.329 1068.51 495.121 1068.51 488.107V472.776C1068.51 472.375 1068.81 472.075 1069.21 472.075H1143.46C1143.86 472.075 1144.16 472.375 1144.16 472.776V488.107C1144.16 495.121 1124.92 499.329 1106.28 499.329ZM1069.91 473.477V488.107C1069.91 492.816 1084.54 497.926 1106.28 497.926C1128.03 497.926 1142.66 492.816 1142.66 488.107V473.477H1069.91Z" fill="#231F20"/>
<path d="M1106.28 483.297C1126.76 483.297 1143.36 478.587 1143.36 472.776C1143.36 466.965 1126.76 462.255 1106.28 462.255C1085.81 462.255 1069.21 466.965 1069.21 472.776C1069.21 478.587 1085.81 483.297 1106.28 483.297Z" fill="#231F20"/>
<path d="M1106.28 483.898C1085.14 483.898 1068.61 478.988 1068.61 472.776C1068.61 466.564 1085.14 461.654 1106.28 461.654C1127.43 461.654 1143.96 466.564 1143.96 472.776C1143.96 478.988 1127.53 483.898 1106.28 483.898ZM1106.28 462.856C1084.44 462.856 1069.81 467.966 1069.81 472.776C1069.81 477.586 1084.44 482.696 1106.28 482.696C1128.13 482.696 1142.76 477.586 1142.76 472.776C1142.76 467.966 1128.13 462.856 1106.28 462.856Z" fill="#231F20"/>
<path d="M1075.22 450.632V465.962C1075.22 471.774 1091.85 476.483 1112.3 476.483C1132.74 476.483 1149.37 471.774 1149.37 465.962V450.632H1075.22Z" fill="white"/>
<path d="M1112.3 477.185C1093.66 477.185 1074.52 472.976 1074.52 465.962V450.632C1074.52 450.231 1074.82 449.93 1075.22 449.93H1149.47C1149.87 449.93 1150.17 450.231 1150.17 450.632V465.962C1150.07 472.976 1130.93 477.185 1112.3 477.185ZM1075.92 451.333V465.962C1075.92 470.672 1090.55 475.782 1112.3 475.782C1134.04 475.782 1148.67 470.672 1148.67 465.962V451.333H1075.92Z" fill="#231F20"/>
<path d="M1112.3 461.153C1132.77 461.153 1149.37 456.442 1149.37 450.632C1149.37 444.821 1132.77 440.111 1112.3 440.111C1091.82 440.111 1075.22 444.821 1075.22 450.632C1075.22 456.442 1091.82 461.153 1112.3 461.153Z" fill="#231F20"/>
<path d="M1112.3 461.754C1091.15 461.754 1074.62 456.844 1074.62 450.632C1074.62 444.419 1091.15 439.51 1112.3 439.51C1133.44 439.51 1149.97 444.419 1149.97 450.632C1149.97 456.844 1133.44 461.754 1112.3 461.754ZM1112.3 440.712C1090.45 440.712 1075.82 445.822 1075.82 450.632C1075.82 455.441 1090.45 460.552 1112.3 460.552C1134.14 460.552 1148.77 455.441 1148.77 450.632C1148.77 445.822 1134.14 440.712 1112.3 440.712Z" fill="#231F20"/>
<path d="M1069.21 428.287V443.718C1069.21 449.53 1085.84 454.239 1106.28 454.239C1126.72 454.239 1143.36 449.53 1143.36 443.718V428.287H1069.21Z" fill="white"/>
<path d="M1106.28 454.94C1087.65 454.94 1068.51 450.732 1068.51 443.718V428.387C1068.51 427.987 1068.81 427.686 1069.21 427.686H1143.46C1143.86 427.686 1144.16 427.987 1144.16 428.387V443.718C1144.16 450.732 1124.92 454.94 1106.28 454.94ZM1069.91 428.989V443.718C1069.91 448.427 1084.54 453.538 1106.28 453.538C1128.03 453.538 1142.66 448.427 1142.66 443.718V428.989H1069.91Z" fill="#231F20"/>
<path d="M1106.28 438.808C1126.76 438.808 1143.36 434.098 1143.36 428.287C1143.36 422.477 1126.76 417.766 1106.28 417.766C1085.81 417.766 1069.21 422.477 1069.21 428.287C1069.21 434.098 1085.81 438.808 1106.28 438.808Z" fill="#231F20"/>
<path d="M1106.28 439.51C1085.14 439.51 1068.61 434.6 1068.61 428.387C1068.61 422.175 1085.14 417.265 1106.28 417.265C1127.43 417.265 1143.96 422.175 1143.96 428.387C1143.96 434.6 1127.53 439.51 1106.28 439.51ZM1106.28 418.468C1084.44 418.468 1069.81 423.578 1069.81 428.387C1069.81 433.197 1084.44 438.307 1106.28 438.307C1128.13 438.307 1142.76 433.197 1142.76 428.387C1142.76 423.578 1128.13 418.468 1106.28 418.468Z" fill="#231F20"/>
<path d="M1081.13 410.151V425.482C1081.13 431.293 1097.77 436.003 1118.21 436.003C1138.65 436.003 1155.28 431.293 1155.28 425.482V410.151H1081.13Z" fill="white"/>
<path d="M1118.31 436.704C1099.67 436.704 1080.53 432.496 1080.53 425.482V410.151C1080.53 409.75 1080.83 409.45 1081.23 409.45H1155.48C1155.88 409.45 1156.18 409.75 1156.18 410.151V425.482C1156.08 432.496 1136.84 436.704 1118.31 436.704ZM1081.83 410.852V425.482C1081.83 430.191 1096.46 435.301 1118.21 435.301C1139.95 435.301 1154.58 430.191 1154.58 425.482V410.852H1081.83Z" fill="#231F20"/>
<path d="M1118.31 420.672C1138.78 420.672 1155.38 415.962 1155.38 410.151C1155.38 404.34 1138.78 399.63 1118.31 399.63C1097.83 399.63 1081.23 404.34 1081.23 410.151C1081.23 415.962 1097.83 420.672 1118.31 420.672Z" fill="#231F20"/>
<path d="M1118.31 421.273C1097.17 421.273 1080.53 416.363 1080.53 410.151C1080.53 403.939 1097.07 399.029 1118.21 399.029C1139.35 399.029 1155.88 403.939 1155.88 410.151C1155.88 416.363 1139.45 421.273 1118.31 421.273ZM1118.31 400.231C1096.46 400.231 1081.83 405.341 1081.83 410.151C1081.83 414.961 1096.46 420.071 1118.31 420.071C1140.15 420.071 1154.78 414.961 1154.78 410.151C1154.78 405.341 1140.15 400.231 1118.31 400.231Z" fill="#231F20"/>
<path d="M1073.02 391.915V407.245C1073.02 413.057 1089.65 417.766 1110.09 417.766C1130.53 417.766 1147.17 413.057 1147.17 407.245V391.915H1073.02Z" fill="white"/>
<path d="M1110.09 418.468C1091.45 418.468 1072.32 414.259 1072.32 407.245V391.915C1072.32 391.514 1072.62 391.213 1073.02 391.213H1147.27C1147.67 391.213 1147.97 391.514 1147.97 391.915V407.245C1147.97 414.259 1128.73 418.468 1110.09 418.468ZM1073.72 392.616V407.245C1073.72 411.955 1088.35 417.065 1110.09 417.065C1131.83 417.065 1146.46 411.955 1146.46 407.245V392.616H1073.72Z" fill="#231F20"/>
<path d="M1110.09 402.436C1130.57 402.436 1147.17 397.725 1147.17 391.915C1147.17 386.104 1130.57 381.394 1110.09 381.394C1089.62 381.394 1073.02 386.104 1073.02 391.915C1073.02 397.725 1089.62 402.436 1110.09 402.436Z" fill="white"/>
<path d="M1110.09 403.137C1091.45 403.137 1072.32 398.929 1072.32 391.915C1072.32 384.901 1091.55 380.692 1110.09 380.692C1128.63 380.692 1147.87 384.901 1147.87 391.915C1147.87 398.929 1128.73 403.137 1110.09 403.137ZM1110.09 382.095C1088.35 382.095 1073.72 387.205 1073.72 391.915C1073.72 396.624 1088.35 401.734 1110.09 401.734C1131.83 401.734 1146.56 396.624 1146.56 391.915C1146.56 387.205 1131.93 382.095 1110.09 382.095Z" fill="#231F20"/>
<path d="M1110.09 399.029C1094.26 399.029 1078.23 396.624 1078.23 391.915C1078.23 387.205 1094.26 384.8 1110.09 384.8C1125.92 384.8 1141.95 387.205 1141.95 391.915C1141.95 396.624 1125.92 399.029 1110.09 399.029ZM1110.09 386.203C1091.25 386.203 1079.63 389.51 1079.63 391.915C1079.63 394.319 1091.25 397.626 1110.09 397.626C1128.93 397.626 1140.55 394.319 1140.55 391.915C1140.55 389.51 1129.03 386.203 1110.09 386.203Z" fill="#D1D3D4"/>
<path d="M1255.68 464.259V479.59C1255.68 485.401 1239.05 490.111 1218.61 490.111C1198.17 490.111 1181.53 485.401 1181.53 479.59V464.259H1255.68Z" fill="white"/>
<path d="M1218.61 490.912C1200.07 490.912 1180.83 486.704 1180.83 479.69V464.359C1180.83 463.958 1181.13 463.658 1181.53 463.658H1255.78C1256.18 463.658 1256.48 463.958 1256.48 464.359V479.69C1256.38 486.704 1237.14 490.912 1218.61 490.912ZM1182.13 464.96V479.59C1182.13 484.299 1196.76 489.409 1218.51 489.409C1240.25 489.409 1254.88 484.299 1254.88 479.59V464.96H1182.13Z" fill="#231F20"/>
<path d="M1218.61 474.78C1239.08 474.78 1255.68 470.07 1255.68 464.259C1255.68 458.448 1239.08 453.738 1218.61 453.738C1198.13 453.738 1181.53 458.448 1181.53 464.259C1181.53 470.07 1198.13 474.78 1218.61 474.78Z" fill="#231F20"/>
<path d="M1218.61 475.481C1197.47 475.481 1180.93 470.572 1180.93 464.359C1180.93 458.147 1197.47 453.237 1218.61 453.237C1239.75 453.237 1256.28 458.147 1256.28 464.359C1256.28 470.572 1239.75 475.481 1218.61 475.481ZM1218.61 454.439C1196.76 454.439 1182.14 459.55 1182.14 464.359C1182.14 469.169 1196.76 474.279 1218.61 474.279C1240.45 474.279 1255.08 469.169 1255.08 464.359C1255.08 459.55 1240.35 454.339 1218.61 454.439Z" fill="#231F20"/>
<path d="M1243.76 446.123V461.453C1243.76 467.265 1227.12 471.974 1206.68 471.974C1186.24 471.974 1169.61 467.265 1169.61 461.453V446.123H1243.76Z" fill="white"/>
<path d="M1206.58 472.676C1188.05 472.676 1168.81 468.467 1168.81 461.453V446.123C1168.81 445.722 1169.11 445.421 1169.51 445.421H1243.76C1244.16 445.421 1244.46 445.722 1244.46 446.123V461.453C1244.46 468.467 1225.22 472.676 1206.58 472.676ZM1170.21 446.824V461.453C1170.21 466.163 1184.84 471.273 1206.58 471.273C1228.33 471.273 1242.96 466.163 1242.96 461.453V446.824H1170.21Z" fill="#231F20"/>
<path d="M1206.58 456.644C1227.06 456.644 1243.66 451.933 1243.66 446.123C1243.66 440.312 1227.06 435.602 1206.58 435.602C1186.11 435.602 1169.51 440.312 1169.51 446.123C1169.51 451.933 1186.11 456.644 1206.58 456.644Z" fill="#231F20"/>
<path d="M1206.58 457.245C1185.44 457.245 1168.91 452.335 1168.91 446.123C1168.91 439.91 1185.44 435.001 1206.58 435.001C1227.73 435.001 1244.26 439.91 1244.26 446.123C1244.26 452.335 1227.73 457.245 1206.58 457.245ZM1206.58 436.203C1184.74 436.203 1170.11 441.313 1170.11 446.123C1170.11 450.932 1184.74 456.043 1206.58 456.043C1228.43 456.043 1243.06 450.932 1243.06 446.123C1243.06 441.313 1228.43 436.203 1206.58 436.203Z" fill="#231F20"/>
<path d="M1251.87 427.886V443.217C1251.87 449.029 1235.24 453.738 1214.8 453.738C1194.36 453.738 1177.73 449.029 1177.73 443.217V427.886H1251.87Z" fill="white"/>
<path d="M1214.7 454.439C1196.16 454.439 1176.92 450.231 1176.92 443.217V427.886C1176.92 427.486 1177.23 427.185 1177.63 427.185H1251.87C1252.27 427.185 1252.58 427.486 1252.58 427.886V443.217C1252.58 450.231 1233.34 454.439 1214.7 454.439ZM1178.33 428.588V443.217C1178.33 447.926 1192.96 453.037 1214.7 453.037C1236.44 453.037 1251.07 447.926 1251.07 443.217V428.588H1178.33Z" fill="#231F20"/>
<path d="M1214.7 438.407C1235.18 438.407 1251.77 433.697 1251.77 427.886C1251.77 422.076 1235.18 417.365 1214.7 417.365C1194.22 417.365 1177.63 422.076 1177.63 427.886C1177.63 433.697 1194.22 438.407 1214.7 438.407Z" fill="#231F20"/>
<path d="M1214.7 439.009C1193.56 439.009 1177.02 434.099 1177.02 427.886C1177.02 421.674 1193.56 416.764 1214.7 416.764C1235.84 416.764 1252.48 421.674 1252.48 427.886C1252.48 434.099 1235.94 439.009 1214.7 439.009ZM1214.7 417.967C1192.86 417.967 1178.23 423.077 1178.23 427.886C1178.23 432.696 1192.86 437.806 1214.7 437.806C1236.54 437.806 1251.17 432.696 1251.17 427.886C1251.17 423.077 1236.54 417.967 1214.7 417.967Z" fill="#231F20"/>
<path d="M1253.18 407.245V422.676C1253.18 428.488 1236.54 433.197 1216.1 433.197C1195.66 433.197 1179.03 428.488 1179.03 422.676V407.245H1253.18Z" fill="white"/>
<path d="M1216.1 433.898C1197.57 433.898 1178.33 429.69 1178.33 422.676V407.345C1178.33 406.945 1178.63 406.644 1179.03 406.644H1253.28C1253.68 406.644 1253.98 406.945 1253.98 407.345V422.676C1253.88 429.69 1234.64 433.898 1216.1 433.898ZM1179.63 407.947V422.676C1179.63 427.385 1194.26 432.496 1216 432.496C1237.75 432.496 1252.38 427.385 1252.38 422.676V407.947H1179.63Z" fill="#231F20"/>
<path d="M1216.1 417.766C1236.58 417.766 1253.18 413.056 1253.18 407.245C1253.18 401.435 1236.58 396.724 1216.1 396.724C1195.63 396.724 1179.03 401.435 1179.03 407.245C1179.03 413.056 1195.63 417.766 1216.1 417.766Z" fill="#231F20"/>
<path d="M1216.1 418.468C1194.96 418.468 1178.43 413.558 1178.43 407.345C1178.43 401.133 1194.96 396.223 1216.1 396.223C1237.25 396.223 1253.78 401.133 1253.78 407.345C1253.78 413.558 1237.25 418.468 1216.1 418.468ZM1216.1 397.426C1194.26 397.426 1179.63 402.536 1179.63 407.345C1179.63 412.155 1194.26 417.265 1216.1 417.265C1237.95 417.265 1252.58 412.155 1252.58 407.345C1252.58 402.536 1237.85 397.426 1216.1 397.426Z" fill="#231F20"/>
<path d="M1245.86 387.205V402.536C1245.86 408.347 1229.23 413.057 1208.79 413.057C1188.35 413.057 1171.71 408.347 1171.71 402.536V387.205H1245.86Z" fill="white"/>
<path d="M1208.79 413.758C1190.25 413.758 1171.01 409.55 1171.01 402.536V387.205C1171.01 386.804 1171.31 386.504 1171.71 386.504H1245.96C1246.36 386.504 1246.66 386.804 1246.66 387.205V402.536C1246.56 409.55 1227.33 413.758 1208.79 413.758ZM1172.32 387.907V402.536C1172.32 407.245 1186.94 412.355 1208.69 412.355C1230.43 412.355 1245.06 407.245 1245.06 402.536V387.907H1172.32Z" fill="#231F20"/>
<path d="M1208.79 397.726C1229.26 397.726 1245.86 393.016 1245.86 387.205C1245.86 381.395 1229.26 376.684 1208.79 376.684C1188.31 376.684 1171.71 381.395 1171.71 387.205C1171.71 393.016 1188.31 397.726 1208.79 397.726Z" fill="#231F20"/>
<path d="M1208.79 398.327C1187.65 398.327 1171.11 393.418 1171.11 387.205C1171.11 380.993 1187.65 376.083 1208.79 376.083C1229.93 376.083 1246.46 380.993 1246.46 387.205C1246.46 393.418 1229.93 398.327 1208.79 398.327ZM1208.79 377.285C1186.94 377.285 1172.32 382.396 1172.32 387.205C1172.32 392.015 1186.94 397.125 1208.79 397.125C1230.63 397.125 1245.26 392.015 1245.26 387.205C1245.26 382.396 1230.63 377.285 1208.79 377.285Z" fill="#231F20"/>
<path d="M1255.68 366.564V381.895C1255.68 387.706 1239.05 392.416 1218.61 392.416C1198.17 392.416 1181.53 387.706 1181.53 381.895V366.564H1255.68Z" fill="white"/>
<path d="M1218.61 393.117C1200.07 393.117 1180.83 388.909 1180.83 381.895V366.564C1180.83 366.163 1181.13 365.863 1181.53 365.863H1255.78C1256.18 365.863 1256.48 366.163 1256.48 366.564V381.895C1256.38 388.909 1237.14 393.117 1218.61 393.117ZM1182.13 367.265V381.895C1182.13 386.604 1196.76 391.714 1218.51 391.714C1240.25 391.714 1254.88 386.604 1254.88 381.895V367.265H1182.13Z" fill="#231F20"/>
<path d="M1218.61 377.085C1239.08 377.085 1255.68 372.375 1255.68 366.564C1255.68 360.753 1239.08 356.043 1218.61 356.043C1198.13 356.043 1181.53 360.753 1181.53 366.564C1181.53 372.375 1198.13 377.085 1218.61 377.085Z" fill="white"/>
<path d="M1218.61 377.786C1200.07 377.786 1180.83 373.578 1180.83 366.564C1180.83 359.55 1200.07 355.342 1218.61 355.342C1237.14 355.342 1256.38 359.55 1256.38 366.564C1256.38 373.578 1237.14 377.786 1218.61 377.786ZM1218.61 356.744C1196.86 356.744 1182.24 361.855 1182.24 366.564C1182.24 371.273 1196.86 376.384 1218.61 376.384C1240.35 376.384 1254.98 371.273 1254.98 366.564C1254.98 361.855 1240.35 356.744 1218.61 356.744Z" fill="#231F20"/>
<path d="M1218.61 373.678C1202.78 373.678 1186.74 371.273 1186.74 366.564C1186.74 361.855 1202.78 359.45 1218.61 359.45C1234.44 359.45 1250.47 361.855 1250.47 366.564C1250.47 371.273 1234.34 373.678 1218.61 373.678ZM1218.61 360.853C1199.77 360.853 1188.15 364.159 1188.15 366.564C1188.15 368.969 1199.67 372.275 1218.61 372.275C1237.55 372.275 1249.07 368.969 1249.07 366.564C1249.07 364.159 1237.45 360.853 1218.61 360.853Z" fill="#D1D3D4"/>
<path d="M1044.66 316.364C1044.66 316.364 1040.25 311.554 1039.95 309.851C1039.65 308.147 1039.35 302.135 1037.85 303.238C1036.34 304.34 1036.74 308.548 1036.74 308.548C1036.74 308.548 1030.73 301.334 1028.93 302.837C1027.13 304.34 1026.42 305.943 1026.32 309.049C1026.22 312.155 1041.35 325.482 1041.35 325.482" fill="white"/>
<path d="M1041.35 326.183C1041.15 326.183 1041.05 326.083 1040.85 325.983C1038.25 323.779 1025.42 312.356 1025.52 309.049C1025.62 305.743 1026.42 304.039 1028.43 302.336C1028.73 302.035 1029.23 301.935 1029.63 301.935C1031.43 302.035 1034.24 304.841 1035.94 306.644C1036.04 305.242 1036.34 303.438 1037.35 302.636C1037.65 302.336 1038.15 302.336 1038.55 302.436C1039.55 302.837 1039.95 304.741 1040.35 308.448C1040.45 308.949 1040.45 309.35 1040.55 309.65C1040.75 310.652 1043.26 313.859 1045.06 315.763C1045.36 316.063 1045.36 316.464 1045.06 316.765C1044.76 317.065 1044.36 317.065 1044.06 316.765C1043.26 315.963 1039.45 311.755 1039.15 309.851C1039.15 309.55 1039.05 309.049 1038.95 308.548C1038.85 307.446 1038.45 304.54 1038.05 303.739C1037.35 304.44 1037.25 306.845 1037.35 308.348C1037.35 308.648 1037.15 308.949 1036.95 309.049C1036.64 309.149 1036.34 309.049 1036.14 308.849C1034.34 306.745 1031.03 303.338 1029.53 303.238C1029.43 303.238 1029.43 303.238 1029.33 303.238C1027.63 304.741 1027.03 306.143 1026.93 308.949C1026.83 310.753 1034.44 318.368 1041.75 324.781C1042.06 325.081 1042.06 325.482 1041.86 325.783C1041.75 326.083 1041.55 326.183 1041.35 326.183Z" fill="#231F20"/>
<path d="M1036.34 315.362C1036.04 315.362 1035.84 315.161 1035.74 314.961C1034.74 312.757 1034.94 310.151 1036.24 308.147C1036.44 307.847 1036.85 307.747 1037.25 307.947C1037.55 308.147 1037.65 308.648 1037.45 308.949C1036.44 310.552 1036.24 312.656 1037.05 314.36C1037.25 314.66 1037.05 315.161 1036.74 315.262C1036.54 315.362 1036.44 315.362 1036.34 315.362Z" fill="#231F20"/>
<path d="M1116 455.942C1115.9 457.746 1115.9 459.55 1116 461.353C1116.2 462.055 1117.61 465.461 1117.41 466.463C1117.21 467.465 1105.78 485.702 1102.88 482.796C1099.97 479.89 1107.29 466.664 1107.29 465.261C1107.29 463.858 1106.38 455.842 1106.38 455.842L1116 455.942Z" fill="white"/>
<path d="M1103.58 483.898C1103.08 483.898 1102.68 483.698 1102.38 483.397C1100.17 481.193 1102.48 475.081 1105.38 468.468C1105.88 467.466 1106.28 466.363 1106.58 465.361C1106.58 464.359 1105.98 458.848 1105.68 456.043C1105.68 455.842 1105.68 455.642 1105.88 455.542C1105.98 455.441 1106.18 455.341 1106.38 455.341H1116C1116.4 455.341 1116.7 455.642 1116.7 456.043C1116.6 457.746 1116.6 459.449 1116.7 461.153C1116.7 461.253 1116.8 461.453 1116.9 461.654C1117.81 464.059 1118.31 465.762 1118.11 466.664C1117.81 467.966 1108.69 482.496 1104.28 483.798C1103.98 483.798 1103.78 483.898 1103.58 483.898ZM1107.09 456.744C1107.29 458.848 1107.89 464.259 1107.89 465.462C1107.89 465.963 1107.49 466.864 1106.48 469.169C1104.88 472.976 1101.47 480.792 1103.18 482.496C1103.28 482.496 1103.28 482.596 1103.68 482.596C1107.19 481.794 1116.2 467.666 1116.6 466.464C1116.7 466.063 1116.3 464.66 1115.4 462.255L1115.2 461.754C1115 460.151 1115 458.448 1115.1 456.844L1107.09 456.744Z" fill="#231F20"/>
<path d="M1090.65 457.245C1090.65 457.245 1090.15 464.86 1090.65 466.664C1091.15 468.467 1091.95 470.271 1091.65 471.373C1091.35 472.475 1077.43 484.8 1076.72 482.596C1076.02 480.391 1081.73 471.674 1081.83 470.071C1081.93 468.467 1080.03 456.544 1080.03 456.544L1090.65 457.245Z" fill="white"/>
<path d="M1077.13 483.397C1076.62 483.397 1076.22 483.097 1076.02 482.596C1075.52 481.093 1077.13 477.986 1079.33 473.778C1080.03 472.576 1080.63 471.173 1081.13 469.87C1081.23 468.768 1080.13 461.253 1079.33 456.443C1079.33 456.243 1079.33 456.043 1079.53 455.842C1079.63 455.642 1079.93 455.642 1080.13 455.642L1090.75 456.443C1091.15 456.443 1091.45 456.844 1091.35 457.145C1091.25 459.249 1090.95 464.96 1091.35 466.263C1091.45 466.764 1091.65 467.165 1091.75 467.666C1092.26 468.868 1092.46 470.071 1092.36 471.273C1092.16 472.676 1080.03 483.297 1077.13 483.397ZM1080.83 457.145C1081.33 460.051 1082.64 468.568 1082.54 469.97C1082.54 470.672 1081.83 471.974 1080.53 474.479C1079.23 476.984 1077.33 480.592 1077.33 481.994C1079.73 481.493 1090.35 472.275 1091.05 470.972C1090.95 469.97 1090.75 469.069 1090.45 468.167C1090.35 467.666 1090.15 467.165 1090.05 466.764C1089.65 465.261 1089.85 459.85 1089.95 457.846L1080.83 457.145Z" fill="#231F20"/>
<path d="M1182.34 321.474C1182.34 321.474 1186.94 316.865 1187.25 315.161C1187.55 313.458 1188.15 307.446 1189.55 308.548C1190.95 309.65 1190.45 313.959 1190.45 313.959C1190.45 313.959 1196.76 306.945 1198.47 308.548C1200.17 310.151 1200.87 311.755 1200.87 314.861C1200.87 317.967 1185.14 330.692 1185.14 330.692" fill="white"/>
<path d="M1185.24 331.394C1185.04 331.394 1184.84 331.294 1184.74 331.093C1184.54 330.793 1184.54 330.392 1184.84 330.091C1192.46 323.979 1200.27 316.564 1200.27 314.861C1200.27 312.055 1199.77 310.652 1198.07 309.049C1198.07 309.049 1198.07 309.049 1197.87 309.049C1196.36 309.149 1192.86 312.356 1191.05 314.46C1190.85 314.66 1190.55 314.761 1190.25 314.66C1189.95 314.56 1189.85 314.26 1189.85 313.959C1190.05 312.456 1189.95 310.051 1189.35 309.35C1188.85 310.151 1188.45 312.957 1188.25 314.159C1188.15 314.66 1188.15 315.161 1188.05 315.462C1187.65 317.266 1183.74 321.374 1182.94 322.175C1182.64 322.476 1182.24 322.476 1181.93 322.175C1181.63 321.875 1181.63 321.474 1181.93 321.173C1183.84 319.27 1186.44 316.264 1186.74 315.262C1186.84 314.961 1186.84 314.56 1186.94 314.059C1187.55 310.352 1187.95 308.448 1189.05 308.047C1189.45 307.847 1189.95 307.947 1190.25 308.248C1191.25 309.049 1191.55 310.853 1191.55 312.356C1193.26 310.552 1196.16 307.947 1198.07 307.947C1198.57 307.947 1198.97 308.047 1199.27 308.348C1201.17 310.151 1201.87 311.955 1201.87 315.161C1201.87 318.368 1188.55 329.39 1185.84 331.494C1185.54 331.294 1185.44 331.394 1185.24 331.394Z" fill="#231F20"/>
<path d="M1097.47 370.472L1142.26 372.877C1142.26 372.877 1144.96 385.201 1137.35 391.313C1129.73 397.426 1114.2 403.738 1113.3 408.147C1112.4 412.556 1117.91 451.233 1117.31 460.351L1103.48 463.658C1103.48 463.658 1091.55 417.466 1091.85 409.85C1092.16 402.235 1096.16 398.628 1096.16 398.628C1096.16 398.628 1085.14 408.047 1084.84 410.151C1084.54 412.255 1092.76 461.253 1092.76 461.253C1092.76 461.253 1078.23 461.854 1077.93 460.952C1077.63 460.051 1064.2 414.76 1067.51 405.041C1070.81 395.321 1097.47 370.472 1097.47 370.472Z" fill="#231F20"/>
<path d="M1103.58 464.259C1103.28 464.259 1103.08 464.059 1102.98 463.758C1102.48 461.854 1091.05 417.466 1091.35 409.75C1091.45 407.145 1092.06 404.54 1093.06 402.135C1089.05 405.742 1085.64 409.249 1085.54 410.151C1085.34 411.854 1090.15 441.514 1093.46 461.053C1093.56 461.353 1093.26 461.754 1092.96 461.754C1092.96 461.754 1092.96 461.754 1092.86 461.754C1077.83 462.355 1077.53 461.454 1077.43 460.953C1077.33 460.452 1063.5 414.76 1067.01 404.64C1070.41 394.82 1095.96 370.973 1097.07 369.971C1097.17 369.871 1097.37 369.771 1097.47 369.771L1142.26 372.175C1142.56 372.175 1142.76 372.376 1142.86 372.676C1142.96 373.177 1145.56 385.402 1137.75 391.714C1134.04 394.42 1130.23 396.824 1126.22 399.029C1120.41 402.335 1114.4 405.842 1113.9 408.247C1113.5 410.352 1114.6 420.973 1115.7 431.293C1117 443.217 1118.31 455.642 1117.91 460.351C1117.91 460.652 1117.71 460.852 1117.41 460.953L1103.58 464.259ZM1096.26 397.927C1096.46 397.927 1096.56 398.027 1096.76 398.127C1096.97 398.327 1096.97 398.728 1096.76 399.029C1096.76 399.029 1092.96 402.636 1092.66 409.851C1092.36 416.865 1102.68 457.445 1104.08 462.856L1116.8 459.85C1117.01 454.84 1115.7 442.416 1114.5 431.394C1113.3 419.971 1112.3 410.151 1112.7 407.947C1113.3 404.941 1119.01 401.734 1125.62 397.927C1129.63 395.822 1133.34 393.418 1137.04 390.712C1143.46 385.602 1142.16 375.682 1141.75 373.378L1097.67 371.073C1095.26 373.277 1071.21 396.023 1068.11 405.141C1064.9 414.46 1077.53 457.245 1078.43 460.452C1079.63 460.852 1086.04 460.852 1092.06 460.552C1090.85 453.037 1084.04 412.055 1084.24 409.951C1084.54 407.746 1093.86 399.63 1095.76 398.027C1095.96 398.027 1096.16 398.027 1096.26 397.927Z" fill="#231F20"/>
<path d="M1144.36 373.879C1144.36 373.879 1141.65 354.44 1139.15 344.42C1139.15 344.42 1146.56 357.446 1155.48 358.147C1164.4 358.849 1190.65 328.588 1190.65 328.588L1183.34 318.167C1183.34 318.167 1164.9 332.596 1154.38 337.306C1151.67 330.893 1135.34 307.847 1125.92 303.238C1116.5 298.628 1104.58 302.236 1098.17 307.546C1095.06 310.151 1087.05 314.761 1073.02 327.686C1062.9 324.079 1053.38 319.169 1044.56 312.957L1037.25 323.077C1037.25 323.077 1066.7 350.332 1074.82 346.223L1093.56 336.805L1092.56 373.478L1144.36 373.879Z" fill="#68E1FD"/>
<path d="M1106.28 273.578C1106.28 273.578 1098.67 295.322 1095.26 299.831L1115 307.246L1118.71 272.176L1106.28 273.578Z" fill="white"/>
<path d="M1115 308.047C1114.9 308.047 1114.8 308.047 1114.8 308.047L1095.06 300.632C1094.66 300.532 1094.46 300.131 1094.66 299.731C1094.66 299.63 1094.76 299.63 1094.76 299.53C1098.07 295.121 1105.58 273.578 1105.68 273.378C1105.78 273.077 1105.98 272.977 1106.28 272.877L1118.71 271.474C1118.91 271.474 1119.11 271.574 1119.31 271.675C1119.41 271.875 1119.51 272.075 1119.51 272.276L1115.8 307.346C1115.8 307.546 1115.7 307.747 1115.5 307.847C1115.2 307.947 1115.1 308.047 1115 308.047ZM1096.36 299.63L1114.4 306.444L1117.91 273.077L1106.78 274.38C1105.68 277.286 1099.67 294.22 1096.36 299.63Z" fill="#231F20"/>
<path d="M1110.09 300.332L1107.89 310.051C1107.89 310.051 1106.68 316.163 1113.2 315.562C1117.11 315.161 1120.61 313.057 1122.72 309.851L1125.32 292.216C1125.42 291.414 1126.52 284.2 1127.83 277.787C1120.41 276.284 1113.8 274.38 1113.8 274.38C1114.4 275.282 1111.69 274.881 1111.69 274.881C1110.49 274.681 1109.29 274.58 1108.09 274.781C1106.88 278.989 1104.78 283.498 1104.08 287.807C1103.58 290.412 1103.38 293.017 1103.38 295.622C1103.48 300.332 1110.09 300.232 1110.09 300.332Z" fill="white"/>
<path d="M1112.4 316.163C1110.89 316.264 1109.39 315.763 1108.39 314.66C1106.68 312.757 1107.29 309.951 1107.29 309.851L1109.39 300.833C1106.78 300.632 1102.98 299.33 1102.88 295.322C1102.88 292.717 1103.08 290.011 1103.58 287.406C1104.18 284.5 1104.98 281.695 1106.08 278.889C1106.58 277.386 1107.19 275.783 1107.59 274.28C1107.69 274.079 1107.89 273.879 1108.09 273.879C1109.39 273.679 1110.69 273.779 1111.89 273.979C1112.4 274.079 1112.8 274.079 1113.3 274.079C1113.3 273.979 1113.4 273.879 1113.4 273.779C1113.5 273.578 1113.8 273.478 1114.1 273.578C1114.2 273.578 1120.71 275.482 1128.13 276.985C1128.33 276.985 1128.43 277.085 1128.53 277.286C1128.63 277.386 1128.63 277.586 1128.63 277.787C1127.43 283.298 1126.52 289.61 1126.12 292.115C1126.12 292.216 1125.22 298.127 1123.52 309.951C1123.52 310.051 1123.52 310.151 1123.42 310.151C1121.11 313.558 1117.51 315.763 1113.4 316.163C1113 316.163 1112.7 316.163 1112.4 316.163ZM1108.49 310.151C1108.29 311.454 1108.59 312.757 1109.29 313.859C1110.09 314.761 1111.29 315.061 1113.1 314.961C1116.7 314.56 1120.01 312.656 1122.12 309.65C1122.32 308.047 1124.72 292.316 1124.72 292.115C1125.12 289.61 1126.02 283.699 1127.13 278.188C1121.31 276.985 1116.1 275.582 1114.3 275.081C1114.1 275.282 1113.5 275.683 1111.59 275.382C1110.59 275.182 1109.59 275.081 1108.49 275.182C1108.09 276.584 1107.59 277.987 1107.09 279.39C1106.08 282.095 1105.18 284.901 1104.68 287.707C1104.18 290.212 1103.98 292.817 1103.98 295.322C1104.08 299.63 1109.69 299.53 1109.99 299.63C1110.19 299.63 1110.39 299.731 1110.49 299.831C1110.59 300.031 1110.69 300.232 1110.59 300.332L1108.49 310.151Z" fill="#231F20"/>
<path d="M1113.8 285.202C1113.8 285.202 1109.59 289.41 1110.19 290.412C1110.79 291.414 1113.1 291.214 1113.1 291.214" fill="white"/>
<path d="M1112.7 292.015C1111.89 292.015 1110.19 291.915 1109.59 290.813C1108.99 289.711 1110.19 287.807 1113.2 284.701C1113.5 284.4 1113.9 284.4 1114.2 284.701C1114.5 285.001 1114.5 285.402 1114.2 285.703C1112.4 287.606 1110.79 289.711 1110.79 290.212C1111.49 290.512 1112.2 290.713 1113 290.612C1113.4 290.612 1113.7 290.913 1113.7 291.314C1113.7 291.614 1113.4 291.915 1113.1 292.015H1112.7Z" fill="#231F20"/>
<path d="M1110.72 283.514C1110.86 282.92 1110.7 282.379 1110.38 282.305C1110.06 282.23 1109.68 282.651 1109.55 283.244C1109.41 283.838 1109.56 284.379 1109.89 284.453C1110.21 284.528 1110.58 284.107 1110.72 283.514Z" fill="#231F20"/>
<path d="M1118.62 285.78C1118.75 285.186 1118.6 284.645 1118.28 284.571C1117.95 284.497 1117.58 284.917 1117.44 285.511C1117.31 286.104 1117.46 286.645 1117.78 286.719C1118.11 286.794 1118.48 286.373 1118.62 285.78Z" fill="#231F20"/>
<path d="M1111.89 280.893L1112.9 278.889L1113.7 281.294L1119.91 283.198L1121.61 280.592L1121.41 284.099L1124.72 284.4C1124.72 284.4 1118.51 299.931 1118.71 309.55C1118.71 309.55 1137.35 314.66 1142.16 311.354C1142.16 311.354 1136.84 292.316 1137.15 284.701C1137.45 277.085 1136.94 270.572 1127.93 267.065C1118.91 263.558 1112.3 264.661 1107.59 268.769C1104.68 271.374 1103.08 275.081 1102.98 278.889C1103.08 278.889 1110.09 280.793 1111.89 280.893Z" fill="white"/>
<path d="M1136.74 313.057C1129.43 313.057 1119.31 310.252 1118.71 310.151C1118.41 310.051 1118.21 309.851 1118.21 309.45C1118.01 301.033 1122.62 288.308 1123.92 284.901L1121.51 284.701C1121.11 284.701 1120.91 284.3 1120.91 283.999V282.997L1120.61 283.498C1120.41 283.799 1120.11 283.899 1119.81 283.799L1113.5 281.995C1113.3 281.895 1113.1 281.795 1113 281.494L1112.8 280.693L1112.5 281.194C1112.4 281.494 1112.1 281.594 1111.79 281.594C1109.89 281.394 1103.08 279.59 1102.78 279.49C1102.48 279.39 1102.28 279.089 1102.28 278.789C1102.38 274.681 1104.08 270.873 1107.09 268.067C1112.4 263.458 1119.41 262.857 1128.13 266.164C1137.55 269.771 1138.05 276.584 1137.85 284.5C1137.65 291.915 1142.86 310.753 1142.86 310.953C1142.96 311.254 1142.86 311.554 1142.56 311.755C1141.25 312.656 1139.05 312.957 1136.54 312.957L1136.74 313.057ZM1119.61 308.949C1124.92 310.352 1137.45 313.057 1141.55 310.953C1140.65 307.747 1136.44 291.614 1136.64 284.6C1136.84 276.985 1136.34 270.973 1127.83 267.667C1119.51 264.46 1113.1 264.961 1108.19 269.27C1105.58 271.574 1104.08 274.881 1103.88 278.388C1105.38 278.789 1109.69 279.891 1111.59 280.192L1112.4 278.588C1112.5 278.288 1112.8 278.188 1113.1 278.188C1113.4 278.188 1113.6 278.388 1113.7 278.689L1114.3 280.693L1119.71 282.296L1121.11 280.091C1121.31 279.791 1121.81 279.691 1122.12 279.891C1122.32 279.991 1122.42 280.292 1122.42 280.492L1122.32 283.298L1124.92 283.598C1125.12 283.598 1125.32 283.699 1125.42 283.899C1125.52 284.099 1125.52 284.3 1125.42 284.5C1125.42 284.801 1119.61 299.53 1119.61 308.949Z" fill="#231F20"/>
<path d="M1106.78 292.316C1106.78 292.316 1111.59 298.027 1116.2 292.015L1106.78 292.316Z" fill="white"/>
<path d="M1111.59 295.422C1108.59 295.422 1106.38 292.817 1106.28 292.717C1106.08 292.416 1106.18 291.915 1106.48 291.715C1106.78 291.514 1107.09 291.614 1107.39 291.815C1107.39 291.815 1109.29 294.019 1111.59 294.019H1111.69C1113.1 294.019 1114.5 293.117 1115.7 291.514C1115.9 291.214 1116.4 291.113 1116.7 291.314C1117.01 291.514 1117.11 292.015 1116.9 292.316C1116.9 292.316 1116.9 292.416 1116.8 292.416C1115.2 294.42 1113.5 295.422 1111.59 295.422Z" fill="#231F20"/>
<path d="M1110.09 300.332C1110.09 300.332 1115.3 300.232 1117.51 298.829C1117.51 298.829 1114.3 305.642 1108.39 307.747L1110.09 300.332Z" fill="#231F20"/>
<path d="M1108.39 308.448C1108.19 308.448 1108.09 308.348 1107.89 308.248C1107.69 308.047 1107.59 307.847 1107.69 307.546L1109.39 300.131C1109.49 299.831 1109.69 299.63 1110.09 299.63C1110.09 299.63 1115.1 299.53 1117.21 298.228C1117.51 298.027 1117.81 298.127 1118.01 298.328C1118.21 298.528 1118.31 298.829 1118.21 299.129C1118.11 299.43 1114.8 306.244 1108.69 308.448C1108.59 308.448 1108.49 308.448 1108.39 308.448ZM1110.69 301.033L1109.39 306.644C1112.1 305.141 1114.3 302.937 1115.9 300.232C1114.2 300.632 1112.4 300.933 1110.69 301.033Z" fill="#231F20"/>
<path d="M1190.75 320.773C1190.35 320.773 1190.05 320.472 1190.05 320.071C1190.05 319.971 1190.05 319.871 1190.15 319.771C1191.05 318.067 1190.95 316.063 1190.05 314.36C1189.85 314.059 1189.95 313.558 1190.25 313.358C1190.55 313.157 1191.05 313.258 1191.25 313.558C1192.46 315.662 1192.56 318.167 1191.45 320.372C1191.25 320.572 1191.05 320.773 1190.75 320.773Z" fill="#231F20"/>
<path d="M1141.85 348.127C1141.85 348.127 1133.54 337.406 1128.13 330.692L1141.85 348.127Z" fill="white"/>
<path d="M1141.85 348.829C1141.65 348.829 1141.45 348.728 1141.35 348.528C1141.25 348.428 1132.94 337.706 1127.63 331.093C1127.43 330.793 1127.43 330.392 1127.73 330.091C1128.03 329.891 1128.43 329.891 1128.73 330.191C1134.04 336.805 1142.46 347.526 1142.56 347.626C1142.76 347.927 1142.76 348.328 1142.46 348.628C1142.26 348.728 1142.06 348.728 1141.85 348.829Z" fill="#231F20"/>
<path d="M1092.76 369.67C1092.36 369.67 1092.06 369.37 1092.06 368.969L1093.16 324.28C1093.16 323.879 1093.46 323.578 1093.86 323.578C1094.26 323.578 1094.56 323.879 1094.56 324.28L1093.36 368.969C1093.46 369.37 1093.16 369.67 1092.76 369.67Z" fill="#231F20"/>
<path d="M1177.23 267.867C1204.34 267.867 1226.32 245.885 1226.32 218.769C1226.32 191.653 1204.34 169.671 1177.23 169.671C1150.11 169.671 1128.13 191.653 1128.13 218.769C1128.13 245.885 1150.11 267.867 1177.23 267.867Z" fill="#68E1FD"/>
<path d="M1194.16 204.14L1200.07 197.026C1197.87 194.621 1195.26 192.617 1192.15 191.314C1185.24 188.308 1178.33 188.909 1171.61 192.216C1164.9 195.523 1161.09 201.234 1158.89 208.248C1158.19 210.452 1158.19 210.452 1155.78 210.553H1149.17V217.166H1157.39V220.573H1149.17V227.186H1158.19C1160.99 238.208 1167 245.923 1178.73 247.827C1187.65 249.23 1195.16 246.625 1201.17 239.611L1195.36 232.697C1192.76 235.402 1189.85 237.707 1186.14 238.408C1182.44 239.21 1178.63 238.408 1175.62 236.304C1172.52 234.1 1170.81 230.893 1169.71 227.186H1190.65V220.573H1168.61V217.166H1190.65V210.553H1169.61C1171.21 205.543 1173.92 201.635 1178.93 199.931C1184.84 197.827 1189.85 199.631 1194.16 204.14Z" fill="white"/>
<path d="M1177.23 260.953C1153.88 260.953 1135.04 242.015 1135.04 218.769C1135.04 195.523 1153.98 176.585 1177.23 176.585C1200.47 176.585 1219.41 195.523 1219.41 218.769C1219.51 242.015 1200.57 260.953 1177.23 260.953ZM1177.23 177.887C1154.68 177.887 1136.44 196.124 1136.44 218.669C1136.44 241.214 1154.68 259.45 1177.23 259.45C1199.77 259.45 1218.01 241.214 1218.01 218.669C1218.11 196.224 1199.77 177.988 1177.23 177.887Z" fill="white"/>
<path d="M1051.77 267.867C1078.89 267.867 1100.87 245.885 1100.87 218.769C1100.87 191.653 1078.89 169.671 1051.77 169.671C1024.66 169.671 1002.68 191.653 1002.68 218.769C1002.68 245.885 1024.66 267.867 1051.77 267.867Z" fill="#68E1FD"/>
<path d="M1046.86 234.4C1048.87 230.693 1049.17 226.284 1047.87 222.276H1055.68V215.763C1052.58 215.763 1049.67 215.663 1046.66 215.863C1045.46 216.064 1044.26 215.262 1043.86 214.16C1041.45 209.05 1042.06 203.939 1045.86 200.132C1049.67 196.324 1055.68 195.523 1059.69 200.533C1060.99 202.336 1062.2 204.24 1063.3 206.144C1063.7 206.745 1063.9 207.346 1064.3 208.048L1072.72 204.34C1071.61 202.336 1070.61 200.432 1069.51 198.629C1067.51 195.122 1064.6 192.216 1061.09 190.312C1054.18 186.805 1047.47 187.707 1041.45 192.216C1035.24 196.925 1032.54 203.238 1033.54 211.054C1033.74 212.657 1034.24 214.16 1034.54 215.863H1028.53V222.376H1037.15C1037.45 222.376 1038.05 222.476 1038.05 222.677C1038.95 224.48 1039.85 226.284 1039.35 228.288C1038.15 233.098 1034.74 237.005 1030.23 238.809C1030.03 238.909 1029.83 239.009 1029.63 239.11C1030.63 241.915 1031.63 244.52 1032.74 247.226C1033.24 247.025 1033.64 246.925 1033.94 246.725C1035.54 246.023 1037.05 245.122 1038.65 244.52C1042.56 242.917 1046.56 242.416 1050.57 244.22C1051.57 244.621 1052.58 245.122 1053.68 245.522C1059.79 248.128 1065.2 246.224 1070.41 243.017L1066.5 234.5C1065.8 234.901 1065.3 235.302 1064.7 235.603C1062.1 237.005 1059.39 238.007 1056.48 237.005C1053.38 236.003 1050.47 234.601 1046.86 234.4Z" fill="white"/>
<path d="M1051.77 260.953C1028.43 260.953 1009.59 242.015 1009.59 218.769C1009.59 195.523 1028.53 176.585 1051.77 176.585C1075.02 176.585 1093.96 195.523 1093.96 218.769C1093.96 242.015 1075.02 260.953 1051.77 260.953ZM1051.77 177.887C1029.23 177.887 1010.99 196.124 1010.99 218.669C1010.99 241.214 1029.23 259.45 1051.77 259.45C1074.32 259.45 1092.56 241.214 1092.56 218.669C1092.56 196.224 1074.32 177.988 1051.77 177.887Z" fill="white"/>
<path d="M962.296 346.223C989.412 346.223 1011.39 324.242 1011.39 297.125C1011.39 270.009 989.412 248.027 962.296 248.027C935.18 248.027 913.198 270.009 913.198 297.125C913.198 324.242 935.18 346.223 962.296 346.223Z" fill="#68E1FD"/>
<path d="M974.521 296.725C972.316 295.522 970.012 294.42 967.707 293.418C967.206 293.318 966.905 292.817 967.006 292.316C967.006 288.308 967.006 284.3 967.006 280.192C967.006 279.991 967.006 279.891 967.106 279.691C970.012 280.592 972.717 282.296 974.721 284.6C976.725 282.296 978.529 280.091 980.432 277.987C977.126 274.28 972.717 271.675 967.907 270.673C967.206 270.572 967.006 270.272 967.006 269.57C967.006 268.168 967.006 266.665 967.006 265.162H959.691V270.172C957.787 270.773 955.883 271.374 953.98 272.176C948.769 274.781 945.563 278.689 945.262 284.701C945.062 290.512 947.867 294.721 952.677 297.526C954.681 298.628 956.785 299.53 958.889 300.432C959.39 300.532 959.691 301.033 959.591 301.534C959.591 304.841 959.591 308.147 959.591 311.554V315.863C955.783 315.061 952.276 313.258 949.471 310.452L943.158 317.366C947.567 321.775 953.378 324.48 959.491 325.081V329.29H966.905V324.68C967.306 324.58 967.607 324.48 967.907 324.38C970.112 323.879 972.216 322.977 974.22 321.775C983.539 316.063 984.04 302.436 974.521 296.725ZM959.491 289.711C957.086 289.109 955.282 287.005 955.182 284.5C955.282 281.995 957.086 279.991 959.591 279.691L959.491 289.711ZM967.006 315.161C967.006 314.961 966.905 314.761 966.905 314.56V304.139C969.511 304.741 971.314 307.045 971.314 309.751C971.414 312.356 969.611 314.56 967.006 315.161Z" fill="white"/>
<path d="M962.296 339.41C938.95 339.41 920.112 320.472 920.112 297.125C920.112 273.779 939.05 254.941 962.296 254.941C985.543 254.941 1004.48 273.879 1004.48 297.125C1004.48 320.472 985.643 339.31 962.296 339.41ZM962.296 256.344C939.751 256.344 921.515 274.58 921.515 297.125C921.515 319.67 939.751 337.907 962.296 337.907C984.841 337.907 1003.08 319.67 1003.08 297.125C1003.08 274.58 984.841 256.344 962.296 256.344Z" fill="white"/>
<path d="M1266.7 346.223C1293.82 346.223 1315.8 324.242 1315.8 297.125C1315.8 270.009 1293.82 248.027 1266.7 248.027C1239.59 248.027 1217.61 270.009 1217.61 297.125C1217.61 324.242 1239.59 346.223 1266.7 346.223Z" fill="#68E1FD"/>
<path d="M1288.95 271.875C1284.14 280.793 1279.43 289.51 1274.62 298.428H1286.44V304.741H1272.82V307.847H1286.34V314.159H1272.82V328.989H1260.69V314.26H1247.06V307.947H1260.59V304.741H1247.06V298.528H1258.79C1253.98 289.61 1249.27 280.793 1244.46 271.875H1250.27C1252.38 271.875 1254.58 271.875 1256.68 271.875C1257.18 271.775 1257.69 272.075 1257.79 272.576C1260.59 279.089 1263.4 285.602 1266.3 292.115C1266.4 292.416 1266.5 292.616 1266.8 293.017C1267 292.516 1267.2 292.216 1267.41 291.915C1270.31 285.502 1273.12 279.089 1276.02 272.677C1276.12 272.376 1276.62 271.875 1276.92 271.875C1280.73 271.875 1284.74 271.875 1288.95 271.875Z" fill="white"/>
<path d="M1266.7 339.41C1243.36 339.41 1224.52 320.572 1224.42 297.226C1224.32 273.879 1243.26 255.041 1266.6 254.941C1289.95 254.841 1308.79 273.779 1308.89 297.125C1308.89 320.472 1289.95 339.31 1266.7 339.41ZM1266.7 256.344C1244.16 256.344 1225.92 274.58 1225.92 297.125C1225.92 319.67 1244.16 337.907 1266.7 337.907C1289.25 337.907 1307.49 319.67 1307.49 297.125C1307.49 274.58 1289.25 256.344 1266.7 256.344Z" fill="white"/>
</g>
<defs>
<filter id="filter0_d_1_380" x="135.909" y="238.205" width="426.102" height="146.886" filterUnits="userSpaceOnUse" color-interpolation-filters="sRGB">
<feFlood flood-opacity="0" result="BackgroundImageFix"/>
<feColorMatrix in="SourceAlpha" type="matrix" values="0 0 0 0 0 0 0 0 0 0 0 0 0 0 0 0 0 0 127 0" result="hardAlpha"/>
<feOffset dy="4"/>
<feGaussianBlur stdDeviation="2"/>
<feComposite in2="hardAlpha" operator="out"/>
<feColorMatrix type="matrix" values="0 0 0 0 0 0 0 0 0 0 0 0 0 0 0 0 0 0 0.25 0"/>
<feBlend mode="normal" in2="BackgroundImageFix" result="effect1_dropShadow_1_380"/>
<feBlend mode="normal" in="SourceGraphic" in2="effect1_dropShadow_1_380" result="shape"/>
</filter>
<linearGradient id="paint0_linear_1_380" x1="1500.5" y1="179" x2="1065" y2="179" gradientUnits="userSpaceOnUse">
<stop stop-color="#A9AFF3" stop-opacity="0.83"/>
<stop offset="1" stop-color="#63777C" stop-opacity="0"/>
</linearGradient>
<clipPath id="clip0_1_380">
<rect width="1500" height="670" fill="white"/>
</clipPath>
</defs>
</svg>
